<svg width="1920" height="851" viewBox="0 0 1920 851" fill="none" xmlns="http://www.w3.org/2000/svg">
<rect x="1.48438" y="5" width="1919.52" height="844" fill="url(#paint0_linear_2043_4581)"/>
<path d="M0 850.453C4.98198 850.207 9.94924 849.962 14.902 849.719H1883.77C1888.74 849.962 1893.74 850.207 1898.75 850.453V849.719H1883.77C1156.55 814.191 742.135 813.997 14.902 849.719H0V850.453Z" fill="white"/>
<path d="M0 0C4.98198 0.246611 9.94924 0.491556 14.902 0.734835H1883.77C1888.74 0.491547 1893.74 0.246602 1898.75 0V0.734835H1883.77C1156.55 36.2624 742.135 36.4565 14.902 0.734835H0V0Z" fill="white"/>
<path opacity="0.05" d="M700.234 818.452C707.542 818.452 713.467 812.531 713.467 805.226C713.467 797.921 707.542 792 700.234 792C692.925 792 687 797.921 687 805.226C687 812.531 692.925 818.452 700.234 818.452Z" fill="#603c99"/>
<path opacity="0.05" d="M157.482 95.9148C175.184 95.9148 189.535 81.5726 189.535 63.8806C189.535 46.1886 175.184 31.8464 157.482 31.8464C139.78 31.8464 125.43 46.1886 125.43 63.8806C125.43 81.5726 139.78 95.9148 157.482 95.9148Z" fill="#603c99"/>
<path opacity="0.05" d="M1677.79 125.915C1695.49 125.915 1709.84 111.573 1709.84 93.8806C1709.84 76.1886 1695.49 61.8464 1677.79 61.8464C1660.09 61.8464 1645.74 76.1886 1645.74 93.8806C1645.74 111.573 1660.09 125.915 1677.79 125.915Z" fill="#603c99"/>
<path opacity="0.05" d="M1077.05 716.347C1094.75 716.347 1109.1 702.004 1109.1 684.312C1109.1 666.621 1094.75 652.278 1077.05 652.278C1059.35 652.278 1045 666.621 1045 684.312C1045 702.004 1059.35 716.347 1077.05 716.347Z" fill="#603c99"/>
<path opacity="0.05" d="M298.052 716.347C315.755 716.347 330.105 702.004 330.105 684.312C330.105 666.621 315.755 652.278 298.052 652.278C280.35 652.278 266 666.621 266 684.312C266 702.004 280.35 716.347 298.052 716.347Z" fill="#603c99"/>
<path opacity="0.05" d="M110.499 256.911C133.037 256.911 151.307 238.651 151.307 216.127C151.307 193.602 133.037 175.342 110.499 175.342C87.9616 175.342 69.6914 193.602 69.6914 216.127C69.6914 238.651 87.9616 256.911 110.499 256.911Z" fill="#603c99"/>
<path opacity="0.05" d="M1844.81 256.911C1867.35 256.911 1885.62 238.651 1885.62 216.127C1885.62 193.602 1867.35 175.342 1844.81 175.342C1822.27 175.342 1804 193.602 1804 216.127C1804 238.651 1822.27 256.911 1844.81 256.911Z" fill="#603c99"/>
<defs>
<linearGradient id="paint0_linear_2043_4581" x1="1.48438" y1="427" x2="1921" y2="427" gradientUnits="userSpaceOnUse">
<stop stop-color="#603c99"/>
<stop offset="1" stop-color="#603c99"/>
</linearGradient>
</defs>
</svg>