<svg xmlns="http://www.w3.org/2000/svg" id="Layer_2" data-name="Layer 2" viewBox="0 0 67.42 46.49"><defs><style>      .cls-1 {        fill-rule: evenodd;      }      .cls-1, .cls-2 {        fill: #f2f2f3;      }    </style></defs><g id="Layer_1-2" data-name="Layer 1"><g><g><path class="cls-1" d="M9.62,26.73c2.77,0,4.91,2.47,4.91,5.21v.83h-4.13v-.83c0-.58-.5-1.08-1.08-1.08h-4.05c-.61,0-1.14.5-1.14,1.08v2.97c0,.22.06.36.11.39.03.03.08.03.19.03.06,0,.17,0,.25-.03l3.63-.86s.64-.14.97-.14c2.77,0,5.24,2.3,5.24,5.18v1.77c0,2.91-2.38,5.24-5.24,5.24h-4.05C2.33,46.49,0,44.17,0,41.26v-.17h4.13v.17c0,.61.53,1.14,1.11,1.14h4.05c.58,0,1.11-.53,1.11-1.14v-1.77c0-.58-.42-.97-.94-1.11-.17-.03-3.83.94-3.83.94-.39.11-.78.14-1.17.14-1.03,0-1.97-.33-2.75-.94C.67,37.65,0,36.38,0,34.91v-2.94C0,29.09,2.36,26.73,5.27,26.73h4.35Z"></path><path class="cls-1" d="M22.73,30.81c-.62,0-1.12.5-1.12,1.11v4.25l6.1-1.61v4.25l-6.1,1.58v.86c0,.58.5,1.11,1.12,1.11h6.91v4.13h-6.91c-2.94,0-5.29-2.33-5.29-5.25v-9.33c0-2.86,2.32-5.19,5.29-5.19h6.89v4.08h-6.89Z"></path><rect class="cls-2" x="32.55" y="26.73" width="4.07" height="19.76"></rect><path class="cls-1" d="M48.38,26.73c1.58,0,2.88.72,3.57,1.89.28.42.36.97.36,1.53,0,.8-.19,1.69-.8,2.5l-7.31,9.71h7.83v4.13h-8.58c-1.66,0-2.91-.69-3.57-1.83-.25-.47-.36-1.03-.36-1.55,0-.8.25-1.66.77-2.44l.08-.11,7.33-9.69h-8v-4.13h8.66Z"></path><path class="cls-1" d="M60.5,30.81c-.62,0-1.12.5-1.12,1.11v4.25l6.1-1.61v4.25l-6.1,1.58v.86c0,.58.5,1.11,1.12,1.11h6.91v4.13h-6.91c-2.94,0-5.29-2.33-5.29-5.25v-9.33c0-2.86,2.32-5.19,5.29-5.19h6.89v4.08h-6.89Z"></path></g><g><polygon class="cls-2" points="18.02 7.85 18.02 11.04 22.08 11.04 22.08 4.65 18.02 4.65 18.02 7.85"></polygon><rect class="cls-2" x="62.77" y="12.2" width="4.65" height="5.81"></rect><rect class="cls-2" x="54.05" y="7.56" width="4.07" height="6.39"></rect><rect class="cls-2" x="44.75" y="4.65" width="4.65" height="6.39"></rect><rect class="cls-2" x="26.73" width="4.65" height="5.81"></rect><rect class="cls-2" x="8.72" y="7.56" width="4.65" height="6.39"></rect><rect class="cls-2" y="12.2" width="4.07" height="5.81"></rect><rect class="cls-2" x="36.03" width="4.07" height="5.81"></rect></g></g></g></svg>