<?xml version="1.0" encoding="UTF-8"?>
<svg id="Wrth_Lockups" data-name="Wrth Lockups" xmlns="http://www.w3.org/2000/svg" viewBox="0 0 1548 2087.32">
  <defs>
    <style>
      .cls-1 {
        fill: #e5e1da;
      }
    </style>
  </defs>
  <g id="Wrth-Vertical_Lockup" data-name="Wrth-Vertical Lockup">
    <path id="Wrth-Wordmark" class="cls-1" d="M196.22,1401.1l15.13-15.65,16.17,15.65-16.17,16.17-15.13-16.17ZM228.05,1401.1l15.65,16.17,15.65-16.17-15.65-15.65-15.65,15.65ZM466.46,1558.65l15.65,16.17,16.17-16.17-16.17-15.65-15.65,15.65ZM499.33,1558.65l15.65,16.17,15.13-16.17-15.13-15.65-15.65,15.65ZM257.78,1558.65l15.65,16.17,15.65-16.17-15.65-15.65-15.65,15.65ZM196.22,1491.88c0-28.17,16.69-33.39,53.73-50.6v-7.3l9.39-12h2.09v56.34c0,18.78,13.56,22.95,26.08,22.95,11.48,0,22.43-2.61,26.08-4.17-3.65-8.87-8.87-19.3-15.65-33.39l11.48-20.87h2.09c5.22,15.65,7.3,31.3,7.3,46.43,0,25.56-10.96,39.65-33.39,39.65s-34.95-13.56-35.48-36.52v-4.17l-10.43,19.3c-14.09,7.83-43.3,3.65-43.3-15.65ZM203,1479.36c0,4.7,33.39,9.39,46.95,2.09v-24c-12.52,4.7-46.95,15.13-46.95,21.91ZM362.64,1529.44c-28.17,0-31.82-22.95-25.04-47.47h4.17c0,15.13,2.09,21.39,22.95,21.39,12.52,0,28.17-3.65,36.52-8.87l-20.87-46.43,10.43-21.39h2.09s20.87,48,26.08,60.52c5.22,12.52,11.48,14.09,35.48,14.09h27.65c20.35,0,26.61-6.78,30.26-22.95,1.04-3.65,2.61-15.65,2.61-15.65l9.39,1.04s-3.13,17.74-3.65,24.52c3.65,10.43,10.96,13.04,26.08,13.04,16.69,0,21.91-6.26,24.52-12l-3.13-73.04,16.69-30.78h2.61l-3.65,100.17c0,13.56,10.43,15.65,22.43,15.65h24c-3.65-4.17-7.3-13.04-7.3-22.95,0-17.74,12-42.78,33.91-42.78,17.74,0,27.65,16.69,27.65,34.43,0,14.61-7.3,27.13-10.43,30.78,5.22.52,15.65.52,22.95.52,19.82,0,26.08-6.26,28.17-22.95l2.09-15.65,9.39,1.04-3.65,24.52c3.65,11.48,14.61,13.04,24.52,13.04,10.96,0,20.35-4.17,23.48-6.78l-3.13-67.82-5.22-5.22c-6.26-6.78-6.26-13.56-2.09-20.87l13.56-19.3,2.61,2.61-5.22,8.35,23.48,19.3-13.56,16.17-1.04,60.52c-.52,24.52-13.04,39.65-36,39.65-11.48,0-21.39-5.74-26.61-19.3-5.22,11.48-16.69,19.3-33.91,19.3-15.13,0-30.78-1.04-42.78-7.3-10.96,6.26-22.43,7.3-40.17,7.3-26.08,0-33.91-8.35-37.04-24.52-3.13,13.56-9.39,24.52-29.21,24.52-13.56,0-23.48-5.22-29.21-19.82-5.22,12.52-14.61,19.82-31.82,19.82h-30.78c-25.56,0-38.08-3.65-46.43-21.91l-2.09-5.22c-4.17,15.65-15.65,28.69-41.74,28.69ZM630.79,1477.79c0,8.35,10.43,16.69,24.52,20.87,10.96-3.65,21.39-13.04,21.39-21.39s-9.39-15.65-23.48-15.65c-12.52,0-22.43,7.3-22.43,16.17ZM1116.49,1443.36l15.65-16.17-15.65-15.65-15.13,15.65,15.13,16.17ZM887.99,1474.66c-4.17,12.52-10.43,28.69-10.43,46.95,0,28.17,13.04,48,46.95,47.47,38.08-1.04,56.34-29.21,56.34-55.82,0-17.74-5.22-43.82-12-59.47h-2.09l-12,21.91c7.83,16.69,16.69,32.35,18.78,41.74-2.61,9.39-17.22,25.04-45.39,25.04-29.74,0-38.61-12-40.17-27.13-1.04-12.52,2.61-26.61,6.26-40.69h-6.26ZM927.12,1476.75l-15.65,15.65,15.65,16.17,15.65-16.17-15.65-15.65ZM780.52,1260.76h4.17c0,15.13,2.09,20.87,22.95,20.87,12.52,0,28.17-2.61,36.52-7.83l-20.87-47.47,10.43-20.87h2.09s24,56.34,25.04,59.47c6.26,14.09,15.65,17.74,34.95,16.69,2.61-26.61,21.91-62.08,40.17-62.08,10.43,0,18.26,14.61,16.17,37.56-2.61,27.65-21.39,43.82-41.21,50.08,7.3,10.43,17.22,16.69,26.08,21.39-1.57-9.91,0-17.22,4.17-25.56,6.26-11.48,17.74-21.91,34.95-21.91h166.42c16.17,0,32.35-1.57,45.91-5.22-8.87-8.35-20.35-18.78-31.3-24.52l-4.17,1.57-3.13-3.13,4.17-21.39c7.83-6.78,29.22-13.56,45.39-13.56,24.52,0,31.3,12.52,31.3,24.52,0,17.74-8.87,29.74-19.3,38.61,5.22,2.09,11.48,3.13,26.61,3.13,12.52,0,25.56-.52,33.39-3.13,0,0-1.57-3.65-1.57-8.87l-2.09-63.65-4.7-5.22c-6.26-6.78-7.3-13.56-2.09-21.39l12.52-18.78,3.65,3.13-5.22,7.83,22.43,19.3-12.52,16.69v53.73c0,6.78,2.09,8.87,10.43,14.09,7.83,4.7,14.61,8.35,20.87,13.04,5.22,4.17,4.7,7.3,0,14.09l-10.43,14.09c-6.78-6.78-21.39-19.3-29.74-19.3-8.87,0-14.09,10.43-35.48,10.43-15.65,0-24.52-7.83-37.04-20.35-16.69,12-32.87,20.35-66.26,20.35h-163.81c-27.65,0-31.82,16.17-22.43,27.13l-12,17.74c-21.39-9.39-33.91-28.69-38.61-44.34-25.04,1.57-39.13-3.13-48-22.95l-2.09-5.74c-4.7,16.17-15.65,29.21-41.74,29.21-28.17,0-31.82-22.95-25.04-47.47ZM1201.01,1272.76c26.61-13.04,26.61-31.82-3.65-31.82-8.87,0-20.35,2.09-29.74,5.74,12,6.26,28.69,22.95,33.39,26.08ZM903.64,1281.63c16.69-1.57,40.69-8.35,40.69-24,0-6.26-4.17-10.96-11.48-10.96-14.09,0-27.65,20.35-29.21,34.95ZM1178.58,1401.1l15.13,15.65,15.65-15.65-15.65-16.17-15.13,16.17ZM1334.56,1307.2l9.39-34.43,1.57-109.03h-2.61l-16.69,30.26,4.7,113.21h3.65ZM826.43,1528.92h3.65l9.39-34.95,2.61-108.51h-2.61l-17.74,30.78,4.7,112.69ZM732,1446.49l15.65-16.17-15.65-15.65-15.65,15.65,15.65,16.17ZM367.86,1360.41l16.17-15.65-16.17-16.17-15.65,16.17,15.65,15.65ZM351.69,1344.76l-15.65-16.17-15.65,16.17,15.65,15.65,15.65-15.65ZM641.23,1414.67l15.65-15.65-15.65-16.17-15.65,16.17,15.65,15.65ZM734.09,1307.2l9.91-34.43,2.09-109.03h-2.61l-17.22,30.26,4.17,113.21h3.65ZM732,1382.84l-15.65,16.17,15.65,15.65,15.65-15.65-15.65-16.17ZM243.7,1357.28c34.95,0,75.65-13.04,75.65-42.78,0-3.13-.52-6.26-1.57-8.35,20.35,1.57,48,1.57,76.69,1.57,65.21,0,137.21-2.09,146.07-5.74l9.91-14.09c3.65,11.48,12.52,19.3,26.61,19.3,16.17,0,29.74-8.35,33.39-24.52,3.13,14.09,12,24.52,28.17,24.52,17.74,0,25.56-10.43,33.91-10.43s22.95,12.52,29.74,19.3l10.43-14.09c4.7-6.78,5.22-9.91,0-14.09-6.26-4.7-13.04-8.35-20.87-13.04-8.35-5.22-10.43-7.3-10.43-14.09v-53.73l12.52-16.69-22.43-19.3,5.22-7.83-3.65-3.13-12.52,18.78c-5.22,7.83-4.17,14.61,2.09,21.39l4.7,5.22,2.61,63.65c0,5.22,2.09,8.87,2.09,8.87-5.74,2.09-15.65,3.13-27.13,3.13-19.82,0-25.04-5.22-25.04-16.17l4.17-100.17h-2.61l-16.69,30.26,2.61,76.17c-4.17,7.3-13.04,10.43-26.08,10.43s-20.35-2.61-21.39-12.52c-2.09-18.78-8.35-30.26-51.65-30.26l-120.51.52c-29.74,0-88.17,1.57-88.17-6.78,0-7.83,45.39-23.48,75.65-33.39l5.22-24.52-1.57-2.09c-31.3,9.91-90.25,36.52-90.25,70.95,0,18.78,22.95,19.82,44.87,19.82h180.51c26.61,0,33.39,5.22,33.39,16.17-39.13,2.09-114.25,3.13-157.03,3.13-27.13,0-90.78-2.61-101.21-3.13-9.39,0-26.08-1.57-26.08-1.57l-7.3,19.3,1.04,2.09c7.3,1.04,54.78,4.7,54.78,15.13s-32.87,17.22-61.04,17.22c-35.48,0-43.82-13.04-45.39-27.65-1.04-12.52,3.13-27.65,6.26-40.69h-6.26c-5.22,12.52-10.43,28.69-10.43,46.43,0,28.17,13.04,47.47,49.04,47.47ZM290.13,1558.65l15.13,16.17,16.69-16.17-16.69-15.65-15.13,15.65ZM673.05,1414.67l15.65-15.65-15.65-16.17-15.13,16.17,15.13,15.65ZM1082.06,1527.87h-16.69c-2.61,16.69-12.52,39.65-33.39,41.21-16.17,1.04-30.26-6.78-42.26-18.26l1.57-5.74c33.39,5.74,58.95,1.57,66.26-17.22h-18.78c-24,0-35.48-11.48-35.48-30.26,0-20.35,13.56-46.43,30.26-46.43,20.87,0,31.82,31.3,32.87,50.08h16.17c19.82,0,25.56-6.78,28.17-22.95l2.61-15.65,9.39,1.04s-3.13,17.74-3.65,24.52c3.65,10.96,17.74,13.04,33.39,13.04h16.17c-3.65-4.17-7.3-13.04-7.3-22.95,0-17.74,12-42.78,33.91-42.78,17.74,0,27.65,16.69,27.65,34.43,0,14.61-7.3,27.13-10.43,30.78,5.22.52,15.65.52,19.82.52,15.65,0,28.69-2.61,33.39-10.96l-3.13-74.08,17.22-30.78h2.61l-3.65,90.78c-.52,19.82,12.52,25.04,26.08,25.04,14.61,0,21.91-4.7,24.52-6.78l-3.13-67.82-4.17-5.22c-6.78-6.78-7.3-13.56-2.09-20.87l12.52-19.3,3.65,2.61-6.26,8.35,23.48,19.3-13.04,16.17-1.57,60.52c0,18.78-6.78,39.65-37.04,39.65-19.82,0-29.74-10.96-32.35-25.56-4.17,15.13-14.09,25.56-35.48,25.56-16.69,0-32.35-2.61-44.34-7.3-11.48,5.74-21.39,7.3-40.69,7.3-15.13,0-29.21-5.22-34.95-19.82-5.22,12.52-15.65,19.82-31.82,19.82ZM1169.18,1477.79c0,8.35,10.43,16.69,24.52,20.87,10.96-3.65,21.39-13.04,21.39-21.39s-9.39-15.65-23.48-15.65c-12.52,0-22.43,7.3-22.43,16.17ZM1058.59,1501.27c-2.61-10.43-11.48-23.48-28.17-23.48-12,0-19.3,8.87-19.3,15.13,0,5.74,6.26,8.35,20.87,8.35h26.61ZM1049.15,1872.81v-87.91h-.71l-24.36,6.71v4.59c6.53-.53,7.94.35,7.94,6.53l.18,70.08c.18,6.71-.18,7.24-7.77,8.83v4.77h32.48v-4.77c-7.59-1.59-7.94-2.12-7.77-8.83ZM1052.17,1715.4c-7.06,0-10.24-4.06-10.24-15.53v-32.83h19.07v-6.18h-19.07v-23.48h-5.12c-6.18,16.59-10.77,21.18-24.54,26.3v3.35h12.53v35.31c0,15.89,5.3,24.71,17.83,24.71,8.65,0,15.53-3.88,21.18-12.18l-1.06-1.76c-3.53,1.41-6.88,2.3-10.59,2.3ZM1343.74,1690.86h-39.9c.18,17.48,8.83,24.89,21.54,24.89,5.12,0,11.47-1.41,16.95-4.06l1.23,1.59c-6.35,9-14.83,13.95-27.89,13.95-17.48,0-29.48-11.12-29.48-31.95,0-19.24,12.71-36.01,31.07-36.01s28.77,12.18,26.48,31.6ZM1317.43,1665.44c-7.41,0-12.53,4.77-13.42,19.77h23.3c1.59-14.3-3.53-19.77-9.89-19.77ZM936.74,1872.81v-28.24c0-17.48-6.18-24.54-20.65-24.54-6.53,0-14.3,3-21.89,9.18v-9.18h-.71l-24.36,6.71v4.59c6.53-.53,7.94.35,7.94,6.53l.18,34.95c.18,6.71-.18,7.24-7.77,8.83v4.77h32.48v-4.77c-7.59-1.59-7.94-2.12-7.77-8.83v-37.95c4.94-1.77,8.12-2.3,12-2.3,10.77,0,13.59,5.3,13.59,17.12v23.13c.18,6.71-.18,7.24-7.77,8.83v4.77h32.48v-4.77c-7.59-1.59-7.94-2.12-7.77-8.83ZM1018.37,1879.17l.53,1.06c-4.24,5.82-8.83,7.41-14.48,7.41-6.35,0-10.06-2.83-11.3-9-5.12,5.83-12.01,9.36-19.6,9.36-10.41,0-18.71-5.82-18.71-17.12,0-16.59,18.01-19.42,37.6-25.42v-6c0-9-2.65-13.42-9.71-13.42-8.83,0-12.71,8.83-11.47,18.71l-.71.71c-9.89-1.59-13.06-6.71-13.06-10.94,0-7.59,9.71-14.48,27.36-14.48s24.19,8.65,24.19,22.24v28.42c0,6,1.41,9.53,9.36,8.47ZM992.41,1852.51c-12.89,3-20.12,7.24-20.12,15.53,0,6.18,3.18,8.47,11.12,8.47,2.47,0,6-.53,9-2.3v-21.71ZM1262.03,1727.05c8.65,0,15.53-3.88,21.18-12.18l-1.06-1.76c-3.55,1.41-6.88,2.3-10.61,2.3-7.04,0-10.22-4.06-10.22-15.53v-32.83h19.04v-6.18h-19.04v-23.48h-5.12c-6.18,16.59-10.77,21.18-24.54,26.3v3.35h12.53v35.31c0,15.89,5.3,24.71,17.83,24.71ZM826.61,1637.2c10.59,1.76,11.12,2.12,10.94,8.83v65.67c.18,6.71-.35,7.06-10.94,8.83v5.12h40.6v-5.12c-10.59-1.76-11.12-2.12-10.95-8.83v-65.67c-.18-6.71.35-7.06,10.95-8.83v-5.12h-40.6v5.12ZM942.92,1712.05v-28.24c0-17.48-6.18-24.54-20.63-24.54-6.53,0-14.3,3-21.89,9.18v-9.18h-.71l-24.36,6.71v4.59c6.53-.53,7.94.35,7.94,6.53l.18,34.95c.18,6.71-.18,7.24-7.77,8.83v4.77h32.48v-4.77c-7.59-1.59-7.94-2.12-7.77-8.83v-37.95c4.94-1.76,8.12-2.29,11.98-2.29,10.77,0,13.62,5.3,13.62,17.12v23.13c.18,6.71-.2,7.24-7.77,8.83v4.77h32.46v-4.77c-7.59-1.59-7.94-2.12-7.77-8.83ZM1276.48,1876.17c-7.06,0-10.24-4.06-10.24-15.53v-32.83h19.07v-6.18h-19.07v-23.48h-5.12c-6.18,16.59-10.77,21.18-24.54,26.3v3.35h12.53v35.31c0,15.89,5.3,24.72,17.83,24.72,8.65,0,15.53-3.88,21.18-12.18l-1.06-1.77c-3.53,1.41-6.89,2.3-10.59,2.3ZM1224.05,1820.21c-6.88,0-13.75,4.41-20.99,13.42v-13.59h-.71l-24.36,6.71v4.59c6.53-.53,7.94.35,7.94,6.53l.18,34.95c.18,6.71-.18,7.24-7.77,8.83v4.77h36.17v-4.77c-11.28-1.24-11.63-.88-11.45-7.06v-34.42c4.06-3.18,8.81-5.65,12.87-5.65,3.71,0,6,2.47,8.3,7.24l1.06.18c12.53-10.41,7.77-21.71-1.24-21.71ZM1172.63,1881.29v5.12h-36.17v-5.12c9.36-1.77,9.36-2.3,7.04-9.18l-4.74-15.54h-27.89l-4.24,13.59c-2.82,8.3-2.65,9.18,6.53,11.12v5.12h-24.71v-5.12c5.12-2.12,7.24-3.88,10.77-15.01l25.42-73.44h12.18l25.75,75.38c3.18,9.71,4.77,10.94,10.06,13.06ZM1136.47,1849.16l-11.47-37.6-11.83,37.6h23.3ZM1206.24,1727.23l24.36-6.71v-4.59c-6.53.53-7.94-.35-7.94-6.53l-.18-46.61v-3.53h-.71l-24.36,6.71v4.59c6.53-.53,7.94.35,7.94,6.53l.18,35.31c-4.77,1.76-8.47,2.3-12.18,2.3-10.77,0-13.59-5.47-13.59-17.12v-38.31h-.71l-24.34,6.71v4.59c6.53-.53,7.92.35,7.92,6.53l.18,25.77c0,17.12,6.55,24.36,20.65,24.36,6.53,0,14.48-2.82,22.07-8.83v8.83h.71ZM1308.41,1834.68c0-4.94,3.53-8.47,9.71-8.47,10.59,0,14.48,9.36,15.01,17.12l.71.53c6-2.65,7.94-8.12,7.94-11.65,0-6.89-7.24-12.36-21.18-12.36-17.12,0-25.93,10.06-25.93,22.07,0,21.89,35.28,15.36,35.28,30.89,0,5.12-3.53,9-10.24,9-9.18,0-16.06-7.77-16.59-17.3l-.88-.53c-6.71,3-8.81,7.77-8.81,11.12,0,7.06,8.1,12.89,23.81,12.89s26.83-8.47,26.83-22.42c0-21.18-35.66-16.07-35.66-30.89ZM858.47,1853.57c0,20.83-15.01,34.42-34.6,34.42s-34.6-12.53-34.6-33.54,15.18-34.42,34.78-34.42,34.42,12.36,34.42,33.54ZM840.46,1857.1c0-19.42-7.41-30.01-17.65-30.01-9.18,0-15.54,8.65-15.54,24.01,0,19.07,7.59,30.01,17.65,30.01,9.36,0,15.53-9,15.53-24.01ZM981.93,1665.44c10.59,0,14.48,9.36,15.01,17.12l.71.53c6-2.65,7.92-8.12,7.92-11.65,0-6.88-7.22-12.36-21.16-12.36-17.12,0-25.95,10.06-25.95,22.07,0,21.89,35.31,15.36,35.31,30.89,0,5.12-3.53,9-10.24,9-9.18,0-16.07-7.77-16.59-17.3l-.88-.53c-6.71,3-8.83,7.77-8.83,11.12,0,7.06,8.12,12.89,23.83,12.89s26.83-8.47,26.83-22.42c0-21.18-35.66-16.06-35.66-30.89,0-4.94,3.53-8.47,9.71-8.47ZM1131.77,1727.05c8.65,0,15.53-3.88,21.18-12.18l-1.06-1.76c-3.53,1.41-6.88,2.3-10.59,2.3-7.06,0-10.24-4.06-10.24-15.53v-32.83h19.07v-6.18h-19.07v-23.48h-5.12c-6.18,16.59-10.77,21.18-24.54,26.3v3.35h12.53v35.31c0,15.89,5.3,24.71,17.83,24.71ZM1073.69,1641.61c0,5.3,4.24,9.71,10.06,9.71,6.18,0,10.24-4.41,10.24-9.71s-4.06-9.71-10.24-9.71c-5.83,0-10.06,4.59-10.06,9.71ZM1068.21,1720.88v4.77h32.48v-4.77c-7.59-1.59-7.94-2.12-7.77-8.83v-52.78h-.71l-24.34,6.71v4.59c6.51-.53,7.92.35,7.92,6.53l.2,34.95c.16,6.71-.2,7.24-7.79,8.83ZM743.86,1726.88c-6.36,0-10.06-2.82-11.3-9-5.12,5.82-12,9.36-19.59,9.36-10.42,0-18.71-5.83-18.71-17.12,0-16.59,18.01-19.42,37.6-25.42v-6c0-9-2.65-13.42-9.71-13.42-8.83,0-12.71,8.83-11.47,18.71l-.71.71c-9.89-1.59-13.06-6.71-13.06-10.95,0-7.59,9.71-14.48,27.36-14.48s24.18,8.65,24.18,22.24v28.42c0,6,1.41,9.53,9.33,8.47l.53,1.06c-4.22,5.83-8.83,7.41-14.45,7.41ZM731.85,1691.75c-12.89,3-20.13,7.24-20.13,15.53,0,6.18,3.18,8.47,11.12,8.47,2.47,0,6-.53,9-2.29v-21.71ZM774.79,1872.81v-52.78h-.71l-24.36,6.71v4.59c6.53-.53,7.94.35,7.94,6.53l.18,34.95c.18,6.71-.18,7.24-7.77,8.83v4.77h32.48v-4.77c-7.59-1.59-7.94-2.12-7.77-8.83ZM352.04,1712.05v-28.24c0-17.48-6.18-24.54-20.65-24.54-6.53,0-14.3,2.82-21.89,8.83v-43.96h-.71l-24.36,6.71v4.59c6.53-.53,7.94.35,7.94,6.53l.18,70.08c.18,6.71-.18,7.24-7.77,8.83v4.77h32.48v-4.77c-7.59-1.59-7.94-2.12-7.77-8.83v-37.95c4.94-1.76,8.12-2.29,12-2.29,10.77,0,13.59,5.3,13.59,17.12v23.13c.18,6.71-.18,7.24-7.77,8.83v4.77h32.48v-4.77c-7.59-1.59-7.94-2.12-7.77-8.83ZM794.15,1720.88c-7.59-1.59-7.94-2.12-7.77-8.83v-87.91h-.71l-24.36,6.71v4.59c6.53-.53,7.94.35,7.94,6.53l.18,70.08c.18,6.71-.18,7.24-7.77,8.83v4.77h32.48v-4.77ZM645.44,1876.7v4.59l-24.36,6.71h-.71v-8.83c-5.12,5.83-11.3,8.83-17.48,8.83-16.77,0-28.77-11.12-28.77-31.95s14.12-36.01,36.37-36.01c4.06,0,7.06.35,9.89.88v-18.18c0-6.18-1.41-7.06-7.94-6.53v-4.59l24.36-6.71h.71v85.27c0,6.18,1.41,7.06,7.94,6.53ZM620.37,1828.86c-4.06-.88-8.3-1.59-12.01-1.59-11.83,0-16.59,8.47-16.59,23.83,0,17.83,8.65,25.42,18.36,25.42,3.18,0,6.88-.88,10.24-2.65v-45.02ZM755.55,1802.38c0,5.3,4.24,9.71,10.06,9.71,6.18,0,10.24-4.41,10.24-9.71s-4.06-9.71-10.24-9.71c-5.83,0-10.06,4.59-10.06,9.71ZM485.88,1820.21c-6.89,0-13.75,4.41-20.99,13.42v-13.59h-.71l-24.36,6.71v4.59c6.53-.53,7.94.35,7.94,6.53l.18,34.95c.18,6.71-.18,7.24-7.77,8.83v4.77h36.17v-4.77c-11.28-1.24-11.63-.88-11.45-7.06v-34.42c4.06-3.18,8.83-5.65,12.86-5.65,3.71,0,6,2.47,8.3,7.24l1.06.18c12.53-10.41,7.77-21.71-1.24-21.71ZM439.65,1798.49l-.53-5.65h-74.12l-.35,5.83-1.59,20.83,4.41.35c7.22-16.95,10.92-19.95,21.34-19.95h4.06v72.56c.18,6.71-.35,7.06-10.92,8.83v5.12h40.58v-5.12c-10.59-1.77-11.12-2.12-10.94-8.83v-72.56h3.88c10.42,0,14.12,3.18,21.89,19.95l4.41-.53-2.12-20.83ZM617.66,1692.81c0,20.83-15,34.42-34.6,34.42s-34.6-12.53-34.6-33.54,15.18-34.42,34.78-34.42,34.42,12.36,34.42,33.54ZM599.65,1696.34c0-19.42-7.42-30.01-17.65-30.01-9.18,0-15.53,8.65-15.53,24.01,0,19.06,7.59,30.01,17.65,30.01,9.36,0,15.54-9,15.54-24.01ZM488.11,1710.99c-.18,7.24.35,7.77,9.71,9.53v5.12h-37.95v-5.12c9.36-1.76,9.89-2.3,9.71-9.53v-64.26c.18-7.24-.35-7.77-9.71-9.53v-5.12h35.84c24.71,0,39.19,9.36,39.19,24.18,0,10.95-8.47,20.12-22.6,23.48l12,18.36c9.53,14.65,15.36,21.54,21.36,23.3v1.59c-18.54,10.41-29.3-1.94-46.43-33.36-3.18-5.82-4.94-6.53-7.41-6.53h-3.71v27.89ZM488.11,1676.21h9.53c10.77,0,18.36-4.24,17.65-19.95-.53-11.83-9.18-16.77-20.65-16.77h-6.53v36.72ZM566.46,1879.17l.53,1.06c-4.24,5.82-8.83,7.41-14.47,7.41-6.36,0-10.06-2.83-11.3-9-5.12,5.83-12.01,9.36-19.59,9.36-10.42,0-18.71-5.82-18.71-17.12,0-16.59,18.01-19.42,37.6-25.42v-6c0-9-2.65-13.42-9.71-13.42-8.83,0-12.71,8.83-11.47,18.71l-.71.71c-9.89-1.59-13.06-6.71-13.06-10.94,0-7.59,9.71-14.48,27.36-14.48s24.18,8.65,24.18,22.24v28.42c0,6,1.41,9.53,9.36,8.47ZM540.51,1852.51c-12.89,3-20.12,7.24-20.12,15.53,0,6.18,3.18,8.47,11.12,8.47,2.47,0,6-.53,9-2.3v-21.71ZM682.31,1802.38c0-5.12-4.06-9.71-10.24-9.71-5.83,0-10.06,4.59-10.06,9.71s4.24,9.71,10.06,9.71c6.18,0,10.24-4.41,10.24-9.71ZM731.83,1876.17c-7.06,0-10.24-4.06-10.24-15.53v-32.83h19.07v-6.18h-19.07v-23.48h-5.12c-6.18,16.59-10.77,21.18-24.54,26.3v3.35h12.53v35.31c0,15.89,5.3,24.72,17.83,24.72,8.65,0,15.53-3.88,21.18-12.18l-1.06-1.77c-3.53,1.41-6.88,2.3-10.59,2.3ZM666.89,1665.62c9.36,1.59,9.36,2.12,6.71,9.18l-11.65,32.3-13.24-33.19c-2.65-6.18-2.65-6.71,4.94-8.3v-4.77h-34.05v4.77c5.65,1.76,6.71,2.47,9.36,9l23.63,53.14-1.59,3.71c-3.71,9-6.88,10.42-11.28,10.42s-8.47-1.06-13.42-4.24l-1.06.18c-2.29,3.18-3.35,5.83-3.35,9,0,5.83,4.59,10.42,12.18,10.42,10.39,0,17.81-6.18,23.46-20.65l24.18-61.96c2.47-6.36,3.35-7.24,9.18-9v-4.77h-24.01v4.77ZM424.75,1690.86h-39.9c.18,17.48,8.83,24.89,21.54,24.89,5.12,0,11.47-1.41,16.95-4.06l1.23,1.59c-6.35,9-14.83,13.95-27.89,13.95-17.48,0-29.48-11.12-29.48-31.95,0-19.24,12.71-36.01,31.07-36.01s28.77,12.18,26.48,31.6ZM398.45,1665.44c-7.41,0-12.53,4.77-13.42,19.77h23.3c1.59-14.3-3.53-19.77-9.89-19.77ZM275.1,1632.08h-74.14l-.35,5.83-1.59,20.83,4.41.35c7.24-16.95,10.95-19.95,21.36-19.95h4.06v72.55c.18,6.71-.35,7.06-10.94,8.83v5.12h40.6v-5.12c-10.59-1.76-11.12-2.12-10.95-8.83v-72.55h3.88c10.42,0,14.12,3.18,21.89,19.95l4.41-.53-2.12-20.83-.53-5.65ZM322.45,1784.9c-18.18,0-26.66,14.12-26.66,28.42v6.53l-10.59,4.41v3.35h10.59v45.19c.18,6.71-.18,7.24-7.75,8.83v4.77h34.22v-4.77c-9.36-1.41-9.71-1.41-9.53-7.94v-46.08h16.95v-6h-16.95v-11.48c0-15.53,2.65-19.59,7.77-19.59,4.24,0,8.12,3.35,9.18,13.24l.88.53c6.36-2.65,8.83-5.82,8.83-9.36,0-4.94-5.47-10.06-16.95-10.06ZM277.37,1853.57c0,20.83-15,34.42-34.6,34.42s-34.6-12.53-34.6-33.54,15.18-34.42,34.78-34.42,34.42,12.36,34.42,33.54ZM259.36,1857.1c0-19.42-7.41-30.01-17.65-30.01-9.18,0-15.53,8.65-15.53,24.01,0,19.07,7.59,30.01,17.65,30.01,9.36,0,15.53-9,15.53-24.01ZM681.26,1872.81v-52.78h-.71l-24.34,6.71v4.59c6.51-.53,7.92.35,7.92,6.53l.2,34.95c.15,6.71-.2,7.24-7.79,8.83v4.77h32.48v-4.77c-7.59-1.59-7.94-2.12-7.77-8.83Z"/>
    <path id="Wrth-Negative-Crest" class="cls-1" d="M571.25,863.5c2.84-.08,6.22-.68,9.88-1.14.43-.05.81.16.97.62,1.11,3.03,2.16,6.28,3.49,9.25.49,1.11-.19,1.89-1.22,1.35-.73-.41-12.8-7.95-13.47-8.52-.87-.76-.51-1.51.35-1.57ZM566.97,904.57c-.7-.51-13.07-7.52-13.85-7.9-1.06-.51-1.68.32-1.16,1.38,1.49,2.95,2.68,6.12,3.92,9.12.16.41.57.65,1,.57,3.6-.59,6.98-1.32,9.82-1.57.81-.08,1.16-.87.27-1.6ZM548.67,848.02c-1.19-3.06-2.06-6.39-2.98-9.47-.14-.43-.52-.7-.95-.65-3.65.24-7.06.65-9.93.62-.84-.03-1.25.7-.43,1.51.65.6,12.28,8.79,13.01,9.23,1,.62,1.73-.16,1.27-1.24ZM557.07,844.52c.65.57,12.85,7.9,13.61,8.31,1.03.54,1.68-.27,1.19-1.33-1.41-2.98-2.52-6.22-3.65-9.25-.16-.41-.54-.65-1-.59-3.6.51-6.98,1.14-9.85,1.33-.84.03-1.19.81-.3,1.54ZM527.92,880.22c-.6-.65-11.8-9.44-12.5-9.93-.97-.68-1.73.08-1.35,1.22,1.03,3.11,1.7,6.44,2.49,9.58.11.46.46.73.92.7,3.65-.05,7.09-.27,9.93-.05.81.05,1.27-.68.51-1.52ZM528.82,892.05c-1-.57-1.7.22-1.24,1.3,1.3,3.03,2.25,6.3,3.27,9.36.16.43.54.68,1,.65,3.63-.41,7.01-.89,9.9-.95.81,0,1.19-.76.35-1.51-.65-.59-12.53-8.44-13.28-8.85ZM1108.7,636.52c-.03,53-.05,103.56-.07,105.93-.78,92.21-33.61,180.25-124.32,222.47-57.01,25.25-133.51,37.87-210.03,37.88-76.71.05-153.43-12.58-210.57-37.88-90.71-42.22-123.54-130.26-124.32-222.47-.02-2.37-.05-52.94-.08-105.93-.03-55.76-.05-114.21-.05-122.08.07-98.09,28.39-185.53,111.07-230.49,1.18-11.75,7.44-21.67,18.27-28.52,17.09-10.83,41.04-10.51,53.51.65,38.69-10.15,78.86-13.27,78.86-13.27,15.78-26.18,42.27-43.31,73.27-43.31s56.47,17.24,72.19,43.24c0,0,41.17,3.3,79.46,13.34,12.47-11.16,36.42-11.49,53.51-.65,10.83,6.85,17.1,16.77,18.27,28.52,82.68,44.96,111,132.41,111.07,230.49,0,7.87-.02,66.32-.05,122.08ZM852.86,255.14c2.82,6.42,5.07,13.22,6.69,20.3,3.62.45,32.76,4.14,55.42,9.81,4.54,1.14,6.75,9.49,2.54,16.77.13-3.98-.12-9.04-2.28-9.4-1.55-.26-5.47,4.99-9.33,8.42.06-3.2,0-10.77-2.61-11.16-1.81-.27-5.22,5.32-10.18,10.12-.16-5.57-1.06-13.55-3.56-13.59-2.36-.04-5.6,6.05-10.53,10.98-.14-2.66-.88-14.75-6.13-14.75-1.72,0-7.71,8.9-10.54,12.39.18,3.01.21,8.11.21,8.62,35.78,4.13,55.79,10.23,55.79,10.23,0,0,6.56,12.77,21.15,17.56,14.2,4.67,30.57-.17,30.57-.17,0,0,29.16,15.88,55.45,43.24,54.85,57.08,65.1,123.84,65.76,126.38,0-22.44-5.04-48.73-10.67-65.67-1.63-2.87.65-4.89-1.31-5.55-.7-.23-4-1.09-4.83-1.37,2.61-3.13,3.52-5.03,3.13-6.27-.37-1.16-3.69-1.17-7.05-1.76,1.01-1.38,3.92-5.29,2.94-6.66-.7-.98-6.33-1.11-7.25-1.24,1.11-1.5,3.2-4.76,3.07-6.26-.17-1.91-6.65-1.44-7.7-1.5,1.24-1.83,3.72-5.81,2.68-7.11-.39-.52-1.18-.59-2.02-.59,0,0-5.48.13-5.61.13l.06-.13c1.46-2.48,3.42-6,2.48-7.31-.6-.84-2.48-.43-4.83-.26-.91.07-1.89.2-3,.26.86-1.55,4.02-6.29,2.74-7.96-.89-1.17-5.07.07-7.9.26.67-1.21,3.26-6.22,2.09-7.5-1.1-1.2-6.43.68-8.09.72,1.03-2.16,2.87-6.48,1.96-7.7-.58-.77-6.3.43-8.48.2,3.99-8.84,1.25-9.01-1.11-8.22,0,0-4.69,1.43-5.74,1.76,1.88-4.46,2.06-6.65,1.75-7.72-.43-1.48-1.59-1.11-3.64-.44-.97.32-5.42,1.96-5.42,1.96,0,0,.73-2.04,1.17-3.85.52-2.15,1.52-5.15-.52-5.48-1.27-.21-7.13,2.89-8.42,3.39.39-1.24,1.18-2.94,1.5-4.31,2.05-8.57-3.98-4.26-9.4-1.7.32-1.28,2.02-6.61,1.06-8.77-.96-2.15-7.32,1.91-9.41,2.96.72-2.8,1-4.81.99-6.25-.03-5.4-2.91-2.87-6.15-.93-.98.59-1.63.91-2.68,1.43.42-1.1,1.14-4.21,1.04-6.31-.2-4.65-4.24,0-11.03.17,3.52-2.74,6.2-6.79,8.42-11.88,18.34,11.42,94.1,55.47,107.61,157.8,0,0-1.14-32.18-6.95-53.26.88-1.22,3.07-5.96.92-7.57-.61-.45-3.45-1.63-3.98-1.89,1.17-1.83,2.02-4.89,1.83-6.53-.19-1.6-4.03-.98-5.81-2.22.52-.72,1.04-1.83,1.57-3.26,2.41-6.61-2-3.64-5.29-5.29,1.11-1.76,2.35-5.35,1.89-6.92-.43-1.48-4.76-.84-7.18-1.96,1.24-1.44,3.39-4.7,2.87-6.66-.34-1.28-4.09-1.19-7.05-1.43,1.3-1.76,2.87-5.03,2.48-6.72-.26-1.11-1.27-1.36-2.91-1.36,0,0-3.14,0-4.04-.07,1.56-2.15,3.26-5.87,2.48-7.11-.39-.72-1.31-.78-2.02-.78,0,0-5.26.2-5.55.2,1.44-2.15,3.07-6.27,2.29-7.44-.88-1.31-4.48-.25-7.77-.07,1.37-2.28,3.13-6.53,1.76-7.9-.26-.26-.72-.33-1.11-.33-.62,0-4.86.73-6.46.91,1.44-2.61,2.61-6.4,1.7-7.57-1.03-1.33-3.6.16-7.96.78.85-1.83,2.29-5.55,1.7-7.24-.71-2.03-2.73-.46-8.28.78,3.1-8.63.74-8.43-.07-8.42-.81,0-5.5,1.76-7.05,2.22,3.31-10.3-.78-8.53-1.38-8.33-1.94.65-5.53,2.2-6.26,2.46.46-1.38,2.65-8.41-.26-8.94-1.12-.2-6.27,2.85-7.77,3.26,2.54-9.69.39-9.33-.59-9.2-.98.13-6.09,2.98-7.96,3.78.82-3.12,1.83-9.46-.98-9.46-.72,0-8.9,3.75-9.99,4.24,11.61-38.28-26.4-54.73-50.11-48.28-7.61,2.07-11.49,5.99-11.63,6.06,0,0,.47.97.72,2.28.98,5.09-1.37,11.94-7.57,15.66.84-14.12-2.81-13.64-2.81-13.64-1.88,0-7.53,7.68-10.31,10.12.13-4.78-1.83-17.08-6.26-12.92-1.07,1.01-6.51,7.95-8.62,9.92,0-3.91-.98-10.57-3.9-13.71-2.94-3.16-4.78,5.33-10.71,10.97-.09-6.17-2.7-14.1-5.29-14.1-2.22,0-1.54,6.6-8.62,12.92-2.17-7.59-5.16-16.05-8.74-16.05-1.9,0-3.38,2.94-3.83,3.96ZM803.07,912.06c6.96-8.89,10.26-16.4,10.31-16.52-.09.05-6.23,3.45-18.08,17.96-.59.72-.72,1.76-.33,2.68.46.98,1.37,1.57,2.35,1.57,5.48-.55,11.5-1.34,17.62-2.77,5.97-1.4,7.97-2.5,7.97-2.5,0,0-8.54-1.19-19.84-.41ZM1078.15,690.44c7.05-17.03,11.48-35.39,12.89-53.92.82-10.83.6-21.73-.75-32.44-1.9-15.06-6.07-29.76-11.87-43.77-11.08-26.77-26.6-51.82-45.48-73.79-29.97-34.88-61.57-50.58-64.67-52.19-3.65,1.99-14.53,6.23-33.2-.06-19.59-6.62-25.38-21.36-26.77-26.13-.21-.06-45.35-13.4-81.8-15.44l-.36-.02c-14.07,11.22-31.69,17.37-51.91,17.37s-38.78-6.03-52.96-17.35c-36.41,2.08-81.35,15.36-81.58,15.43-1.39,4.77-7.18,19.51-26.77,26.13-18.67,6.3-29.55,2.06-33.2.06-3.11,1.61-34.72,17.33-64.67,52.19-18.88,21.97-34.4,47.02-45.48,73.79-5.8,14.01-9.97,28.71-11.87,43.77-1.35,10.71-1.57,21.61-.75,32.44,1.4,18.53,5.86,36.89,12.9,53.92,53.52,129.31,201.85,173.71,304.58,173.71,78.68,0,245.24-32.43,303.71-173.71ZM767.7,890.79c-1.96-4.31-3.79-7.64-5.94-10.64l-1.5-2.02.33,2.48c.52,5.16,1.96,10.7,4.5,17.42.32.98,1.3,1.63,2.41,1.63,1.04,0,1.96-.59,2.42-1.5,3.33-7.77,4.63-12.33,5.55-17.29l.4-2.74s-4.89,6.4-8.17,12.66ZM731.68,910.89c-8.65-1.07-20.66-1.18-20.65-1.18,0,0,6.86,3.53,22.84,6.61,2.53.49,4.63,1.1,5.64-.93.46-.91.38-1.88-.2-2.67-10.04-13.67-17.11-19.44-17.22-19.52.04.11,3.33,8.55,9.59,17.7ZM669.29,889.22c-13.55-2.88-27.6-8.42-27.6-8.42l-11.16,30.35s11.96,4.66,29.87,9.53c11.74,3.19,25.02,5.87,25.02,5.87,0,0,1.27-23.77,22.08-43.62-1.71-.26-21.65-3.28-53.73-14.14-13.82-4.68-19.04-8.09-21.99-8.09-1.96,0-3.78,1.31-4.44,3.2l-1.57,4.31c-.91,2.35.19,4.89,2.48,6,12.14,5.74,28.52,11.16,41.05,15.01ZM468.54,710.66s.74-4.54-.19-6.14c-5.33-9.12-12.06-39.81-12.06-39.81,0,0,1.27,46.65,24.14,90.49,9.48,18.16,24.84,38.86,32.27,48.02,0,0,1.46,2.26,2.57,2.06,1.28-.23.83-1.9-.45-4.81-.97-2.22-2.18-4.44-3.34-6.13,0,0,.93-3.17.54-5-.23-1.1-.93-1.76-2.02-1.92-.02,0-2.15-.31-3.24-.47.05-.23,1.75-5.72.72-7.16-.97-1.35-5.6-1.38-6.74-1.47.78-1.55,2.32-4.84,2.4-4.99.69-1.48-.06-3.72-2.13-3.72h-.06c-.79,0-5.02-.16-5.65-.18l3.32-5.79c.44-.73.47-1.7.07-2.41-.17-.33-.71-1.09-2.18-1.09s-4.38-.06-6.76-.12l3.12-5.52c.97-1.39.51-3.38-1.69-3.5-2.21-.12-4.38-.29-6.6-.53l2.69-4.79c1.66-2.83-.33-3.77-1.34-3.94,0,0-4.97-.79-6.26-1.06.56-.82,3.49-5.35,2.92-7.02-.23-.66-.8-1.14-1.65-1.37,0,0-4.97-1.32-5.32-1.4-.01-.04,1.22-3.69,1.61-4.87.43-1.3.49-2.64-1.22-3.31-1.4-.55-2.84-1.17-4.19-1.8,0,0,.87-3.85,1.12-5.24.22-1.26-.26-2.16-1.31-2.84-1.02-.66-2.05-1.38-3.09-2.15ZM503.99,835.38s17.27,16.52,44.67,34.89c29.62,19.85,53.35,29.59,53.35,29.59,0,0,3.3-7.44,3.39-7.7,1.57-4.31.52-7.37-3.39-9.85-1.37-.85-6.59-3.85-8.29-4.83,1.04-2.15,4.7-9.53,5.35-12.59.91-3.78-.33-6.79-3.98-9.33-2.09-1.57-8.81-6-10.57-7.18.26-.72.72-2.41,1.3-4.24,1.24-3.79.65-6.2-1.83-7.64-3.46-1.89-13.77-8.35-17.29-10.64-4.11-2.66-7.84-.74-9.53,1.04l-3.59,3.92c-1.96-1.24-9.53-5.94-11.16-6.92-1.43-.86-4.67-1.66-7.63,1.3-1.44,1.44-6.2,6.4-7.63,7.9l-8.09-5.61c-1.18-.76-5.79-3.13-10.57,2.48-.34.4-4.5,5.42-4.5,5.42ZM631.47,383.98c.65-2.87,2.61-4.96,5.68-6.13,20.36-6,41.57-10.57,61.28-13.18l.43-.06c-2.16-4.26-4.07-8.79-5.73-13.59l-.84-.84c-3.31-3.15-7.68-7.92-9.33-4.96-1.56,2.81-1.89,9.07-1.5,13.18-2.31-1.94-9.09-9.4-11.03-10.38-1.3-.65-2.24-1.12-3.21,2.8-.78,3.16-.97,7.75-.64,10.7-2.02-1.57-3.98-3.46-5.74-5.22-4.55-4.55-5.4-4.76-6.13-4.76-3.12,0-3.17,7.87-2.55,13.31-1.96-1.43-3.92-3.26-5.68-4.89-3.48-3.22-5.05-4.5-6.2-4.5-3.32,0-2.62,10.12-2.09,12.92-4.3-3.18-8.6-8.62-10.83-8.68-3.44-.09-2.75,9.89-2.09,11.98-2.75-1.62-7.53-10.33-4.76-16.26-4.22-2.13-21.82-9.88-40.32-1.34-29.58,13.64-22.42,41.53-20.9,47.91-7.82-3.17-10.03-4.75-11.16-3.39-1,1.21.36,6.89.98,8.75-2.69-1.35-5.15-2.77-6.76-3.31-.78-.26-1.08-.32-1.4-.22-1.86.57-.64,6.02.46,8.94-5.98-2.39-9.93-5.74-8.68,1.11.26,1.43.72,3,1.37,4.57-2.6-.45-6-2.36-7.25-2.79-.58-.2-2.25-.32-1.23,4.16.33,1.44.78,3.07,1.44,4.57-2.31-.63-7.51-3.31-8.29-1.37-.65,1.63.78,5.42,1.76,7.5-.92-.2-6.48-1.7-6.92-1.7-3.42,0,.22,7.21.59,8.03-1.07-.16-6.79-2.22-7.9-.78-.92,1.18,1.22,5.97,2.02,7.24-.93-.13-6.64-1.07-7.77-.33-.74.48.31,4.25,2.02,7.05-1.23-.08-6.87-.91-7.44.07-.7.91.54,4.62,2.35,7.05,0,0-6.78-.73-7.44.46-.92.92,1.34,5.35,2.41,6.79-1.27.11-6.37-.41-7.18.91-.31.51.33,3.45,2.54,6.53-3.46.63-7.14.05-6.59,2.81.26,1.31,1.83,4.31,2.81,5.55-.85.25-1.86.32-2.86.44-4.87.59-2.81,1.72-3.99,4.71-14.29,35.96-14.29,65.98-14.29,65.98,9.66-27.93,27.21-96.78,100.76-139.46.6,1.47,2.72,5.77,7.05,10.64-7.75-.79-8.61-3.59-9.92-1.63-.7,1.05-.08,6.45.39,8.68-5.08-1.1-7.43-3.73-8.81-3.33-2.67.79-.79,7.75-.19,9.27-6.29-1.91-8.57-3.69-9.53-2.11-1.4,2.31.65,7.78.65,7.85-1.33-.35-4.62-1.18-6.41-1.56-4.79-1.02-1.84,6.84-1.15,8.28-1.62-.31-4.92-1.14-6.63-1.51-.68-.15-1.99-.19-2.3.59-.7,1.78.28,4.86,1.81,7.78-1.18-.14-4.43-.88-6.37-1.34-.61-.14-5.88-1.85-.67,7.93-2.01-.19-6.07-.91-6.85-.91-2.38,0-1.85,3.18.59,8.03-3.19-.43-7.15-1.47-7.96-.65-1.03,1.03-.22,4.28,1.89,7.44-4.14,0-7-1.28-7.9,0-.76,1.09.26,4.07,2.15,7.05-1.3,0-5.94-.33-5.94-.33-.46,0-1.04.06-1.44.46-1.09,1.09.4,4.44,2.02,6.79-.91.07-4.57.13-5.42.2-.52,0-1.24.2-1.5.72-.39.72-.33,2.87,1.11,5.09-2.54.46-4.04.85-4.57,1.5-.85,1.04-.72,2.81-.59,4.96,0,0-9.98,20.09-19.94,52.23,40.87-93.72,113.14-125.29,113.14-125.29,0,0,5.02,4.86,17.62,3.88,13.34-1.05,24.64-6.64,31.16-14.46,6.11-7.33,6.45-13.72,6.7-13.8,0,0,42.73-12.99,80.25-16.08-5.86-5.6-10.96-12.22-15.23-19.79-.83,1.61-3.15,6.83-3.1,14.55-5.76-3.61-9.36-11.83-12.4-11.78-2.1.03-3.5,7.81-3.2,14.26-6.51-4.34-10.19-13.33-12.86-10.25-2.09,2.41-2.15,9.53-1.96,13.18-5.78-3.81-10.26-11.67-12.14-9.85-2.15,2.08-2.41,9.85-2.02,13.38-6.45-2.62-10.64-9.63-12.34-9.59-2.47.05-2.99,8.07-.78,13.44-2.74-.26-5.09-1.5-6.72-3.59-1.89-2.35-2.55-5.35-1.89-8.16ZM688.86,335.47c-1.76-8.36-2.85-17.34-3.24-26.91-4.84.57-15.66,1.95-28.94,4.31-14.33,2.54-21.43,4.44-23.71,5.09-3.05,4.89-11.72,15.82-26.83,19.21-12.81,2.88-26.49-.41-27.39-.62-.52.31-4.83,2.89-6.47,3.91-22.78,14.18-82.27,55.59-107.87,147.85-2.36,8.5-3.94,17.2-4.7,25.99-1.02,11.67-1.02,20.43-.66,20.43,0,0,5.48-33.54,16.18-57.36,6.92-15.47,16.51-33.22,32.82-52.08,11.75-13.5,24.46-25.25,44.42-37.32-.22-6.11.98-26.94,25.66-38.34,24.06-11.11,45.88,2.11,46.1,2.23.48-.23,26.21-9.52,64.46-16.38l.16-.03ZM865.83,385.42c.3-6.45-1.1-14.23-3.2-14.26-3.04-.05-6.64,8.17-12.4,11.78.05-8.32-2.65-13.74-3.27-14.86-4.38,7.65-9.62,14.38-15.63,20.08,31.84,1.76,80.81,16.1,80.82,16.1.26.08.59,6.47,6.7,13.8,6.53,7.82,17.82,13.42,31.16,14.46,12.6.99,17.62-3.88,17.62-3.88,0,0,72.27,31.57,113.14,125.29-9.96-32.13-19.94-52.23-19.94-52.23.13-2.15.26-3.92-.59-4.96-.52-.65-2.02-1.04-4.57-1.5,1.43-2.22,1.5-4.37,1.11-5.09-.26-.52-.98-.72-1.5-.72-.85-.06-4.5-.13-5.42-.2,1.62-2.34,3.12-5.69,2.02-6.79-.39-.39-.98-.46-1.44-.46,0,0-4.63.33-5.94.33,1.89-2.97,2.91-5.96,2.15-7.05-.9-1.28-3.75,0-7.9,0,2.11-3.16,2.92-6.41,1.89-7.44-.81-.81-4.77.22-7.96.65,2.44-4.85,2.96-8.03.59-8.03-.78,0-4.85.72-6.85.91,5.21-9.78-.06-8.07-.67-7.93-1.94.45-5.19,1.19-6.37,1.34,1.53-2.92,2.51-6,1.81-7.78-.31-.78-1.62-.73-2.3-.59-1.7.37-5.01,1.21-6.63,1.51.69-1.44,3.64-9.31-1.15-8.28-1.8.38-5.08,1.21-6.41,1.56,0-.07,2.06-5.55.65-7.85-.96-1.58-3.24.2-9.53,2.11.59-1.52,2.48-8.48-.19-9.27-1.38-.41-3.73,2.23-8.81,3.33.47-2.23,1.1-7.63.39-8.68-1.31-1.96-2.16.84-9.92,1.63,4.32-4.86,6.45-9.17,7.05-10.64,73.55,42.68,91.1,111.53,100.76,139.46,0,0,0-30.01-14.29-65.98-1.19-2.99.87-4.12-3.99-4.71-1-.12-2.01-.2-2.86-.44.98-1.24,2.55-4.24,2.81-5.55.55-2.76-3.13-2.18-6.59-2.81,2.21-3.08,2.85-6.01,2.54-6.53-.8-1.33-5.91-.81-7.18-.91,1.08-1.44,3.34-5.87,2.41-6.79-.66-1.19-7.44-.46-7.44-.46,1.81-2.42,3.05-6.14,2.35-7.05-.57-.98-6.21-.15-7.44-.07,1.72-2.8,2.76-6.56,2.02-7.05-1.13-.74-6.84.19-7.77.33.81-1.28,2.94-6.06,2.02-7.24-1.11-1.43-6.83.62-7.9.78.37-.82,4.01-8.03.59-8.03-.44,0-6,1.5-6.92,1.7.98-2.09,2.41-5.87,1.76-7.5-.78-1.94-5.98.74-8.29,1.37.65-1.5,1.11-3.13,1.44-4.57,1.02-4.48-.65-4.36-1.23-4.16-1.26.43-4.66,2.34-7.25,2.79.65-1.57,1.11-3.13,1.37-4.57,1.25-6.85-2.7-3.5-8.68-1.11,1.09-2.93,2.32-8.37.46-8.94-.32-.1-.62-.04-1.4.22-1.61.53-4.06,1.96-6.76,3.31.61-1.85,1.98-7.54.98-8.75-1.13-1.36-3.34.23-11.16,3.39,1.51-6.37,8.68-34.26-20.9-47.91-18.5-8.54-36.1-.79-40.32,1.34,2.77,5.93-2.01,14.64-4.76,16.26.66-2.09,1.36-12.07-2.09-11.98-2.23.06-6.54,5.5-10.83,8.68.53-2.81,1.23-12.92-2.09-12.92-1.15,0-2.72,1.28-6.2,4.5-1.76,1.63-3.72,3.46-5.68,4.89.63-5.44.57-13.31-2.55-13.31-.74,0-1.59.21-6.13,4.76-1.76,1.76-3.72,3.65-5.74,5.22.33-2.96.14-7.54-.64-10.7-.97-3.93-1.91-3.45-3.21-2.8-1.94.97-8.72,8.44-11.03,10.38.39-4.11.07-10.38-1.5-13.18-1.65-2.96-6.02,1.81-9.33,4.96l-1.01,1.01c-1.69,4.7-3.63,9.17-5.82,13.38l.7.1c19.71,2.61,40.92,7.18,61.28,13.18,3.07,1.17,5.02,3.26,5.68,6.13.65,2.81,0,5.81-1.89,8.16-1.63,2.09-3.98,3.33-6.72,3.59,2.2-5.38,1.69-13.4-.78-13.44-1.7-.03-5.88,6.97-12.34,9.59.39-3.53.13-11.3-2.02-13.38-1.88-1.82-6.36,6.05-12.14,9.85.2-3.65.13-10.77-1.96-13.18-2.66-3.08-6.35,5.9-12.86,10.25ZM995.52,387.98c19.97,12.06,32.68,23.82,44.42,37.32,16.31,18.86,25.91,36.61,32.82,52.08,10.7,23.82,16.18,57.36,16.18,57.36.37,0,.36-8.77-.66-20.43-.77-8.79-2.34-17.49-4.7-25.99-25.6-92.27-85.09-133.67-107.87-147.85-1.64-1.02-5.95-3.6-6.47-3.91-.9.22-14.57,3.5-27.38.62-15.11-3.39-23.78-14.32-26.83-19.21-2.28-.66-9.39-2.55-23.71-5.09-13.23-2.35-24.02-3.73-28.89-4.31-.34,9.51-1.45,18.5-3.27,26.91l.13.03c38.26,6.86,63.98,16.15,64.46,16.38.22-.12,22.04-13.34,46.1-2.23,24.68,11.39,25.87,32.23,25.66,38.34ZM1032.74,805.28c1.1.2,2.57-2.06,2.57-2.06,7.43-9.15,22.79-29.86,32.27-48.02,22.87-43.83,24.14-90.49,24.14-90.49,0,0-6.73,30.69-12.06,39.81-.93,1.59-.19,6.14-.19,6.14-1.03.77-2.07,1.49-3.09,2.15-1.05.68-1.53,1.58-1.31,2.84.25,1.39,1.12,5.24,1.12,5.24-1.34.63-2.79,1.26-4.19,1.8-1.71.67-1.65,2.01-1.22,3.31.39,1.18,1.63,4.83,1.61,4.87-.35.08-5.32,1.4-5.32,1.4-.86.23-1.43.71-1.65,1.37-.57,1.67,2.36,6.2,2.92,7.02-1.29.27-6.26,1.06-6.26,1.06-1.01.17-3,1.12-1.34,3.94l2.69,4.79c-2.22.24-4.39.41-6.6.53-2.2.12-2.66,2.12-1.69,3.5l3.12,5.52c-2.38.06-5.35.12-6.76.12s-2.01.75-2.18,1.09c-.39.71-.37,1.68.07,2.41l3.32,5.79c-.63.02-4.85.18-5.65.18h-.06c-2.06,0-2.82,2.25-2.13,3.72.07.16,1.62,3.44,2.4,4.99-1.13.09-5.77.12-6.74,1.47-1.03,1.44.67,6.93.72,7.16-1.1.16-3.22.47-3.24.47-1.1.16-1.8.83-2.03,1.92-.38,1.82.54,5,.54,5-1.16,1.69-2.37,3.91-3.34,6.13-1.27,2.91-1.72,4.58-.45,4.81ZM690.98,297.68c0,51.55,33.17,98.38,83.25,98.38s82.8-45.11,82.8-96.74-35.53-94.73-82.8-94.73-83.25,41.47-83.25,93.09ZM461.24,417.97c-5.81,21.08-6.95,53.26-6.95,53.26,13.51-102.33,89.27-146.38,107.61-157.8,2.22,5.09,4.89,9.14,8.42,11.88-6.79-.17-10.82-4.82-11.03-.17-.09,2.09.63,5.21,1.05,6.31-1.05-.52-1.7-.85-2.68-1.43-3.24-1.95-6.11-4.47-6.15.93,0,1.45.27,3.46.99,6.25-2.09-1.05-8.45-5.11-9.41-2.96-.96,2.16.74,7.48,1.06,8.77-5.42-2.56-11.45-6.87-9.4,1.7.33,1.37,1.11,3.07,1.5,4.31-1.29-.5-7.15-3.6-8.42-3.39-2.04.33-1.04,3.33-.52,5.48.44,1.81,1.17,3.85,1.17,3.85,0,0-4.45-1.64-5.42-1.96-2.04-.68-3.21-1.05-3.64.44-.31,1.07-.13,3.26,1.75,7.72-1.06-.33-5.75-1.76-5.75-1.76-2.36-.79-5.1-.62-1.11,8.22-2.18.23-7.91-.96-8.48-.2-.91,1.22.92,5.54,1.96,7.7-1.66-.04-6.99-1.92-8.09-.72-1.17,1.28,1.41,6.29,2.09,7.5-2.83-.19-7-1.43-7.9-.26-1.28,1.67,1.88,6.41,2.74,7.96-1.11-.06-2.09-.2-3-.26-2.35-.17-4.23-.58-4.83.26-.94,1.31,1.02,4.83,2.48,7.31l.06.13c-.13,0-5.61-.13-5.61-.13-.85,0-1.63.06-2.02.59-1.05,1.31,1.44,5.29,2.68,7.11-1.05.06-7.54-.41-7.7,1.5-.13,1.5,1.96,4.76,3.07,6.26-.92.13-6.54.26-7.25,1.24-.98,1.36,1.93,5.28,2.94,6.66-3.35.59-6.68.6-7.05,1.76-.39,1.24.52,3.13,3.13,6.27-.83.28-4.12,1.14-4.83,1.37-1.96.65.33,2.68-1.31,5.55-5.63,16.95-10.67,43.23-10.67,65.67.66-2.55,10.91-69.3,65.76-126.38,26.29-27.36,55.45-43.24,55.45-43.24,0,0,16.36,4.84,30.57.17,14.59-4.8,21.15-17.56,21.15-17.56,0,0,20.01-6.1,55.81-10.23-.02-1.19-.03-5.82.1-8.72-2.86-3.57-8.75-12.28-10.45-12.28-5.26,0-5.99,12.08-6.13,14.75-4.93-4.93-8.17-11.02-10.53-10.98-2.5.04-3.4,8.02-3.56,13.59-4.96-4.79-8.37-10.39-10.18-10.12-2.61.39-2.67,7.96-2.61,11.16-3.87-3.43-7.78-8.68-9.33-8.42-2.16.36-2.41,5.42-2.28,9.4-4.21-7.28-2-15.64,2.54-16.77,22.05-5.52,50.24-9.16,55.08-9.77,1.59-7.32,3.87-14.32,6.77-20.9-.63-1.26-1.95-3.4-3.57-3.4-3.58,0-6.58,8.46-8.74,16.05-7.08-6.32-6.4-12.92-8.62-12.92-2.59,0-5.2,7.93-5.29,14.1-5.93-5.64-7.77-14.12-10.71-10.97-2.92,3.14-3.9,9.8-3.9,13.71-2.1-1.97-7.54-8.91-8.62-9.92-4.44-4.16-6.39,8.15-6.26,12.92-2.78-2.43-8.43-10.12-10.31-10.12,0,0-3.65-.48-2.81,13.64-6.2-3.72-8.55-10.57-7.57-15.66.25-1.31.72-2.28.72-2.28-.14-.07-4.02-3.99-11.63-6.06-23.7-6.45-61.72,9.99-50.11,48.28-1.08-.49-9.27-4.24-9.99-4.24-2.81,0-1.8,6.34-.98,9.46-1.87-.8-6.98-3.66-7.96-3.78-.98-.13-3.13-.49-.59,9.2-1.49-.42-6.65-3.47-7.77-3.26-2.91.53-.72,7.56-.26,8.94-.73-.26-4.32-1.81-6.26-2.46-.6-.2-4.69-1.97-1.38,8.33-1.55-.46-6.24-2.21-7.05-2.22-.81,0-3.16-.21-.07,8.42-5.56-1.24-7.58-2.81-8.28-.78-.59,1.7.85,5.42,1.7,7.24-4.37-.63-6.93-2.12-7.96-.78-.91,1.17.26,4.96,1.7,7.57-1.61-.19-5.85-.91-6.46-.91-.39,0-.85.07-1.11.33-1.37,1.37.39,5.61,1.76,7.9-3.29-.18-6.89-1.25-7.77.07-.78,1.17.85,5.29,2.28,7.44-.29,0-5.55-.2-5.55-.2-.72,0-1.63.06-2.02.78-.78,1.24.92,4.96,2.48,7.11-.91.07-4.04.07-4.04.07-1.63,0-2.65.25-2.91,1.36-.39,1.7,1.18,4.96,2.48,6.72-2.96.25-6.7.15-7.05,1.43-.52,1.96,1.63,5.22,2.87,6.66-2.42,1.12-6.75.48-7.18,1.96-.45,1.57.78,5.15,1.89,6.92-3.29,1.64-7.7-1.33-5.29,5.29.52,1.43,1.05,2.55,1.57,3.26-1.78,1.24-5.62.61-5.81,2.22-.2,1.63.65,4.7,1.83,6.53-.53.27-3.37,1.44-3.98,1.89-2.16,1.61.03,6.35.91,7.57ZM472.16,842.12c-.93-3.27-2.66-10.27-2.72-10.48.51-1.09,1.67-4.98,1.67-4.98.37-1.39-.1-2.78-1.14-3.37-1.21-.67-2.97-1.64-3.6-2,0,0,1.39-3.13,1.86-4.17.19-.42,1.21-2.53.71-3.97-.22-.57-1.1-1.26-1.83-1.65-1.53-.79-3.9-1.9-3.9-1.9,0,0,2.02-2.91,3.48-4.83.92-1.21.77-3.32-.92-4.07l-6.14-2.75.02-.05c.38-.25,1.29-1.13,3.97-4.16.36-.41,2.16-1.94,1.89-3.43-.14-.77-.75-1.47-1.62-1.87l-6.49-2.52c.45-.31,4.67-4.45,5.03-4.87.62-.7.87-1.45.72-2.17-.16-.78-.7-1.44-1.48-1.79-1.74-.79-6.3-3.2-6.31-3.2,1.31-1.08,4.16-4.2,4.31-4.37.91-1,1.03-2.75-.43-3.82,0,0-5.01-3.76-5.01-3.77,0,0,2.42-3.01,3.13-4.22.72-1.23.52-2.64-.52-3.61-1.29-1.17-2.79-2.54-3.78-3.47,0,0,1.7-2.8,2.62-4.56.5-1.01.32-2.39-.43-3.29l-3.09-3.64c.05-.23,2.55-5.55,1.08-7.62l-2.02-3.15c.62-2.39,1.04-4.62,1.09-5.45.14-2.2-2.03-4.22-2.15-6.95,0,0-4.18-46.92-4.18-46.92-4.34,87.37,15.1,159.47,23.47,173.45,0,0,.96,1.59,2.01,1.27.68-.2.9-.84.68-1.62ZM484.54,798.17s2.66-5.4,2.7-5.48c.46-.96.97-2.04.27-3.1-.6-.96-1.79-1.24-2.32-1.36-.53-.12-2.93-.75-4.48-1.2,1.03-1.5,3.2-4.68,3.98-5.62,1.61-1.95.71-3.73-1.38-4.11-2.36-.42-4.7-.86-6.97-1.27l4.56-5.84c.6-.76.77-1.54.51-2.32-.22-.72-.92-1.29-1.86-1.52,0,0-2.18-.27-7.46-1.57,1.7-2.07,4.51-5.62,4.51-5.62,1.39-1.94.08-3.43-1.23-3.77-2.15-.55-4.41-1.24-7.1-2.15,1.06-1.71,3.57-5.25,3.57-5.25,1.19-1.78.11-3.25-.99-3.74h0c-2.15-.89-4.06-1.75-5.97-2.7.25-.23,1.66-2.81,2.44-4.25.31-.57.77-1.73.61-2.54-.23-1.14-1.07-1.65-1.07-1.65-1.5-1-3.02-2.07-4.49-3.11.7-1.95,1.68-4.67,1.68-4.67.73-2.09-1.06-3.76-1.34-4.06-.86-.91-1.7-1.8-2.49-2.64,0,0,.64-2.27.97-3.63.63-2.53-.53-3.35-2.61-6.46-.25-4.84-.59-5.56-1.38-6.99-2.88-15.29-6.83-39.37-6.83-39.37,0,0,1.41,35.21,5.22,56.12,2.73,14.82,12.33,49.68,18.35,66.61,3.1,8.68,7.18,18.14,10.91,25.29,1.28,2.51,2.16,2.94,2.87,2.81,1.26-.24,1.28-4.36,1.15-5.17,0,0,.82-4.15.93-4.63.66-2.82-3.03-3.92-5.27-5.04ZM597.71,909.52c.06-.13,2.22-5.02,2.22-5.02,0,0-21.43-8.16-52.86-28.84-30.21-19.89-46.66-35.76-46.66-35.76,0,0-3.63,4.7-3.79,4.89-2.74,3.52-2.81,7.05-.06,10.38,1.17,1.5,6.46,6.92,7.9,8.42-.72,1.04-2.68,3.85-3.72,5.74-1.57,3.07-1.11,7.51,1.11,10.12,1.5,1.83,11.36,11.94,13.44,14.03-.65,1.11-2.35,3.92-3.13,5.61-1.04,2.28-.46,4.7,1.7,7.18,2.87,3.39,13.64,12.01,18.79,14.81,4.14,2.26,7.73.44,9.4-1.31,1.31-1.37,2.68-3.13,3.26-3.92,2.48,1.24,12.79,6.59,15.4,7.5,1.42.5,7.9,1.27,11.1-3.13,1.56-2.15,5.09-7.44,6.13-9.01l9.14,3.59c3.74,1.55,8.29-.49,10.64-5.29ZM698.33,977.97s-7.53-9.79-11.31-25.17c-2.62-10.65-2.07-19.99-2.07-19.99,0,0-28.64-5.61-55.93-15.6l-.56-.23-.16.43c-.2.3-10.12,27.61-10.12,27.61,0,0,22.25,7.44,27.34,9.14-15.97-3.58-39.09-12.34-41.24-13.05-.59-.19-1.18-.33-1.76-.33-2.09,0-3.85,1.24-4.5,3.2l-1.44,3.85c-.85,2.35.33,5.09,2.68,6.07,43.96,18.33,99.06,24.08,99.06,24.08ZM710.41,977.09c-28.84-49.83-1.68-82.8,11.94-95.1.15-.14.23-.33.23-.52,0-.14-.04-.28-.12-.4-.21-.3-.62-.39-.94-.2-15.92,9.61-26.16,24.8-28.86,42.8-2.97,19.36,3.07,39.11,16.59,54.26.14.16.34.24.54.24.15,0,.3-.05.43-.14.29-.22.38-.62.19-.94ZM735.14,955.39s2.97-3.56,3.65-4.37c.65-.78.85-1.83.39-2.74-.46-.98-1.3-1.57-2.29-1.57-4.77.52-9.79,1.36-14.98,2.44-3.08.64-10.97,2.82-10.97,2.82,0,0,7.9,1.1,20.21.41-7.83,10.28-10.67,16.86-10.71,16.96.08-.05,4.95-3.3,14.69-13.96ZM773.97,986.33l-.26-2.48c-.65-6.33-2.61-12.33-4.5-17.42-.32-.98-1.31-1.63-2.41-1.63s-2.02.59-2.35,1.57c-2.15,4.89-4.5,10.77-5.68,17.16l-.39,2.41,1.57-1.83c2.22-2.68,4.44-6.2,6.66-10.38,2.02,4.57,3.85,7.57,5.94,10.57l1.43,2.02ZM774.62,936.79c7.18,2.94,14.68,4.37,22.38,4.37,17.27,0,30.47-7.9,30.47-7.9,0,0-14.39-9-31.91-9-8.74,0-15.99,2.09-21.01,3.85,24.63-19.47,23.62-47.64,23.62-47.64,0,0-25.35,12.45-30.93,42.94-4.44-30.96-29.43-43.99-29.43-43.99,0,0-1.96,28.09,21.73,48.23-7.24-2.87-14.81-4.31-22.58-4.31-16.95,0-30.28,7.83-30.28,7.83,0,0,14.06,8.94,32.04,8.94,7.05,0,14.09-1.24,21.08-3.78-25.14,20.19-23.82,47.64-23.82,47.64,0,0,25.68-12.36,30.93-43.46,4.74,31.52,29.5,44.57,29.5,44.57,0,0,2.14-27.79-21.79-48.29ZM822,954.46s-3.6-3.23-24.61-6.83c0,0-1.79-.47-2.74,1.44-.46.91-.33,1.89.26,2.68,11.42,15.26,16.67,18.85,16.67,18.85,0,0-.78-4.55-9.1-17.03,11.33,1.39,19.51.89,19.51.89ZM823.32,980.35c13.97-14.63,20.71-34.05,18.45-53.35-2.07-18.2-11.79-33.78-27.4-44.03-.12-.08-.25-.11-.38-.11-.2,0-.4.09-.54.26-.22.28-.19.68.06.92,27.18,26.25,30.45,61.84,8.69,95.43-.08.12-.12.25-.12.39,0,.2.08.4.25.54.29.25.72.23.98-.05ZM934.51,907.95l-.78-2.35c-.46-1.31-1.63-2.09-2.93-2.09-1.48,0-18.47,7.26-30.54,11.42l-9.79-29.76s-13.03,4.87-27.41,7.24c18.54-5.03,31.59-9.33,40.59-13.25,2.93-1.31,4.05-3.98,2.87-7.05-.26-.72-.78-2.22-1.04-3.07-.78-2.35-2.61-3.65-4.7-3.65-1.64,0-2.18.62-10.12,3.39-34.22,11.94-63.04,15.66-63.04,15.66,0,0,8.93,7.69,14.89,20.73,5.56,12.16,6.25,23.64,6.25,23.64,0,0,22.16-3.35,50.64-12.2l1.83,5.74c-26.21,8.66-52.21,12.79-52.21,12.79,0,0,.09,8.98-2.37,18.85-3.77,15.1-12.11,25.85-12.11,25.85,0,0,23.16-1.81,48.8-7.12,16.5-3.41,32.03-7.77,46.86-13.11,2.42-.91,3.79-3.59,2.94-6.07-.46-1.37-1.31-3.92-1.57-4.5-.26-.72-1.63-2.68-4.24-2.68-1.25,0-3.54.83-8.94,2.55-9.46,3-22.71,7.18-34.85,9.4,8.19-2.25,28.13-8.22,28.13-8.22l-8.75-26.89c4.31-1.44,16.64-5.55,29.89-11.42,1.44-.65,2.22-2.28,1.7-3.85ZM1052.59,835.06c-1.01,0-11.77,3.23-14.5,3.23-1.23,0-1.92-1.01-1.84-1.79.25-2.33,1.56-14.78,1.56-14.8.17-3.03-3.6-4.74-5.55-2.7,0,0-.01.01-.02.02-4.92,5.53-12.02,13.08-17.92,17.68,0,0-.78.39-1.28.39-1.53,0-2.01-.95-1.86-1.83.07-.4,1.02-5.75,1.51-9.65.35-2.82-3.18-5.04-5.29-3.31-7.26,5.97-16.31,11.97-16.31,11.97-.87.72-2.75.29-2.35-1.27.24-.92,1.98-5.87,2.26-7.05,0,0,0-.01,0-.02.59-2.81-2.84-5.78-5.47-3.77-4.81,3.67-13.95,9.88-20.31,13.51-1.46.85-2.27,2.18-2.15,3.56.11,1.26.96,2.34,2.21,2.81,1.6.6,7.66,1.84,8.96,2.34.6.23,1.37.68-1.23,2.39-4.23,2.79-8.71,5.26-16.52,9.12-3.3,1.63-2.8,5.86.03,6.74.76.23,8.81,2.82,10.71,3.44,1.36.45,1.18,2.85.2,3.51-5.03,3.39-13.71,8.71-21.66,12.56,0,0,0,0,0,0-2.6,1.32-2.08,5.97.98,6.66,0,0,11.74,2.77,12.16,2.86,1.93.38,3.12,1.28,1.91,3.75-.19.4-4.53,9.46-6.4,12.97-1.29,2.41.71,5.13,3.24,5.13.41,0,.82-.07,1.2-.21,2.9-1.07,25.12-11.22,25.16-11.24,1.19-.7,2.59.84,1.95,2.18,0,0,0,.02-.01.02,0,0-1.95,4.48-4.41,9.8,0,0,0,0,0,.01-1.38,2.97,1.55,6.3,4.57,4.7,0,0,.01,0,.02-.01,8.29-4.74,17.88-10.72,26.29-16.42,1.32-.9,2.71.37,2.19,1.87,0,0,0,0,0,.01-1.15,3.35-2.52,7.82-3.47,10.99-1.01,3.36,2.15,5.94,4.97,4.11.01,0,.02-.01.03-.02,12.6-8.89,21.47-17.91,26.24-23.08,2.13-2.31,1.19-5.21-1.81-5.21-.53,0-10.56.7-10.6.7-1.19,0-1.1-.89-.05-1.73,8.64-6.88,17.61-19.17,18.66-20.45,2.1-2.53,1.06-5.45-1.97-5.6-1.46-.07-7.36-.11-8.65-.14-1.93-.05-1.98-1.73-1.11-2.51,5.57-4.98,11.54-11.82,18.25-20.92,0,0,.01-.01.02-.02,1.57-2.28,0-5.29-2.53-5.29ZM1074.05,784.92c6.02-16.93,15.62-51.8,18.35-66.61,3.81-20.91,5.22-56.12,5.22-56.12,0,0-3.95,24.08-6.83,39.37-.79,1.43-1.13,2.14-1.38,6.99-2.08,3.11-3.24,3.93-2.61,6.46.33,1.35.97,3.63.97,3.63-.79.84-1.63,1.72-2.49,2.64-.28.3-2.07,1.97-1.34,4.06,0,0,.98,2.72,1.68,4.67-1.47,1.04-2.99,2.12-4.49,3.11,0,0-.84.51-1.07,1.65-.16.81.3,1.97.61,2.54.78,1.44,2.2,4.02,2.44,4.25-1.92.95-3.83,1.81-5.97,2.69h0c-1.1.49-2.17,1.97-.99,3.75,0,0,2.51,3.54,3.57,5.25-2.69.91-4.95,1.6-7.1,2.15-1.31.34-2.62,1.83-1.23,3.77,0,0,2.81,3.56,4.51,5.62-5.29,1.3-7.46,1.57-7.46,1.57-.95.24-1.64.81-1.86,1.52-.26.78-.09,1.56.51,2.32l4.56,5.84c-2.27.42-4.61.85-6.97,1.27-2.09.37-2.99,2.16-1.38,4.11.77.93,2.95,4.11,3.98,5.62-1.55.44-3.94,1.07-4.48,1.2-.53.12-1.73.4-2.32,1.36-.7,1.06-.19,2.14.27,3.1.04.08,2.7,5.48,2.7,5.48-2.23,1.13-5.93,2.22-5.27,5.04.11.48.93,4.63.93,4.63-.14.81-.12,4.93,1.15,5.17.71.13,1.58-.3,2.87-2.81,3.74-7.16,7.82-16.61,10.91-25.29ZM1102,669.02s-4.18,46.92-4.18,46.92c-.13,2.73-2.3,4.76-2.15,6.95.05.83.47,3.06,1.09,5.45l-2.02,3.15c-1.47,2.07,1.03,7.39,1.08,7.62l-3.08,3.64c-.75.9-.94,2.29-.44,3.29.92,1.76,2.62,4.56,2.62,4.56-1,.92-2.49,2.29-3.78,3.47-1.04.96-1.24,2.38-.52,3.61.72,1.21,3.13,4.22,3.13,4.22,0,0-5,3.77-5,3.77-1.46,1.06-1.34,2.82-.43,3.82.15.17,3,3.29,4.31,4.37,0,0-4.57,2.41-6.31,3.2-.78.36-1.32,1.01-1.49,1.79-.14.72.11,1.47.73,2.17.37.42,4.58,4.57,5.03,4.87l-6.49,2.52c-.88.4-1.48,1.1-1.62,1.87-.27,1.49,1.52,3.02,1.89,3.43,2.68,3.03,3.59,3.91,3.97,4.16v.05s-6.12,2.75-6.12,2.75c-1.69.75-1.84,2.87-.92,4.07,1.46,1.92,3.48,4.83,3.48,4.83,0,0-2.37,1.11-3.9,1.9-.73.38-1.62,1.07-1.83,1.65-.5,1.44.52,3.56.71,3.97.46,1.04,1.86,4.17,1.86,4.17-.63.36-2.38,1.33-3.59,2-1.04.59-1.5,1.98-1.14,3.37,0,0,1.16,3.89,1.67,4.98-.06.22-1.79,7.22-2.72,10.48-.22.79,0,1.42.68,1.62,1.06.32,2.01-1.27,2.01-1.27,8.37-13.98,27.82-86.07,23.47-173.45ZM1029.38,845.14c.16.19.33.49.26.88-2.75,15.8-6.42,29.72-11.55,43.76-.16.42-.22.76-.48,1.06-.17.19-.42.36-.81.38-2.61.11-5.26.17-7.86.17-12.3,0-24.54-1.21-37.42-3.69-.56-.12-.83-.56-.93-.82-.22-.54-.18-1.16.12-1.62.02-.03.04-.07.06-.11,6.28-13.21,11.26-26.35,14.8-39.09.12-.42.14-.95.62-.95,0,0,1.13.14,1.24.15,2.79.33,9.96,1.07,18.14,1.07h0c7.57,0,15.2-.57,22.67-1.68.04,0,.08,0,.12,0,.36,0,.77.21,1.03.51ZM1012.87,858.04c-6.12.12-12.07.11-18.06-.35-.85-.07-1.57.38-1.81,1.22-1.99,6.49-3.93,11.88-5.93,16.8-.6,1.43-.08,3.06,1.5,3.25,3.13.31,12.55,1.29,19.28,1.04.91,0,1.69-.54,2.02-1.37,2.1-5.89,3.82-11.89,5.43-17.64.38-1.5-.92-3.03-2.43-2.96ZM605.8,379.92c-1.71,0-3.62.35-5.5,1.02-2.04.72-3.87,1.7-5.27,2.55.94-.05,1.9-.13,2.88-.2,2.16-.17,4.41-.34,6.69-.34.59,0,1.18,0,2.09.04,2.86.18,5.8.68,8.32,1.12.82.14,1.6.27,2.34.38-1.03-.73-2.31-1.55-3.75-2.3-2.66-1.43-5.16-2.19-7.79-2.27ZM941.31,382.98c.9-.03,1.5-.04,2.09-.04,2.28,0,4.53.17,6.69.34.98.07,1.94.15,2.88.2-1.4-.85-3.22-1.83-5.27-2.55-1.89-.67-3.79-1.02-5.5-1.02-2.64.08-5.13.85-7.79,2.27-1.44.75-2.72,1.57-3.75,2.3.74-.11,1.53-.25,2.34-.38,2.52-.45,5.45-.94,8.32-1.12ZM600.74,371.96c2.77.11,5.66.61,8.81,1.15.76.12,1.48.23,2.17.33-1.49-1.05-3.31-2.18-5.28-3.04-2.02-.93-4.04-1.45-6.31-1.51-1.93,0-4.05.46-6.31,1.38-1.69.66-3.2,1.47-4.39,2.19.87-.05,1.75-.12,2.65-.19,2.2-.17,4.47-.34,6.78-.34.61,0,1.21.01,1.88.04ZM597.23,361.03l1.89.03c2.83.15,5.76.63,8.97,1.16.71.13,1.39.25,2.03.34-2.73-1.92-7.1-4.41-11.62-4.57-4.04,0-8.11,1.99-10.71,3.58.92-.05,1.86-.13,2.82-.2,2.14-.17,4.37-.34,6.62-.34ZM948.58,275.59h2.02c2.22,0,4.44.13,6.53.33.98.06,1.89.13,2.8.2-.26-.2-.52-.33-.78-.46-2.48-1.44-6.2-3.13-9.99-3.13-2.8.06-5.61.98-8.68,2.74-.91.52-1.89,1.17-2.87,1.83.78-.13,1.57-.26,2.41-.39,2.68-.46,5.68-.98,8.55-1.11ZM598.84,272.52c-3.78,0-7.5,1.7-9.99,3.13-.26.13-.52.26-.78.46.91-.06,1.83-.13,2.8-.2,2.09-.2,4.31-.33,6.53-.33h2.02c2.87.13,5.87.65,8.55,1.11.85.13,1.63.26,2.41.39-.98-.65-1.96-1.31-2.87-1.83-3.07-1.76-5.88-2.68-8.68-2.74ZM594.4,286.68c-.26.2-.52.33-.72.46.91-.06,1.89-.13,2.87-.2,2.15-.19,4.44-.33,6.66-.33h1.83c2.81.13,5.75.65,8.36,1.11.91.13,1.76.26,2.61.39-1.05-.72-2.09-1.37-3.07-1.89-3.01-1.7-5.68-2.61-8.55-2.68-3.72,0-7.51,1.7-9.99,3.13ZM950.27,264.69c.59-.06,1.18-.06,1.76-.06,2.29,0,4.57.19,6.79.39.91.07,1.83.13,2.74.2-.26-.2-.59-.33-.91-.52-1.96-1.17-5.87-3.07-9.86-3.07-2.87.13-5.68,1.04-8.74,2.81-.92.52-1.89,1.11-2.81,1.76.78-.13,1.7-.26,2.55-.39,2.61-.46,5.61-.98,8.48-1.11ZM595.96,264.63c.59,0,1.17,0,1.76.06,2.87.13,5.87.65,8.48,1.11.85.13,1.76.26,2.55.39-.91-.65-1.89-1.24-2.81-1.76-3.07-1.76-5.87-2.67-8.74-2.81-3.98,0-7.9,1.89-9.86,3.07-.33.2-.65.33-.91.52.91-.06,1.83-.13,2.74-.2,2.22-.2,4.5-.39,6.79-.39ZM947.26,371.96c.67-.03,1.27-.04,1.88-.04,2.31,0,4.59.17,6.78.34.9.07,1.78.14,2.65.19-1.19-.72-2.7-1.53-4.38-2.19-2.27-.92-4.39-1.38-6.31-1.38-2.26.06-4.29.58-6.31,1.51-1.97.86-3.79,1.99-5.28,3.04.69-.1,1.41-.21,2.17-.33,3.15-.55,6.04-1.04,8.81-1.15ZM942.97,286.62h1.83c2.22,0,4.5.13,6.66.33.98.07,1.96.13,2.87.2-.19-.13-.46-.26-.72-.46-2.48-1.44-6.26-3.13-9.99-3.13-2.87.06-5.54.98-8.55,2.68-.98.52-2.02,1.17-3.07,1.89.85-.13,1.7-.26,2.61-.39,2.61-.46,5.55-.98,8.36-1.11ZM948.88,361.06l1.89-.03c2.26,0,4.48.17,6.62.34.96.08,1.9.15,2.82.2-2.6-1.59-6.66-3.58-10.71-3.58-4.52.16-8.89,2.65-11.62,4.57.65-.1,1.33-.21,2.03-.34,3.21-.53,6.13-1.01,8.97-1.16ZM700.76,294.55c.11-1.27.2-2.57.34-3.84,4.42-41.68,32.98-73.8,71.87-73.8,42.33,0,72.45,38.17,72.45,85.22,0,42.17-22.27,77.13-58.94,83.96-1.18.22-2.32.44-3.6.57-1.28.13-1.36.87,0,.73,1.36-.15,2.65-.33,3.94-.55,38.63-6.43,62.08-42.75,62.08-86.54,0-48.36-30.98-87.5-74.54-87.5-40.57,0-70.25,33.95-74.1,77.71-.12,1.33-.19,2.64-.28,4.02-.09,1.38.67,1.27.78,0ZM782.52,359.84h-1.7c-.26,0-.52-.2-.52-.52v-1.7c0-.78.59-1.37,1.37-1.37h.65c.65-.59,1.56-1.31,2.28-2.22.59-.78,1.04-1.96,1.18-2.48,0-.2,0-.33-.13-.46-.52-.52-1.04-.98-1.5-1.5-.33-.26-9.66-9.27-9.73-9.33-.06-.13-.72-.39-.91-.26l-11.42,11.09c-.13.07-.2.26-.13.39.39,1.89,1.76,3.33,3.07,4.63,0,0,1.04.13,1.11.13.72.07,1.31.65,1.24,1.37v1.7c0,.26-.2.52-.46.52h-1.7c-.78-.06-1.37-.65-1.37-1.43v-.65l-4.51-4.76c-.13,0-.59-.07-.72,0-2.02,1.96-3.72,3.59-5.42,5.16-3.07,2.74-6.2,4.31-10.57.59-1.37-1.17-4.11-3.13-4.44-4.89-.26-1.31.78-2.02,1.24-2.22,2.48-.85,5.29-1.96,6.85-3.52,1.7-1.83,2.61-4.05,2.68-6.4,0-.26.2-.46.46-.46h1.7c.78,0,1.44.59,1.44,1.37v.72c1.5,1.7,2.41,2.81,4.7,3.33,2.35.59,6.46-.59,7.05-1.24.13-.13.13-.33.07-.46-.07-.2-.2-.26-.39-.33-1.24-.06-2.35-.2-3.92-.39l8.55-8.22c.26-.13.45-.65.26-.91-2.29-1.96-4.38-3.66-6.46-5.09-4.96-3.52-10.11-6.33-15.92-8.22-7.83-2.68-16.38-2.81-23.95-2.74,5.48-3,15.53-3.92,22.71-2.48,10.64,1.76,19.71,7.38,28.26,14.49.13,0,.59.07.65,0,3.2-2.74,6.2-4.89,9.65-7.05,5.74-3.59,11.94-6.33,18.6-7.44,7.25-1.43,17.17-.52,22.78,2.48-5.81,0-11.23,0-17.75,1.11-5.48,1.04-10.64,3-15.59,5.68-4.77,2.61-8.88,5.68-12.99,9.27-.26.2-.26.59,0,.72l9.01,8.61c-1.24.2-2.15.26-3.26.33-.39.06-.65.59-.13.91,1.31.78,4.63,1.37,6.01.98,2.54-.72,2.87-1.37,4.57-3.07,0,0,.13-1.04.13-1.11.06-.72.65-1.24,1.37-1.24h1.7c.26,0,.52.2.52.46.07,2.81,1.5,5.35,3.14,6.79,1.43,1.24,3.91,2.29,5.87,3,.19.06.26.06.52.2.33.06.98.59,1.17,1.17.26.72-.06,1.57-.52,2.15-.98,1.44-2.93,2.87-3.92,3.72-6.46,5.55-10.51-.85-15.99-5.74-.13-.13-.46-.13-.59,0l-4.44,4.44s-.13,1.04-.13,1.11c-.07.72-.65,1.24-1.37,1.3ZM791.92,350.05l5.55,5.35c.91.85,2.35.91,3.33.13.78-.59,2.68-2.02,2.87-2.15.26-.19.85-.59.78-.91-.06-.2-.06-.39-.26-.46-2.02-.39-3.59-1.18-4.57-2.35-1.18-1.37-1.83-2.81-2.15-4.31,0-.2-.2-.39-.39-.39h-.59c-.26,0-.33.13-.39.19-.07.13-4.24,4.24-4.24,4.24-.13.2-.13.52.06.65ZM755.83,349.4l-4.24-4.31-.91-.13c-.2,0-.39.19-.39.39-.72,3.26-2.94,6.07-6.79,6.66-.33.06-.46.59-.13.78l.78.59c.19.2,2.35,1.83,2.74,2.15.98.78,2.48.72,3.33-.13l5.61-5.35c.19-.19.13-.46,0-.65ZM769.82,246.54c-2.26-1.59-6.77-4.29-11.58-4.57-4.95-.43-9.82,2.33-12.11,4.28l4.48-.73,2.21.62,3.04-.89,2.93.69,3.57-.29c.17.04,4.2,1.12,7.37,2.74.2.1.29.33.22.55-.07.21-.29.34-.51.3-2.83-.55-10.59-1.39-14.28-.34-3.65.89-6.38,3.41-8.27,7.77l3.51-2.11,2.11-.2,2.21-1.81,2.91-.37,2.58-1.46c.38-.17,7.47-.53,9.06,0,.21.04.36.22.37.43,0,.22-.14.4-.35.45-2.85.67-9.88,2.59-13.58,6.07-4.33,4.12-4.97,9.99-5.01,12.91l2.47-4.48,2.2-1.29,1.38-3.14,2.46-1.4,1.9-2.99s4.71-2.66,8.72-4.15c.21-.07.44,0,.55.21.11.19.05.45-.13.58-4.16,3.09-7.09,6.42-8.47,9.62-2.41,5.61-.06,11.09.76,12.7l.07-4.13,1.72-3.43.14-4.01,1.94-2.65,1.05-3.85c.07-.07,1.61-1.73,3.77-3.42.14-.11.33-.13.49-.05.16.08.25.25.24.42l-2.25,57.26c0,.15-.09.28-.21.36-.12.08-.28.1-.41.04l-1.67-.7.68,1.49c.07.17.04.36-.08.5-.13.13-.32.18-.49.11l-2.93-1.12.84,1.73c.09.16.05.35-.06.49-.11.14-.31.19-.48.14l-3.06-.97c1.36,1.17,6.14,5.28,7.56,6.39s2.74,2.32,4.45,2.32,2.98-1.18,4.46-2.32c1.59-1.23,6.25-5.24,7.59-6.4l-3.06.98c-.17.05-.36,0-.48-.14-.11-.13-.14-.33-.07-.49l.83-1.73-2.9,1.12c-.17.07-.36.03-.49-.11-.13-.13-.16-.33-.09-.49l.65-1.48-1.64.71c-.13.05-.3.05-.42-.04-.13-.08-.21-.22-.21-.36l-2.26-57.28c0-.17.09-.34.25-.42.16-.08.34-.07.49.05,2.17,1.7,3.7,3.35,3.87,3.62l.84,3.5,2.09,3.06.02,3.55,1.84,3.82.03,3.92c.81-1.62,3.14-7.09.75-12.69-1.77-4.11-5.6-7.52-8.5-9.65-.18-.13-.24-.38-.13-.58.11-.2.34-.29.55-.21,4.01,1.49,8.67,4.14,8.87,4.33l1.62,2.68,2.81,1.77,1.01,2.71,2.54,1.66,2.29,4.26c0-2.21-.43-8.5-5.02-12.86-3.5-3.32-10.02-5.23-13.59-6.07-.21-.05-.35-.24-.35-.45,0-.21.16-.39.37-.43,1.72-.54,8.71-.19,9.26.06l2.24,1.34,3.31.53,1.75,1.6,2.53.37,3.32,2.06c-1.75-4.25-4.53-6.86-8.27-7.78-3.97-1.01-10.83-.26-14.35.37-.21.04-.44-.09-.5-.3-.07-.22.03-.45.22-.55,3.21-1.65,7.27-2.73,7.59-2.79l3.27.32,3.3-.69,2.56.87,2.62-.61,4.31.73c-4.96-3.85-8.59-4.4-12.1-4.28-4.76.31-9.34,3.02-11.65,4.61-.18.12-.42.1-.58-.06-.15-.15-.17-.4-.04-.58,1.7-2.37,5.01-4.84,5.3-5.01l2.38-.6,2.17-1.51,2.11-.17,1.66-1.09,2.8-.92c-2.75-.54-6.79-.21-9.33,1-2.22.98-4.8,3.32-7.44,6.78-.14.18-.39.23-.59.12-.19-.11-.27-.36-.19-.56.92-2.27,2.12-4.77,2.27-4.95l1.84-1.29,1.39-1.97,1.72-.84,1.06-1.46,2.02-1.62c-1.6.28-4.95,1.16-7.58,3.73-1.61,1.58-2.82,4.2-3.55,6.11-.09.22-.33.34-.55.28-.23-.07-.36-.29-.32-.52.37-1.92.6-3.62.6-4.44-.06-2.66-.8-4.71-1.12-5.5-.39.93-1.08,2.92-1.14,5.48,0,.83.23,2.54.6,4.45.04.23-.09.45-.32.52-.23.06-.47-.06-.55-.28-.72-1.91-1.93-4.52-3.54-6.11-2.72-2.65-6.2-3.5-7.61-3.72l2.14,1.71.78,1.22,2.09,1.14,1.08,1.71,2.09,1.57s1.22,2.6,2.17,4.86c.09.21,0,.45-.19.57-.19.11-.45.06-.59-.12-1.82-2.45-4.6-5.62-7.46-6.87-2.49-1.2-6.7-1.56-9.36-.99l2.94.97,1.32.96,2.57.32,1.79,1.36,2.69.75c.14.1,3.42,2.57,5.09,4.91.13.18.11.44-.05.58-.18.17-.4.16-.58.05ZM682.67,538.71l-22.75-18.32-18.32,23.76,23.25,17.82,17.83-23.26ZM995.2,685.42c-25.32,25.32-52.92,50.32-83.6,62.13-13.25,4.05-76.16,7.44-83.92,7.7-.98,0-1.83.07-2.68.07-8.81,0-9.09-1.4-9.14-1.57-.09-.32.65-.91,1.37-1.11,65.91-20.75,154.21-58.86,200.87-122.3-2.22-8.81-11.75-13.9-24.67-13.9,0,0-24.79,1.52-34.85-1.04-13.31-3.39-20.82-12.86-21.21-26.56-.39-11.42,3.72-24.67,10.9-35.44,7.44-11.09,16.77-17.62,25.65-17.88,11.09,0,23.76,9.33,33.8,23.82,10.12,14.55,17.56,34.33,18.14,55.21.78,27.41-8.94,49.92-30.67,70.87ZM996.7,584.92l-.91-1.31c-11.04-15.52-27.04-21.27-38.18-12.86-2.94,2.22-4.63,5.09-4.57,7.64.19,7.54,19.05,6.59,24.41,6.13,3.06-.26,6.53-.46,9.92-.46,3.07,0,5.61.2,7.77.59l1.57.26ZM1024.69,693.66c-15.02,17.21-38.65,40.21-51.43,50.65.48,3.65.74,6.87,1,10.35,16.77-13.36,39.13-35.29,53.49-51.98-1.29-3.52-2.18-6.22-3.06-9.02ZM812.35,614.91c-.64-21.5-14.88-49.49-14.88-49.49,0,0,5.27-.34,8.32-1.87l-27.67-33.44c-3.04,6.05-6.11,15.63-9.29,27.98l1.62,1.49c2.54,2.32,4.54,4.15,5.06,6.42,5.45,14.64,9.52,22.92,13.82,31.69,9.68,19.73,13.75,30.76,13.75,30.76,0,0-87.92,43.32-176.81,43.32-67.47,0-92.47-32.44-93.36-62.8-.3-10.2,1.37-19.31,4.13-33.15l-4.1-.7c-3.9,9.18-11.79,35.17-11.15,56.7,3.53,119.44,195.13,70.65,276.51,26.91,4.68-2.52,14.45-30.92,14.07-43.85ZM663.19,579.76l-25.39-20.39-20.39,26.41,25.88,19.88,19.89-25.9ZM902.16,622.88c-.6-20.43-9.67-36.63-19.28-53.77l-3.88-6.98s6.69,0,10.51-1.95l-27.68-33.44c-3.04,6.05-6.11,15.64-9.29,27.97l1.62,1.5c2.54,2.32,4.54,4.15,5.08,6.48,4.3,18.61,32.69,73.18,32.69,73.18l-.31.34c-51.65,57.55-165.35,93.43-226.45,112.71-.74.21-1.42.8-1.37,1.09.01.08.32,1.55,9.1,1.55.82,0,1.71-.01,2.66-.04,8.18-.24,76.68-3.93,89.68-7.84,37.42-14.43,79.94-33.33,111.55-64.2,17.18-17.12,25.95-36.69,25.36-56.6ZM693.52,599.91l19.89-25.9-25.39-20.39-20.39,26.41,25.88,19.88ZM649.44,872.79c-1.51,0-2.75,1.22-2.78,2.73-.03,1.55,1.2,2.84,2.73,2.86h.04c1.53,0,2.8-1.24,2.82-2.76.01-.74-.26-1.44-.78-1.97-.53-.54-1.23-.85-2.03-.86ZM669.14,879.29c-.51-.53-1.2-.83-2.05-.84-1.54,0-2.77,1.2-2.79,2.73-.03,1.57,1.2,2.84,2.79,2.89h.04c1.51,0,2.76-1.25,2.79-2.79.01-.75-.26-1.45-.78-1.99ZM684.71,888.76h.04c1.53,0,2.79-1.24,2.82-2.76.01-.75-.27-1.45-.78-1.98-.52-.54-1.22-.84-2.02-.85-1.56,0-2.79,1.2-2.82,2.73-.01.76.27,1.48.78,2.01.52.54,1.22.84,1.98.85ZM846.27,885.78c-1.51,0-2.77,1.23-2.79,2.75-.02.75.26,1.45.78,1.99.52.54,1.21.84,1.96.85h.05c1.51,0,2.77-1.23,2.79-2.75.02-.75-.27-1.45-.78-1.99-.52-.54-1.21-.84-2.01-.85ZM625.38,953.06c-1.53,0-2.79,1.24-2.81,2.76-.03,1.54,1.21,2.8,2.76,2.83h.04c1.56,0,2.79-1.2,2.82-2.73.01-.75-.27-1.46-.79-2-.52-.54-1.22-.85-2.02-.86ZM678.99,964.81c-1.51,0-2.77,1.24-2.79,2.76-.03,1.57,1.18,2.84,2.73,2.89h.05c1.55,0,2.78-1.22,2.81-2.79.03-1.56-1.19-2.81-2.8-2.86ZM660.86,961.67c-1.53,0-2.79,1.24-2.82,2.76-.02,1.54,1.21,2.81,2.76,2.83h.05c1.51,0,2.76-1.22,2.78-2.73.01-.75-.26-1.46-.78-2-.52-.54-1.21-.85-1.99-.86ZM642.85,957.7c-1.53,0-2.79,1.24-2.82,2.76-.03,1.57,1.19,2.84,2.76,2.89h.04c1.52,0,2.77-1.25,2.79-2.79.03-1.53-1.2-2.81-2.77-2.86ZM852.44,967.19c-1.55,0-2.79,1.2-2.82,2.74-.01.75.27,1.46.79,1.99.53.54,1.23.84,1.99.85h.05c1.51,0,2.76-1.23,2.79-2.74.03-1.55-1.2-2.82-2.8-2.85ZM906.53,962.12h.05c1.52,0,2.77-1.23,2.8-2.75.03-1.54-1.21-2.82-2.8-2.85-1.56,0-2.8,1.21-2.82,2.75-.01.75.27,1.46.79,1.99.52.54,1.23.84,1.99.85ZM888.52,966.59h.05c1.52,0,2.77-1.23,2.8-2.75.03-1.56-1.21-2.85-2.79-2.87-1.54,0-2.77,1.22-2.8,2.78-.03,1.55,1.21,2.82,2.75,2.85ZM870.58,964.38c-1.52,0-2.77,1.23-2.8,2.75-.03,1.54,1.21,2.82,2.75,2.85h.05c1.52,0,2.77-1.23,2.8-2.75.03-1.54-1.21-2.82-2.8-2.85ZM881.73,882.53h.05c1.52,0,2.77-1.23,2.8-2.75.03-1.54-1.2-2.82-2.79-2.85-1.52,0-2.77,1.23-2.8,2.75-.01.75.27,1.45.79,1.99.52.54,1.21.84,1.96.85ZM864,887.27c1.52,0,2.77-1.23,2.8-2.75.03-1.54-1.21-2.82-2.79-2.85-1.52,0-2.77,1.23-2.79,2.75-.03,1.54,1.2,2.81,2.74,2.84h.05Z"/>
  </g>
</svg>