<svg xmlns="http://www.w3.org/2000/svg" width="198" height="162" viewBox="0 0 198 162" fill="none">
  <g clip-path="url(#clip0_838_2208)">
    <path d="M4.56957 131.498C5.30736 131.498 5.95374 131.387 6.52177 131.158C7.08981 130.93 7.57296 130.61 7.97124 130.192C8.36951 129.774 8.67638 129.271 8.88531 128.677C9.09424 128.09 9.19871 127.43 9.19871 126.706C9.19871 125.785 9.00283 124.91 8.61109 124.081C8.21934 123.252 7.5599 122.377 6.63277 121.456L6.03209 120.875H3.29639L2.62389 121.6C0.834918 123.454 -0.0595703 125.276 -0.0595703 127.071C-0.0595703 128.397 0.345236 129.461 1.14832 130.277C1.95793 131.093 3.09399 131.498 4.56957 131.498ZM2.29091 125.478C2.53249 125.093 2.90465 124.616 3.42045 124.048L4.2627 123.101H4.43246L5.41835 124.048C6.09085 124.662 6.55442 125.184 6.82211 125.609C7.08328 126.033 7.22039 126.444 7.22039 126.83C7.22039 127.391 6.9984 127.861 6.56095 128.22C6.1235 128.586 5.54241 128.762 4.8242 128.762H4.34758C3.62938 128.762 3.04829 128.56 2.61084 128.155C2.17339 127.75 1.9514 127.267 1.9514 126.706C1.93181 126.275 2.04933 125.863 2.29091 125.478Z" fill="white" fill-opacity="1"/>
    <path d="M19.0058 136.267C19.3714 136.267 19.6717 136.156 19.8937 135.927C20.1157 135.699 20.2267 135.353 20.2267 134.889C20.2267 134.406 20.1157 134.054 19.8937 133.838C19.6717 133.623 19.3714 133.512 19.0058 133.512H18.6467C18.281 133.512 17.9872 133.623 17.7718 133.838C17.5563 134.054 17.4453 134.406 17.4453 134.889C17.4453 135.359 17.5498 135.706 17.7718 135.927C17.9872 136.156 18.281 136.267 18.6467 136.267H19.0058Z" fill="white" fill-opacity="1"/>
    <path d="M23.6164 134.889C23.6164 134.406 23.5054 134.054 23.2834 133.838C23.0614 133.623 22.761 133.512 22.3954 133.512H22.0363C21.6707 133.512 21.3769 133.623 21.1614 133.838C20.946 134.054 20.835 134.406 20.835 134.889C20.835 135.359 20.946 135.706 21.1614 135.927C21.3769 136.156 21.6707 136.267 22.0363 136.267H22.3954C22.761 136.267 23.0614 136.156 23.2834 135.927C23.5054 135.706 23.6164 135.359 23.6164 134.889Z" fill="white" fill-opacity="1"/>
    <path d="M48.2238 126.615C48.2238 127.274 48.0867 127.757 47.806 128.064C47.5252 128.371 47.0355 128.521 46.3304 128.521H45.4881H44.6459C43.3858 128.521 42.7525 127.881 42.7525 126.608V113.348H40.5195V126.608C40.5195 127.881 39.8535 128.521 38.5281 128.521H37.7838H37.2092C36.935 128.521 36.7065 128.495 36.5106 128.436C36.3213 128.378 36.145 128.286 35.9948 128.156C35.8446 128.025 35.701 127.842 35.577 127.614C35.4464 127.379 35.3223 127.085 35.1917 126.732L33.3897 121.868H30.9674L29.6485 122.691C28.5125 123.416 27.6637 124.16 27.0956 124.917C26.5276 125.675 26.2469 126.504 26.2469 127.411C26.2469 127.718 26.273 127.999 26.3187 128.26C26.0967 128.371 25.8355 128.443 25.5417 128.476C25.2479 128.508 24.8496 128.521 24.3534 128.521H23.4393C22.1923 128.521 21.5655 127.881 21.5655 126.608V122.932H19.4762V126.608C19.4762 127.881 18.8102 128.521 17.4848 128.521H16.6948H15.9047C15.1865 128.521 14.6707 128.404 14.3573 128.162C14.044 127.921 13.8873 127.457 13.8873 126.785V113.354H11.6543V127C11.6543 128.534 12.0003 129.625 12.6859 130.278C13.3715 130.931 14.501 131.257 16.068 131.257H16.0941L16.1202 131.231V131.257C17.191 131.257 17.9875 131.048 18.5033 130.63C19.0257 130.212 19.3782 129.501 19.5741 128.502H19.7177C19.9267 129.455 20.3511 130.154 21.004 130.598C21.6504 131.042 22.5644 131.264 23.7527 131.264L23.7789 131.237V131.264C24.4971 131.264 25.0651 131.094 25.483 130.754C25.9008 130.415 26.2207 129.886 26.4427 129.155H26.5864C26.8932 129.834 27.3829 130.349 28.062 130.715C28.741 131.081 29.6159 131.257 30.6867 131.257H33.6378V129.488L33.7815 129.462C34.1667 130.121 34.6107 130.585 35.1265 130.852C35.6357 131.12 36.3343 131.25 37.2158 131.25C38.2735 131.25 39.057 131.042 39.5662 130.624C40.0755 130.206 40.4281 129.494 40.624 128.495H40.7676C40.9765 129.448 41.4205 130.147 42.0995 130.591C42.7786 131.035 43.7188 131.257 44.9201 131.257H46.3369C47.8256 131.257 48.8898 130.885 49.5297 130.134C50.1695 129.383 50.4894 128.208 50.4894 126.615V113.354H48.2369V126.615H48.2238ZM30.3276 128.521C29.6093 128.521 29.0544 128.41 28.6757 128.195C28.2905 127.979 28.1011 127.627 28.1011 127.144C28.1011 126.726 28.3035 126.334 28.7149 125.968C29.1197 125.609 29.6485 125.263 30.2884 124.943L31.7248 124.219L32.998 127.653C33.0632 127.816 33.1155 127.966 33.1677 128.11C33.2134 128.254 33.2722 128.391 33.3375 128.521H30.3276Z" fill="white" fill-opacity="1"/>
    <path d="M61.8435 129.781C62.6727 129.781 63.3452 129.585 63.861 129.186C64.3703 128.788 64.7489 128.142 64.9905 127.241H65.108V127.528C65.108 128.801 65.4214 129.741 66.0548 130.349C66.6881 130.956 67.7327 131.256 69.1822 131.256H70.2595C71.9571 131.256 73.2107 130.89 74.0268 130.153C74.8429 129.421 75.2478 128.292 75.2478 126.777C75.2478 126.033 75.1498 125.021 74.9605 123.728L74.6471 121.626L72.5578 121.965L72.943 124.068C73.054 124.76 73.1323 125.315 73.1715 125.739C73.2107 126.157 73.2303 126.503 73.2303 126.777C73.2303 127.437 73.0083 127.894 72.5578 128.142C72.1073 128.39 71.3433 128.514 70.253 128.514H69.7502H68.9602C68.3334 128.514 67.8829 128.403 67.5956 128.187C67.3084 127.972 67.1647 127.567 67.1647 126.993V118.668H64.984V119.948L62.4442 121.299C61.7586 121.671 61.1579 122.037 60.6552 122.403C60.1525 122.768 59.7346 123.147 59.3951 123.552C59.0621 123.957 58.814 124.387 58.6508 124.845C58.4941 125.302 58.4092 125.811 58.4092 126.359C58.4092 127.437 58.703 128.279 59.2971 128.873C59.8978 129.48 60.7401 129.781 61.8435 129.781ZM60.9555 124.446C61.3407 124.1 61.961 123.702 62.8294 123.251L64.9905 122.141V125.406C64.9905 126.02 64.7947 126.444 64.4029 126.686C64.0112 126.927 63.3321 127.051 62.3789 127.051C61.6411 127.051 61.1253 126.947 60.8315 126.738C60.5377 126.529 60.3875 126.189 60.3875 125.719C60.381 125.217 60.5768 124.792 60.9555 124.446Z" fill="white" fill-opacity="1"/>
    <path d="M65.9504 116.716H66.3095C66.6751 116.716 66.9755 116.605 67.1974 116.377C67.4194 116.148 67.5304 115.802 67.5304 115.339C67.5304 114.855 67.4194 114.503 67.1974 114.287C66.9755 114.072 66.6751 113.961 66.3095 113.961H65.9504C65.5847 113.961 65.2909 114.072 65.0755 114.287C64.86 114.503 64.749 114.855 64.749 115.339C64.749 115.809 64.86 116.155 65.0755 116.377C65.2909 116.605 65.5782 116.716 65.9504 116.716Z" fill="white" fill-opacity="1"/>
    <path d="M62.5685 116.716H62.9276C63.2933 116.716 63.5936 116.605 63.8156 116.377C64.0376 116.148 64.1486 115.802 64.1486 115.339C64.1486 114.855 64.0376 114.503 63.8156 114.287C63.5936 114.072 63.2933 113.961 62.9276 113.961H62.5685C62.2029 113.961 61.9091 114.072 61.6936 114.287C61.4782 114.503 61.3672 114.855 61.3672 115.339C61.3672 115.809 61.4782 116.155 61.6936 116.377C61.9091 116.605 62.1964 116.716 62.5685 116.716Z" fill="white" fill-opacity="1"/>
    <path d="M71.7274 133.512H71.3684C71.0027 133.512 70.7089 133.623 70.4934 133.838C70.278 134.054 70.167 134.406 70.167 134.889C70.167 135.359 70.278 135.706 70.4934 135.927C70.7089 136.156 71.0027 136.267 71.3684 136.267H71.7274C72.0931 136.267 72.3934 136.156 72.6154 135.927C72.8374 135.699 72.9484 135.353 72.9484 134.889C72.9484 134.406 72.8374 134.054 72.6154 133.838C72.3934 133.616 72.0931 133.512 71.7274 133.512Z" fill="white" fill-opacity="1"/>
    <path d="M74.7512 136.267H75.1103C75.4759 136.267 75.7762 136.156 75.9982 135.927C76.2202 135.699 76.3312 135.353 76.3312 134.889C76.3312 134.406 76.2202 134.054 75.9982 133.838C75.7762 133.623 75.4759 133.512 75.1103 133.512H74.7512C74.3855 133.512 74.0917 133.623 73.8763 133.838C73.6608 134.054 73.5498 134.406 73.5498 134.889C73.5498 135.359 73.6608 135.706 73.8763 135.927C74.0917 136.156 74.379 136.267 74.7512 136.267Z" fill="white" fill-opacity="1"/>
    <path d="M79.5241 131.259H82.645C84.0226 131.259 85.0803 130.886 85.8377 130.136C86.5885 129.385 86.9672 128.34 86.9672 127.002C86.9672 126.473 86.915 125.97 86.8105 125.513C86.7061 125.056 86.5428 124.592 86.3209 124.135C86.0989 123.678 85.8051 123.202 85.446 122.705C85.0869 122.216 84.6429 121.687 84.114 121.119L81.9072 118.703L79.9615 120.688L82.4099 123.228C83.3044 124.096 83.9377 124.808 84.3034 125.356C84.669 125.905 84.8583 126.421 84.8583 126.904C84.8583 127.374 84.7212 127.759 84.4405 128.066C84.1597 128.373 83.6439 128.523 82.8931 128.523H79.054V126.806H76.9189V128.575C76.9189 129.496 77.1475 130.175 77.6176 130.606C78.0681 131.043 78.7079 131.259 79.5241 131.259Z" fill="white" fill-opacity="1"/>
    <path d="M130.373 131.236V131.262H131.789C133.278 131.262 134.342 130.89 134.982 130.139C135.622 129.388 135.942 128.213 135.942 126.62V113.359H133.689V126.62C133.689 127.279 133.552 127.763 133.271 128.069C132.991 128.376 132.501 128.526 131.796 128.526H130.954H130.04C128.793 128.526 128.166 127.887 128.166 126.613V123.904H126.076V126.627C126.076 127.423 125.959 127.985 125.73 128.318C125.495 128.651 125.123 128.814 124.614 128.814H124.183C123.641 128.814 123.262 128.644 123.047 128.318C122.831 127.985 122.72 127.423 122.72 126.627V124.877H120.631V126.607C120.631 127.423 120.461 127.998 120.128 128.324C119.795 128.651 119.267 128.82 118.548 128.82C118.085 128.82 117.634 128.762 117.19 128.637C116.753 128.513 116.289 128.318 115.813 128.043L115.643 127.945L116.72 125.791L114.918 124.87L113.932 126.881C113.776 127.201 113.612 127.469 113.456 127.678C113.292 127.887 113.123 128.056 112.927 128.187C112.737 128.318 112.509 128.402 112.254 128.455C112 128.5 111.706 128.526 111.366 128.526H110.883H107.312L107.286 128.481C107.762 128.096 108.167 127.75 108.494 127.456C108.82 127.155 109.088 126.862 109.297 126.574C109.506 126.287 109.656 125.98 109.754 125.654C109.852 125.334 109.897 124.955 109.897 124.518C109.897 123.31 109.486 122.389 108.663 121.762C107.841 121.136 106.607 120.816 104.955 120.816C104.139 120.816 103.309 120.914 102.461 121.116C101.612 121.318 100.822 121.599 100.084 121.971V124.759L103.009 128.435L102.983 128.533H99.0981H97.9686C97.9359 126.359 97.5246 124.661 96.7346 123.453C95.9446 122.245 94.8411 121.638 93.4374 121.638C92.7649 121.638 92.1511 121.782 91.5896 122.076C91.0281 122.363 90.545 122.755 90.1402 123.251C89.7354 123.741 89.4089 124.328 89.1804 125.007C88.9454 125.686 88.8344 126.411 88.8344 127.181C88.8344 128.487 89.1869 129.499 89.8986 130.204C90.6103 130.916 91.6158 131.269 92.9085 131.269H95.7879C95.481 132.235 94.8607 132.992 93.914 133.528C92.9673 134.07 91.6615 134.337 89.9835 134.337H88.5928V137.073H90.0814C92.223 137.073 93.9336 136.57 95.2002 135.558C96.4734 134.553 97.3091 133.116 97.7074 131.262H98.5236H100.992C101.71 131.262 102.421 131.171 103.114 130.981C103.812 130.799 104.459 130.492 105.066 130.074C105.673 130.492 106.345 130.799 107.083 130.981C107.821 131.164 108.552 131.262 109.29 131.262H110.296C111.236 131.262 112.013 131.184 112.62 131.021C113.227 130.857 113.769 130.531 114.252 130.028L114.899 130.413C115.571 130.818 116.152 131.105 116.635 131.282C117.125 131.458 117.595 131.549 118.065 131.549C119.567 131.549 120.455 130.603 120.729 128.722H120.873C121.18 130.609 122.146 131.549 123.778 131.549C124.549 131.549 125.143 131.334 125.567 130.897C125.992 130.459 126.253 129.734 126.344 128.722H126.462C126.684 129.591 127.101 130.237 127.722 130.648C128.335 131.06 129.204 131.262 130.327 131.262L130.373 131.236ZM96.0033 128.52H93.026C92.3078 128.52 91.7659 128.389 91.3938 128.122C91.0281 127.854 90.8388 127.423 90.8388 126.816C90.8388 126.085 91.0543 125.497 91.4852 125.04C91.9161 124.583 92.4972 124.361 93.235 124.361C94.0511 124.361 94.7106 124.7 95.2264 125.373C95.7356 126.045 95.9968 126.94 95.9968 128.063V128.52H96.0033ZM106.052 127.358L105.281 128.017L101.997 124.054V123.956C102.989 123.682 103.969 123.545 104.948 123.545C106.946 123.545 107.945 124.034 107.945 125.007C107.945 125.432 107.782 125.797 107.462 126.104C107.149 126.405 106.672 126.822 106.052 127.358Z" fill="white" fill-opacity="1"/>
    <path d="M141.479 113.355H139.246V131.258H141.479V113.355Z" fill="white" fill-opacity="1"/>
    <path d="M156.947 116.716H157.307C157.672 116.716 157.973 116.605 158.195 116.377C158.416 116.148 158.528 115.802 158.528 115.339C158.528 114.855 158.416 114.503 158.195 114.287C157.973 114.072 157.672 113.961 157.307 113.961H156.947C156.582 113.961 156.288 114.072 156.073 114.287C155.857 114.503 155.746 114.855 155.746 115.339C155.746 115.809 155.857 116.155 156.073 116.377C156.288 116.605 156.582 116.716 156.947 116.716Z" fill="white" fill-opacity="1"/>
    <path d="M153.564 116.716H153.923C154.288 116.716 154.589 116.605 154.811 116.377C155.033 116.148 155.144 115.802 155.144 115.339C155.144 114.855 155.033 114.503 154.811 114.287C154.589 114.072 154.288 113.961 153.923 113.961H153.564C153.198 113.961 152.904 114.072 152.689 114.287C152.473 114.503 152.362 114.855 152.362 115.339C152.362 115.809 152.473 116.155 152.689 116.377C152.904 116.605 153.198 116.716 153.564 116.716Z" fill="white" fill-opacity="1"/>
    <path d="M167.19 119.184H165.538C164.421 119.184 163.86 118.864 163.86 118.218C163.86 118.009 163.945 117.832 164.121 117.695C164.297 117.558 164.526 117.493 164.82 117.493C165.251 117.493 165.649 117.676 166.021 118.048L167.027 116.742C166.772 116.422 166.446 116.167 166.041 115.978C165.642 115.795 165.231 115.697 164.82 115.697C164.134 115.697 163.566 115.913 163.116 116.337C162.665 116.762 162.443 117.303 162.443 117.943C162.443 118.446 162.593 118.864 162.9 119.203L162.874 119.327H161.94V120.999H167.19V119.184Z" fill="white" fill-opacity="1"/>
    <path d="M170.357 136.267H170.716C171.081 136.267 171.382 136.156 171.604 135.927C171.826 135.699 171.937 135.353 171.937 134.889C171.937 134.406 171.826 134.054 171.604 133.838C171.382 133.623 171.081 133.512 170.716 133.512H170.357C169.991 133.512 169.697 133.623 169.482 133.838C169.266 134.054 169.155 134.406 169.155 134.889C169.155 135.359 169.26 135.706 169.482 135.927C169.697 136.156 169.991 136.267 170.357 136.267Z" fill="white" fill-opacity="1"/>
    <path d="M174.098 133.512H173.738C173.373 133.512 173.079 133.623 172.864 133.838C172.648 134.054 172.537 134.406 172.537 134.889C172.537 135.359 172.648 135.706 172.864 135.927C173.079 136.156 173.373 136.267 173.738 136.267H174.098C174.463 136.267 174.764 136.156 174.986 135.927C175.208 135.699 175.325 135.353 175.325 134.889C175.325 134.406 175.214 134.054 174.986 133.838C174.764 133.616 174.463 133.512 174.098 133.512Z" fill="white" fill-opacity="1"/>
    <path d="M185.347 131.258H187.169H188.586C190.074 131.258 191.139 130.886 191.779 130.135C192.418 129.384 192.738 128.209 192.738 126.616V113.355H190.486V126.616C190.486 127.276 190.349 127.759 190.068 128.066C189.787 128.372 189.297 128.523 188.592 128.523H187.75H185.831C185.269 128.523 184.838 128.653 184.538 128.921C184.231 129.189 183.944 129.672 183.676 130.383L181.711 135.274C181.404 134.791 181.149 134.36 180.934 133.994C180.718 133.622 180.548 133.282 180.418 132.969C180.287 132.656 180.196 132.368 180.131 132.107C180.065 131.846 180.033 131.585 180.033 131.311C180.033 131.056 180.052 130.795 180.091 130.534C180.131 130.279 180.202 130.005 180.294 129.724C180.392 129.443 180.509 129.13 180.653 128.79C180.797 128.451 180.973 128.072 181.182 127.654L182.096 125.793L180.32 124.873L179.334 126.884C179.027 127.498 178.688 127.922 178.315 128.163C177.937 128.405 177.421 128.523 176.768 128.523H176.069H175.155C173.908 128.523 173.282 127.883 173.282 126.61V122.934H171.192V126.61C171.192 127.883 170.526 128.523 169.201 128.523H168.411H167.497C166.25 128.523 165.623 127.883 165.623 126.61V122.934H163.534V126.61C163.534 127.883 162.868 128.523 161.542 128.523H160.752H159.962C159.335 128.523 158.885 128.412 158.598 128.196C158.31 127.981 158.167 127.576 158.167 127.001V118.677H155.986V119.956L153.446 121.308C152.761 121.68 152.166 122.046 151.657 122.411C151.154 122.777 150.737 123.156 150.397 123.56C150.064 123.965 149.816 124.396 149.653 124.853C149.496 125.31 149.411 125.82 149.411 126.368C149.411 127.445 149.705 128.288 150.299 128.882C150.893 129.476 151.735 129.776 152.839 129.776C153.668 129.776 154.341 129.58 154.856 129.182C155.366 128.784 155.744 128.137 155.986 127.236H156.103V127.524C156.103 128.797 156.417 129.737 157.05 130.344C157.684 130.951 158.728 131.252 160.178 131.252C161.248 131.252 162.045 131.043 162.561 130.625C163.083 130.207 163.436 129.495 163.632 128.496H163.775C163.984 129.45 164.408 130.148 165.055 130.592C165.701 131.036 166.615 131.258 167.804 131.258L167.83 131.232V131.258C168.901 131.258 169.697 131.049 170.213 130.631C170.735 130.214 171.088 129.502 171.284 128.503H171.427C171.636 129.456 172.061 130.155 172.707 130.599C173.353 131.043 174.267 131.265 175.456 131.265L175.482 131.239V131.265C176.422 131.265 177.134 131.193 177.604 131.049C178.074 130.906 178.472 130.677 178.792 130.37L178.91 130.442C178.655 130.814 178.433 131.232 178.25 131.702C178.067 132.172 177.976 132.662 177.976 133.178C177.976 133.472 178.009 133.746 178.074 134.014C178.139 134.281 178.257 134.582 178.42 134.921C178.59 135.261 178.812 135.659 179.092 136.116C179.373 136.573 179.726 137.134 180.157 137.8H182.794L185.347 131.258ZM155.986 125.408C155.986 126.022 155.79 126.446 155.398 126.688C155.007 126.929 154.334 127.054 153.374 127.054C152.637 127.054 152.121 126.949 151.827 126.74C151.533 126.531 151.383 126.192 151.383 125.722C151.383 125.219 151.572 124.801 151.957 124.448C152.343 124.102 152.963 123.704 153.831 123.254L155.992 122.144V125.408H155.986Z" fill="white" fill-opacity="1"/>
    <path d="M198.276 113.355H196.043V131.258H198.276V113.355Z" fill="white" fill-opacity="1"/>
    <path d="M6.03898 148.351L4.77886 148.116C4.11942 147.999 3.63627 147.816 3.34246 147.574C3.04212 147.326 2.89848 146.947 2.89848 146.425C2.89848 145.922 3.0813 145.531 3.45345 145.25C3.82561 144.969 4.37406 144.832 5.11185 144.832C5.83658 144.832 6.43726 144.963 6.92041 145.224C7.39704 145.485 7.80837 145.818 8.14136 146.236L9.89116 144.571C9.34924 143.905 8.6898 143.402 7.93242 143.056C7.16852 142.717 6.27403 142.547 5.24896 142.547C4.48505 142.547 3.7995 142.638 3.19882 142.828C2.59814 143.017 2.08234 143.291 1.65142 143.644C1.22703 143.996 0.894042 144.421 0.672053 144.917C0.443534 145.413 0.332541 145.968 0.332541 146.582C0.332541 148.802 1.68406 150.134 4.39365 150.565L5.67335 150.761C6.38502 150.891 6.86818 151.1 7.12934 151.381C7.39051 151.668 7.52109 152.034 7.52109 152.491C7.52109 153.072 7.31869 153.535 6.92041 153.881C6.52213 154.227 5.92146 154.397 5.13144 154.397C4.43282 154.397 3.79297 154.254 3.21841 153.973C2.64384 153.686 2.12152 153.274 1.65795 152.726L-0.0722656 154.41C0.508825 155.089 1.20744 155.638 2.01705 156.056C2.82666 156.473 3.81256 156.682 4.98127 156.682C5.79741 156.682 6.51561 156.578 7.14893 156.369C7.77573 156.16 8.30458 155.86 8.74203 155.475C9.17295 155.089 9.50594 154.632 9.73446 154.103C9.96298 153.575 10.074 152.98 10.074 152.327C10.074 151.191 9.74752 150.303 9.09461 149.67C8.42864 149.043 7.41662 148.599 6.03898 148.351Z" fill="white" fill-opacity="1"/>
    <path d="M20.2979 149.625C20.2979 148.45 19.9388 147.555 19.2272 146.928C18.5155 146.302 17.4708 145.988 16.0997 145.988C15.0747 145.988 14.252 146.171 13.6317 146.53C13.0115 146.889 12.5152 147.366 12.1366 147.96L13.6121 149.299C13.8602 148.946 14.1606 148.646 14.5132 148.384C14.8723 148.13 15.3358 148.006 15.9234 148.006C16.5829 148.006 17.0595 148.162 17.3598 148.476C17.6602 148.789 17.8038 149.233 17.8038 149.808V150.552H16.0736C14.6894 150.552 13.6187 150.807 12.8678 151.323C12.117 151.838 11.7383 152.622 11.7383 153.673C11.7383 154.587 12.019 155.312 12.574 155.86C13.129 156.409 13.9255 156.683 14.9637 156.683C15.7276 156.683 16.3674 156.52 16.8832 156.18C17.399 155.847 17.7451 155.351 17.9148 154.679H18.0323C18.1107 155.214 18.3066 155.645 18.6265 155.965C18.9464 156.285 19.3773 156.448 19.9193 156.448H21.2969V154.43H20.2849V149.625H20.2979ZM17.8103 153.405C17.8103 153.888 17.6145 154.248 17.2293 154.496C16.8375 154.744 16.3674 154.868 15.8124 154.868C15.3228 154.868 14.9441 154.77 14.6764 154.568C14.4087 154.365 14.2781 154.058 14.2781 153.64V153.307C14.2781 152.478 14.9245 152.06 16.2173 152.06H17.8103V153.405Z" fill="white" fill-opacity="1"/>
    <path d="M29.3875 152.985C29.3875 153.259 29.3287 153.501 29.2112 153.703C29.0937 153.905 28.9435 154.075 28.7672 154.212C28.5844 154.349 28.3755 154.447 28.1339 154.513C27.8923 154.578 27.6507 154.611 27.4026 154.611C26.8085 154.611 26.371 154.421 26.1033 154.049C25.8291 153.677 25.6985 153.135 25.6985 152.43V146.221H23.2109V152.685C23.2109 153.964 23.4917 154.95 24.0467 155.642C24.6016 156.334 25.4047 156.68 26.4559 156.68C26.8672 156.68 27.2329 156.628 27.5528 156.524C27.8727 156.419 28.1404 156.276 28.3689 156.093C28.5974 155.91 28.7803 155.707 28.9304 155.479C29.0806 155.25 29.1981 155.002 29.2895 154.741H29.3875V156.445H31.8751V146.221H29.3875V152.985Z" fill="white" fill-opacity="1"/>
    <path d="M41.0418 147.906H40.9438C40.761 147.319 40.4215 146.855 39.9122 146.503C39.4095 146.157 38.8154 145.98 38.1429 145.98C36.8632 145.98 35.8773 146.444 35.1982 147.364C34.5192 148.285 34.1797 149.604 34.1797 151.315C34.1797 153.038 34.5192 154.364 35.1982 155.291C35.8773 156.218 36.8566 156.682 38.1429 156.682C38.8154 156.682 39.403 156.505 39.9122 156.153C40.415 155.8 40.761 155.33 40.9438 154.742H41.0418V156.446H43.5294V141.945H41.0418V147.906ZM41.0418 152.947C41.0418 153.482 40.8394 153.894 40.4411 154.181C40.0428 154.468 39.5401 154.612 38.9459 154.612C38.2996 154.612 37.7772 154.396 37.379 153.965C36.9872 153.534 36.7848 152.953 36.7848 152.222V150.459C36.7848 149.728 36.9807 149.14 37.379 148.703C37.7707 148.265 38.293 148.043 38.9459 148.043C39.5401 148.043 40.0428 148.194 40.4411 148.494C40.8394 148.794 41.0418 149.193 41.0418 149.689V152.947Z" fill="white" fill-opacity="1"/>
    <path d="M48.889 146.221H46.4014V156.445H48.889V146.221Z" fill="white" fill-opacity="1"/>
    <path d="M47.6484 141.836C47.1326 141.836 46.7604 141.953 46.5319 142.189C46.3034 142.424 46.1924 142.724 46.1924 143.09V143.481C46.1924 143.847 46.3034 144.147 46.5319 144.382C46.7604 144.617 47.1326 144.735 47.6484 144.735C48.1511 144.735 48.5233 144.617 48.7583 144.382C48.9934 144.147 49.1109 143.847 49.1109 143.481V143.09C49.1109 142.724 48.9934 142.424 48.7583 142.189C48.5233 141.953 48.1511 141.836 47.6484 141.836Z" fill="white" fill-opacity="1"/>
    <path d="M68.993 149.335L68.1377 153.533H68.0789L67.1256 149.335L65.5717 142.773H62.7381L61.1842 149.335L60.2113 153.533H60.1526L59.3234 149.335L57.9784 142.773H55.4189L58.5594 156.452H61.478L63.2082 149.218L64.0766 145.614H64.1157L64.9515 149.218L66.6817 156.452H69.5741L72.819 142.773H70.3706L68.993 149.335Z" fill="white" fill-opacity="1"/>
    <path d="M82.1427 149.625C82.1427 148.45 81.7836 147.555 81.0719 146.928C80.3602 146.302 79.3156 145.988 77.9444 145.988C76.9194 145.988 76.0967 146.171 75.4764 146.53C74.8562 146.889 74.3534 147.366 73.9813 147.96L75.4569 149.299C75.705 148.946 76.0053 148.646 76.3579 148.384C76.717 148.13 77.1805 148.006 77.7682 148.006C78.4276 148.006 78.9042 148.162 79.2046 148.476C79.5049 148.789 79.6485 149.233 79.6485 149.808V150.552H77.9183C76.5342 150.552 75.4634 150.807 74.7125 151.323C73.9617 151.838 73.583 152.622 73.583 153.673C73.583 154.587 73.8638 155.312 74.4187 155.86C74.9737 156.409 75.7703 156.683 76.8084 156.683C77.5723 156.683 78.2121 156.52 78.7345 156.18C79.2503 155.847 79.5963 155.351 79.7661 154.679H79.8836C79.9619 155.214 80.1578 155.645 80.4777 155.965C80.7977 156.285 81.2286 156.448 81.7705 156.448H83.1481V154.43H82.1361V149.625H82.1427ZM79.6551 153.405C79.6551 153.888 79.4592 154.248 79.074 154.496C78.6822 154.744 78.2121 154.868 77.6572 154.868C77.1675 154.868 76.7888 154.77 76.5211 154.568C76.2534 154.365 76.1228 154.058 76.1228 153.64V153.307C76.1228 152.478 76.7692 152.06 78.062 152.06H79.6551V153.405Z" fill="white" fill-opacity="1"/>
    <path d="M88.1224 143.42H85.8894V145.163C85.8894 145.516 85.8242 145.783 85.687 145.953C85.5499 146.129 85.2953 146.221 84.9166 146.221H84.1396V148.238H85.6348V153.847C85.6348 154.683 85.8568 155.322 86.3073 155.773C86.7513 156.223 87.4042 156.445 88.2595 156.445H90.0485V154.428H88.1289V148.238H90.2052V146.221H88.1289V143.42H88.1224Z" fill="white" fill-opacity="1"/>
    <path d="M99.7969 147.516C99.4182 147.046 98.9416 146.674 98.3605 146.4C97.7794 146.125 97.0938 145.988 96.3038 145.988C95.566 145.988 94.9066 146.119 94.3255 146.373C93.7444 146.628 93.2482 146.987 92.8499 147.451C92.4516 147.914 92.1382 148.469 91.9293 149.122C91.7138 149.775 91.6094 150.506 91.6094 151.316C91.6094 152.139 91.7204 152.883 91.9424 153.542C92.1643 154.202 92.4777 154.763 92.8825 155.227C93.2874 155.691 93.7901 156.05 94.3777 156.304C94.9653 156.559 95.6378 156.689 96.3887 156.689C97.3354 156.689 98.1646 156.52 98.8828 156.187C99.601 155.854 100.169 155.39 100.58 154.803L99.2419 153.288C98.9285 153.693 98.5759 154.019 98.1842 154.28C97.7924 154.541 97.2832 154.665 96.6564 154.665C95.8402 154.665 95.2265 154.443 94.8086 153.993C94.3973 153.542 94.1884 152.955 94.1884 152.211V151.956H100.926V151.133C100.926 150.428 100.835 149.762 100.646 149.142C100.456 148.535 100.176 147.986 99.7969 147.516ZM98.3409 150.415H94.1818V150.258C94.1818 149.553 94.3777 148.979 94.7629 148.535C95.1482 148.091 95.677 147.869 96.3364 147.869C96.9828 147.869 97.479 148.084 97.8251 148.522C98.1711 148.959 98.3409 149.534 98.3409 150.239V150.415Z" fill="white" fill-opacity="1"/>
    <path d="M107.325 146.397C107.018 146.515 106.757 146.671 106.541 146.867C106.319 147.063 106.143 147.285 106.006 147.54C105.869 147.794 105.771 148.062 105.706 148.336H105.608V146.221H103.12V156.445H105.608V150.177C105.608 149.616 105.823 149.211 106.248 148.963C106.672 148.715 107.312 148.591 108.154 148.591H108.931V146.221H108.389C107.984 146.221 107.625 146.279 107.325 146.397Z" fill="white" fill-opacity="1"/>
    <path d="M118.848 142.773L114.304 156.452H116.909L117.98 152.965H122.798L123.888 156.452H126.546L122.041 142.773H118.848ZM118.6 150.745L120.33 145.124H120.428L122.178 150.745H118.6Z" fill="white" fill-opacity="1"/>
    <path d="M134.446 152.985C134.446 153.259 134.387 153.501 134.27 153.703C134.152 153.905 134.002 154.075 133.826 154.212C133.643 154.349 133.434 154.447 133.192 154.513C132.951 154.578 132.709 154.611 132.461 154.611C131.867 154.611 131.43 154.421 131.162 154.049C130.888 153.677 130.757 153.135 130.757 152.43V146.221H128.27V152.685C128.27 153.964 128.55 154.95 129.105 155.642C129.66 156.334 130.463 156.68 131.514 156.68C131.926 156.68 132.291 156.628 132.611 156.524C132.931 156.419 133.199 156.276 133.428 156.093C133.656 155.91 133.839 155.707 133.989 155.479C134.139 155.25 134.257 155.002 134.348 154.741H134.446V156.445H136.934V146.221H134.446V152.985Z" fill="white" fill-opacity="1"/>
    <path d="M142.838 143.42H140.605V145.163C140.605 145.516 140.539 145.783 140.402 145.953C140.265 146.129 140.01 146.221 139.632 146.221H138.861V148.238H140.357V153.847C140.357 154.683 140.578 155.322 141.029 155.773C141.48 156.223 142.126 156.445 142.981 156.445H144.77V154.428H142.844V148.238H144.92V146.221H142.844V143.42H142.838Z" fill="white" fill-opacity="1"/>
    <path d="M152.493 145.988C151.703 145.988 151.083 146.177 150.639 146.55C150.195 146.922 149.862 147.379 149.66 147.927H149.562V141.953H147.074V156.454H149.562V149.697C149.562 149.422 149.621 149.181 149.738 148.978C149.856 148.776 150.006 148.606 150.195 148.469C150.384 148.332 150.593 148.228 150.835 148.156C151.077 148.084 151.325 148.045 151.586 148.045C152.18 148.045 152.611 148.228 152.866 148.593C153.127 148.959 153.257 149.507 153.257 150.239V156.448H155.745V149.984C155.745 148.704 155.464 147.718 154.909 147.026C154.348 146.334 153.545 145.988 152.493 145.988Z" fill="white" fill-opacity="1"/>
    <path d="M165.963 147.431C165.558 146.968 165.062 146.615 164.474 146.36C163.893 146.112 163.24 145.988 162.515 145.988C161.791 145.988 161.138 146.112 160.563 146.36C159.989 146.609 159.492 146.968 159.088 147.431C158.683 147.895 158.363 148.456 158.147 149.109C157.925 149.762 157.814 150.5 157.814 151.323C157.814 152.145 157.925 152.89 158.147 153.549C158.369 154.208 158.683 154.77 159.088 155.247C159.492 155.717 159.989 156.076 160.563 156.324C161.138 156.572 161.791 156.696 162.515 156.696C163.24 156.696 163.893 156.572 164.474 156.324C165.055 156.076 165.551 155.717 165.963 155.247C166.368 154.776 166.688 154.208 166.903 153.549C167.125 152.89 167.236 152.145 167.236 151.323C167.236 150.5 167.125 149.762 166.903 149.109C166.688 148.45 166.374 147.895 165.963 147.431ZM164.631 152.282C164.631 153.066 164.441 153.66 164.069 154.065C163.691 154.47 163.175 154.672 162.515 154.672C161.869 154.672 161.353 154.47 160.981 154.065C160.602 153.66 160.42 153.066 160.42 152.282V150.382C160.42 149.612 160.609 149.024 160.981 148.62C161.353 148.215 161.869 148.012 162.515 148.012C163.175 148.012 163.691 148.215 164.069 148.62C164.448 149.024 164.631 149.612 164.631 150.382V152.282Z" fill="white" fill-opacity="1"/>
    <path d="M173.634 146.397C173.328 146.515 173.066 146.671 172.851 146.867C172.629 147.063 172.453 147.285 172.316 147.54C172.178 147.794 172.081 148.062 172.015 148.336H171.917V146.221H169.43V156.445H171.917V150.177C171.917 149.616 172.133 149.211 172.557 148.963C172.982 148.715 173.621 148.591 174.464 148.591H175.241V146.221H174.699C174.294 146.221 173.941 146.279 173.634 146.397Z" fill="white" fill-opacity="1"/>
    <path d="M178.31 141.836C177.795 141.836 177.423 141.953 177.194 142.189C176.965 142.424 176.854 142.724 176.854 143.09V143.481C176.854 143.847 176.965 144.147 177.194 144.382C177.423 144.617 177.795 144.735 178.31 144.735C178.813 144.735 179.185 144.617 179.42 144.382C179.655 144.147 179.773 143.847 179.773 143.481V143.09C179.773 142.724 179.655 142.424 179.42 142.189C179.179 141.953 178.813 141.836 178.31 141.836Z" fill="white" fill-opacity="1"/>
    <path d="M179.55 146.221H177.062V156.445H179.55V146.221Z" fill="white" fill-opacity="1"/>
    <path d="M185.452 143.42H183.22V145.163C183.22 145.516 183.154 145.783 183.017 145.953C182.88 146.129 182.625 146.221 182.247 146.221H181.47V148.238H182.965V153.847C182.965 154.683 183.187 155.322 183.637 155.773C184.081 156.223 184.734 156.445 185.59 156.445H187.379V154.428H185.452V148.238H187.529V146.221H185.452V143.42Z" fill="white" fill-opacity="1"/>
    <path d="M194.137 151.62L193.438 154.199H193.321L192.661 151.62L190.892 146.227H188.424L192.054 156.928L191.59 158.358H189.762V160.375H191.257C191.669 160.375 192.034 160.336 192.348 160.258C192.661 160.179 192.922 160.055 193.144 159.885C193.366 159.716 193.556 159.5 193.719 159.226C193.882 158.958 194.026 158.638 194.156 158.279L198.237 146.233H195.906L194.137 151.62Z" fill="white" fill-opacity="1"/>
    <path d="M150.462 66.0379C150.533 58.9146 147.935 57.5501 144.35 55.6631C143.299 55.1147 142.111 54.4879 140.87 53.6391L140.805 53.5934C140.772 53.5738 140.733 53.5477 140.687 53.5151C138.474 51.9677 136.718 50.1852 135.144 47.9C133.479 45.4843 131.834 43.3623 130.123 41.4101L129.914 41.1685C129.137 40.2871 128.334 39.4318 127.538 38.6352C124.593 35.6906 119.847 31.1268 113.964 26.1189C105.006 18.4995 91.7453 8.49686 79.4183 4.07665C76.1211 2.89488 73.0067 2.15056 70.16 1.86981C68.2796 1.68699 66.6278 1.68046 65.113 1.85675C62.5079 2.15709 60.6536 4.47493 60.7973 7.2498C60.8234 7.84395 60.4969 8.41198 59.733 9.08448C59.2238 9.53498 58.5709 9.97896 57.7482 10.5078C53.3998 13.3023 49.1232 20.6998 48.0068 27.3399C47.3277 31.3683 47.8762 34.6525 49.5868 36.8267C50.749 38.3022 52.0156 40.0455 53.4455 42.1609L53.5891 42.3764C56.3444 46.4702 59.511 51.6477 63.2718 58.1964C65.1522 61.4741 66.8498 64.4774 68.3253 67.1283C69.5398 69.309 70.5909 71.2351 71.4528 72.8478C71.9098 73.7031 72.3473 74.6367 72.8174 75.6161C74.4105 78.959 76.2125 82.7524 79.5619 86.0235C80.8939 87.3293 82.4217 88.485 84.0997 89.4448C86.3783 90.7441 89.1793 91.9715 92.4243 93.0815C95.1535 94.0151 98.2483 94.89 101.617 95.6866L101.696 95.6997C102.877 95.8629 103.824 95.9478 104.595 95.9478C107.095 95.9478 107.748 95.0141 108.603 92.6701C108.793 92.1478 109.008 91.5537 109.296 90.8812C109.557 90.274 109.824 89.7255 110.105 89.1901C110.654 88.1455 111.359 87.2118 112.194 86.4087C113.037 85.5991 113.996 84.9462 115.048 84.4565C118.684 82.7851 123.353 81.9624 128.289 81.1006C129.523 80.8851 130.796 80.6631 132.043 80.4215L132.147 80.4085C139.427 79.0178 147.406 76.948 149.841 69.9488C150.24 68.7867 150.448 67.4678 150.462 66.0379ZM133.741 48.8663C135.262 51.0797 137.025 52.9144 139.094 54.4553C129.941 63.694 118.56 69.3939 106.377 70.9282C116.68 65.9334 124.828 56.2834 129.575 43.3884C130.985 45.0533 132.356 46.8554 133.741 48.8663ZM88.1347 61.4022V61.3892V61.3696V61.3369C88.1085 61.0562 88.102 60.782 88.102 60.5012C88.102 59.4239 88.4807 57.87 89.225 55.8786V55.8721L89.2511 55.8133L89.2577 55.7937L89.2838 55.7219C91.6865 49.4083 97.0143 40.7115 98.9403 37.6493C101.226 41.2665 108.329 52.8752 109.602 58.9734C109.726 59.5676 109.785 60.0834 109.785 60.5077C109.785 62.9562 108.989 65.2675 107.48 67.1805C107.382 67.298 107.285 67.4221 107.187 67.5396C106.129 68.7867 104.777 69.7856 103.315 70.4255L103.269 70.445C103.021 70.543 102.773 70.6409 102.518 70.7323H102.479L102.355 70.7976C100.246 71.4962 97.9022 71.5354 95.7346 70.8694C91.5494 69.5767 88.4938 65.7702 88.1347 61.4022ZM111.476 60.1356C111.45 59.6851 111.385 59.1954 111.274 58.6469C111.189 58.2617 111.098 57.5566 110.987 56.6686C110.432 52.4247 109.282 43.5908 104.921 33.6209C100.605 23.7619 94.3047 15.4634 86.1498 8.86249C95.8782 13.7985 105.574 21.2221 112.638 27.2158C115.257 40.1435 114.806 51.6673 111.476 60.1356ZM128.302 41.9128C124.371 53.0776 117.881 61.807 109.642 67.1413C115.74 58.6078 117.555 44.8836 114.702 28.9917C119.69 33.3336 123.725 37.2184 126.33 39.8301C126.989 40.4895 127.649 41.1946 128.302 41.9128ZM58.6623 11.9312C59.5502 11.3631 60.2554 10.8734 60.843 10.3576C61.5808 9.71127 62.5601 8.67314 62.4818 7.16492C62.3839 5.29106 63.5983 3.73714 65.3024 3.54126C66.6931 3.37803 68.2274 3.38456 69.9903 3.56085C72.6737 3.82201 75.6184 4.52716 78.7523 5.64364C100.292 19.2568 106.338 39.5428 108.414 51.0079C104.999 43.8389 99.9393 36.0366 99.6651 35.6253C91.3666 21.6008 77.1788 13.9356 57.4805 12.8126C57.8722 12.4796 58.2705 12.1858 58.6623 11.9312ZM55.8547 14.4383C74.0057 15.1435 87.4556 21.3853 95.9043 33.0006C89.5776 29.2855 74.7696 22.7695 50.4813 24.2842C51.6435 20.5888 53.6283 16.9782 55.8547 14.4383ZM49.6717 27.6141C49.7631 27.0852 49.8741 26.5498 50.0047 26.0079C74.7892 24.3365 89.5058 31.0941 95.4016 34.6525C88.3371 33.7515 71.8641 32.537 51.8198 36.9442C51.5129 36.5329 51.206 36.1411 50.9122 35.7689C49.1363 33.5099 49.2603 30.0886 49.6717 27.6141ZM54.9864 41.4166C54.2551 40.3393 53.5696 39.3534 52.9166 38.4459C71.7401 34.424 87.2532 35.3968 94.4418 36.2521C87.6254 37.7277 73.7772 41.0314 60.4839 50.1134C58.5317 46.8815 56.7623 44.074 55.13 41.6386L54.9864 41.4166ZM61.3588 51.5629C65.7986 48.4746 75.4029 42.2067 94.8923 37.8974C88.7745 42.2654 77.786 50.799 69.0893 65.0194C67.7834 62.6885 66.3274 60.116 64.7409 57.3477C63.5526 55.2845 62.4296 53.3649 61.3588 51.5629ZM72.9414 72.0447C72.1318 70.5234 71.159 68.7344 70.036 66.7235C78.6805 52.2158 89.8649 43.5582 95.9892 39.1967C93.5342 43.2382 89.6755 49.9175 87.7037 55.0886C87.6907 55.1147 87.6842 55.1408 87.6711 55.1735C87.6711 55.1735 87.6711 55.1735 87.6711 55.18L87.5079 55.5522C85.8103 59.4957 81.4097 69.7007 79.5293 83.5229C77.1396 80.761 75.6575 77.6662 74.3386 74.8848C73.8686 73.8794 73.418 72.9326 72.9414 72.0447ZM81.044 85.0833C82.1736 75.8054 84.4914 68.088 86.4567 62.7146C86.5481 67.4025 86.9594 78.959 91.2491 90.8485C88.8333 89.941 86.7048 88.9747 84.9289 87.9627C83.5055 87.1465 82.1997 86.1737 81.044 85.0833ZM106.997 92.0825C106.162 94.3873 106.09 94.5832 101.957 94.0151C98.8032 93.2708 95.9108 92.4547 93.3384 91.5928C89.78 82.3672 88.6831 73.1677 88.324 67.2001C88.8725 68.075 89.5319 68.8781 90.2827 69.5897C90.4786 69.8835 90.7398 70.3079 91.0728 70.8368C93.3188 74.4605 98.5355 82.8699 107.493 90.7702C107.298 91.2599 107.141 91.6908 106.997 92.0825ZM114.329 82.9156C113.102 83.4837 111.986 84.2476 111.006 85.1878C110.04 86.1149 109.23 87.1922 108.597 88.3936C108.466 88.6417 108.336 88.8963 108.212 89.1575C101.023 82.7198 96.3418 75.9752 93.7497 71.9206C94.2002 72.123 94.6638 72.3058 95.1404 72.456C96.0871 72.9588 107.696 78.9525 123.62 80.2257C120.264 80.8786 117.013 81.6751 114.329 82.9156ZM148.235 69.3873C146.844 73.3701 143.534 76.4845 131.906 78.7174H131.886C118.201 79.1941 106.638 75.4986 100.527 73.0306C115.426 72.8086 129.549 66.5994 140.505 55.4281C141.602 56.1332 142.633 56.6752 143.56 57.1583C146.955 58.9408 148.829 59.9267 148.764 66.0183C148.751 67.2719 148.575 68.4014 148.235 69.3873Z" fill="white" fill-opacity="1"/>
    <path d="M101.637 51.5107C101.48 51.4519 101.33 51.3997 101.18 51.3475C101.252 51.4324 101.324 51.5238 101.396 51.6086C101.578 51.8437 101.755 52.0787 101.924 52.3268C102.316 52.9079 102.649 53.5217 102.936 54.1811C103.211 54.821 103.433 55.4869 103.609 56.1921L103.629 56.2639L102.61 56.5185L102.107 56.6426L102.088 56.5708C101.663 54.8275 100.867 53.3062 99.7176 52.0592V61.5264L99.6915 61.546C99.4564 61.7157 99.2214 61.905 98.9798 62.1009L98.9472 62.127L98.908 62.1009C98.6664 61.905 98.4248 61.7157 98.1963 61.546L98.1702 61.5264V52.0592C97.0211 53.3062 96.2245 54.821 95.8001 56.5708L95.7806 56.6426L95.2517 56.512L94.2527 56.2639L94.2723 56.1921C94.4486 55.4608 94.6837 54.7687 94.9709 54.1158C95.2582 53.4629 95.5977 52.8426 95.996 52.2681C96.1462 52.0461 96.3029 51.8306 96.4726 51.6217C96.5445 51.5303 96.6228 51.4389 96.6946 51.3475C96.5379 51.3997 96.3812 51.4519 96.2245 51.5172C94.9905 51.9939 93.6259 52.7643 92.17 53.822L92.0459 53.9134C92.4181 53.0908 92.849 52.1832 93.3648 51.1647C94.0112 50.7925 94.651 50.4791 95.2647 50.2179C95.4149 50.1527 95.5586 50.0939 95.7022 50.0417C96.0025 49.9307 96.2898 49.8262 96.5771 49.7478C95.9242 49.4279 95.2321 49.1602 94.5139 48.9578C94.6837 48.6379 94.8665 48.3114 95.0493 47.9785C95.1276 47.8348 95.206 47.6912 95.2843 47.5475C96.3094 47.8675 97.2692 48.2984 98.1571 48.8142C98.1571 48.1352 98.3138 47.2733 98.4575 46.5094L98.9145 44.3809C98.9145 44.3548 98.9537 44.3548 98.9537 44.3809L99.4107 46.5094C99.5544 47.2733 99.7111 48.1352 99.7111 48.8142C100.592 48.2919 101.559 47.8675 102.577 47.5475C102.656 47.6912 102.734 47.8348 102.812 47.9785C102.995 48.3114 103.178 48.6444 103.348 48.9644C102.63 49.1733 101.944 49.4344 101.291 49.7544C101.572 49.8392 101.859 49.9372 102.153 50.0482C102.29 50.1004 102.434 50.1592 102.577 50.2179C102.688 50.2636 102.799 50.3159 102.917 50.3616C103.433 50.5901 103.962 50.8643 104.503 51.1712C105.019 52.1832 105.457 53.0973 105.822 53.9199L105.711 53.8351C104.242 52.7643 102.878 51.9873 101.637 51.5107Z" fill="white" fill-opacity="1"/>
    <path d="M107.801 60.4557C107.788 60.9454 107.736 61.4285 107.651 61.9051C105.176 61.8203 103.139 62.3165 101.592 63.3938C101.5 63.4525 101.409 63.5244 101.317 63.5896C101.004 63.8247 100.664 64.0989 100.305 64.3927C100.234 64.4515 100.155 64.5168 100.083 64.5755C101.52 65.679 103.119 66.7302 104.726 66.9848C104.236 67.4092 103.707 67.7748 103.152 68.0751C101.624 67.5267 100.201 66.5212 98.9277 65.5157C97.6546 66.5212 96.2312 67.5267 94.7034 68.0751C94.1484 67.7748 93.6196 67.4092 93.1364 66.9848C94.7361 66.7302 96.3357 65.679 97.7656 64.5755C97.6872 64.5103 97.6154 64.4515 97.5371 64.3927C97.1779 64.0989 96.8319 63.8247 96.525 63.5896C96.4336 63.5178 96.3357 63.4525 96.2508 63.3938C94.7034 62.3165 92.6794 61.8203 90.2049 61.9051C90.1134 61.4285 90.0677 60.9454 90.0547 60.4557C92.8883 60.3382 95.2453 60.9258 97.08 62.199C97.302 62.3556 97.5305 62.5319 97.7721 62.7213C98.0855 62.9628 98.4054 63.2306 98.7449 63.5048L98.7515 63.5113C98.8102 63.557 98.869 63.6027 98.9212 63.6549C98.9735 63.6092 99.0322 63.5635 99.0844 63.5178L99.091 63.5113C99.4305 63.2371 99.7504 62.9759 100.064 62.7278C100.305 62.5385 100.54 62.3622 100.762 62.2055C102.597 60.9192 104.961 60.3316 107.801 60.4557Z" fill="white" fill-opacity="1"/>
  </g>
  <defs>
    <clipPath id="clip0_838_2208">
      <rect width="198" height="161.011" fill="white"/>
    </clipPath>
  </defs>
</svg>