<svg width="200" height="51" viewBox="0 0 200 51" fill="none" xmlns="http://www.w3.org/2000/svg">
<g clip-path="url(#clip0_2017_1309)">
<path d="M198.834 29.2493C193.756 29.5245 188.836 30.4941 184.19 32.6409C181.634 33.8224 179.307 35.3512 177.223 37.249C176.974 37.4761 176.913 37.605 177.203 37.867C178.653 39.1883 180.086 40.5271 181.514 41.8745C181.771 42.1169 181.913 42.1344 182.033 41.7784C182.177 41.3482 182.321 40.918 182.487 40.4965C182.816 39.6557 183.448 39.149 184.303 38.9153C185.125 38.6904 185.906 38.9612 186.388 39.6098C186.824 40.1973 186.841 40.9726 186.431 41.6015C186.021 42.2327 185.258 42.5188 184.414 42.3419C184.22 42.3026 184.039 42.2043 183.847 42.1541C183.662 42.106 183.488 41.8068 183.283 42.0754C183.104 42.3069 182.99 42.5821 183.104 42.8901C183.187 43.115 183.339 43.2984 183.503 43.4688C183.871 43.8575 184.327 44.1152 184.798 44.3555C185.19 44.5564 185.48 44.6437 185.875 44.2528C186.42 43.7134 187.406 43.7265 188.06 44.1458C188.666 44.5345 188.958 45.2203 188.821 45.9366C188.675 46.701 188.097 47.1509 187.116 47.2797C186.01 47.4261 184.994 47.1487 184.02 46.6551C183.304 46.2926 182.633 45.8602 182.013 45.3513C181.728 45.1155 181.577 45.0652 181.303 45.419C180.609 46.3123 179.717 46.9587 178.592 47.2273C177.343 47.5265 176.072 46.8604 175.803 45.7685C175.618 45.0194 176.032 44.1567 176.767 43.7549C177.417 43.3989 178.47 43.5387 178.948 44.0475C179.129 44.2397 179.246 44.4603 179.22 44.7333C179.179 45.1788 179.414 45.1744 179.72 45.0368C180.267 44.7922 180.348 44.5062 180.027 43.9886C179.423 43.0189 178.61 42.2436 177.735 41.5251C176.948 40.8787 176.15 40.2497 175.367 39.5989C175.191 39.4526 175.082 39.3739 174.872 39.5661C173.645 40.6996 172.256 41.6474 171.1 42.8638C170.712 43.2722 170.354 43.7068 170.023 44.1633C169.89 44.3445 169.831 44.5193 169.99 44.7005C170.186 44.9255 170.422 45.1024 170.736 45.0936C170.965 45.0871 170.998 44.8796 171.054 44.7071C171.34 43.8553 171.789 43.5409 172.692 43.5627C173.479 43.5802 174.129 44.1283 174.36 44.9648C174.565 45.7073 174.292 46.4389 173.632 46.856C172.86 47.3431 172.031 47.3977 171.179 47.1094C170.239 46.7905 169.454 46.238 168.891 45.4256C168.64 45.0631 168.497 45.1111 168.196 45.3448C167.042 46.2402 165.828 47.0264 164.358 47.3169C163.979 47.3911 163.601 47.3998 163.22 47.3977C162.332 47.3889 161.706 46.9521 161.48 46.19C161.249 45.4168 161.567 44.5018 162.219 44.0628C162.797 43.6741 163.747 43.6784 164.295 44.2288C164.724 44.659 165.049 44.5433 165.47 44.3271C166.039 44.0322 166.578 43.7047 166.957 43.1696C167.156 42.8922 167.19 42.6083 167.044 42.3004C166.909 42.0165 166.733 41.868 166.403 42.0361C166.211 42.1344 166 42.1999 165.793 42.2633C164.903 42.5341 164.321 42.3463 163.848 41.6365C163.394 40.9573 163.407 40.123 163.88 39.4984C164.336 38.8957 165.208 38.6423 165.941 38.9197C166.887 39.2778 167.605 39.8653 167.882 40.8939C167.993 41.3111 168.108 41.7326 168.392 42.1388C169.517 41.0949 170.636 40.0575 171.75 39.0223C172.162 38.6401 172.559 38.2361 172.991 37.8758C173.278 37.6355 173.244 37.4892 172.984 37.2512C170.821 35.2725 168.39 33.7089 165.723 32.5055C162.051 30.8479 158.189 29.9154 154.197 29.4852C153.277 29.3869 152.352 29.3323 151.43 29.258C151.249 29.1641 151.053 29.2318 150.865 29.21C150.767 29.1991 150.643 29.2209 150.669 29.0549C152.193 28.7994 153.728 28.6443 155.272 28.6378C162.171 28.6072 168.414 30.6186 173.965 34.7418C174.371 35.0432 174.805 35.5499 175.215 35.5412C175.62 35.5324 176.013 34.9864 176.414 34.6785C180.548 31.4944 185.221 29.6249 190.378 28.9217C193.459 28.5002 196.527 28.5723 199.593 29.068C199.41 29.4109 199.065 29.0833 198.84 29.2515L198.834 29.2493Z" fill="#BBA367"/>
<path d="M168.422 9.95896C168.361 9.98516 168.249 10.0026 168.245 10.0354C168.164 10.6032 167.613 11.0356 167.802 11.6777C167.573 11.7126 167.676 11.4309 167.508 11.4331C167.395 11.5248 167.358 11.6602 167.321 11.7978C167.275 11.8721 167.246 11.9725 167.124 11.907C166.943 11.942 166.959 12.121 166.882 12.2346C166.786 12.2674 166.741 12.2149 166.712 12.132C166.664 12.0337 166.612 11.9834 166.542 12.1167C166.435 12.1975 166.658 12.4552 166.372 12.4421C165.995 9.9262 167.504 7.94975 169.564 6.89929C170.04 6.65687 170.55 6.46905 170.886 5.9733C170.397 6.08032 169.909 6.01043 169.438 5.99733C168.84 5.97985 168.376 6.27905 167.842 6.38606C167.643 6.42537 167.401 6.62411 167.268 6.89273C167.081 7.26837 166.623 7.48894 166.649 7.9978C166.352 6.57606 166.983 5.48629 168.306 5.02548C169.597 4.5756 170.89 4.28295 172.224 4.84422C172.449 4.93813 172.504 4.81146 172.456 4.64766C172.405 4.4795 172.286 4.331 172.207 4.16939C172.072 3.89421 171.625 4.08203 171.614 3.93352C171.568 3.35478 171.241 3.83088 171.091 3.74789C170.866 3.62341 170.637 3.64306 170.412 3.59938C169.466 3.41593 169.473 3.37881 168.93 4.13663C168.736 3.72387 168.819 3.37662 169.209 3.10363C170.277 2.3611 171.437 2.19076 172.678 2.59041C173.332 2.80007 173.653 3.36789 174.034 3.91387C174.22 3.64961 174.217 3.33513 174.366 3.11019C174.712 2.58168 174.837 1.98984 174.989 1.36523C175.053 2.30214 175.678 3.00317 175.892 3.97939C176.346 3.16697 176.952 2.65811 177.761 2.47685C178.533 2.30432 179.315 2.35018 180.061 2.64719C180.781 2.93547 181.09 3.37881 181.084 4.09295C180.896 4.05364 180.892 3.85272 180.781 3.76536C180.635 3.65398 180.578 3.1495 180.262 3.61904C180.251 3.63433 180.168 3.61685 180.131 3.59283C179.717 3.32858 179.414 3.62341 179.091 3.8003C178.969 3.86801 178.892 3.74789 178.794 3.74571C178.646 3.74134 178.448 3.50984 178.358 3.8287C178.328 4.13663 178.022 3.89858 177.916 4.05145C177.793 4.2087 177.669 4.36594 177.554 4.52755C177.49 4.61491 177.442 4.711 177.355 4.86169C177.824 4.76778 178.232 4.64985 178.646 4.60835C179.786 4.49261 180.888 4.70445 181.943 5.13031C183.083 5.59112 183.644 6.77917 183.325 8.01745C183.142 7.34262 182.809 6.72239 182.194 6.45813C181.533 6.17422 180.859 5.7702 180.035 6.03445C179.808 6.10652 179.438 5.98422 179.108 5.94054C179.178 6.22664 179.403 6.30308 179.575 6.41009C180.188 6.79446 180.829 7.13952 181.431 7.54136C183.103 8.65952 183.99 10.9352 183.528 12.9335C183.378 12.6299 183.557 12.3154 183.371 12.014C183.199 12.2324 183.328 12.4595 183.245 12.6736C183.033 12.4574 183.175 12.0752 182.874 11.931C182.865 11.9267 182.844 11.942 182.833 11.9529C182.82 11.966 182.815 11.9834 182.806 12.0009C182.519 12.0337 182.752 11.7432 182.61 11.6864C182.392 11.0356 182.359 11.7956 182.15 11.717C182.445 11.1186 181.799 10.7277 181.812 10.1642C181.165 10.1359 181.489 9.22516 180.875 9.13562C180.678 9.10723 180.75 8.82332 180.672 8.66608C180.493 8.31228 180.373 8.39527 180.209 8.83861C180.172 8.04584 179.518 7.90607 179.182 7.48676C179.115 7.40159 178.951 7.24434 178.821 7.41469C178.722 7.54136 178.794 7.69205 178.899 7.8078C179.289 8.23584 179.677 8.66826 180.072 9.09194C181.629 10.7583 181.971 12.7849 181.032 14.9579C180.912 14.8291 180.957 14.5714 180.768 14.5605C180.552 14.5474 180.737 14.8247 180.547 14.8902C180.499 14.2831 180.532 13.6716 180.299 13.0929C180.151 13.1693 180.009 13.2436 179.867 13.3178C179.579 13.2392 179.736 13.0426 179.752 12.8832C179.841 12.5709 179.946 12.263 180.013 11.9463C180.066 11.7083 179.978 11.4855 179.819 11.3021C179.815 11.2977 179.671 11.4134 179.575 11.4855C179.523 11.1011 179.579 10.4918 179.398 10.411C178.964 10.2188 179.25 9.86941 179.078 9.66631C178.868 9.59861 178.975 9.91746 178.751 9.89125C179.025 9.14435 178.19 8.97182 178.06 8.35596C177.833 8.5132 177.898 9.21205 177.473 8.6486C177.453 8.62458 177.303 8.6486 177.288 8.68136C177.244 8.7709 177.307 8.87355 177.386 8.90631C177.898 9.11815 177.974 9.6401 178.267 10.0529C178.062 10.1271 177.887 9.94804 177.711 10.1031C177.983 10.387 178.459 10.4634 178.578 10.9068C178.613 11.0291 178.557 11.0618 178.445 11.04C178.282 10.9592 178.138 10.7736 177.903 10.9526C178.088 11.3261 178.509 11.5532 178.578 11.9966C178.611 12.1232 178.552 12.156 178.439 12.1363C178.151 11.9878 178.044 12.0686 178.179 12.3678C178.336 12.7151 178.498 13.0579 178.574 13.4336C178.65 13.6804 178.677 13.9075 178.345 13.9839C177.974 14.6587 178.341 15.4581 177.924 16.1766C177.909 15.8512 177.896 15.5607 177.876 15.1239C177.501 15.7878 177.73 16.4845 177.288 16.9257C177.209 16.4255 177.111 15.8817 177.043 15.3379C177.006 15.0475 176.932 14.7614 177.179 14.4753C177.285 14.3508 177.427 13.9839 177.028 13.8704C176.963 13.9381 176.899 13.9402 176.836 13.8682C176.801 13.6694 176.762 13.4729 176.524 13.3724C176.444 13.5515 176.468 13.8201 176.171 13.8289C175.938 13.8354 175.977 13.6083 175.807 13.4052C175.746 14.3661 175.668 15.2397 175.637 16.1132C175.534 19.1664 175.644 22.2173 175.829 25.2639C175.866 25.8557 176.232 26.4235 176.008 27.0263C175.886 27.3539 175.899 27.664 175.953 27.985C175.984 28.1619 176.038 28.3432 176.125 28.4961C176.319 28.8411 176.341 29.1796 176.173 29.5356C175.999 29.9069 176.043 30.2541 176.217 30.6276C176.54 31.3177 176.878 31.9969 177.277 32.6368C177.185 32.8071 177.041 32.735 176.93 32.735C175.622 32.7416 174.316 32.7329 173.007 32.7438C172.687 32.746 172.604 32.6652 172.787 32.3813C172.944 32.1367 173.084 31.8811 173.243 31.6387C173.714 30.9246 173.943 30.1711 173.672 29.315C173.607 29.1054 173.637 28.8935 173.736 28.6795C173.84 28.4524 173.945 28.2012 173.956 27.9566C174.139 23.7613 174.514 19.5682 174.226 15.362C174.183 14.7155 174.22 14.0647 174.154 13.4008C173.98 13.5384 174.067 13.8704 173.716 13.7961C173.358 13.7218 173.583 13.4205 173.489 13.1846C173.247 13.3986 173.123 13.5974 173.088 13.8551C172.992 13.9512 172.876 13.7699 172.783 13.8769C172.763 13.9992 172.682 14.1586 172.733 14.2351C173.175 14.9099 172.818 15.5913 172.772 16.2683C172.632 16.3753 172.863 16.6461 172.584 16.6898C172.373 16.5697 172.355 16.3666 172.355 16.1525C172.353 15.8512 172.327 15.5542 172.194 15.2681C172 15.3161 172.046 15.4734 172.039 15.6066C172.039 15.7332 172.181 15.9101 171.917 15.9385C171.695 15.3467 172.033 14.6085 171.653 14.1346C171.296 13.6869 171.374 13.3375 171.494 12.9138C171.538 12.7609 171.644 12.6255 171.712 12.477C171.773 12.346 172.046 12.2302 171.847 12.0839C171.662 11.9485 171.535 12.1582 171.448 12.3241C171.237 12.3372 171.333 12.2018 171.344 12.1057C171.429 11.6253 171.786 11.3283 172.109 10.9745C171.784 10.6971 171.61 11.064 171.344 11.1667C171.374 10.5333 171.908 10.3957 172.279 10.1206C172.144 9.97206 171.98 10.0856 171.839 10.0092C171.847 9.96769 171.845 9.91309 171.871 9.88033C172.037 9.66631 172.209 9.45665 172.379 9.24481C172.449 9.15746 172.65 9.057 172.445 8.96309C172.085 8.79929 172.277 8.56125 172.312 8.3363C171.801 8.38653 171.169 9.28412 171.2 9.92401C171.012 9.89781 171.099 9.6816 170.934 9.56803C170.89 10.1118 170.382 10.4372 170.46 11.0051C170.476 11.1208 170.604 11.396 170.175 11.3872C169.922 11.3807 169.87 11.859 170.059 12.156C170.319 12.5622 170.378 12.9924 170.242 13.5362C170.133 13.2436 169.843 13.1191 169.71 13.1453C169.518 13.1824 169.54 13.5013 169.516 13.7087C169.473 14.0866 169.449 14.4644 169.416 14.8313C169.191 14.9383 169.431 14.3115 169.074 14.6304C168.949 14.6959 169.126 14.9405 168.888 14.9383C168.092 12.6037 168.443 10.518 170.229 8.74033C170.513 8.4586 170.792 8.17469 171.06 7.87987C171.16 7.77067 171.346 7.63308 171.189 7.47584C171.075 7.36009 170.809 7.35572 170.746 7.49113C170.561 7.8886 169.996 7.88205 169.891 8.35378C169.872 8.43895 169.8 8.77746 169.562 8.44768C169.486 8.34067 169.381 8.50447 169.333 8.59182C169.198 8.83642 169.226 9.16183 168.832 9.27102C168.653 9.32125 168.624 9.66849 168.616 9.90873C168.566 10.0048 168.496 10.0005 168.415 9.95022L168.422 9.95896Z" fill="#BBA367"/>
<path d="M79.3441 36.8844C79.0039 38.0856 78.6812 39.2911 78.3192 40.4857C78.0859 41.2545 77.9376 42.0363 77.8613 42.8313C77.6716 44.8405 79.0846 46.4588 81.1103 46.6291C83.6898 46.8453 86.0011 46.0307 88.2536 44.906C90.0787 43.9953 91.7598 42.8509 93.4846 41.7742C94.2543 41.2938 95.0524 40.8592 95.8308 40.394C96.0118 40.2848 96.2931 40.1625 96.2691 39.9529C96.2408 39.7104 95.9268 39.6624 95.7131 39.5991C95.0873 39.4156 94.4528 39.2606 93.8248 39.088C93.2644 38.933 92.7193 38.743 92.2396 38.3935C91.7555 38.0419 91.5767 37.5833 91.7032 37.0133C92.1174 35.1417 93.0856 33.6282 94.6817 32.5559C95.41 32.0689 96.2386 31.9553 97.0825 32.2109C98.0768 32.5144 98.3384 33.3705 97.7213 34.1939C97.5709 34.3948 97.3986 34.5302 97.198 34.279C96.4959 33.4055 95.6237 33.6544 94.8126 33.9842C93.9185 34.3489 93.2469 35.0325 92.7847 35.8886C92.4532 36.5023 92.5557 36.7993 93.1968 37.0876C93.9622 37.4326 94.782 37.5942 95.5954 37.7842C96.1928 37.924 96.7903 38.0572 97.1893 38.6207C97.4902 39.0487 97.5687 39.4746 97.4073 39.955C97.1043 40.8657 96.5679 41.6126 95.7523 42.1215C93.4279 43.5738 91.1646 45.1331 88.7529 46.4369C86.8537 47.4634 84.7997 48.0639 82.6432 48.2714C81.7426 48.3588 80.8682 48.2015 80.0222 47.9023C77.6694 47.0703 76.7427 45.1331 77.1352 42.7002C77.4579 40.6976 78.2691 38.8412 79.1195 37.0089C79.1478 36.9478 79.2067 36.8997 79.2525 36.8451C79.283 36.8561 79.3157 36.867 79.3462 36.8779L79.3441 36.8844Z" fill="white"/>
<path d="M114.88 29.5878C114.374 29.4808 114.073 29.0746 113.611 28.8933C113.6 29.1707 113.766 29.3497 113.885 29.5397C114.782 30.9353 115.868 32.1779 116.988 33.3944C118.181 34.6872 119.461 35.9037 120.525 37.3167C121.659 38.8236 122.2 40.4768 121.888 42.3681C121.877 42.438 121.888 42.5122 121.888 42.5908C123.046 41.9946 123.774 40.4288 123.58 39.0507C123.31 37.1442 122.825 35.2813 122.498 33.3878C122.245 31.9224 122.012 30.4548 121.772 28.9872C121.72 28.6662 121.689 28.3473 121.506 28.0569C121.375 27.8494 121.733 26.7378 121.934 26.5958C122.102 26.4757 122.208 26.5718 122.296 26.6963C122.442 26.9038 122.597 27.1112 122.706 27.3384C123.137 28.2403 123.639 29.103 124.156 29.9591C124.228 30.0792 124.367 30.2299 124.206 30.3391C124.066 30.433 123.942 30.2823 123.846 30.1709C123.776 30.0879 123.726 29.9853 123.65 29.911C123.512 29.7778 123.432 29.4524 123.249 29.5354C123.015 29.6402 123 29.9394 123.05 30.2124C123.27 31.4267 123.467 32.6453 123.698 33.8552C123.977 35.3162 124.284 36.7816 124.374 38.2623C124.576 41.6539 123.249 44.2069 120.133 45.7532C118.748 46.4411 117.309 46.8779 115.782 47.0526C115.584 47.0744 115.383 47.0722 115.185 47.0701C114.984 47.0701 114.755 47.0701 114.701 46.8189C114.638 46.5241 114.899 46.511 115.08 46.4695C116.607 46.1201 117.967 45.4059 119.282 44.5869C119.882 44.2113 120.466 43.8117 121.057 43.4229C121.367 43.2198 121.46 42.973 121.478 42.569C121.567 40.3458 120.161 38.9044 118.853 37.4302C117.18 35.5455 115.329 33.8159 113.848 31.7608C113.168 30.8173 112.625 29.7953 112.095 28.7579C111.775 28.1333 111.55 27.6048 111.868 26.9431C112.097 26.4648 112.187 26.4604 112.529 26.8404C113.242 27.6354 113.977 28.4128 114.703 29.1991C114.786 29.2886 114.912 29.3541 114.886 29.5878H114.88Z" fill="white"/>
<path d="M15.5338 14.331C15.2853 14.7372 15.0934 15.1041 14.8513 15.436C14.3302 16.1545 13.7785 16.8403 12.7406 16.7114C12.5138 16.683 12.4833 16.79 12.5008 17.0041C12.6272 18.4476 12.165 19.6357 10.9766 20.518C9.5549 21.5728 8.0787 22.5381 6.34084 22.9705C3.60431 23.6541 0.453482 21.6667 0.0609921 18.9893C-0.0981845 17.9082 0.0021186 16.8163 0.933193 15.9471C1.0444 16.2659 0.909207 16.504 0.852514 16.7289C0.449121 18.3494 1.63095 19.9611 2.64489 20.5879C4.17778 21.5357 5.77173 21.5772 7.38312 20.898C8.84405 20.2821 10.2003 19.4785 11.3756 18.3909C11.6438 18.1419 11.694 17.9235 11.5849 17.5806C11.3429 16.8141 11.0267 16.0846 10.6691 15.3705C10.3791 14.7896 10.3966 14.2152 10.6844 13.643C10.7716 13.4683 10.8414 13.2324 11.0682 13.2237C11.271 13.2172 11.3516 13.4334 11.4388 13.5862C11.6177 13.9051 11.8095 14.2087 12.0668 14.4707C12.8344 15.2482 13.6259 15.2548 14.3825 14.4664C14.7619 14.0711 15.0192 13.5862 15.3071 13.1232C15.4815 12.8437 15.5883 12.337 15.9568 12.4157C16.3864 12.5052 16.43 13.025 16.4562 13.4181C16.5194 14.3593 16.5063 15.3028 16.6721 16.2375C16.9904 18.0218 18.4295 18.0065 19.6724 17.3164C19.9036 17.1875 19.8643 16.9844 19.7509 16.7988C19.5896 16.5367 19.4173 16.279 19.245 16.0235C18.9005 15.5125 18.9071 14.7852 19.2603 14.2916C19.4064 14.0885 19.5329 14.0427 19.7378 14.2458C20.7692 15.2657 21.0309 16.7748 20.3833 18.0655C19.9123 19.0067 18.7675 19.6008 17.7579 19.4304C16.8334 19.2753 16.0572 18.3843 15.9045 17.3317C15.7911 16.5411 15.645 15.7549 15.6865 14.949C15.6974 14.7503 15.6363 14.569 15.5338 14.3288V14.331Z" fill="white"/>
<path d="M95.1788 44.3251C95.1331 44.9388 94.8474 45.3974 94.7035 45.8975C94.5836 46.3168 94.4266 46.7252 94.4157 47.1664C94.3895 48.3981 95.5059 49.1778 96.6463 48.7257C97.7213 48.2998 98.4867 47.5136 99.1081 46.5723C99.989 45.238 100.857 43.8949 101.86 42.6457C102.514 41.831 103.258 41.1235 104.213 40.6583C105.615 39.9747 105.918 40.014 107.019 41.106C107.874 41.9555 108.772 41.8966 109.516 40.9466C109.699 40.7129 109.799 40.4421 109.875 40.1582C109.932 39.9485 109.98 39.7345 110.05 39.5292C110.102 39.3785 110.148 39.1776 110.355 39.2016C110.567 39.2256 110.665 39.4287 110.645 39.6056C110.588 40.121 110.724 40.5076 111.16 40.8286C111.679 41.213 112.219 41.4445 112.874 41.3877C113.728 41.3135 113.997 40.8658 113.615 40.1101C113.51 39.9026 113.393 39.6777 113.223 39.5292C112.605 38.9941 112.765 38.3543 112.948 37.7187C113.059 37.3344 113.301 37.354 113.552 37.6183C114.784 38.9068 115.017 40.477 114.217 42.0909C113.776 42.9798 112.817 43.3139 111.742 42.9514C111.086 42.7308 110.571 42.3224 110.198 41.7219C110.148 41.7764 110.12 41.7983 110.104 41.8267C109.202 43.6153 107.606 43.8883 106.223 42.4251C105.717 41.89 105.244 41.8442 104.625 42.0822C103.432 42.5386 102.647 43.4821 101.873 44.4146C101.036 45.4214 100.401 46.5745 99.7078 47.684C99.1975 48.5029 98.6393 49.2869 97.8587 49.881C97.3855 50.2391 96.8622 50.4881 96.2713 50.5427C94.9303 50.665 93.9076 49.8111 93.7615 48.4614C93.6242 47.1948 93.9229 46.0089 94.4506 44.8689C94.5858 44.5784 94.8387 44.4583 95.1788 44.3251Z" fill="white"/>
<path d="M5.00044 46.7668C3.79026 46.7515 2.69783 46.3868 1.72533 45.7032C0.497703 44.8384 0.107394 43.5892 0.151004 42.1391C0.183711 41.0646 0.434469 40.0578 0.909818 39.1034C0.966511 38.9899 0.997038 38.7737 1.1802 38.8283C1.34156 38.8763 1.32847 39.0772 1.29795 39.2126C1.18674 39.7062 1.05155 40.1954 0.927262 40.6868C0.475898 42.4689 1.26742 44.0216 2.92896 44.7794C4.18275 45.3516 5.43 45.2162 6.70995 44.9694C9.49663 44.4344 11.9344 43.1546 14.1934 41.4905C15.094 40.8266 15.0983 40.7283 14.7298 39.6647C14.5096 39.0292 14.2632 38.4068 13.8751 37.8499C13.6701 37.555 13.8315 36.557 14.1018 36.3255C14.3112 36.1464 14.4333 36.3124 14.551 36.4456C14.8127 36.747 15.0591 37.0615 15.3251 37.3585C15.8419 37.9372 16.4808 37.9765 17.1698 37.7516C17.5383 37.6315 17.6539 37.3891 17.4925 37.0331C17.4097 36.8518 17.3181 36.6727 17.2025 36.5111C16.81 35.9651 16.773 35.4279 17.1066 34.8557C17.2963 34.5303 17.4991 34.5041 17.7237 34.8208C18.4759 35.8712 18.7005 36.985 18.1663 38.208C17.7978 39.0532 17.1851 39.4965 16.2496 39.4223C15.879 39.3917 15.7459 39.4223 15.7634 39.8962C15.8135 41.2764 15.3731 42.4427 14.128 43.2354C11.6117 44.8384 8.94714 46.0723 6.01219 46.6751C5.90534 46.6969 5.7985 46.7188 5.69166 46.7253C5.45616 46.7428 5.22067 46.7493 4.99826 46.7603L5.00044 46.7668Z" fill="white"/>
<path d="M100.508 16.3336C100.427 17.098 100.253 17.8558 99.9171 18.5678C99.8669 18.6726 99.8081 18.8255 99.6445 18.7709C99.5137 18.7272 99.5246 18.5809 99.5529 18.4892C99.9454 17.2072 99.3829 16.0235 99.1626 14.8114C98.4452 10.8498 97.6145 6.91219 96.7205 2.9855C96.5984 2.44608 96.5722 1.90883 96.2255 1.43274C95.9944 1.11388 96.6093 0.0546832 97.0018 0.00226915C97.1958 -0.0239379 97.2438 0.113649 97.3245 0.231581C97.8543 1.01342 98.3864 1.79308 98.9162 2.57493C98.9773 2.66447 99.0449 2.75619 99.0754 2.85884C99.0994 2.93746 99.1016 3.06631 99.0558 3.11217C98.9511 3.21482 98.8639 3.09907 98.7876 3.02918C98.7091 2.95493 98.6437 2.86539 98.5674 2.78677C98.3188 2.53998 98.1749 2.69286 98.1095 2.93964C98.0746 3.07068 98.1138 3.22792 98.14 3.36987C98.768 6.5715 99.5006 9.75347 100.015 12.9791C100.192 14.0886 100.344 15.2024 100.51 16.3336H100.508Z" fill="white"/>
<path d="M57.0359 18.0719C56.5213 18.0151 56.094 17.9867 55.6731 17.9168C54.6614 17.7509 54.2667 17.1328 54.5654 16.1632C54.9209 15.0122 55.6709 14.1627 56.7154 13.5992C57.6051 13.1188 58.4925 13.3306 59.0878 14.0906C59.404 14.4946 59.2731 15.4315 58.8479 15.7154C58.595 15.8836 58.4467 15.6609 58.3028 15.5123C57.6356 14.8222 56.1746 14.9642 55.6077 15.7657C55.442 16.0015 55.5663 16.078 55.756 16.1632C56.3992 16.4492 57.0839 16.5322 57.7751 16.5279C58.8283 16.5213 59.875 16.4405 60.8714 16.0474C61.083 15.9644 61.3228 15.8137 61.5103 16.0758C61.7022 16.3422 61.5954 16.5868 61.4057 16.8161C61.0546 17.242 60.6577 17.5805 60.1322 17.8011C58.3203 18.5611 56.5868 19.4652 55.0887 20.7669C54.9318 20.9023 54.729 21.101 54.5175 20.9044C54.2994 20.7013 54.5066 20.4873 54.6221 20.3257C55.128 19.6268 55.804 19.1005 56.4668 18.5633C56.6434 18.4191 56.8113 18.2663 57.0338 18.0719H57.0359Z" fill="white"/>
<path d="M45.5981 4.37221C45.2841 4.28922 45.186 4.01842 45.0595 3.79129C44.8742 3.45933 44.7455 3.60129 44.606 3.81531C44.5231 3.94198 44.4926 4.07738 44.5122 4.23026C44.8981 7.39912 45.1315 10.5833 45.5392 13.7521C45.7878 15.6893 45.8358 17.6286 45.162 19.5133C45.0639 19.7863 44.9963 20.0746 44.6212 20.186C44.4926 19.782 44.6081 19.4063 44.6801 19.0285C44.9439 17.6111 44.7608 16.2003 44.5558 14.8026C44.2767 12.8982 44.1938 10.9742 43.9475 9.06764C43.749 7.52142 43.6335 5.96429 43.4372 4.41589C43.35 3.72359 43.5179 3.03128 43.2497 2.32588C43.0949 1.92185 43.4001 1.41518 43.6683 1.01771C43.7992 0.825524 44.0194 0.808053 44.0957 1.03081C44.4839 2.15335 45.21 3.10772 45.6504 4.20187C45.6657 4.23899 45.6221 4.29796 45.5981 4.37221Z" fill="white"/>
<path d="M129.082 43.1674C129.069 43.0036 129.036 42.9075 129.056 42.8267C129.413 41.4858 129.147 40.1579 128.942 38.8367C128.46 35.7377 127.941 32.6431 127.435 29.5485C127.359 29.0811 127.263 28.6116 127.045 28.1944C126.72 27.5742 127.015 27.061 127.296 26.5609C127.438 26.3075 127.608 26.2791 127.861 26.5893C128.633 27.5371 128.918 28.7317 129.544 29.7472C129.618 29.8651 129.71 30.0311 129.537 30.125C129.404 30.1971 129.322 30.0464 129.237 29.9503C129.075 29.7647 128.968 29.5179 128.626 29.4371C128.835 30.7562 129.058 32.036 129.239 33.3223C129.566 35.6547 130.107 37.9609 130.041 40.3392C130.021 41.0905 129.847 41.8112 129.668 42.5319C129.603 42.7983 129.424 43.0058 129.08 43.1674H129.082Z" fill="white"/>
<path d="M64.3034 29.404C64.3492 30.4042 64.5673 31.304 64.7003 32.2125C65.0317 34.4729 65.5071 36.7157 65.6401 39.0023C65.7077 40.1445 65.6968 41.2889 65.3326 42.4027C65.2192 42.7521 65.0644 43.0229 64.685 43.1845C64.6698 43.0884 64.6371 43.0164 64.6545 42.9618C65.1298 41.3981 64.7243 39.8584 64.4931 38.3253C64.0679 35.5102 63.5817 32.7039 63.126 29.891C63.03 29.297 62.9145 28.7095 62.6681 28.1592C62.389 27.5389 62.6506 27.0213 62.9624 26.5256C63.0889 26.3225 63.2415 26.2744 63.4618 26.5409C64.262 27.5127 64.5498 28.751 65.2105 29.7905C65.2781 29.8954 65.3501 30.0373 65.1953 30.1203C65.0535 30.1968 64.9598 30.0635 64.8813 29.9696C64.733 29.7905 64.6305 29.57 64.3034 29.4018V29.404Z" fill="white"/>
<path d="M74.4248 10.3105C74.4357 9.86063 74.7061 9.53523 75.0005 9.23821C75.7484 8.48039 76.6882 7.98901 77.5669 7.41027C80.5106 5.4644 83.6593 3.88324 86.7556 2.21036C87.0739 2.03783 87.3748 1.83254 87.6932 1.66002C87.8611 1.56829 88.0377 1.28001 88.2383 1.56611C88.4128 1.81726 88.3692 2.08588 88.1075 2.28462C87.6452 2.63841 87.1633 2.96381 86.6509 3.2368C83.3496 4.99268 80.0898 6.81843 76.9455 8.84729C76.1932 9.33212 75.5129 9.89776 74.8479 10.4896C74.7563 10.5704 74.6712 10.7102 74.5295 10.6512C74.3878 10.5922 74.4488 10.4306 74.4248 10.3062V10.3105Z" fill="white"/>
<path d="M35.1019 33.3246C35.1194 32.8223 35.3919 32.4859 35.8062 32.237C36.7722 31.6582 37.7927 31.1821 38.8088 30.7039C41.711 29.3367 44.7354 28.2579 47.6769 26.9825C47.8491 26.9082 48.065 26.7117 48.2242 27.0392C48.3637 27.3253 48.2155 27.4651 48.0018 27.6158C47.0424 28.295 45.9216 28.6313 44.8662 29.0987C42.1013 30.326 39.2754 31.4158 36.6108 32.8616C36.2271 33.069 35.852 33.2853 35.4966 33.5364C35.2524 33.7089 35.0867 33.6696 35.1019 33.3224V33.3246Z" fill="white"/>
<path d="M122.553 7.49506C122.678 6.92724 123.057 6.5931 123.561 6.3616C126.051 5.21941 128.541 4.07722 131.138 3.18618C132.442 2.73848 133.746 2.29296 135.05 1.85181C135.207 1.79939 135.386 1.66181 135.519 1.91296C135.643 2.14882 135.582 2.32572 135.399 2.4917C135.209 2.66641 135.002 2.80618 134.758 2.89354C131.188 4.16895 127.608 5.42033 124.202 7.1085C123.811 7.30287 123.399 7.44483 123.085 7.76805C122.981 7.87724 122.835 7.93184 122.686 7.87288C122.514 7.80299 122.553 7.63701 122.553 7.49287V7.49506Z" fill="white"/>
<path d="M8.67346 10.1814C8.71053 9.90191 8.95039 9.58524 9.26438 9.32317C10.564 8.23776 11.9922 7.33362 13.3986 6.40108C14.9599 5.36591 16.6432 4.54257 18.2829 3.64498C18.5075 3.52268 18.719 3.39164 18.9131 3.2213C19.0461 3.10336 19.1988 2.87187 19.4059 3.09681C19.5825 3.29118 19.5803 3.54015 19.4146 3.74762C19.1421 4.0905 18.8302 4.4028 18.4487 4.61901C17.3148 5.26763 16.1635 5.88568 15.034 6.54741C12.9952 7.74201 11.0502 9.07857 9.15753 10.4937C9.03979 10.5811 8.93512 10.7755 8.74106 10.6641C8.61241 10.5898 8.62113 10.4523 8.67346 10.1814Z" fill="white"/>
<path d="M25.1654 12.2803C25.2112 11.6994 25.5971 11.4133 25.9569 11.1053C27.4397 9.82993 29.147 8.89958 30.802 7.88187C32.4417 6.8729 34.2276 6.12818 35.8324 5.06024C35.9676 4.9707 36.1268 4.84185 36.2489 5.04933C36.3775 5.26772 36.3928 5.52105 36.19 5.70232C35.8542 6.00588 35.5119 6.30289 35.1128 6.52784C32.8538 7.80762 30.5512 9.00659 28.3686 10.4196C27.4527 11.0136 26.5631 11.6382 25.7519 12.3698C25.6168 12.4921 25.4794 12.6341 25.2766 12.562C25.1174 12.5052 25.1807 12.3502 25.1654 12.2825V12.2803Z" fill="white"/>
<path d="M101.68 37.8302C101.686 37.4546 101.909 37.1925 102.144 36.937C102.964 36.046 103.98 35.4061 104.988 34.7596C106.588 33.731 108.232 32.7657 109.697 31.5384C109.833 31.4248 109.983 31.1911 110.197 31.4248C110.367 31.6104 110.343 31.8179 110.208 32.0254C109.898 32.5015 109.527 32.923 109.054 33.2396C107.231 34.4583 105.413 35.6878 103.572 36.8802C103.047 37.2187 102.58 37.6053 102.153 38.053C102.053 38.1578 101.928 38.2736 101.776 38.1818C101.656 38.1098 101.691 37.9569 101.682 37.8324L101.68 37.8302Z" fill="white"/>
<path d="M1.75726 36.0149C1.89463 34.1345 2.36562 32.3372 3.14624 30.6184C3.19203 30.5158 3.23782 30.4066 3.37519 30.4437C3.51038 30.4786 3.50166 30.6053 3.49948 30.7145C3.4973 31.1229 3.3294 31.492 3.21601 31.872C2.86713 33.0557 2.50081 34.2372 2.52043 35.4929C2.52697 35.921 2.62292 36.3272 2.92819 36.646C3.3185 37.0544 3.74806 36.9692 3.92031 36.4254C4.0228 36.1 4.04024 35.7506 4.10566 35.4121C4.134 35.2702 4.16453 35.0976 4.33897 35.0823C4.53304 35.0627 4.61808 35.2308 4.67477 35.3837C4.90808 35.9952 4.38258 37.8668 3.86144 38.2883C3.55617 38.5351 3.22255 38.5045 2.88676 38.3604C2.07125 38.011 1.86846 37.2837 1.75944 36.5063C1.73763 36.3468 1.75726 36.1787 1.75726 36.0171V36.0149Z" fill="white"/>
<path d="M102.792 28.4132C102.797 28.3695 102.794 28.2385 102.823 28.1162C103.01 27.2644 103.462 27.1137 104.105 27.6903C104.458 28.007 104.757 28.3717 105.014 28.7692C105.165 29.0006 105.28 28.9635 105.38 28.7233C105.553 28.3062 105.644 27.8563 105.921 27.4806C106.379 26.8604 107.149 26.915 107.506 27.5942C107.677 27.9152 107.616 28.1598 107.33 28.4023C107.012 28.6709 106.909 28.4219 106.741 28.2341C106.523 27.9917 106.351 27.9982 106.261 28.3542C106.137 28.8456 105.998 29.3326 105.862 29.8218C105.81 30.014 105.76 30.2084 105.684 30.3896C105.583 30.6233 105.466 30.8854 105.173 30.9007C104.851 30.9181 104.881 30.584 104.768 30.3984C104.617 30.1516 104.491 29.8895 104.338 29.6449C104.214 29.4484 104.048 29.3654 103.789 29.3981C103.067 29.4855 102.781 29.2103 102.794 28.4088L102.792 28.4132Z" fill="white"/>
<path d="M12.4775 21.2692C12.7893 21.291 12.9529 21.5073 13.1513 21.6579C13.7117 22.0794 13.7204 22.0816 14.1151 21.5291C14.4945 20.9962 14.6624 20.9656 15.2358 21.2889C15.5673 21.4745 15.914 21.6339 16.2476 21.813C16.7469 22.0816 16.8036 22.3677 16.4547 22.8111C15.8878 23.5274 15.7744 23.5732 15.0461 23.1146C14.5599 22.8089 14.1914 22.7171 13.8578 23.3134C13.6223 23.7348 13.2843 23.8026 12.8744 23.475C12.6083 23.2609 12.2965 23.1015 11.9956 22.9355C11.6097 22.7237 11.5486 22.431 11.771 22.0751C11.9673 21.765 12.0654 21.3566 12.4797 21.2714L12.4775 21.2692Z" fill="white"/>
<path d="M86.9317 9.79892C86.8815 10.0239 86.9121 10.2357 86.7812 10.4344C86.2797 11.1879 86.1009 11.2403 85.3116 10.7926C85.2004 10.7293 85.0804 10.679 84.9867 10.596C84.7664 10.4017 84.2955 10.3646 84.3412 10.026C84.3979 9.60455 84.6792 9.23328 85.0346 8.95592C85.1786 8.84454 85.3247 8.82271 85.4838 8.92753C85.5907 8.99524 85.7041 9.05202 85.8153 9.11317C86.3459 9.41018 86.774 9.29734 87.0996 8.77466C87.4397 8.22868 87.564 8.19374 88.144 8.50385C88.4951 8.69167 88.8592 8.85983 89.1885 9.08041C89.6224 9.37305 89.6464 9.68972 89.3063 10.0785C89.1754 10.227 89.0228 10.358 88.8767 10.4934C88.663 10.6878 88.458 10.7293 88.2182 10.5065C87.854 10.1702 87.383 10.0151 86.9339 9.8011L86.9317 9.79892Z" fill="white"/>
<path d="M78.2694 3.71693C78.4874 3.24084 78.5092 2.76692 78.7709 2.38911C79.0282 2.01784 79.3334 1.69025 79.8306 1.75795C80.3147 1.82347 80.4738 2.2537 80.6396 2.63152C80.7464 2.87175 80.7115 3.14256 80.5262 3.35003C80.2994 3.60337 80.0661 3.73003 79.8742 3.30198C79.7892 3.11198 79.7499 2.82589 79.473 2.85428C79.1655 2.88704 79.2092 3.20152 79.1503 3.41118C78.9824 4.01831 78.9628 4.6713 78.6073 5.22165C78.2955 5.7043 78.156 5.70211 77.866 5.2151C77.6806 4.9028 77.4713 4.6036 77.3121 4.2782C77.1093 3.86544 76.8259 3.61865 76.344 3.64049C76.0169 3.65578 75.8904 3.44831 75.8926 3.15566C75.8926 2.99405 75.9253 2.83244 75.9624 2.67302C76.115 2.00037 76.5141 1.86497 77.0635 2.29301C77.5411 2.66646 77.8245 3.21026 78.2694 3.71475V3.71693Z" fill="white"/>
<path d="M100.75 3.05949C100.784 2.73408 100.811 2.43488 101.286 2.6642C101.709 2.8673 102.171 2.9896 102.599 3.18615C102.884 3.31719 103.033 3.2473 103.129 2.96995C103.153 2.90224 103.203 2.84546 103.229 2.77776C103.412 2.30603 103.682 2.14442 104.173 2.42397C104.548 2.63799 104.969 2.76902 105.368 2.94155C105.743 3.10316 105.824 3.36305 105.649 3.73432C105.285 4.51179 104.947 4.64501 104.173 4.28685C104.042 4.2257 103.905 4.17329 103.78 4.09903C103.434 3.89156 103.207 3.89156 102.961 4.3065C102.529 5.03812 102.394 5.03593 101.681 4.58605C100.83 4.05099 100.734 3.89156 100.747 3.05512L100.75 3.05949Z" fill="white"/>
<path d="M15.9864 31.2869C16.6842 30.4067 17.7875 30.0551 18.3937 29.1423C17.3972 28.8584 16.4727 29.1794 15.9559 29.959C15.8774 30.0792 15.812 30.2517 15.6376 30.1949C15.4806 30.1425 15.4849 29.97 15.474 29.8215C15.3977 28.8125 16.2198 27.845 17.3732 27.655C17.7984 27.5851 18.2433 27.5873 18.675 27.6244C19.3052 27.6769 19.6475 28.2709 19.4011 28.8518C18.9737 29.8542 18.1342 30.457 17.2511 31.0161C16.8914 31.2454 16.5381 31.4528 15.9864 31.2869Z" fill="white"/>
<path d="M46.8966 10.236C46.5456 10.1268 46.6132 9.86258 46.72 9.67913C46.9184 9.33407 47.1888 9.04142 47.5072 8.79027C49.1491 7.49957 50.9109 6.38359 52.6663 5.25887C53.3248 4.83738 53.9658 4.40059 54.5502 3.87645C54.7028 3.74105 54.8838 3.43967 55.1346 3.70392C55.3635 3.94634 55.2589 4.23025 55.0386 4.4268C54.7007 4.726 54.3496 5.01646 53.9767 5.26979C52.1298 6.52118 50.2219 7.67866 48.4208 8.99556C48.0131 9.29476 47.6467 9.65074 47.2564 9.97614C47.1474 10.0679 47.0253 10.1443 46.8988 10.236H46.8966Z" fill="white"/>
<path d="M104.267 47.9346C104.173 47.928 104.136 47.9302 104.102 47.9215C103.879 47.8669 103.541 47.88 103.511 47.6398C103.478 47.3821 103.818 47.3821 104.014 47.3318C105.266 46.9999 106.446 46.5129 107.553 45.8358C108.048 45.5345 108.572 45.2768 109.152 45.1698C109.311 45.1414 109.496 45.0758 109.629 45.1283C110.104 45.3139 110.527 45.3357 110.924 44.9535C111.025 44.8574 111.197 44.8072 111.312 44.9601C111.572 45.3052 111.692 45.054 111.818 44.8487C111.884 44.7417 111.919 44.615 111.984 44.508C112.065 44.3748 112.198 44.2896 112.35 44.3311C112.52 44.377 112.523 44.5473 112.531 44.6915C112.571 45.386 111.646 46.1634 110.964 45.9975C110.824 45.9625 110.719 45.98 110.606 46.0433C110.231 46.2573 109.852 46.2442 109.459 46.0826C109.088 45.9298 108.739 46.0957 108.419 46.2442C107.845 46.5107 107.292 46.823 106.731 47.1178C105.938 47.5328 105.094 47.7926 104.269 47.9368L104.267 47.9346Z" fill="white"/>
<path d="M10.2965 28.3055C9.77539 28.3055 9.25643 28.2771 8.74183 28.3143C8.36461 28.3426 8.16618 28.6506 7.98738 28.9585C7.90888 29.0939 7.80422 29.273 7.61451 29.2009C7.44879 29.1398 7.51203 28.9476 7.51203 28.8122C7.52075 27.7836 8.4322 27.0214 9.55734 27.0978C10.0087 27.1284 10.4601 27.1655 10.9093 27.207C11.2232 27.2354 11.5394 27.29 11.6615 27.6372C11.7727 27.9539 11.607 28.1963 11.3911 28.4125C10.4644 29.3451 9.27606 29.8627 8.13565 30.4523C7.96557 30.5397 7.74316 30.5047 7.64068 30.3431C7.52075 30.1553 7.74534 30.0592 7.85001 29.9718C8.52378 29.4149 9.38726 29.1572 10.0523 28.5851C10.1417 28.5086 10.2878 28.4824 10.2922 28.3011L10.2965 28.3055Z" fill="white"/>
<path d="M67.225 32.1165C67.2882 31.7737 67.5848 31.4155 67.9467 31.0988C68.9803 30.1925 70.2362 29.6312 71.381 28.8931C72.2488 28.3318 73.1647 27.8426 73.9148 27.1132C74.0587 26.9734 74.2266 26.886 74.377 27.0913C74.5384 27.3141 74.51 27.5521 74.3051 27.7269C73.8232 28.1396 73.3544 28.5786 72.8289 28.928C71.8018 29.6116 70.7356 30.234 69.6955 30.8979C68.9955 31.3456 68.2367 31.7212 67.7439 32.4354C67.6502 32.5708 67.5084 32.6953 67.3296 32.6341C67.1639 32.5773 67.1639 32.4157 67.225 32.1143V32.1165Z" fill="white"/>
<path d="M4.33465 3.29562C3.40576 3.31309 2.58589 3.31964 2.04294 4.11022C1.96226 4.22597 1.83579 4.35045 1.6788 4.23907C1.53052 4.13425 1.51308 3.96172 1.56759 3.79355C1.77474 3.16459 2.1367 2.63608 2.74506 2.3609C3.42102 2.05734 4.14931 2.00711 4.87541 2.16654C5.47723 2.29757 5.60588 2.59458 5.34422 3.1624C5.10001 3.68873 4.67481 4.06436 4.24961 4.43344C3.62817 4.97287 2.89988 5.34632 2.17377 5.72414C1.9688 5.83115 1.73113 5.8377 1.63083 5.66954C1.5 5.45333 1.74857 5.33322 1.90339 5.22839C2.38528 4.90517 2.88025 4.59942 3.35778 4.26747C3.71103 4.02287 4.049 3.75424 4.33465 3.29344V3.29562Z" fill="white"/>
<path d="M134.181 9.08297C134.277 8.67457 134.334 8.35572 134.428 8.04779C134.594 7.51273 134.851 7.041 135.42 6.83134C135.765 6.70468 136.041 6.80514 136.205 7.11962C136.395 7.48434 136.641 7.87089 136.414 8.29457C136.283 8.53699 135.952 8.42997 135.854 8.11986C135.789 7.91675 135.81 7.64158 135.507 7.65468C135.191 7.66997 135.115 7.94733 135.067 8.19848C134.945 8.8209 134.868 9.44986 134.637 10.0483C134.53 10.3234 134.395 10.5506 134.086 10.5724C133.782 10.5942 133.798 10.2929 133.702 10.1181C133.562 9.86481 133.451 9.594 133.34 9.32538C133.174 8.93009 133.019 8.57848 132.452 8.74227C132.151 8.82963 131.986 8.60906 132.008 8.2902C132.034 7.90802 132.21 7.5979 132.479 7.33583C132.725 7.0956 132.936 7.23755 133.146 7.41227C133.641 7.82503 133.787 8.454 134.184 9.08515L134.181 9.08297Z" fill="white"/>
<path d="M42.5465 35.9347C42.0624 35.6333 41.5107 35.3494 41.0376 34.9694C40.8391 34.8099 41.031 34.4649 41.1771 34.2749C41.4955 33.8621 41.3123 33.6568 40.946 33.4406C40.7083 33.3008 40.294 33.2987 40.2853 32.9623C40.2744 32.578 40.5426 32.2569 40.7977 31.9687C40.8566 31.9031 40.9503 31.8049 41.0114 31.8158C41.5631 31.9075 42.0013 32.2416 42.3982 32.5954C42.7166 32.8772 42.4789 33.2048 42.263 33.4559C42.0733 33.6787 42.0886 33.8206 42.3459 33.9604C42.553 34.0718 42.7471 34.2072 42.9477 34.3295C43.5081 34.6702 43.5669 34.9432 43.1396 35.4651C42.9891 35.6486 42.915 35.9434 42.5421 35.9368L42.5465 35.9347Z" fill="white"/>
<path d="M11.0274 46.8146C11.3349 46.9588 11.6511 47.0963 11.9563 47.2514C12.2442 47.3999 12.4666 47.389 12.6039 47.0548C12.8089 46.5591 13.1185 46.511 13.5372 46.8233C13.6789 46.9282 13.8599 46.9871 14.03 47.0461C14.4116 47.1837 14.6165 47.3999 14.4334 47.828C14.1674 48.446 13.7661 48.7212 13.3584 48.4766C12.8351 48.1621 12.4469 48.1752 12.1199 48.7277C12.0261 48.885 11.8713 48.9854 11.6554 48.8806C11.2171 48.6644 10.7723 48.4613 10.3297 48.2538C10.0658 48.1315 9.97862 47.9415 10.1465 47.6904C10.3733 47.3475 10.4736 46.867 11.0274 46.8124V46.8146Z" fill="white"/>
<path d="M49.8836 3.39821C50.0885 2.92648 50.2368 2.53556 50.4243 2.16429C50.6053 1.80832 50.891 1.50038 51.3183 1.60303C51.7784 1.71222 51.9114 2.15556 51.9921 2.5705C52.0444 2.83257 51.894 3.01821 51.652 3.1274C51.3663 3.25625 51.3183 3.02913 51.2311 2.85441C51.1853 2.7605 51.1483 2.63384 51.0109 2.65786C50.8888 2.6797 50.8539 2.80855 50.8277 2.90683C50.6882 3.43097 50.5639 3.95948 50.4243 4.4858C50.3698 4.69327 50.3502 4.91822 50.1801 5.08201C50.0493 5.20868 49.9185 5.36155 49.7222 5.33971C49.4824 5.31351 49.5151 5.07983 49.4671 4.91603C49.2381 4.14293 48.9612 3.41131 48.2133 2.95924C47.8928 2.76706 47.9713 2.4482 48.1675 2.20361C48.3703 1.94809 48.6254 1.86947 48.9154 2.1228C49.3166 2.47223 49.5565 2.94395 49.8814 3.40258L49.8836 3.39821Z" fill="white"/>
<path d="M94.4059 21.4617C94.3863 22.0841 93.2764 22.8965 92.6746 22.7917C92.112 22.6934 91.5342 22.6323 90.9759 22.8922C89.7505 23.46 88.4771 23.8706 87.1164 23.9426C86.8482 23.9579 86.567 23.9841 86.3206 23.8312C86.229 23.7745 86.1287 23.7046 86.1745 23.5735C86.2115 23.4665 86.3206 23.4884 86.4056 23.4818C87.8905 23.3617 89.2861 22.9227 90.6162 22.2741C91.4099 21.8876 92.245 21.964 93.0758 21.9771C93.3243 21.9815 93.405 21.7871 93.5533 21.6779C93.695 21.5731 93.7953 21.4093 93.9196 21.2761C94.0177 21.1734 94.1137 21.0358 94.2859 21.1254C94.4233 21.1953 94.4015 21.3394 94.4059 21.4639V21.4617Z" fill="white"/>
<path d="M12.2519 2.64239C12.2432 2.1117 12.6728 1.8125 13.1765 2.01124C13.5908 2.17503 13.8873 2.50262 14.1948 2.81055C14.6788 3.29757 14.6941 3.29102 14.8925 2.61182C14.9579 2.38687 15.0124 2.15538 15.1062 1.94135C15.237 1.63779 15.4682 1.41503 15.8192 1.46308C16.2183 1.51767 16.4559 1.79066 16.541 2.1794C16.5759 2.34101 16.5693 2.52446 16.3949 2.60745C16.2357 2.68389 16.0634 2.6555 15.9653 2.4917C15.6906 2.04181 15.599 2.34538 15.5183 2.60308C15.3831 3.0355 15.2872 3.47883 15.1433 3.90688C14.9427 4.50309 14.5415 4.58171 14.1642 4.08596C13.8873 3.72343 13.6605 3.40895 13.0936 3.48102C12.6597 3.53562 12.2607 3.04423 12.2541 2.64021L12.2519 2.64239Z" fill="white"/>
<path d="M125.36 2.77982C125.583 2.40419 125.585 2.00016 125.812 1.68786C126.084 1.31223 126.459 1.20085 126.867 1.3297C127.251 1.44981 127.401 1.79706 127.434 2.18143C127.445 2.29936 127.484 2.45223 127.334 2.51775C127.181 2.58327 127.048 2.5243 126.954 2.39327C126.821 2.20764 126.736 1.91936 126.435 2.01545C126.102 2.12028 126.091 2.45879 126.041 2.73833C125.975 3.09431 125.962 3.45902 125.897 3.815C125.849 4.08144 125.687 4.28891 125.408 4.33914C125.075 4.39811 125.134 4.07052 125.029 3.91109C124.841 3.62282 124.667 3.3258 124.484 3.03534C124.414 2.92614 124.336 2.81913 124.183 2.85626C123.895 2.92614 123.714 2.81258 123.679 2.5243C123.644 2.22511 123.705 1.93683 123.974 1.75556C124.251 1.56993 124.462 1.75556 124.639 1.93901C124.883 2.19453 125.101 2.47407 125.36 2.77982Z" fill="white"/>
<path d="M29.6448 3.77153C29.6164 4.96177 29.0211 5.88557 28.3539 6.78097C28.258 6.90982 28.1337 6.91201 28.0159 6.86396C27.8568 6.79845 27.8938 6.64339 27.9483 6.53637C28.1141 6.21534 28.2841 5.8943 28.4804 5.59074C29.0648 4.68223 29.032 3.55096 28.3081 2.83682C27.9505 2.4852 28.0617 1.8475 28.4433 1.52865C28.6744 1.33428 28.814 1.47187 28.9252 1.65095C29.3351 2.30394 29.6055 3.00935 29.6448 3.77153Z" fill="white"/>
<path d="M87.5096 7.5718C87.3984 8.00203 87.0299 8.25318 86.6985 8.52836C86.4499 8.73364 86.3125 8.44318 86.1381 8.35364C85.7521 8.15272 85.388 7.91031 84.9977 7.71594C84.6292 7.53249 84.5921 7.29881 84.8102 6.97996C84.8908 6.85984 84.9519 6.72662 85.0348 6.60651C85.4054 6.06489 85.5101 6.04087 86.0858 6.36846C86.4325 6.56501 86.7835 6.7572 87.1171 6.97559C87.3156 7.10444 87.4769 7.28352 87.5074 7.5718H87.5096Z" fill="white"/>
<path d="M74.8785 3.77577C74.8414 4.04002 74.7215 4.21692 74.5296 4.3414C73.0687 5.28922 71.6099 6.23923 70.1403 7.17395C69.9811 7.27441 69.7325 7.4797 69.5842 7.19797C69.4774 6.99268 69.5232 6.75463 69.7783 6.59084C71.3352 5.5906 72.8833 4.57945 74.4359 3.57485C74.534 3.51151 74.6539 3.39358 74.7717 3.51151C74.8393 3.5814 74.8523 3.70588 74.8785 3.77795V3.77577Z" fill="white"/>
<path d="M86.1342 29.8717C86.0971 30.6492 85.9924 31.383 85.685 32.0709C85.6043 32.2522 85.4909 32.4902 85.2663 32.4247C85.009 32.3505 85.1115 32.0687 85.1639 31.9093C85.528 30.813 85.3819 29.7603 84.9284 28.7317C84.743 28.3124 84.8564 27.9127 84.9698 27.5109C85.0134 27.358 85.0592 27.1833 85.2707 27.1724C85.4778 27.1615 85.5433 27.3231 85.613 27.4694C85.975 28.2382 86.0906 29.0593 86.132 29.8695L86.1342 29.8717Z" fill="white"/>
<path d="M42.5198 8.24464C42.4936 8.76005 42.4391 9.31913 42.1905 9.83672C42.0946 10.0355 41.955 10.2604 41.6999 10.1599C41.4666 10.066 41.6214 9.82799 41.6585 9.68166C41.918 8.64212 41.6825 7.70085 41.1221 6.82728C40.8473 6.39705 40.8015 5.98865 41.1024 5.56497C41.2682 5.32911 41.4448 5.23083 41.6388 5.54969C42.1338 6.36647 42.5241 7.21602 42.5219 8.24683L42.5198 8.24464Z" fill="white"/>
<path d="M83.6157 38.8781C83.583 38.0723 83.825 37.3931 84.187 36.7532C84.272 36.6047 84.3505 36.3033 84.5926 36.4322C84.7845 36.5348 84.6951 36.7925 84.6209 36.9803C84.4399 37.4346 84.259 37.8866 84.2284 38.3889C84.2197 38.5375 84.2372 38.675 84.2546 38.817C84.2851 39.0638 84.3593 39.3237 84.6231 39.363C84.9109 39.4067 84.9022 39.0922 84.9938 38.9153C85.1006 38.7056 85.0963 38.2994 85.4146 38.4064C85.7439 38.5178 85.7308 38.8912 85.6218 39.2101C85.4735 39.6513 85.2075 40.0203 84.8804 40.337C84.5533 40.6537 84.2372 40.5991 83.9733 40.2169C83.6833 39.7976 83.5656 39.3302 83.6157 38.8781Z" fill="white"/>
<path d="M9.40458 38.0437C9.44819 38.594 9.26284 39.1378 8.99682 39.6598C8.89652 39.8564 8.76569 40.0354 8.5629 40.1293C8.4735 40.1708 8.33613 40.1949 8.25763 40.1577C8.13552 40.0988 8.20094 39.9699 8.24237 39.8716C8.31214 39.7035 8.37756 39.5353 8.45606 39.3737C8.89652 38.4652 8.75479 37.6506 8.05266 36.9386C7.71687 36.6001 7.63183 36.2354 7.84334 35.8074C7.99379 35.4994 8.18786 35.3881 8.44952 35.7025C9.00336 36.3686 9.44601 37.0828 9.40676 38.0459L9.40458 38.0437Z" fill="white"/>
<path d="M21.3907 21.6881C21.3514 22.3695 20.5315 22.8281 19.9733 22.4809C19.7575 22.3455 19.5503 22.1948 19.3235 22.0834C18.8918 21.8694 18.8002 21.6313 19.0859 21.188C19.6724 20.2795 19.6615 20.2598 20.5795 20.8364C21.347 21.319 21.4081 21.3824 21.3907 21.6881Z" fill="white"/>
<path d="M59.5176 35.2902C59.522 34.4734 59.7466 33.8467 60.0976 33.2657C60.187 33.1172 60.2851 32.829 60.5206 32.9731C60.7125 33.091 60.6035 33.3356 60.5185 33.5191C60.3048 33.9842 60.1238 34.456 60.1652 34.9801C60.1761 35.1046 60.1805 35.2356 60.2175 35.3536C60.2677 35.5108 60.3549 35.6637 60.5403 35.6855C60.754 35.7117 60.7954 35.5217 60.8652 35.3798C60.8891 35.3317 60.9066 35.2793 60.9262 35.2291C61.0069 35.0172 61.057 34.6897 61.3492 34.7901C61.6458 34.8928 61.6523 35.2291 61.5564 35.4977C61.3841 35.9891 61.0592 36.3778 60.6406 36.6836C60.416 36.8474 60.2088 36.8124 60.0148 36.6071C59.6266 36.1987 59.4871 35.7117 59.5176 35.2859V35.2902Z" fill="white"/>
<path d="M138.539 30.7319C138.507 30.9896 138.345 31.1861 138.138 31.3412C137.122 32.1056 136.104 32.8634 135.083 33.6212C134.996 33.6845 134.896 33.7326 134.8 33.7828C134.614 33.8767 134.401 33.9597 134.263 33.7479C134.13 33.547 134.331 33.4094 134.457 33.2958C135.297 32.5424 136.217 31.8937 137.126 31.232C137.449 30.9983 137.748 30.7297 138.057 30.4764C138.158 30.3934 138.267 30.3082 138.4 30.3825C138.524 30.4502 138.546 30.5812 138.544 30.7297L138.539 30.7319Z" fill="white"/>
<path d="M3.58713 9.39297C3.61111 9.0217 3.86187 8.68319 4.10609 8.34905C4.22383 8.18526 4.38737 8.23767 4.53783 8.33813C4.88453 8.56526 5.24213 8.77928 5.58447 9.01296C5.90064 9.22917 5.99658 9.51745 5.76109 9.84722C5.615 10.0525 5.43838 10.236 5.26612 10.4216C5.20724 10.4849 5.12438 10.5461 5.0437 10.5701C4.7646 10.6531 3.59585 9.75113 3.58931 9.39297H3.58713Z" fill="white"/>
<path d="M5.12451 15.2746C5.1027 14.5736 5.2815 13.9642 5.48865 13.3637C5.53662 13.2217 5.57587 12.9968 5.78738 13.0404C5.97054 13.0776 5.87678 13.285 5.89641 13.4161C5.9422 13.748 5.82881 14.0647 5.74377 14.377C5.63475 14.7854 5.72197 15.1698 5.82663 15.5541C5.87024 15.7157 5.95746 15.8774 6.14062 15.8948C6.32814 15.9123 6.42409 15.7551 6.49386 15.6044C6.59199 15.3903 6.67048 15.1654 6.77297 14.9557C6.80785 14.8837 6.88635 14.7985 6.95831 14.7854C7.06733 14.7657 7.08696 14.8837 7.11749 14.9688C7.32463 15.5105 6.8144 16.6199 6.26927 16.8099C5.83753 16.9606 5.48865 16.7793 5.28587 16.2901C5.14413 15.9494 5.10052 15.5891 5.12669 15.2746H5.12451Z" fill="white"/>
<path d="M127.638 10.1422C127.631 11.0071 126.84 11.4941 126.21 11.1621C126.099 11.1032 125.99 11.0398 125.878 10.9787C125.378 10.7079 125.261 10.3177 125.525 9.8081C125.859 9.16602 125.987 9.13545 126.628 9.50671C126.847 9.63338 127.082 9.72729 127.313 9.8343C127.509 9.92384 127.638 10.0592 127.638 10.1444V10.1422Z" fill="white"/>
<path d="M29.8967 29.7298C29.9054 30.3173 29.5849 30.8698 29.2752 31.4246C29.1728 31.608 28.9874 31.7587 28.7803 31.6408C28.5862 31.5316 28.7628 31.3437 28.7999 31.2018C28.8479 31.0096 28.9547 30.8349 29.0267 30.6493C29.3428 29.8368 29.2098 29.2537 28.4946 28.7405C28.185 28.5178 28.1959 28.2688 28.2482 27.9892C28.3354 27.5066 28.6538 27.4061 29.0288 27.7206C29.5369 28.1443 29.9141 28.9807 29.8989 29.732L29.8967 29.7298Z" fill="white"/>
<path d="M129.081 12.1821C129.125 11.5138 129.299 10.8892 129.561 10.2887C129.602 10.1926 129.663 10.055 129.781 10.0834C129.925 10.1183 129.94 10.2777 129.916 10.4022C129.846 10.756 129.761 11.1076 129.676 11.4592C129.596 11.7868 129.617 12.1057 129.726 12.4202C129.783 12.584 129.875 12.7303 130.056 12.739C130.243 12.7478 130.346 12.5992 130.398 12.4398C130.472 12.2171 130.522 11.9878 130.59 11.765C130.627 11.6427 130.686 11.5138 130.838 11.516C130.961 11.516 131.011 11.6296 131.063 11.7235C131.39 12.3219 130.671 13.6279 129.999 13.6279C129.659 13.6279 129.432 13.4051 129.288 13.1147C129.142 12.8198 129.092 12.4966 129.079 12.1799L129.081 12.1821Z" fill="white"/>
<path d="M8.8317 32.2125C8.90366 31.8936 9.04103 31.5966 9.21983 31.3258C9.3681 31.103 9.56435 31.1008 9.78458 31.2406C10.0288 31.3957 10.2774 31.5398 10.5281 31.684C10.7941 31.8368 11.1299 31.9744 11.0863 32.3369C11.0405 32.7279 10.7396 33.0052 10.454 33.2542C10.3253 33.3656 10.1749 33.2607 10.0506 33.1952C9.7148 33.0183 9.38773 32.8261 9.05193 32.6536C8.86004 32.5553 8.79245 32.4156 8.83388 32.2103L8.8317 32.2125Z" fill="white"/>
<path d="M48.1867 34.8705C48.1148 35.2309 47.8553 35.5628 47.5195 35.755C47.2404 35.9144 47.0093 35.5868 46.7781 35.4296C46.704 35.3794 46.6429 35.3095 46.5732 35.2505C45.8514 34.6499 45.8623 34.6478 46.3769 33.8419C46.5928 33.5056 46.8261 33.4379 47.1335 33.6694C47.4519 33.9074 47.7528 34.1673 48.0624 34.4163C48.1911 34.5211 48.1998 34.663 48.1845 34.8727L48.1867 34.8705Z" fill="white"/>
<path d="M102.674 12.3787C102.97 13.2566 102.153 14.0909 102.733 14.9513C103.001 14.6783 102.957 14.3507 102.992 14.0472C103.012 13.8746 102.981 13.6453 103.247 13.6497C103.467 13.6541 103.553 13.831 103.579 14.021C103.672 14.722 103.415 15.3139 102.949 15.8074C102.702 16.0695 102.434 15.9996 102.229 15.6851C101.717 14.9011 101.928 13.1015 102.674 12.3808V12.3787Z" fill="white"/>
<path d="M95.1928 26.4033C95.3193 26.7702 95.2648 27.076 95.2669 27.3752C95.2669 27.5193 95.2669 27.6656 95.2866 27.8098C95.3258 28.0828 95.3934 28.4125 95.6791 28.4628C95.9778 28.5174 96.1326 28.2182 96.2416 27.9626C96.3201 27.7792 96.3855 27.5914 96.4597 27.4079C96.5098 27.2834 96.5861 27.1808 96.7388 27.2005C96.9023 27.2201 96.9176 27.3555 96.9372 27.4822C97.0288 28.0194 96.3615 29.1791 95.8404 29.3625C95.6071 29.4455 95.3803 29.4302 95.1884 29.2359C94.6281 28.668 94.5953 27.0629 95.1884 26.4033H95.1928Z" fill="white"/>
<path d="M24.5426 6.15191C24.5448 5.38972 24.8282 4.76075 25.103 4.1296C25.1379 4.0488 25.1924 3.9527 25.2949 3.96581C25.4497 3.98546 25.4257 4.1296 25.4082 4.22133C25.3276 4.61006 25.212 4.99225 25.14 5.38317C25.0746 5.73915 24.8544 6.25892 25.2687 6.38996C25.5936 6.4926 25.7942 5.98593 25.9163 5.64087C25.9752 5.4749 25.9904 5.22375 26.2216 5.26306C26.4549 5.30237 26.4527 5.57317 26.468 5.75881C26.5094 6.28513 25.7658 7.20238 25.2512 7.29192C24.9939 7.33778 24.837 7.20674 24.7323 6.99272C24.5949 6.71099 24.5273 6.41398 24.5426 6.14973V6.15191Z" fill="white"/>
<path d="M19.8299 39.0876C19.8059 38.5482 19.9825 38.0721 20.1875 37.6069C20.2638 37.4322 20.3772 37.1592 20.5909 37.2488C20.8329 37.3492 20.7021 37.6179 20.6411 37.8166C20.5517 38.1092 20.4514 38.3997 20.3532 38.6902C20.3009 38.8496 20.3074 39.009 20.3532 39.1706C20.399 39.3322 20.4448 39.5179 20.6214 39.5441C20.8329 39.5747 20.8547 39.3563 20.9093 39.2165C20.9812 39.0352 21.0096 38.7753 21.2712 38.843C21.5285 38.9107 21.6179 39.1597 21.5743 39.413C21.498 39.8411 21.2734 40.2014 20.9136 40.4351C20.5909 40.647 20.2835 40.5574 20.0807 40.2189C19.8713 39.8673 19.7994 39.4764 19.8255 39.0855L19.8299 39.0876Z" fill="white"/>
<path d="M70.6134 2.99381C70.5633 3.82589 70.2624 4.53784 69.811 5.18865C69.726 5.31313 69.6475 5.51405 69.436 5.37865C69.2615 5.26509 69.3095 5.09256 69.3836 4.94187C69.5952 4.52037 69.8197 4.11198 69.9179 3.64025C70.0356 3.07462 69.9637 2.56358 69.6257 2.08967C69.5537 1.98703 69.4687 1.87783 69.4425 1.7599C69.3771 1.48254 69.3945 1.16369 69.6671 1.04139C69.944 0.916907 70.0683 1.22266 70.1795 1.41484C70.4652 1.91059 70.5568 2.4653 70.6113 2.99381H70.6134Z" fill="white"/>
<path d="M135.379 29.3347C135.407 28.6358 135.732 28.0156 136.149 27.4347C136.227 27.3233 136.328 27.1704 136.495 27.2862C136.618 27.3692 136.591 27.5155 136.535 27.6334C136.458 27.7972 136.38 27.9588 136.284 28.1139C136.11 28.3956 136.003 28.7013 135.95 29.0246C135.924 29.1862 135.922 29.3958 136.101 29.4461C136.267 29.4919 136.306 29.2888 136.38 29.1665C136.495 28.9722 136.502 28.5616 136.84 28.7188C137.141 28.8586 137.076 29.2102 136.956 29.4941C136.921 29.5771 136.881 29.6601 136.836 29.7365C136.618 30.1056 136.376 30.4922 135.872 30.3546C135.394 30.2235 135.394 29.778 135.377 29.3347H135.379Z" fill="white"/>
<path d="M59.727 26.4626C59.7641 26.9103 59.7946 27.334 59.8404 27.7555C59.8687 28.0176 59.9625 28.3059 60.2416 28.3299C60.5098 28.3539 60.6712 28.0984 60.7824 27.8604C60.8347 27.7468 60.8783 27.6267 60.9263 27.5087C61.0004 27.3297 61.0484 27.0807 61.3188 27.1746C61.5586 27.2576 61.5281 27.5087 61.4801 27.6944C61.3188 28.3343 60.9503 28.8322 60.379 29.1729C60.1827 29.2908 59.9952 29.2493 59.8186 29.1292C59.195 28.7033 59.1143 27.013 59.7248 26.4648L59.727 26.4626Z" fill="white"/>
<path d="M85.3171 12.2061C85.5177 12.4638 85.5003 12.7433 85.4087 13.0294C85.2801 13.4378 85.3106 13.8527 85.3934 14.2611C85.4218 14.3943 85.4785 14.5625 85.6551 14.5647C85.8317 14.5647 85.871 14.4205 85.9168 14.272C85.9822 14.0515 85.9691 13.6518 86.3027 13.7545C86.6014 13.8462 86.6014 14.2262 86.5251 14.5166C86.4423 14.8377 86.2765 15.126 85.9844 15.3029C85.6268 15.5191 85.2975 15.5038 85.0467 15.1194C84.6063 14.4402 84.7502 12.8328 85.3128 12.2061H85.3171Z" fill="white"/>
<path d="M17.6601 8.8955C17.6928 8.23814 17.8258 7.6048 18.1769 7.0348C18.2423 6.92778 18.3186 6.77273 18.4538 6.8164C18.6042 6.86445 18.626 7.04353 18.5977 7.18549C18.5563 7.37986 18.4974 7.57204 18.4232 7.75549C18.3229 8.01101 18.2488 8.27308 18.2423 8.54607C18.2379 8.75791 18.2139 9.06366 18.4232 9.12262C18.6871 9.19688 18.6587 8.86929 18.7307 8.70549C18.783 8.5832 18.8266 8.44779 18.9727 8.44779C19.1646 8.44779 19.169 8.62906 19.1995 8.76446C19.3129 9.2886 19.0469 9.78653 18.5454 10.0006C18.2248 10.1381 17.985 10.0573 17.8236 9.74067C17.6884 9.47423 17.6339 9.19251 17.6623 8.89331L17.6601 8.8955Z" fill="white"/>
<path d="M89.4182 3.24976C89.5599 3.64505 89.5054 3.90712 89.4444 4.17137C89.3964 4.38321 89.3179 4.6016 89.3375 4.80907C89.3615 5.06896 89.3986 5.40092 89.7278 5.45333C90.0157 5.49919 90.0854 5.21092 90.1923 5.00344C90.2708 4.85275 90.2904 4.59287 90.5194 4.62999C90.7636 4.66712 90.7505 4.94011 90.7767 5.11919C90.8464 5.58873 90.2446 6.25483 89.7126 6.33345C89.3092 6.3946 89.0279 6.11943 88.9058 5.49701C88.7532 4.71953 88.8949 3.99884 89.416 3.24976H89.4182Z" fill="white"/>
<path d="M50.39 30.4942C50.4118 31.1231 50.1916 31.6757 49.871 32.1911C49.762 32.368 49.6486 32.6431 49.387 32.5186C49.1406 32.4029 49.3259 32.167 49.3717 31.9923C49.4546 31.6778 49.5614 31.3677 49.6486 31.0532C49.7773 30.5881 49.7359 30.1535 49.4044 29.7778C49.3041 29.6643 49.2365 29.5376 49.2496 29.3847C49.267 29.1532 49.2322 28.8518 49.4873 28.7689C49.7228 28.6924 49.8492 28.9523 49.9757 29.1248C50.2788 29.5332 50.438 29.9853 50.39 30.4942Z" fill="white"/>
<path d="M52.2465 20.6227C52.2553 21.0813 51.6426 21.7234 51.2043 21.7321C50.8096 21.7409 50.657 21.4613 50.6068 21.149C50.4607 20.2449 50.8423 19.4914 51.3504 18.786C51.4071 18.7074 51.4812 18.6506 51.5793 18.7009C51.6753 18.7511 51.6709 18.8581 51.6513 18.9411C51.6033 19.1333 51.5379 19.3211 51.4747 19.5089C51.3809 19.7819 51.274 20.0505 51.1846 20.3235C51.1127 20.5397 51.0952 20.8171 51.3155 20.9001C51.5204 20.9787 51.6382 20.7254 51.7298 20.5506C51.8039 20.4087 51.8562 20.2099 52.0547 20.2427C52.2596 20.2755 52.2269 20.4851 52.2487 20.6249L52.2465 20.6227Z" fill="white"/>
<path d="M28.8043 44.032C28.9221 44.3923 28.9003 44.7396 28.8152 45.089C28.7607 45.3139 28.6975 45.5891 28.9701 45.7136C29.2099 45.8228 29.3582 45.6088 29.513 45.4559C29.6722 45.2987 29.7877 44.9099 30.0843 45.1851C30.3438 45.4275 30.1759 45.7223 29.9622 45.9495C29.8139 46.1067 29.6547 46.2552 29.4956 46.4037C29.0093 46.8602 28.5841 46.7815 28.353 46.1482C28.0695 45.3707 28.305 44.6697 28.8022 44.032H28.8043Z" fill="white"/>
<path d="M110.755 3.70424C110.683 4.25896 110.635 4.82022 110.39 5.33781C110.318 5.49069 110.264 5.73747 110.026 5.64356C109.817 5.56057 109.88 5.33563 109.913 5.16092C109.943 5.00149 110.007 4.84861 110.048 4.69137C110.26 3.90298 110.24 3.14953 109.708 2.47251C109.632 2.37642 109.573 2.25193 109.547 2.134C109.505 1.93308 109.514 1.71469 109.736 1.6186C109.954 1.52469 110.066 1.70595 110.164 1.85664C110.528 2.41791 110.683 3.0447 110.75 3.70642L110.755 3.70424Z" fill="white"/>
<path d="M102.984 8.54799C102.951 9.15731 102.855 9.70766 102.508 10.1816C102.393 10.3388 102.249 10.4764 102.055 10.3825C101.804 10.2602 101.97 10.0571 102.042 9.9195C102.478 9.10271 102.487 8.29684 102.048 7.48006C101.974 7.34247 101.944 7.17213 101.924 7.0127C101.902 6.82707 102.005 6.70913 102.181 6.64798C102.367 6.58247 102.45 6.70695 102.528 6.82707C102.881 7.36431 102.923 7.98236 102.982 8.55236L102.984 8.54799Z" fill="white"/>
<path d="M54.8479 9.33032C55.0812 9.97676 54.7781 10.4419 54.8239 10.918C54.8457 11.1473 54.68 11.4902 55.0289 11.5623C55.3363 11.6256 55.3647 11.3002 55.4497 11.0906C55.4977 10.9704 55.5479 10.8394 55.707 10.8634C55.8335 10.8809 55.8662 11.0076 55.8924 11.1058C55.9774 11.4378 55.9622 11.7545 55.683 12.0056C55.3865 12.2721 55.0594 12.449 54.6473 12.3529C54.4423 12.3048 54.3508 12.1279 54.3224 11.9532C54.1741 11.0665 54.3638 10.2432 54.8457 9.33251L54.8479 9.33032Z" fill="white"/>
<path d="M61.4123 2.43539C61.4559 3.48149 60.9828 4.32011 60.1847 5.00368C60.0473 5.12161 59.8467 5.26793 59.705 5.11724C59.5197 4.92069 59.7835 4.79839 59.8969 4.69793C60.8847 3.81563 61.1768 2.76734 60.7451 1.50067C60.6513 1.2255 60.4224 0.758138 60.8672 0.666414C61.1943 0.598712 61.1965 1.09665 61.2902 1.374C61.4036 1.70596 61.3883 2.05539 61.4145 2.43539H61.4123Z" fill="white"/>
<path d="M4.98469 41.7935C4.98032 41.3371 5.03266 40.9462 5.28123 40.6098C5.35319 40.5138 5.44259 40.374 5.58432 40.4351C5.7326 40.4985 5.66718 40.6557 5.64102 40.7693C5.5865 41.0161 5.50364 41.2563 5.44477 41.5009C5.36845 41.8154 5.40552 42.1211 5.61485 42.3723C5.82418 42.6256 6.04659 42.7173 6.22539 42.3264C6.28863 42.1866 6.34314 41.9617 6.55465 42.0709C6.77052 42.1823 6.90571 42.3963 6.80759 42.6605C6.67894 43.0034 6.43254 43.248 6.07712 43.3245C5.75658 43.3922 5.53417 43.1803 5.34011 42.9554C5.03702 42.606 4.95198 42.1888 4.98469 41.7913V41.7935Z" fill="white"/>
<path d="M56.5513 1.84315C56.5513 1.55051 56.6276 1.1443 56.8718 0.78832C56.9394 0.690044 57.0201 0.548089 57.1683 0.613607C57.2752 0.661653 57.2512 0.79924 57.2621 0.904068C57.2883 1.15303 57.1226 1.34959 57.0768 1.57671C57.0332 1.79729 57.0506 2.02879 57.2687 2.1489C57.5172 2.2843 57.6132 2.07902 57.7157 1.89775C57.7854 1.77327 57.877 1.61384 58.0427 1.67499C58.2215 1.73833 58.2172 1.92833 58.215 2.0943C58.2106 2.59005 57.7157 3.08144 57.2338 3.06833C56.7584 3.05523 56.5338 2.69707 56.5513 1.84534V1.84315Z" fill="white"/>
<path d="M32.9166 2.93308C32.9384 2.47882 32.9972 2.10319 33.2044 1.77342C33.2851 1.64457 33.3941 1.45675 33.5838 1.57468C33.7343 1.66859 33.6558 1.83238 33.5969 1.96779C33.5097 2.16434 33.3723 2.33905 33.3614 2.56836C33.3505 2.79986 33.381 3.01607 33.6405 3.09251C33.8716 3.16021 34.0155 3.01825 34.1224 2.83699C34.1682 2.76055 34.1922 2.67101 34.2336 2.5902C34.3121 2.43951 34.2968 2.14905 34.5083 2.18181C34.7613 2.21894 34.685 2.50285 34.674 2.6863C34.6631 2.86101 34.6152 3.04446 34.5432 3.20607C34.3448 3.64941 34.0243 4.00538 33.5097 3.90929C32.9667 3.80883 32.9951 3.28906 32.9209 2.93745L32.9166 2.93308Z" fill="white"/>
<path d="M120.589 32.0249C121.012 32.9007 120.582 33.6716 120.748 34.4207C120.824 34.3901 120.864 34.3879 120.874 34.3682C120.973 34.1892 120.811 33.7939 121.188 33.8659C121.476 33.9205 121.481 34.2459 121.465 34.5058C121.439 34.9557 121.093 35.3314 120.728 35.2964C120.251 35.2506 120.249 34.8684 120.236 34.5233C120.203 33.7262 120.299 32.9465 120.589 32.0271V32.0249Z" fill="white"/>
<path d="M110.659 6.71582C110.816 7.09145 110.696 7.32732 110.62 7.56536C110.552 7.77065 110.452 7.96721 110.391 8.17468C110.327 8.39307 110.197 8.71411 110.476 8.79054C110.718 8.85606 110.764 8.54158 110.772 8.321C110.779 8.17905 110.833 8.06111 110.982 8.04801C111.143 8.03272 111.173 8.18778 111.226 8.29698C111.485 8.83204 111.091 9.49377 110.498 9.53526C110.155 9.55928 109.974 9.36491 109.924 9.07445C109.774 8.20089 110.051 7.45399 110.657 6.71582H110.659Z" fill="white"/>
<path d="M80.7824 8.95874C80.7824 9.39116 80.7606 9.82576 80.7911 10.256C80.8108 10.5377 80.8478 10.8588 81.2229 10.9177C81.5674 10.9723 81.635 10.7015 81.72 10.4613C81.7636 10.3368 81.8312 10.1927 81.9686 10.2101C82.1779 10.2385 82.0951 10.4373 82.0994 10.5639C82.1212 11.2671 81.8356 11.6078 81.2316 11.6122C80.6799 11.6188 80.355 11.265 80.3354 10.6229C80.3158 10.031 80.3638 9.45231 80.7846 8.95874H80.7824Z" fill="white"/>
<path d="M37.1297 35.1001C37.3259 35.5609 36.9727 36.0981 37.3107 36.5305C37.4742 36.4847 37.4546 36.3558 37.4982 36.2619C37.6421 35.9474 37.8122 36.0151 37.9692 36.2423C38.2199 36.607 37.9386 37.4085 37.5243 37.5373C37.3717 37.5854 37.2452 37.5373 37.1231 37.439C36.5584 36.987 36.5518 35.6264 37.1297 35.0957V35.1001Z" fill="white"/>
<path d="M27.8403 12.3545C27.9951 12.9529 27.8381 13.3635 27.7378 13.7806C27.7008 13.94 27.6332 14.1519 27.8054 14.2217C28.0496 14.3222 27.9908 14.0427 28.0627 13.9291C28.1412 13.8046 28.2045 13.6517 28.3789 13.6867C28.5533 13.7194 28.5621 13.8854 28.5795 14.0296C28.6362 14.5078 28.368 14.9665 28.0169 14.9949C27.5656 15.032 27.2538 14.7088 27.2254 14.1628C27.1927 13.5273 27.4238 12.9835 27.8403 12.3545Z" fill="white"/>
<path d="M109.646 34.8943C109.718 35.235 109.642 35.5451 109.6 35.8596C109.577 36.0365 109.579 36.2505 109.788 36.3226C109.989 36.3925 110.124 36.2592 110.226 36.0911C110.318 35.9404 110.403 35.7264 110.628 35.8661C110.802 35.9753 110.78 36.185 110.739 36.3641C110.654 36.7397 110.111 37.1284 109.712 37.1263C109.529 37.1263 109.404 37.0542 109.308 36.9035C109.003 36.4187 109.169 35.3638 109.646 34.8943Z" fill="white"/>
<path d="M97.5318 44.2375C97.6909 44.659 97.4554 45.0194 97.4075 45.3972C97.3835 45.5807 97.2309 45.8318 97.4838 45.9192C97.7127 46 97.8174 45.7641 97.8937 45.5741C97.9504 45.4387 98.0093 45.312 98.1728 45.2334C98.3996 45.5894 98.3909 45.9279 98.1772 46.2577C98.0071 46.5197 97.7629 46.6683 97.4402 46.6224C97.1044 46.5743 97.0324 46.3079 96.9779 46.0305C96.8624 45.4605 97.1153 44.6023 97.5318 44.2375Z" fill="white"/>
<path d="M40.7429 26.5852C40.95 27.2054 40.3896 27.6466 40.4769 28.2166C40.7887 28.2144 40.9696 28.0484 41.0787 27.7798C41.1179 27.6837 41.1157 27.5352 41.2597 27.5549C41.4145 27.5745 41.4232 27.7208 41.4363 27.8497C41.4777 28.317 41.0612 28.839 40.5946 28.9111C40.3831 28.9438 40.2392 28.8521 40.1476 28.6774C39.8859 28.1707 40.2065 26.9914 40.7407 26.583L40.7429 26.5852Z" fill="white"/>
<path d="M104.227 43.3025C104.384 43.689 104.267 43.9664 104.241 44.2459C104.219 44.4731 104.256 44.7111 104.483 44.8006C104.755 44.9077 104.794 44.6412 104.869 44.4709C104.906 44.3857 104.94 44.2831 105.034 44.2765C105.165 44.2678 105.196 44.3944 105.237 44.4927C105.385 44.8465 105.196 45.3532 104.829 45.4995C104.404 45.672 104.129 45.4646 103.992 45.0693C103.785 44.4796 103.833 43.914 104.227 43.3003V43.3025Z" fill="white"/>
<path fill-rule="evenodd" clip-rule="evenodd" d="M119.416 28.381C119.158 28.4556 118.901 28.5298 118.625 28.5087V28.5044C118.622 28.5055 118.618 28.5066 118.615 28.5077C118.616 28.5078 118.617 28.5079 118.618 28.5081C118.62 28.5084 118.622 28.5087 118.624 28.509C118.169 28.6728 117.7 28.6248 117.242 28.5549C117.068 28.5287 116.802 28.4763 116.88 28.1902C116.943 27.9543 117.166 27.9521 117.373 27.9521C117.595 27.9521 117.739 28.0897 117.879 28.2317C118.023 28.3785 118.165 28.5061 118.386 28.3993C118.387 28.3972 118.388 28.3951 118.389 28.393C118.734 27.9671 118.767 27.5565 118.355 27.146C117.999 26.7922 117.476 26.7114 117.011 27.004C116.359 27.4168 115.984 28.0086 115.978 28.8036C115.973 29.2272 116.189 29.4718 116.584 29.5941C116.815 29.666 117.053 29.6758 117.326 29.6871C117.46 29.6926 117.602 29.6984 117.755 29.7121C117.645 29.7959 117.544 29.871 117.449 29.9413C117.246 30.0911 117.072 30.2195 116.913 30.3651C116.907 30.3709 116.9 30.3769 116.893 30.3831C116.758 30.5048 116.565 30.6778 116.713 30.8586C116.837 31.0093 117.103 30.97 117.273 30.8586C117.52 30.6976 117.763 30.5294 118.006 30.3611C118.669 29.9018 119.332 29.4423 120.088 29.129C120.308 29.0372 120.428 28.8036 120.324 28.5306C120.199 28.2095 119.935 28.2467 119.685 28.3078C119.595 28.3296 119.506 28.3554 119.416 28.381Z" fill="white"/>
<path d="M150.665 29.0549C150.87 29.3039 151.203 29.0746 151.428 29.258H150.165C150.324 29.0528 150.481 29.0222 150.665 29.0549Z" fill="#BBA367"/>
<path d="M198.833 29.2496C199.06 29.088 199.369 29.2671 199.585 29.0662C199.729 29.04 199.867 29.0334 200.002 29.2496H198.833Z" fill="#BBA367"/>
<path d="M166.374 12.4416C166.431 12.3324 166.487 12.2254 166.544 12.1162C166.557 12.4132 166.57 12.7124 166.586 13.0597C166.319 12.8697 166.376 12.6469 166.374 12.4416Z" fill="#BBA367"/>
<path d="M178.349 13.9857C178.584 13.8677 178.567 13.645 178.578 13.4353C178.761 13.7476 178.706 14.0446 178.54 14.3482C178.394 14.2608 178.527 14.0424 178.349 13.9878V13.9857Z" fill="#BBA367"/>
<path d="M172.592 16.6918C172.655 16.552 172.716 16.4122 172.779 16.2703V17.0805C172.509 17.0215 172.583 16.8425 172.592 16.6918Z" fill="#BBA367"/>
<path d="M167.125 11.907C167.191 11.8699 167.256 11.8328 167.322 11.7979C167.346 12.0468 167.3 12.2805 167.125 12.6365V11.907Z" fill="#BBA367"/>
<path d="M179.753 12.8877C179.817 13.0253 179.684 13.2153 179.869 13.3223V13.7831C179.618 13.4446 179.59 13.1782 179.753 12.8899V12.8877Z" fill="#BBA367"/>
<path d="M182.606 11.686C182.671 11.7908 182.736 11.8957 182.802 12.0005C182.813 12.1883 182.854 12.3805 182.741 12.6404C182.688 12.2735 182.647 11.9787 182.606 11.6838V11.686Z" fill="#BBA367"/>
<path d="M176.84 13.8682C176.903 13.8682 176.966 13.8682 177.032 13.8703C177.034 14.0407 177.099 14.2263 176.873 14.3639C176.788 14.1958 176.822 14.0298 176.842 13.8682H176.84Z" fill="#BBA367"/>
<path d="M26.295 36.9868C26.162 36.9148 26.0268 36.8449 25.811 36.7291C26.1402 36.6723 26.319 36.7837 26.4978 36.9038C26.4302 36.9322 26.3626 36.9584 26.295 36.9868Z" fill="white"/>
<path d="M166.713 12.1318L166.883 12.2345C166.848 12.4005 166.813 12.5664 166.778 12.7324C166.747 12.728 166.717 12.7237 166.684 12.7215C166.693 12.5249 166.704 12.3284 166.713 12.134V12.1318Z" fill="#BBA367"/>
<path d="M172.79 13.8788C172.88 13.6867 172.993 13.8417 173.096 13.857V14.3549C172.904 14.237 173.054 13.9247 172.79 13.8788Z" fill="#BBA367"/>
<path d="M171.924 15.9426C172.081 15.8748 171.99 15.7154 172.046 15.6106C172.182 15.7984 172.142 15.9993 172.097 16.2046C171.916 16.1893 171.909 16.0714 171.922 15.9426H171.924Z" fill="#BBA367"/>
<path d="M177.912 4.05113C177.99 3.84147 178.265 4.01837 178.354 3.82837C178.466 3.95722 178.577 4.08389 178.269 4.06205C178.152 4.05331 178.032 4.0555 177.914 4.05331L177.912 4.05113Z" fill="#BBA367"/>
<path d="M168.893 14.9468L169.078 14.6389V15.2133C168.902 15.1914 168.937 15.0408 168.893 14.9468Z" fill="#BBA367"/>
<path d="M168.424 9.95897C168.491 9.94587 168.557 9.93277 168.624 9.91748C168.675 10.0791 168.568 10.1861 168.472 10.4198C168.448 10.1905 168.437 10.0747 168.424 9.95897Z" fill="#BBA367"/>
<path d="M178.442 12.1381C178.488 12.0922 178.533 12.0463 178.581 11.9983C178.695 12.1119 178.695 12.2473 178.656 12.3979C178.509 12.3674 178.505 12.2276 178.444 12.1381H178.442Z" fill="#BBA367"/>
<path d="M171.352 12.1099C171.387 12.1819 171.421 12.2562 171.456 12.3283C171.45 12.4178 171.387 12.551 171.332 12.5052C171.195 12.3938 171.254 12.2387 171.352 12.1099Z" fill="#BBA367"/>
<path d="M178.448 11.0444C178.492 11.0007 178.538 10.9548 178.581 10.9111C178.699 11.016 178.701 11.1448 178.655 11.289C178.511 11.2649 178.505 11.1339 178.448 11.0444Z" fill="#BBA367"/>
<path fill-rule="evenodd" clip-rule="evenodd" d="M26.2954 36.9867C26.5629 37.13 26.8294 37.2752 27.0958 37.4204L27.0959 37.4204L27.0959 37.4205L27.0959 37.4205C27.6741 37.7356 28.252 38.0506 28.8401 38.3451C30.6477 39.2536 30.5779 40.5924 29.3394 42.0731C28.8662 42.6365 28.2143 43.0493 27.5667 43.4184C26.7433 43.8855 25.9494 44.3988 25.1556 44.912C24.6691 45.2265 24.1827 45.541 23.6897 45.8447C23.3496 46.0543 23.2798 46.288 23.3866 46.6615C23.633 47.5132 24.0539 48.1902 24.9675 48.4414C25.0896 48.4741 25.2095 48.5222 25.3229 48.579C27.2876 49.5639 29.1911 48.9961 31.0598 48.2972C33.4976 47.3887 35.5146 45.8076 37.4509 44.1172C37.6297 43.96 37.8194 43.7743 37.6711 43.5101C37.5585 43.3094 37.3944 43.3556 37.2332 43.4009C37.182 43.4152 37.1312 43.4295 37.0824 43.4358C36.0444 43.5669 35.0545 43.521 34.215 42.7697C33.853 42.4443 33.6437 42.0818 33.6851 41.5817C33.7462 40.8501 33.8073 40.1294 34.4113 39.5965C34.9477 39.1204 35.5865 39.0156 36.2189 39.3672C37.0104 39.804 37.5686 40.4679 37.9044 41.3C38.0331 41.6188 38.1813 41.7433 38.5346 41.7214C39.6964 41.6506 40.8594 41.5945 42.0218 41.5384L42.0219 41.5384L42.022 41.5384L42.022 41.5384C42.4718 41.5167 42.9214 41.495 43.3709 41.4725C43.7264 41.455 43.9771 41.3786 43.9749 40.9134C43.9749 40.5573 44.0357 40.2012 44.0965 39.8451C44.1154 39.7339 44.1344 39.6226 44.1516 39.5113C44.2148 39.0942 44.3609 38.7033 44.5898 38.3473C45.0303 37.6681 45.6234 37.572 46.2448 38.0743C47.3264 38.9501 47.6578 40.1359 47.1432 41.206C47.0012 41.501 46.7602 41.688 46.5108 41.8814C46.3466 42.0087 46.1788 42.1389 46.0333 42.3046C46.5211 42.5599 47.0459 42.5468 47.5362 42.5346L47.5367 42.5346C47.5788 42.5336 47.6206 42.5325 47.6622 42.5317C48.7284 42.512 49.7947 42.3963 50.8435 42.1604C51.1924 42.0818 51.284 41.966 51.1989 41.6079C50.9678 40.6295 51.1771 39.6838 51.5783 38.7972C52.021 37.8188 52.9128 37.6834 53.6716 38.4325C53.9172 38.6746 54.1431 38.9381 54.3678 39.2001L54.4719 39.3213C55.1391 40.0988 55.1609 40.9199 54.618 41.7739C54.57 41.8502 54.5287 41.931 54.4873 42.0117L54.4872 42.0117L54.4872 42.0118L54.4872 42.0118L54.4871 42.0119C54.4833 42.0208 54.4832 42.0311 54.4829 42.0549V42.0549C54.4827 42.0721 54.4824 42.0963 54.4806 42.132C55.5076 42.0185 56.4976 41.8023 57.4657 41.4703C57.6729 41.4004 57.6467 41.2541 57.5965 41.0728C56.8901 38.5329 56.4409 35.9428 56.0963 33.3308C55.958 32.2841 55.8569 31.2341 55.7558 30.1836L55.7148 29.7579C55.6515 29.118 55.5207 28.5109 55.1696 27.954C54.8731 27.4845 55.1195 26.6742 55.5927 26.3882C55.7802 26.2768 55.8892 26.3336 56.0004 26.4908C56.4235 27.0985 56.7464 27.7614 57.0692 28.4243L57.0693 28.4244L57.0693 28.4245C57.2871 28.8717 57.5049 29.319 57.7535 29.7492C57.8211 29.8671 57.88 30.0418 57.6968 30.1248C57.5617 30.1856 57.4899 30.0827 57.423 29.9867C57.4154 29.9758 57.4079 29.965 57.4003 29.9545L57.3969 29.9498C57.2628 29.7635 57.128 29.5761 56.8966 29.509C56.7844 29.6292 56.8037 29.7476 56.8213 29.8563L56.8214 29.8569L56.8244 29.8752L56.8268 29.8912C56.9239 30.5963 57.0137 31.3024 57.1034 32.0086C57.3522 33.9664 57.601 35.9241 58.0065 37.8581C58.0965 38.2887 58.215 38.713 58.3335 39.1371L58.3335 39.1372L58.3335 39.1372L58.3336 39.1373C58.4446 39.5347 58.5556 39.9321 58.6432 40.3347C58.75 40.8173 58.9681 40.8544 59.354 40.6688C59.7574 40.4744 60.1935 40.4591 60.634 40.4875C61.5258 40.5443 61.999 41.0073 62.0295 41.9071C62.0557 42.6627 61.8027 43.3507 61.3644 43.9447C60.9914 44.4524 60.4486 44.3067 59.9641 44.1767C59.9275 44.1668 59.8913 44.1571 59.8555 44.1478C59.1948 43.9774 58.7173 43.5079 58.3859 42.9226C58.2245 42.6365 58.1046 42.5841 57.8037 42.7392C56.4888 43.4184 55.0781 43.7044 53.6019 43.6761C53.5662 43.6754 53.5289 43.6774 53.4913 43.6794C53.3955 43.6845 53.2982 43.6897 53.2246 43.652C52.4539 43.2531 51.7013 43.4201 50.9488 43.5871C50.6879 43.645 50.427 43.7029 50.1654 43.7372C49.8773 43.7745 49.5903 43.8193 49.3033 43.8641C48.3953 44.0058 47.4878 44.1474 46.5501 44.0495C45.7782 43.9687 45.1502 43.6935 44.6531 43.1192C44.4416 42.8746 44.2104 42.8003 43.8899 42.8243C42.6088 42.9262 41.3278 43.013 40.0467 43.0997L39.2781 43.1519C38.7737 43.1869 38.5142 43.4467 38.4997 43.9316C38.4844 44.4885 38.238 44.9449 37.8564 45.3293C36.654 46.5409 35.1981 47.3842 33.7438 48.2265L33.7436 48.2267L33.7435 48.2267C33.4705 48.3848 33.1975 48.5429 32.9263 48.7034C31.5744 49.5049 30.12 50.0859 28.5501 50.278C27.3617 50.4222 26.1733 50.4724 25.0068 50.0138C23.62 49.4678 22.8633 48.4894 22.8023 47.0153C22.7805 46.478 22.5842 46.5523 22.2637 46.7401C21.4438 47.2184 20.5934 47.2926 19.7016 46.9607C19.0235 46.7095 18.5786 46.2509 18.3758 45.552C18.1273 44.6916 18.1273 43.8289 18.3497 42.9685L18.3619 42.9205C18.4093 42.732 18.4607 42.5277 18.7138 42.405C18.8164 42.6871 18.795 42.9681 18.7739 43.2441C18.7667 43.3377 18.7596 43.4308 18.7574 43.5232C18.7204 45.041 19.8346 45.8905 21.3108 45.4669C21.9239 45.2914 22.4476 44.9487 22.9695 44.6071C23.0844 44.532 23.1991 44.4569 23.3147 44.3836C24.8803 43.3965 26.4524 42.4181 28.0595 41.4965C28.356 41.3262 28.6351 41.1165 28.8989 40.8937C29.3263 40.5334 29.3241 40.315 28.8204 40.101C28.0893 39.7924 27.4084 39.3916 26.7277 38.991C26.0789 38.6092 25.4303 38.2274 24.7385 37.9258C24.2 37.6899 23.7268 37.3602 23.2689 36.9998C22.739 36.5827 22.5886 35.589 22.9505 35.019C23.0661 34.8356 23.2144 34.7329 23.3932 34.8792C23.8678 35.2634 24.4211 35.4829 24.9741 35.7022C25.2289 35.8032 25.4837 35.9043 25.7307 36.0214C26.0447 36.1699 26.3456 36.3359 26.6116 36.5565C26.8449 36.753 26.8275 36.8841 26.496 36.9037C26.4463 36.8558 26.3801 36.8546 26.3133 36.8533C26.2278 36.8517 26.1412 36.8501 26.0861 36.7508C26.1138 36.8183 26.1624 36.8602 26.21 36.9011C26.2409 36.9278 26.2714 36.954 26.2954 36.9867ZM52.3745 39.5179C52.5707 39.5113 52.7256 39.6053 52.8651 39.7254C53.057 39.8914 53.2467 40.0639 53.419 40.2495C53.4655 40.2995 53.5223 40.3508 53.5807 40.4035C53.7878 40.5904 54.0139 40.7946 53.866 41.0161C53.6239 41.3786 53.1224 41.5075 52.671 41.5948C52.5651 41.6156 52.5002 41.5346 52.4394 41.4586L52.4393 41.4585C52.43 41.4469 52.4208 41.4354 52.4116 41.4245C52.0234 40.9615 51.9362 40.4155 52.0016 39.8368C52.0256 39.6271 52.1586 39.5179 52.3745 39.5201V39.5179ZM44.8007 39.9978C44.7971 40.0852 44.7935 40.1732 44.7796 40.2562C44.8138 40.343 44.8055 40.4488 44.7972 40.5547C44.7805 40.7659 44.7639 40.9777 45.0849 41.0403C45.3836 41.097 46.3081 40.5598 46.3234 40.3785C46.3452 40.1317 45.5123 39.2953 45.2375 39.3412C44.8249 39.4103 44.8129 39.701 44.8007 39.9978ZM36.8577 41.8832C36.1098 41.9858 35.508 41.9465 34.976 41.5556C34.9513 41.5375 34.9251 41.5194 34.8984 41.501C34.7133 41.3731 34.5076 41.231 34.6467 40.9638C34.7819 40.706 35.0654 40.6187 35.351 40.6951C35.9921 40.8633 36.4326 41.2892 36.8556 41.8832H36.8577ZM60.9232 42.2895C60.5242 41.9314 60.0815 41.8353 59.5539 42.0712V42.0733C59.8351 42.5167 60.2691 42.6281 60.7117 42.7176C60.7252 42.7203 60.7389 42.7234 60.7528 42.7265C60.8625 42.7511 60.9805 42.7776 61.0366 42.6302C61.0868 42.4948 61.0213 42.3769 60.9232 42.2895Z" fill="white"/>
<path fill-rule="evenodd" clip-rule="evenodd" d="M67.3533 19.7535C68.993 18.6397 70.3645 17.4713 71.3937 15.9403C71.6877 15.5036 71.5836 15.0286 71.4835 14.5712L71.4835 14.5711C71.4714 14.5162 71.4595 14.4615 71.4482 14.4072C71.0906 12.6994 70.4561 11.1095 69.4204 9.68778C69.0257 9.14617 69.0977 8.43421 69.5316 7.94501C69.7278 7.72225 69.863 7.73972 70.0396 7.97996C71.0623 9.37548 71.7862 10.9392 72.2158 12.5858C72.4468 13.4724 72.4959 14.4081 72.5448 15.3405V15.3405C72.5619 15.6668 72.579 15.9927 72.6039 16.316C72.6139 16.4477 72.6228 16.5795 72.6317 16.7113L72.6317 16.7113C72.6693 17.2677 72.7068 17.8237 72.8285 18.371C72.9201 18.7794 73.0553 19.1704 73.3496 19.4936C73.9667 20.1662 75.1922 20.2274 75.8594 19.6115C75.9442 19.5329 75.9713 19.4398 76.0008 19.3383L76.0033 19.3298C76.5353 17.539 77.0674 15.7482 77.6082 13.9617C77.6263 13.9013 77.6427 13.8361 77.6594 13.7694C77.7368 13.4605 77.8219 13.1203 78.1358 13.0772C78.4329 13.0354 78.5337 13.3028 78.6306 13.56L78.6306 13.56C78.6653 13.652 78.6995 13.7428 78.742 13.8176C79.6055 15.3398 79.4441 16.8401 78.6134 18.3208C78.5912 18.3608 78.5591 18.4008 78.5267 18.4411C78.4476 18.5395 78.3671 18.6398 78.4258 18.7467C78.5257 18.9267 78.7426 18.9052 78.9275 18.8869L78.9775 18.8821C79.8911 18.7991 80.7459 18.4868 81.5876 18.1527C82.1692 17.9228 82.7453 17.6786 83.3211 17.4344C83.6972 17.275 84.0732 17.1156 84.4506 16.9602C85.0262 16.7244 85.205 16.8685 85.1309 17.4909C85.1235 17.5511 85.1072 17.6099 85.0908 17.6688L85.0908 17.6689C85.0781 17.7148 85.0653 17.7608 85.0567 17.8076C84.9106 18.5545 85.5757 19.1682 86.3149 18.9629C86.8884 18.8035 87.2678 18.3841 87.6232 17.9408C87.7064 17.8364 87.7855 17.7287 87.8644 17.6212C87.9572 17.4949 88.0498 17.3688 88.1487 17.2485L88.1599 17.2347C88.2451 17.1296 88.3499 17.0004 88.5107 17.0694C88.6764 17.1415 88.7178 17.314 88.7156 17.4822C88.7156 17.5393 88.6998 17.5964 88.6839 17.6535C88.6755 17.6838 88.6671 17.714 88.6611 17.7443C88.6462 17.8184 88.603 17.8904 88.5599 17.9623C88.4582 18.132 88.3567 18.3014 88.6262 18.4977C89.0252 18.7904 89.4417 18.9214 89.8865 18.6375C90.3728 18.3252 90.6977 17.8644 90.9659 17.3599C91.0023 17.2915 91.0371 17.2221 91.0719 17.1526C91.135 17.0267 91.1981 16.9008 91.2712 16.7811C91.2786 16.7692 91.2861 16.7568 91.2937 16.7443C91.3709 16.6164 91.4612 16.467 91.6418 16.5366C91.8163 16.6043 91.8272 16.7921 91.8163 16.9602L91.8161 16.9625C91.8118 17.0339 91.8073 17.1094 91.7792 17.1743C91.764 17.2101 91.7476 17.2457 91.7313 17.2809C91.6217 17.5182 91.5174 17.7441 91.8097 17.9932C92.1608 18.2902 92.5206 18.5261 92.9872 18.3951C94.3151 18.0194 94.47 17.5761 94.3304 16.5715C93.8294 12.9903 93.2036 9.43099 92.5775 5.87078L92.4857 5.34833C92.445 5.11692 92.4103 4.88417 92.3757 4.65138C92.2507 3.81206 92.1257 2.9722 91.716 2.19257C91.4936 1.76889 91.9449 0.991413 92.4007 0.775205C92.5882 0.687848 92.7016 0.727159 92.8106 0.890953C92.905 1.03413 93.0004 1.17675 93.0957 1.31935C93.5658 2.02289 94.0358 2.72608 94.4002 3.49418C94.4121 3.51934 94.4277 3.54635 94.4439 3.57439C94.5134 3.69485 94.5937 3.83406 94.4416 3.92442C94.314 4.00043 94.2122 3.89195 94.116 3.78924C94.0905 3.76211 94.0655 3.73539 94.0404 3.71258C93.9943 3.67112 93.9513 3.62593 93.9074 3.57994C93.7873 3.45392 93.6615 3.32202 93.4538 3.24522C93.3735 3.72008 93.4741 4.16418 93.5731 4.60138L93.5731 4.60141L93.5732 4.60149C93.6112 4.76947 93.649 4.93643 93.6763 5.10373C93.8717 6.29482 94.0784 7.4843 94.2851 8.67377C94.6158 10.5769 94.9465 12.48 95.2309 14.3898C95.4752 16.0277 95.3879 17.6656 94.3217 19.083C93.8725 19.6814 93.3121 20.0745 92.5402 20.0789C91.8206 20.0832 91.5154 19.867 91.2624 19.2097C91.2321 19.1311 91.201 19.0532 91.1615 18.9544C91.1329 18.8829 91.0999 18.8004 91.0597 18.6986C90.9517 18.8433 90.8522 18.9865 90.7555 19.126C90.5277 19.4541 90.3146 19.7611 90.0392 20.0155C89.4875 20.5244 88.8835 20.5943 88.3057 20.2165C88.0964 20.0789 87.9546 19.8932 87.8805 19.6661C87.7889 19.38 87.6755 19.4412 87.5033 19.594C87.3906 19.6947 87.2891 19.8057 87.1876 19.9167C86.9982 20.1239 86.8086 20.3312 86.546 20.472C85.5801 20.9874 84.4222 20.3606 84.359 19.2643C84.3197 18.6069 84.2914 18.5741 83.7136 18.8624C82.6713 19.38 81.5985 19.8146 80.3796 20.1335C80.8963 20.686 81.3368 21.2145 81.5963 21.8588C81.6109 21.8951 81.626 21.9314 81.641 21.9678C81.7711 22.2824 81.9012 22.597 81.8034 22.9573C81.5854 23.7653 81.267 24.0361 80.4297 24.0339C78.5458 24.0296 76.9976 23.3504 75.9619 21.7103C75.7678 21.4023 75.5781 21.3608 75.2445 21.494C73.7748 22.0728 72.6083 21.4809 72.1743 19.9588C71.9652 19.2229 71.9034 18.4643 71.8416 17.7058L71.8416 17.7058C71.8267 17.5234 71.8118 17.341 71.7949 17.159C71.6427 17.1134 71.5958 17.2099 71.5528 17.2983C71.5422 17.32 71.5318 17.3413 71.5202 17.3599C70.177 19.5525 68.2822 21.1206 65.973 22.182C64.9242 22.6646 63.8448 22.7061 62.796 22.0553C61.9849 21.5508 61.5815 20.8127 61.4877 19.9063C61.2806 17.9081 61.7341 16.043 62.7153 14.3024C62.9036 13.9676 63.1105 13.6429 63.3166 13.3195L63.3166 13.3195L63.4 13.1886C63.4156 13.164 63.4306 13.1383 63.4457 13.1125L63.4457 13.1125C63.5294 12.969 63.6159 12.8207 63.8339 12.8152C63.918 13.1132 63.7785 13.3339 63.6402 13.5528L63.6402 13.5528C63.6062 13.6066 63.5723 13.6602 63.5417 13.7149C62.7393 15.1563 62.0873 16.6326 62.107 18.3383C62.1288 20.0636 63.4589 21.1949 65.0485 20.7559C66.8622 20.2542 66.8599 20.2107 66.7761 18.5933C66.7724 18.521 66.7684 18.4455 66.7645 18.3667C66.6614 16.3 66.3213 14.262 65.9814 12.2247C65.8256 11.291 65.6698 10.3575 65.5369 9.42134C65.3369 8.01462 65.1554 6.60463 64.9739 5.19522C64.8982 4.6069 64.8224 4.01869 64.7454 3.43085C64.6974 3.06832 64.6276 2.71889 64.4619 2.38475C64.1894 1.83222 64.3943 0.958654 64.8653 0.548077C65.0354 0.399571 65.1531 0.438881 65.2643 0.604859C65.4299 0.850415 65.5963 1.09543 65.7628 1.34047L65.7628 1.34048C66.1752 1.94757 66.5877 2.55483 66.9869 3.17096C67.1396 3.40683 67.3685 3.80867 67.1723 3.95499C67.002 4.08254 66.8674 3.93171 66.7278 3.77528C66.6547 3.69334 66.5802 3.60987 66.4985 3.56407C66.4448 3.53386 66.4005 3.47955 66.3566 3.42561C66.2702 3.31965 66.185 3.21514 66.0319 3.29763C65.8642 3.38792 65.8888 3.56928 65.9123 3.74172L65.9123 3.74173C65.9172 3.77785 65.922 3.81357 65.925 3.84798C66.0823 5.63944 66.3606 7.41453 66.6389 9.18944L66.6389 9.18945C66.7542 9.92448 66.8694 10.6595 66.976 11.3956C67.0407 11.8412 67.1141 12.2862 67.1876 12.7313L67.1876 12.7314C67.4512 14.3281 67.715 15.9264 67.5735 17.5608C67.533 18.0313 67.4801 18.5017 67.4219 19.0192L67.4219 19.0192L67.4218 19.0193C67.3955 19.2536 67.368 19.4976 67.3402 19.7556L67.3533 19.7535ZM80.1835 22.3325C78.9253 22.2889 77.375 21.4066 76.9454 20.4893C78.2472 20.2447 79.5947 21.0113 80.1835 22.3325ZM76.8113 18.8606C78.342 18.0416 78.8348 16.9409 77.9626 15.3816C77.7462 16.0379 77.5345 16.6766 77.322 17.3181C77.1533 17.8271 76.984 18.3379 76.8113 18.8606Z" fill="white"/>
<path fill-rule="evenodd" clip-rule="evenodd" d="M39.2774 18.5636C39.0134 18.6824 38.7583 18.7994 38.5088 18.9139L38.5086 18.9139L38.5083 18.9141C37.9829 19.1551 37.4821 19.3847 36.9753 19.5964C35.8043 20.0856 34.5833 20.3302 33.3098 20.2057C32.7102 20.1467 32.128 20.186 31.5327 20.293C31.269 20.3403 30.996 20.3463 30.7236 20.3522C30.3925 20.3594 30.0623 20.3666 29.7513 20.4481C29.241 20.5835 28.9619 20.5638 28.5498 20.1533C28.4154 20.0194 28.2618 19.9027 28.106 19.7843L28.106 19.7842C27.8196 19.5665 27.5258 19.3432 27.3309 18.998C26.9789 19.4412 26.5869 19.8058 26.1995 20.166L26.1994 20.1661C26.0829 20.2744 25.9669 20.3823 25.8525 20.4918C25.0654 21.2452 23.4736 20.7604 23.0397 19.8737C22.7017 19.1814 22.5927 18.4498 22.5905 17.7073C22.5774 14.1431 22.2569 10.6095 21.727 7.08688C21.6857 6.81095 21.6476 6.53468 21.6096 6.25853L21.6096 6.25852C21.4769 5.29543 21.3445 4.33367 21.075 3.39169C20.9268 2.86973 21.0598 2.34123 21.2778 1.85203C21.3977 1.58122 21.5569 1.55065 21.7444 1.83019C22.1239 2.39582 22.2198 3.04008 22.2961 3.69089C22.4103 4.66263 22.5451 5.63222 22.6798 6.60188L22.6798 6.60189C22.9749 8.72459 23.27 10.8477 23.3493 12.9944C23.3951 14.2654 23.4169 15.5365 23.4365 16.8075C23.4452 17.2836 23.4976 17.7488 23.6437 18.203C23.9882 19.2753 25.133 19.592 25.9746 18.832C26.559 18.3057 27.0256 17.6811 27.4247 17.0041C27.4421 16.9744 27.4587 16.9407 27.4757 16.9062C27.55 16.7553 27.6327 16.5871 27.8368 16.6546C28.0665 16.732 28.048 16.957 28.0313 17.1613C28.0296 17.1819 28.0279 17.2024 28.0265 17.2225C27.9807 17.8492 28.4342 18.4149 29.0709 18.5568C29.3354 18.6165 29.4015 18.4535 29.4647 18.2977L29.4648 18.2976C29.4802 18.2594 29.4956 18.2217 29.5136 18.1877C30.1895 16.9145 31.1075 15.7898 32.2479 14.9774C33.541 14.0558 35.0673 13.7391 36.6133 14.51C37.7363 15.0691 38.083 16.1698 37.5291 17.3033C37.4813 17.4016 37.4344 17.5008 37.3695 17.6378L37.3692 17.6383C37.3276 17.7262 37.2786 17.8297 37.2173 17.9584C37.4432 17.8501 37.6579 17.7483 37.8643 17.6505L37.8649 17.6502L37.8658 17.6498L37.866 17.6497C38.362 17.4146 38.8101 17.2022 39.2517 16.9757C39.4154 16.8917 39.3653 16.7181 39.3222 16.5687L39.3106 16.528C38.8363 14.7906 38.7044 13.0082 38.572 11.2205V11.2205L38.5583 11.0354C38.5019 10.2816 38.3776 9.53392 38.2534 8.78602V8.786L38.2533 8.78593C38.1663 8.26188 38.0792 7.73773 38.0154 7.21137C37.9785 6.90727 37.9371 6.60351 37.8958 6.29971L37.8958 6.29968L37.8958 6.29966L37.8957 6.29962C37.7539 5.25727 37.6119 4.2144 37.649 3.15583C37.6512 3.07066 37.6316 2.96364 37.5815 2.89813C37.1449 2.32779 37.4378 1.85691 37.7241 1.39663C37.7525 1.35107 37.7807 1.30562 37.8082 1.26019C38.035 0.886736 38.2705 0.965357 38.434 1.3257C38.5579 1.5965 38.6782 1.8687 38.7986 2.14089C38.9792 2.54921 39.1597 2.95752 39.352 3.36112C39.493 3.65522 39.6515 3.94155 39.8099 4.22789L39.8101 4.22819C39.8893 4.37126 39.9684 4.51433 40.0454 4.65836L40.0568 4.67919C40.1247 4.8034 40.2025 4.94569 40.0498 5.04492C39.921 5.12864 39.8436 5.03519 39.7702 4.94667C39.7479 4.91974 39.726 4.89327 39.7031 4.87239C39.6724 4.84368 39.6489 4.80727 39.6254 4.77084C39.5988 4.72967 39.5722 4.68849 39.5352 4.65836C39.4751 4.61005 39.4217 4.53817 39.3687 4.46683C39.2564 4.31564 39.1459 4.16688 38.977 4.24997C38.7938 4.33951 38.8331 4.69767 38.8745 4.96193C38.9799 5.61954 39.0644 6.2797 39.1489 6.9402C39.2393 7.64625 39.3297 8.35268 39.4458 9.05678C39.5914 9.94148 39.6695 10.8362 39.7476 11.7311L39.7476 11.7312L39.7476 11.7312C39.7958 12.2833 39.844 12.8354 39.9081 13.3853C40.0062 14.2327 40.1501 15.0735 40.3943 15.8946C40.4902 16.2222 40.6385 16.3533 40.983 16.2266C41.3319 16.0977 41.7004 16.1152 42.0624 16.1545C42.8038 16.2331 43.4339 16.8905 43.5124 17.6308C43.5909 18.3712 43.3576 19.0198 43.0065 19.6575C42.7602 20.1074 42.4069 20.2101 41.9577 20.0812C41.3276 19.9021 40.7999 19.568 40.4314 19.0089C40.366 18.9108 40.3013 18.8121 40.2365 18.7134L40.2362 18.713L40.2359 18.7126L40.2357 18.7122C40.171 18.6136 40.1063 18.5151 40.0411 18.4171C40.0373 18.4114 40.0335 18.4054 40.0297 18.3994C40.0277 18.3963 40.0257 18.3931 40.0237 18.3899L40.0236 18.3898C39.9807 18.3216 39.9323 18.2446 39.8383 18.2926C39.7903 18.3166 39.7598 18.4061 39.7511 18.4695C39.4131 21.0203 41.3843 22.6691 43.8722 21.907C44.9254 21.5837 45.8521 21.029 46.7243 20.3564C48.2071 19.212 49.6527 18.0261 50.9196 16.6372C50.9691 16.5828 51.0235 16.5283 51.0789 16.4729C51.3531 16.1985 51.6501 15.9012 51.4778 15.4906C51.3136 15.1007 50.9458 15.1371 50.5946 15.172L50.5945 15.172C50.4933 15.182 50.3935 15.1919 50.3003 15.1914L50.204 15.1911C49.781 15.1899 49.3625 15.1887 48.9571 15.0385C48.2637 14.783 47.8843 14.189 47.9934 13.4574C48.1002 12.7323 48.4316 12.1099 48.9811 11.6229C49.6353 11.0441 50.4312 11.1009 50.9959 11.7692C51.4538 12.313 51.8223 12.9179 52.1211 13.5666C52.5681 14.5384 52.5266 15.5015 52.0884 16.4624C51.7089 17.2989 51.19 18.0414 50.5664 18.7075C49.0858 20.293 47.4766 21.7366 45.6471 22.9072C44.4457 23.6759 43.1199 24.0472 41.7026 23.6606C39.799 23.1409 38.8483 21.5248 39.171 19.485C39.2007 19.3026 39.2194 19.1184 39.2401 18.914C39.2512 18.804 39.263 18.6882 39.2774 18.5636ZM34.8097 15.7566C32.6837 15.7369 31.3318 16.9315 30.2764 18.6896C32.1473 18.8337 34.9885 17.6217 36.4538 16.9556C36.831 16.7852 36.7373 16.6018 36.5018 16.403C36.0133 15.9924 35.4486 15.761 34.8097 15.7566ZM50.3985 13.5074C49.9385 13.5794 49.5678 13.5729 49.2254 13.3698C49.1317 13.3152 49.0401 13.2453 49.0597 13.1165C49.0793 12.9942 49.184 12.9352 49.2865 12.9112C49.788 12.7932 50.0976 13.0531 50.3985 13.5074ZM42.3927 18.3475C41.9894 18.3409 41.7103 18.1597 41.4486 17.8736C41.9676 17.795 42.1573 17.8889 42.3927 18.3475Z" fill="white"/>
<path fill-rule="evenodd" clip-rule="evenodd" d="M129.981 18.5376L129.981 18.5379C129.84 18.7443 129.709 18.9365 129.578 19.1288C128.748 20.3496 126.816 20.0285 126.578 18.7182C126.521 18.4015 126.386 18.467 126.233 18.6418C126.118 18.7748 126.006 18.91 125.894 19.0454C125.809 19.1476 125.725 19.25 125.638 19.3515C125.387 19.6442 125.093 19.8866 124.755 20.07C123.591 20.699 122.37 20.1465 121.997 18.8187C121.842 18.2668 121.786 17.6998 121.729 17.133L121.729 17.133C121.708 16.9237 121.687 16.7144 121.661 16.5059C121.657 16.4739 121.657 16.4405 121.657 16.4065C121.658 16.2965 121.658 16.1791 121.515 16.0757C121.04 16.8924 120.503 17.659 119.903 18.3797C118.824 19.6791 117.59 20.7383 115.88 21.1052C114.513 21.4 113.652 20.7907 113.491 19.3908C113.466 19.1789 113.465 18.9646 113.463 18.7503V18.7503C113.462 18.6003 113.46 18.4503 113.451 18.3011C113.449 18.2596 113.455 18.2131 113.461 18.166C113.477 18.0419 113.494 17.914 113.358 17.8665C113.266 17.8337 113.096 17.9647 112.987 18.0521C112.331 18.5719 111.635 19.0327 110.922 19.4716C108.933 20.6925 106.812 21.5289 104.463 21.7429C104.257 21.7614 104.053 21.8035 103.848 21.8456C103.521 21.9131 103.193 21.9808 102.852 21.9526C102.835 21.9511 102.817 21.95 102.799 21.949C102.681 21.9419 102.552 21.9342 102.527 21.815C102.499 21.6849 102.608 21.6553 102.712 21.627L102.712 21.627C102.737 21.6202 102.762 21.6134 102.784 21.6053C107.651 19.9259 111.973 17.3161 115.83 13.9158C115.869 13.8814 115.911 13.8464 115.954 13.8106C116.204 13.6032 116.487 13.3679 116.373 13.0531C116.263 12.75 115.978 12.801 115.704 12.85C115.615 12.866 115.527 12.8817 115.447 12.8849C115.299 12.8908 115.152 12.904 115.005 12.9171C114.386 12.9722 113.772 13.0268 113.216 12.5399C112.695 12.0834 112.387 11.5833 112.512 10.8801C112.666 10.0087 112.867 9.16136 113.73 8.67872C114.077 8.48435 114.372 8.45596 114.729 8.71366C115.776 9.4693 116.498 10.5001 117.078 11.6074C117.603 12.6076 117.328 13.6253 116.764 14.56C116.184 15.518 115.337 16.2265 114.493 16.9331L114.474 16.9492C113.944 17.3947 113.901 18.0914 114.35 18.9781C114.605 19.4804 114.904 19.5874 115.651 19.4105C116.556 19.1965 117.328 18.7291 118.017 18.1176C118.312 17.8567 118.603 17.5906 118.893 17.3246L118.893 17.3245L118.893 17.3244C119.34 16.9159 119.786 16.5073 120.248 16.1171C121.131 15.3724 121.38 14.4552 121.066 13.3763C120.634 11.8869 120.041 10.4652 119.232 9.13734C118.988 8.73768 119.188 7.64136 119.572 7.40549C119.782 7.27688 119.885 7.42879 119.982 7.57046L120.002 7.59986C120.488 8.28561 120.815 9.04998 121.131 9.82746C122.014 12.007 122.487 14.263 122.557 16.6129C122.57 17.0781 122.638 17.5542 122.836 17.9931C123.076 18.5238 123.508 18.7379 124.073 18.6112C124.821 18.4437 125.306 17.9235 125.792 17.4024C125.851 17.3392 125.91 17.2761 125.97 17.2135C126.1 17.0748 126.228 16.9339 126.356 16.7929L126.356 16.7929L126.356 16.7928C126.448 16.6918 126.54 16.5908 126.632 16.4906L126.644 16.4781C126.765 16.3481 126.896 16.2072 127.097 16.2919C127.246 16.3555 127.246 16.4895 127.245 16.6204V16.6204C127.245 16.6557 127.245 16.6908 127.247 16.7243C127.256 16.8313 127.256 16.9449 127.232 17.0497C127.036 17.9254 128.133 18.5042 128.859 18.0849C129.247 17.8621 129.528 17.5301 129.796 17.1851C129.918 17.0305 130.036 16.8724 130.153 16.7141L130.153 16.714L130.154 16.714C130.264 16.566 130.374 16.4178 130.488 16.2722L130.508 16.2452C130.613 16.1072 130.74 15.9409 130.922 16.0167C131.159 16.115 131.17 16.3683 131.098 16.5845C130.914 17.1367 131.259 17.4285 131.603 17.7186L131.656 17.7638C131.864 17.9407 132.001 17.9058 132.169 17.6568C132.853 16.6457 133.636 15.7153 134.543 14.8942C136.07 13.5139 138.488 13.6537 139.894 15.1431C140.609 15.9009 140.439 17.7791 139.273 18.1373C138.678 18.3203 138.09 18.5303 137.503 18.7403C136.247 19.1895 134.992 19.6387 133.656 19.8233C133.089 19.9019 132.529 19.8757 131.99 19.6944C131.183 19.4214 130.544 18.9628 130.396 17.9254V17.9298C130.246 18.1511 130.109 18.3502 129.981 18.5376ZM132.997 18.0744C133.915 16.9104 134.842 15.814 136.401 15.5716C137.291 15.434 138.085 15.6546 138.778 16.2333C138.959 16.384 139.088 16.5413 138.76 16.6461C138.393 16.7656 138.027 16.89 137.661 17.0143C136.368 17.4537 135.075 17.8929 133.719 18.1159L133.684 18.1215C133.476 18.1554 133.249 18.1923 132.995 18.0744H132.997ZM113.675 10.9724C113.91 11.228 114.229 11.2891 114.626 11.2629V11.2607C114.663 11.2426 114.719 11.2498 114.78 11.2576C114.887 11.2713 115.006 11.2867 115.055 11.1668C115.114 11.0226 114.987 10.9261 114.87 10.8366C114.835 10.8095 114.8 10.7831 114.772 10.7562C114.591 10.5837 114.388 10.4308 114.181 10.2889C113.885 10.0887 113.683 10.3027 113.513 10.4822C113.505 10.4906 113.497 10.499 113.489 10.5073C113.32 10.6853 113.456 10.7922 113.579 10.8894C113.614 10.9174 113.649 10.9446 113.675 10.9724Z" fill="white"/>
<path fill-rule="evenodd" clip-rule="evenodd" d="M96.4934 13.5041C96.5179 13.2053 96.5433 12.8958 96.3369 12.5987H96.3325C96.1254 12.7523 96.0802 12.9315 96.0356 13.1078C96.0314 13.1245 96.0272 13.1412 96.0229 13.1578C95.8136 13.9768 95.8136 14.811 95.8179 15.6475C95.8332 17.7899 96.7992 19.3951 98.5675 20.5482C99.0342 20.8518 99.5422 21.0003 100.109 21.009C101.014 21.0221 101.88 20.8408 102.713 20.5176C104.904 19.6659 106.771 18.2791 108.613 16.8574C110.072 15.7305 110.392 14.1973 110.194 12.4721C110.181 12.341 110.155 12.2165 110.05 12.1314C109.836 11.9567 109.692 11.7285 109.548 11.5001C109.489 11.4057 109.43 11.3113 109.365 11.2207C109.331 11.1728 109.297 11.1249 109.263 11.0769C108.77 10.386 108.275 9.69339 107.68 9.08479C106.949 8.34008 106.206 8.43617 105.672 9.33158C105.388 9.80549 105.233 10.3274 105.188 10.8778C105.068 12.3039 105.547 12.8804 106.978 13.1469C107.313 13.2086 107.635 13.1766 107.956 13.1446C108.135 13.1269 108.313 13.1091 108.493 13.1076C108.94 13.1032 109.211 13.2998 109.354 13.7103C109.527 14.1999 109.214 14.4682 108.923 14.7176C108.894 14.7431 108.864 14.7683 108.836 14.7936C107.285 16.1574 105.528 17.222 103.772 18.2864C103.619 18.3792 103.465 18.4721 103.312 18.5652C102.85 18.8463 102.333 19.0096 101.819 19.1718L101.803 19.1767C99.9151 19.7751 97.3028 18.6591 96.7861 16.4249C96.5789 15.5317 96.4503 14.6472 96.4786 13.7322C96.4808 13.6571 96.4871 13.581 96.4934 13.5041ZM106.348 11.2315C106.777 11.5307 107.255 11.5241 107.844 11.4412H107.846C107.525 11.0131 107.244 10.6702 106.856 10.4322C106.577 10.2618 106.261 10.1592 106.042 10.4911C105.811 10.8428 106.086 11.0502 106.348 11.2315Z" fill="white"/>
<path fill-rule="evenodd" clip-rule="evenodd" d="M138.666 41.2608C139.626 40.5641 140.112 39.5661 140.249 38.3431L140.247 38.3409C139.948 36.7554 139.327 35.3205 137.918 34.3487C137.46 34.032 136.867 34.1019 136.394 34.4535C135.692 34.9798 135.48 35.7442 135.402 36.5544C135.321 37.3996 135.688 37.8888 136.514 38.1116C136.855 38.2034 137.204 38.2275 137.553 38.2517C137.818 38.27 138.084 38.2884 138.346 38.3365C138.38 38.3426 138.415 38.3484 138.451 38.3542C138.761 38.4047 139.108 38.4614 139.198 38.8061C139.266 39.0677 139.067 39.2227 138.874 39.3729C138.811 39.422 138.749 39.4707 138.697 39.5224C138.602 39.6149 138.489 39.6908 138.378 39.7653C138.369 39.7717 138.359 39.7781 138.35 39.7845C136.032 41.3503 133.644 42.7983 131.102 43.9732C130.416 44.2901 129.742 44.632 129.067 44.974C127.607 45.714 126.146 46.4542 124.571 46.9412C124.536 46.9523 124.495 46.9612 124.453 46.9705C124.286 47.0067 124.098 47.0477 124.133 47.2425C124.175 47.4719 124.467 47.4828 124.685 47.4871C124.829 47.4915 124.977 47.4762 125.117 47.4413C125.423 47.3649 125.729 47.2837 126.034 47.2025C126.376 47.1117 126.717 47.0209 127.062 46.9368C131.344 45.8929 135.132 43.8313 138.666 41.2608ZM136.643 36.4764C137.084 36.6729 137.546 36.7341 138.074 36.6642H138.072C137.585 35.9479 137.143 35.6989 136.687 35.8714C136.669 35.8784 136.65 35.8852 136.631 35.8922C136.492 35.942 136.336 35.9982 136.321 36.1553C136.307 36.3263 136.47 36.3991 136.608 36.4607C136.62 36.466 136.632 36.4712 136.643 36.4764Z" fill="white"/>
<path fill-rule="evenodd" clip-rule="evenodd" d="M73.5177 34.9577C73.1579 34.5689 72.7632 34.154 72.1505 34.1627L72.1527 34.1649C71.9324 34.1693 71.7187 34.178 71.516 34.285C70.6416 34.7437 70.0812 36.0824 70.3123 37.1744C70.4497 37.8164 71.0929 38.168 72.2617 38.2357C72.2915 38.2379 72.3219 38.2389 72.3523 38.2399C72.413 38.2418 72.474 38.2438 72.5321 38.2554C72.6671 38.2814 72.8047 38.2945 72.9423 38.3076C73.2202 38.3341 73.4979 38.3605 73.7531 38.4934C74.0824 38.6638 74.2438 38.8844 73.8927 39.1945C73.8351 39.2455 73.7781 39.2977 73.721 39.35C73.5509 39.5056 73.3799 39.6621 73.1906 39.7929C71.4723 40.9809 69.7061 42.0969 67.8353 43.0229C67.1684 43.3534 66.5061 43.6945 65.8436 44.0356C63.7352 45.1212 61.6249 46.2077 59.3618 46.9605C59.3331 46.9704 59.3012 46.9787 59.2685 46.9873C59.1349 47.0223 58.9881 47.0607 58.9933 47.2204C58.9975 47.4394 59.2164 47.4612 59.3842 47.4779C59.3921 47.4787 59.4 47.4795 59.4076 47.4803C59.5843 47.4999 59.7718 47.4868 59.9462 47.4475C60.2392 47.3799 60.5303 47.3049 60.8211 47.23C61.0562 47.1694 61.2912 47.1088 61.5271 47.0522C65.8597 46.0105 69.7367 44.0057 73.3258 41.409C74.4291 40.6097 75.1857 39.5395 75.0571 38.1462C74.9459 36.9385 74.3484 35.8575 73.5177 34.9577ZM72.8908 36.6549C72.8911 36.6548 72.8915 36.6547 72.8918 36.6547V36.6569C72.8915 36.6562 72.8911 36.6555 72.8908 36.6549ZM72.8908 36.6549C72.5614 36.0119 71.993 35.6874 71.5268 35.8728C71.5151 35.8774 71.5031 35.8819 71.4909 35.8866C71.3515 35.9393 71.191 36 71.191 36.1808C71.1891 36.3322 71.3249 36.3933 71.4443 36.447C71.4576 36.4529 71.4706 36.4588 71.4832 36.4647C71.9299 36.6698 72.394 36.7528 72.8908 36.6549Z" fill="white"/>
<path fill-rule="evenodd" clip-rule="evenodd" d="M60.172 5.98901C60.1238 5.98974 60.0757 5.99046 60.0278 5.99046V5.98828C58.9026 5.97299 57.965 6.30058 57.3828 7.35104C57.1648 7.74633 57.095 8.15036 57.119 8.59806C57.1213 8.64215 57.091 8.68783 57.0588 8.73648C56.9986 8.82759 56.9314 8.92911 57.0579 9.05013C57.2258 9.21174 57.4199 9.16151 57.6183 9.10473C58.4949 8.85576 59.3147 8.48013 60.0801 7.99311C60.4966 7.72886 60.8629 7.40127 61.0548 6.92736C61.2619 6.41851 61.0046 6.01667 60.4617 5.99046C60.3657 5.98609 60.2687 5.98755 60.172 5.98901ZM59.4706 7.49114C58.8012 7.92574 58.1929 8.19655 57.5016 8.45425C57.9159 7.727 58.5919 7.3885 59.4706 7.49114Z" fill="white"/>
<path fill-rule="evenodd" clip-rule="evenodd" d="M36.0647 9.37564C36.1824 8.84058 35.7834 8.28586 35.2971 8.28149L35.295 8.28368C34.5361 8.27713 34.0063 9.05679 34.2527 9.95656C34.3726 10.3977 34.2679 10.6358 33.9278 10.8563C33.8389 10.9129 33.7582 10.9813 33.6774 11.0498C33.6334 11.0871 33.5894 11.1245 33.544 11.1599C32.589 11.9155 31.575 12.5838 30.4804 13.1254C30.465 13.1333 30.4488 13.141 30.4323 13.1489C30.3153 13.2047 30.1827 13.268 30.2209 13.4268C30.2552 13.5766 30.3876 13.5773 30.5113 13.5779C30.5374 13.578 30.563 13.5782 30.5873 13.5797C31.0277 13.6081 31.3962 13.4006 31.7582 13.1931C32.6435 12.6886 33.4633 12.0859 34.257 11.4525C34.5776 11.197 34.8 11.0769 35.066 11.4962C35.1576 11.6425 35.332 11.7583 35.5348 11.6207C35.7093 11.5028 35.7878 11.3412 35.67 11.1555C35.3429 10.6445 35.4454 10.2208 35.8641 9.81679C35.9731 9.71196 36.0298 9.5307 36.0647 9.37564ZM35.2319 9.41663C35.2326 9.40718 35.2333 9.39782 35.234 9.38865C35.2231 9.27072 35.1904 9.16371 35.0443 9.18773C34.9047 9.20957 34.8808 9.32095 34.9178 9.43451C34.9229 9.4498 34.9275 9.46667 34.9321 9.48407C34.9556 9.57102 34.9825 9.6711 35.0988 9.6529C35.2166 9.6349 35.2247 9.51977 35.2319 9.41663Z" fill="white"/>
<path fill-rule="evenodd" clip-rule="evenodd" d="M31.336 32.2143C31.3749 32.2122 31.4118 32.2101 31.4411 32.217C31.6962 32.2301 31.8968 32.1471 32.0865 32.0379C32.2623 31.9361 32.4365 31.8311 32.6108 31.726C32.949 31.5222 33.2872 31.3183 33.6368 31.1381C33.816 31.0466 33.9798 30.9249 34.1436 30.8031C34.4803 30.5529 34.8174 30.3023 35.2897 30.3126C35.4139 30.3148 35.5797 30.1772 35.5927 30.0309C35.6217 29.6968 35.7582 29.4028 35.8944 29.1093C35.9942 28.8943 36.0938 28.6796 36.1509 28.4497C36.2752 27.9474 36.0877 27.5281 35.6712 27.3687C35.3333 27.2398 34.5047 27.4844 34.2757 27.7836C33.9486 28.2073 33.9334 28.7555 34.3106 29.1748C34.6377 29.5395 34.5374 29.7295 34.1732 29.9741C34.0607 30.0496 33.9484 30.1253 33.8361 30.201C33.0318 30.743 32.2282 31.2846 31.3691 31.7387C31.3602 31.7434 31.3511 31.7482 31.3419 31.753C31.2066 31.824 31.0454 31.9086 31.0944 32.0947C31.1286 32.2258 31.2386 32.2197 31.336 32.2143ZM35.088 28.6716C35.1463 28.7294 35.2097 28.7924 35.2573 28.8737V28.8715C35.2781 28.8257 35.3002 28.7822 35.3213 28.7408C35.4238 28.5391 35.5024 28.3845 35.2944 28.2359C35.181 28.1551 35 28.2097 34.9586 28.2993C34.8825 28.4676 34.9757 28.5601 35.088 28.6716Z" fill="white"/>
<path fill-rule="evenodd" clip-rule="evenodd" d="M117.091 2.85903C117.261 2.62317 117.378 2.35673 117.405 2.09248H117.407C117.413 1.6142 117.025 1.07914 116.711 1.09661C116 1.13592 115.257 2.20386 115.636 2.78915C115.995 3.34248 115.723 3.57759 115.397 3.85963C115.384 3.87035 115.372 3.88114 115.359 3.89202C115.1 4.11697 114.836 4.34191 114.552 4.53628C114.303 4.70661 114.047 4.86872 113.792 5.03078C113.572 5.17001 113.353 5.3092 113.137 5.45353C113.116 5.46758 113.093 5.48153 113.069 5.49588C112.935 5.57519 112.781 5.66673 112.9 5.85537C113 6.01698 113.203 6.03227 113.39 5.94054C113.433 5.91875 113.477 5.90238 113.522 5.88606C113.562 5.87129 113.603 5.85656 113.641 5.8379C114.557 5.38582 115.398 4.82019 116.131 4.10823C116.14 4.09914 116.15 4.09014 116.159 4.08131C116.309 3.93309 116.414 3.82972 116.589 4.06674C116.715 4.23927 116.91 4.37685 117.099 4.22616C117.315 4.05582 117.2 3.81559 117.064 3.64306C116.846 3.36133 116.903 3.12329 117.091 2.85903ZM116.197 2.36323C116.212 2.48334 116.269 2.59909 116.434 2.62311C116.622 2.52484 116.67 2.32828 116.705 2.14265C116.729 2.00943 116.659 1.86966 116.5 1.91989C116.304 1.98322 116.171 2.13828 116.197 2.36323Z" fill="white"/>
</g>
<defs>
<clipPath id="clip0_2017_1309">
<rect width="200" height="50.5556" fill="white"/>
</clipPath>
</defs>
</svg>
