<svg width="87" height="40" viewBox="0 0 87 40" fill="none" xmlns="http://www.w3.org/2000/svg">
<path d="M1.83728 18.0989C1.60254 18.0989 1.42861 17.9248 1.42861 17.6901C1.42861 17.4554 1.60254 17.2813 1.83728 17.2813C2.07201 17.2813 2.23804 17.4554 2.23804 17.6901C2.23804 17.9248 2.07201 18.0989 1.83728 18.0989ZM3.32276 17.6901C3.32276 17.4554 3.15673 17.2813 2.92199 17.2813C2.68726 17.2813 2.51332 17.4554 2.51332 17.6901C2.51332 17.9248 2.68726 18.0989 2.92199 18.0989C3.15673 18.0989 3.32276 17.9248 3.32276 17.6901ZM6.3378 23.3683C6.10306 23.3683 5.92913 23.5423 5.92913 23.7771C5.92913 24.0118 6.10306 24.1858 6.3378 24.1858C6.57253 24.1858 6.73856 24.0118 6.73856 23.7771C6.73856 23.5423 6.57253 23.3683 6.3378 23.3683ZM5.25328 23.3683C5.01854 23.3683 4.84441 23.5423 4.84441 23.7771C4.84441 24.0118 5.01854 24.1858 5.25328 24.1858C5.48801 24.1858 5.65385 24.0118 5.65385 23.7771C5.65385 23.5423 5.48801 23.3683 5.25328 23.3683ZM5.06297 22.6641H4.85251C4.1564 22.6641 3.60184 22.571 3.34687 22.1258C3.11213 22.231 2.71961 22.3686 2.18943 22.3686C1.34762 22.3686 0.449219 21.9599 0.449219 20.7093C0.449219 19.5963 1.16961 18.9528 2.36353 18.9528H3.93794V21.4135C3.93794 21.9437 4.20903 22.0813 4.87682 22.0813H4.94559C5.67408 22.0813 6.03031 21.7778 6.03031 21.0371V18.9488H6.73441V21.1666C6.73441 22.1663 6.17594 22.66 5.05487 22.66M3.22158 19.5194H2.4404C1.78071 19.5194 1.14522 19.7015 1.14522 20.7012C1.14522 21.6159 1.83324 21.7535 2.2501 21.7535C2.66696 21.7535 3.00708 21.6685 3.22158 21.5349V19.5194ZM16.4194 16.3626C16.1847 16.3626 16.0105 16.5366 16.0105 16.7714C16.0105 17.0061 16.1847 17.1801 16.4194 17.1801C16.6541 17.1801 16.82 17.0061 16.82 16.7714C16.82 16.5366 16.6541 16.3626 16.4194 16.3626ZM15.4724 17.686C15.4724 17.9208 15.6464 18.0948 15.8811 18.0948C16.1158 18.0948 16.2819 17.9208 16.2819 17.686C16.2819 17.4513 16.1158 17.2773 15.8811 17.2773C15.6464 17.2773 15.4724 17.4513 15.4724 17.686ZM16.5611 17.686C16.5611 17.9208 16.735 18.0948 16.9698 18.0948C17.2045 18.0948 17.3705 17.9208 17.3705 17.686C17.3705 17.4513 17.2045 17.2773 16.9698 17.2773C16.735 17.2773 16.5611 17.4513 16.5611 17.686ZM21.3691 23.3359C21.1344 23.3359 20.9602 23.51 20.9602 23.7447C20.9602 23.9794 21.1344 24.1535 21.3691 24.1535C21.6038 24.1535 21.7697 23.9794 21.7697 23.7447C21.7697 23.51 21.6038 23.3359 21.3691 23.3359ZM23.7933 21.0331C23.7933 21.7737 23.4372 22.0772 22.7087 22.0772C22.1098 22.0772 21.7537 21.8061 21.7537 21.2435V18.9488H21.0413V21.0371C21.0413 21.7778 20.7012 22.0813 19.9646 22.0813H19.9565C19.2604 22.0813 19.0258 21.7616 19.0258 21.1666V18.9488H18.3136V21.0371C18.3136 21.4297 18.2366 22.0813 17.6012 22.0813C17.1236 22.0813 16.7998 21.7939 16.7998 21.2476V19.7623H16.0876V21.1262C16.0876 21.6402 15.9216 22.0813 15.3226 22.0813C14.8451 22.0813 14.5213 21.7939 14.5213 21.2476V19.7623H13.8089V21.1262C13.8089 21.6402 13.6431 22.0813 13.0441 22.0813H9.26391V18.9528H8.5517V22.4901C8.5517 23.255 8.31698 23.5788 7.75846 23.5788C7.62895 23.5788 7.49936 23.5707 7.3658 23.5423L7.26877 24.1332C7.4347 24.1696 7.63284 24.1858 7.79878 24.1858C8.73772 24.1858 9.18305 23.6799 9.25185 22.6641H13.121C13.8697 22.6641 14.1812 22.3241 14.331 22.1056C14.5131 22.4455 14.8774 22.6641 15.3995 22.6641C16.1482 22.6641 16.4598 22.3241 16.6095 22.1056C16.7916 22.4455 17.2085 22.6641 17.7306 22.6641C18.2972 22.6641 18.6251 22.4213 18.8072 22.0975C19.0581 22.5062 19.5356 22.6641 20.0658 22.6641H20.0739C20.7862 22.6641 21.2761 22.4739 21.5351 22.0813C21.7658 22.4739 22.2149 22.6398 22.7208 22.66C22.7532 22.66 22.7857 22.66 22.818 22.66C23.9391 22.66 24.5057 22.1663 24.5057 21.1666V16.2695H23.7933V21.0331ZM25.9829 22.66H26.6953V16.2695H25.9829V22.66Z" fill="white"/>
<path d="M33.3039 20.6729V21.1666C33.3039 22.1744 32.867 22.66 31.754 22.66H29.9004V22.0772H31.588C32.361 22.0772 32.5876 21.7737 32.5876 21.0331V20.8348C32.5876 20.0334 32.2922 19.5316 31.074 19.5316H30.4468V18.9488H31.3088C32.7091 18.9488 33.3 19.6287 33.3 20.6688M34.9756 22.486C34.9756 23.2509 34.7408 23.5747 34.1863 23.5747C34.0568 23.5747 33.9274 23.5666 33.7938 23.5383L33.6966 24.1292C33.8625 24.1656 34.0609 24.1818 34.2268 24.1818C35.2427 24.1818 35.6878 23.5828 35.6878 22.3889V18.9447H34.9756V22.482V22.486ZM37.1247 22.66H37.8369V16.2695H37.1247V22.66ZM60.0925 16.2695H60.8047V21.1666C60.8047 22.1663 60.2381 22.66 59.117 22.66C58.5585 22.66 58.0202 22.5224 57.7693 21.9923C57.4657 22.4374 56.9962 22.6965 56.4053 22.6965C55.9439 22.6965 55.4664 22.5386 54.9524 22.0975C54.8229 22.401 54.5883 22.6641 54.0055 22.6641H42.402C42.3049 23.5423 41.8355 24.1858 40.6375 24.1858C40.2894 24.1858 39.8645 24.1251 39.5245 24.0482L39.6298 23.4897C39.901 23.5504 40.2651 23.6273 40.6051 23.6273C41.3012 23.6273 41.6493 23.3319 41.6898 22.66H41.0989C39.2817 22.66 38.8811 21.7656 38.8811 20.8874C38.8811 19.7299 39.646 18.8962 40.7428 18.8962C41.8396 18.8962 42.4224 19.5478 42.4224 20.6V22.0772H53.799C54.1551 22.0772 54.4668 21.8182 54.4952 21.3568C54.5721 19.7663 55.1911 18.8962 56.381 18.8962C57.7206 18.8962 58.1295 19.8715 58.1295 20.7498C58.1295 20.9764 58.1012 21.1828 58.0527 21.3852C58.0972 21.8992 58.4776 22.0813 59.0077 22.0813C59.7362 22.0813 60.0964 21.7778 60.0964 21.0371V16.2736L60.0925 16.2695ZM41.6979 20.8509C41.6979 20.0577 41.4266 19.4951 40.682 19.4951C40.3096 19.4951 39.6217 19.6854 39.6217 20.8509C39.6217 21.8668 40.2571 22.0772 41.1596 22.0772H41.6979V20.8509ZM57.4051 20.7821C57.4051 19.9039 57.0206 19.5032 56.369 19.5032C55.7174 19.5032 55.2196 20.1467 55.1427 21.4702C55.5879 21.8789 55.944 22.0894 56.4296 22.0894C57.231 22.0894 57.4051 21.3083 57.4051 20.7862M62.2818 22.6641H62.9943V16.2736H62.2818V22.6641Z" fill="white"/>
<path d="M0.457031 26.6514H1.03565V28.7073H3.31832V26.6514H3.89714V31.3906H3.31832V29.193H1.03565V31.3906H0.457031V26.6514ZM8.47849 29.9903C8.47849 30.8523 7.82282 31.4716 6.73412 31.4716C5.64543 31.4716 4.99391 30.8564 4.99391 29.9903V26.6514H5.57253V29.9296C5.57253 30.6217 5.9692 30.9859 6.72602 30.9859C7.48285 30.9859 7.89967 30.5529 7.89967 29.9296V26.6514H8.47849V29.9903ZM11.8619 30.8685H11.8741L13.2096 26.6554H14.1971V31.3947H13.6387V27.0966H13.6266L12.2182 31.3947H11.4937L10.1337 27.0966H10.1217V31.3947H9.57941V26.6554H10.5546L11.8619 30.8685ZM15.9172 31.3906H15.302L17.107 26.6514H17.8842L19.6974 31.3906H19.066L18.5075 29.9701H16.4555L15.9172 31.3906ZM16.6011 29.4844H18.3658L17.4835 27.0885L16.6011 29.4844ZM23.7203 30.7795H23.7323V26.6514H24.2748V31.3906H23.4248L21.3487 27.2301H21.3364V31.3906H20.7941V26.6514H21.6643L23.7203 30.7795Z" fill="white"/>
<path d="M27.3672 26.6513H28.9983C29.8361 26.6513 30.4713 27.0236 30.4713 27.9059C30.4713 28.4442 30.1679 28.861 29.5973 29.0067V29.0189C29.9575 29.1039 30.1194 29.3386 30.2893 29.9092C30.4431 30.4354 30.5727 30.8725 30.7346 31.3905H30.1194C30.0142 31.0141 29.8402 30.3342 29.7471 30.0104C29.5731 29.4398 29.4476 29.2617 28.711 29.2617H27.946V31.3905H27.3672V26.6513ZM27.946 28.776H28.8606C29.496 28.776 29.8967 28.5251 29.8967 27.9383C29.8967 27.2705 29.3989 27.1369 28.9011 27.1369H27.946V28.776ZM31.6047 26.6513H34.2069V27.1369H32.1833V28.7113H34.0492V29.1969H32.1833V30.9089H34.2597V31.3946H31.6047V26.6553V26.6513ZM37.6431 27.2543C37.3112 27.1207 36.9511 27.056 36.603 27.056C36.1538 27.056 35.6477 27.23 35.6477 27.7804C35.6477 28.2054 35.8986 28.4361 36.6352 28.7234C37.5296 29.0674 37.9952 29.4276 37.9952 30.1642C37.9952 31.0991 37.1857 31.4715 36.4046 31.4715C35.9877 31.4715 35.4495 31.3784 35.0043 31.1801L35.1499 30.6823C35.583 30.8927 36.0445 30.9898 36.4168 30.9898C36.9875 30.9898 37.4205 30.7389 37.4205 30.2087C37.4205 29.7231 37.0037 29.4802 36.2833 29.1848C35.4738 28.861 35.0691 28.4563 35.0691 27.8249C35.0691 26.9507 35.8906 26.5784 36.607 26.5784C37.0238 26.5784 37.4447 26.6432 37.7806 26.7767L37.6431 27.2624V27.2543ZM40.901 31.4674C39.5613 31.4674 38.7965 30.4475 38.7965 29.027C38.7965 27.6064 39.5452 26.5703 40.901 26.5703C42.2568 26.5703 43.0056 27.5983 43.0056 29.027C43.0056 30.4556 42.2406 31.4674 40.901 31.4674ZM40.901 27.056C39.8649 27.056 39.3752 27.9464 39.3752 29.027C39.3752 30.1076 39.8649 30.9858 40.901 30.9858C41.937 30.9858 42.4268 30.1035 42.4268 29.027C42.4268 27.9504 41.937 27.056 40.901 27.056ZM47.4857 29.9902C47.4857 30.8522 46.8301 31.4715 45.7414 31.4715C44.6527 31.4715 44.0053 30.8563 44.0053 29.9902V26.6513H44.5839V29.9295C44.5839 30.6175 44.9806 30.9858 45.7374 30.9858C46.4943 30.9858 46.9111 30.5527 46.9111 29.9295V26.6513H47.4899V29.9902H47.4857ZM48.5665 26.6513H50.1974C51.0352 26.6513 51.6707 27.0236 51.6707 27.9059C51.6707 28.4442 51.3671 28.861 50.7964 29.0067V29.0189C51.1566 29.1039 51.3225 29.3386 51.4885 29.9092C51.6423 30.4354 51.7759 30.8725 51.9337 31.3905H51.3185C51.2133 31.0141 51.0393 30.3342 50.9462 30.0104C50.7722 29.4398 50.6467 29.2617 49.9101 29.2617H49.1451V31.3905H48.5665V26.6513ZM49.1451 28.776H50.0599C50.6953 28.776 51.096 28.5251 51.096 27.9383C51.096 27.2705 50.598 27.1369 50.1002 27.1369H49.1451V28.776ZM55.6368 27.2624C55.3981 27.1248 55.0783 27.056 54.7424 27.056C53.5404 27.056 52.9779 27.9302 52.9779 29.0391C52.9779 30.0873 53.5688 30.9858 54.7304 30.9858C55.1351 30.9858 55.4264 30.9049 55.7056 30.7592L55.8716 31.2084C55.5316 31.3946 55.1229 31.4674 54.698 31.4674C53.2572 31.4674 52.4032 30.4597 52.4032 29.031C52.4032 27.6023 53.2248 26.5703 54.7385 26.5703C55.1351 26.5703 55.5479 26.6432 55.819 26.801L55.641 27.2583L55.6368 27.2624ZM56.7378 26.6513H59.34V27.1369H57.3164V28.7113H59.1823V29.1969H57.3164V30.9089H59.3927V31.3946H56.7378V26.6553V26.6513ZM62.6587 27.2543C62.3269 27.1207 61.9666 27.056 61.6145 27.056C61.1653 27.056 60.6595 27.23 60.6595 27.7804C60.6595 28.2054 60.9104 28.4361 61.647 28.7234C62.5414 29.0674 63.0068 29.4276 63.0068 30.1642C63.0068 31.0991 62.1973 31.4715 61.4122 31.4715C60.9953 31.4715 60.4571 31.3784 60.0119 31.1801L60.1575 30.6823C60.5906 30.8927 61.0519 30.9898 61.4242 30.9898C61.9949 30.9898 62.4281 30.7389 62.4281 30.2087C62.4281 29.7231 62.0112 29.4802 61.2948 29.1848C60.4854 28.861 60.0806 28.4563 60.0806 27.8249C60.0806 26.9507 60.9023 26.5784 61.6187 26.5784C62.0356 26.5784 62.4564 26.6432 62.7923 26.7767L62.6546 27.2624L62.6587 27.2543Z" fill="white"/>
<path d="M0.457031 34.3046H1.80478C3.26986 34.3046 4.12776 35.2152 4.12776 36.6722C4.12776 38.1292 3.26581 39.0398 1.80478 39.0398H0.457031V34.3005V34.3046ZM1.03565 38.5582H1.7198C2.92586 38.5582 3.55309 37.854 3.55309 36.6722C3.55309 35.4904 2.92991 34.7862 1.7198 34.7862H1.03565V38.5541V38.5582ZM5.09905 34.3046H7.70146V34.7902H5.67786V36.3646H7.54356V36.8503H5.67786V38.5622H7.75402V39.0479H5.09905V34.3086V34.3046ZM8.11823 34.3046H8.73756L10.1784 38.5177H10.1904L11.6232 34.3046H12.2425L10.5426 39.0438H9.80608L8.12238 34.3046H8.11823ZM12.8454 34.3046H15.4478V34.7902H13.4242V36.3646H15.2899V36.8503H13.4242V38.5622H15.5004V39.0479H12.8454V34.3086V34.3046ZM16.4312 34.3046H17.01V38.5582H19.1065V39.0438H16.4312V34.3046ZM21.3607 39.1207C20.0211 39.1207 19.2561 38.0968 19.2561 36.6803C19.2561 35.2638 20.0049 34.2236 21.3607 34.2236C22.7165 34.2236 23.4653 35.2516 23.4653 36.6803C23.4653 38.1089 22.7003 39.1207 21.3607 39.1207ZM21.3607 34.7093C20.3246 34.7093 19.8349 35.5997 19.8349 36.6803C19.8349 37.7609 20.3246 38.6391 21.3607 38.6391C22.3968 38.6391 22.8865 37.7568 22.8865 36.6803C22.8865 35.6037 22.3968 34.7093 21.3607 34.7093ZM24.2424 34.3046H25.7883C26.6301 34.3046 27.3546 34.6162 27.3546 35.6442C27.3546 36.6722 26.6301 37.0567 25.7964 37.0567H24.821V39.0398H24.2424V34.3005V34.3046ZM24.821 36.575H25.7439C26.2943 36.575 26.78 36.397 26.78 35.6644C26.78 34.9319 26.2942 34.7902 25.6871 34.7902H24.8251V36.575H24.821ZM30.3738 38.5177H30.3859L31.7216 34.3046H32.709V39.0438H32.1506V34.7457H32.1383L30.7299 39.0438H30.0055L28.6457 34.7457H28.6336V39.0438H28.0911V34.3046H29.0666L30.3738 38.5177ZM33.6236 34.3046H36.226V34.7902H34.2024V36.3646H36.0681V36.8503H34.2024V38.5622H36.2786V39.0479H33.6236V34.3086V34.3046ZM40.0102 38.4327H40.0222V34.3046H40.5687V39.0438H39.7187L37.6425 34.8833H37.6305V39.0438H37.088V34.3046H37.9581L40.0141 38.4327H40.0102ZM42.398 34.7902H40.9694V34.3046H44.3649V34.7902H42.9727V39.0438H42.394V34.7902H42.398Z" fill="white"/>
<path d="M46.9319 34.3038H49.4248V34.7895H47.5066V36.3639H49.3116V36.8495H47.5066V39.0472H46.9277V34.3079L46.9319 34.3038ZM53.6582 37.6428C53.6582 38.5048 53.0025 39.1241 51.9138 39.1241C50.8251 39.1241 50.1736 38.5089 50.1736 37.6428V34.3038H50.7524V37.5821C50.7524 38.2741 51.1491 38.6384 51.9059 38.6384C52.6627 38.6384 53.0795 38.2053 53.0795 37.5821V34.3038H53.6582V37.6428ZM57.5759 38.432H57.588V34.3038H58.1304V39.0431H57.2805L55.2043 34.8826H55.1921V39.0431H54.6498V34.3038H55.5199L57.5759 38.432ZM59.3323 34.3038H60.6801C62.1452 34.3038 63.0033 35.2145 63.0033 36.6715C63.0033 38.1284 62.1411 39.0391 60.6801 39.0391H59.3323V34.2998V34.3038ZM59.9111 38.5574H60.5951C61.8012 38.5574 62.4286 37.8532 62.4286 36.6715C62.4286 35.4897 61.8052 34.7855 60.5951 34.7855H59.9111V38.5534V38.5574Z" fill="white"/>
<path d="M5.65795 14.6998C5.65795 14.4651 5.49192 14.2911 5.25718 14.2911C5.02245 14.2911 4.84851 14.4651 4.84851 14.6998C4.84851 14.9346 5.02245 15.1086 5.25718 15.1086C5.49192 15.1086 5.65795 14.9346 5.65795 14.6998ZM6.34585 15.1086C6.58059 15.1086 6.74662 14.9346 6.74662 14.6998C6.74662 14.4651 6.58059 14.2911 6.34585 14.2911C6.11112 14.2911 5.93718 14.4651 5.93718 14.6998C5.93718 14.9346 6.11112 15.1086 6.34585 15.1086ZM26.0032 9.87559H26.7073V12.0934C26.7073 13.0931 26.1488 13.5909 25.0277 13.5909C24.9913 13.5909 24.9588 13.5909 24.9305 13.5869C24.4206 13.5666 23.9713 13.4007 23.7407 13.0081C23.4816 13.4007 22.992 13.5909 22.2797 13.5909C21.7212 13.5909 21.1829 13.4533 20.9319 12.9231C20.6284 13.3683 20.1589 13.6273 19.568 13.6273C19.1066 13.6273 18.6291 13.4695 18.1151 13.0284C17.9856 13.3319 17.7509 13.595 17.1681 13.595H7.81494C7.77851 13.595 7.74209 13.595 7.71376 13.5909C7.20786 13.5707 6.75875 13.4047 6.52806 13.0122C6.26499 13.4047 5.77918 13.595 5.06688 13.595H4.85662C4.1605 13.595 3.60595 13.4978 3.35097 13.0567C3.11624 13.1619 2.72372 13.2995 2.19353 13.2995C1.35172 13.2995 0.453125 12.8907 0.453125 11.6402C0.453125 10.5272 1.17352 9.88369 2.36744 9.88369H3.94185V12.3444C3.94185 12.8746 4.21294 13.0122 4.88072 13.0122H4.94969C5.69033 13.0122 6.02611 12.7086 6.02611 11.968V9.87964H6.73852V12.1744C6.73852 12.741 7.09461 13.0081 7.6936 13.0081H16.9535C17.3097 13.0081 17.6254 12.745 17.6497 12.2877C17.7266 10.6972 18.3457 9.82702 19.5356 9.82702C20.8752 9.82702 21.2841 10.8024 21.2841 11.6806C21.2841 11.9073 21.2558 12.1137 21.2072 12.316C21.2517 12.83 21.6321 13.0122 22.1623 13.0122C22.9029 13.0122 23.2389 12.7086 23.2389 11.968V9.87964H23.9511V12.1744C23.9511 12.741 24.3072 13.0081 24.9062 13.0081C25.6347 13.0081 25.9951 12.7046 25.9951 11.9639V9.87559H26.0032ZM3.23359 10.4503H2.45241C1.79272 10.4503 1.15743 10.6324 1.15743 11.6321C1.15743 12.5467 1.84544 12.6843 2.2623 12.6843C2.67917 12.6843 3.01919 12.5993 3.23774 12.4658V10.4503H3.23359ZM20.5677 11.709C20.5677 10.8307 20.1832 10.4301 19.5316 10.4301C18.88 10.4301 18.3864 11.0736 18.3054 12.3929C18.7506 12.8017 19.1066 13.0122 19.5923 13.0122C20.3936 13.0122 20.5677 12.2311 20.5677 11.709ZM1.43251 8.61287C1.43251 8.37813 1.60664 8.2041 1.84138 8.2041C2.07612 8.2041 2.24195 8.37813 2.24195 8.61287C2.24195 8.84761 2.07612 9.02164 1.84138 9.02164C1.60664 9.02164 1.43251 8.84761 1.43251 8.61287ZM2.93005 9.02164C3.16479 9.02164 3.33082 8.84761 3.33082 8.61287C3.33082 8.37813 3.16479 8.2041 2.93005 8.2041C2.69531 8.2041 2.52138 8.37813 2.52138 8.61287C2.52138 8.84761 2.69531 9.02164 2.93005 9.02164ZM23.6031 9.02164C23.8379 9.02164 24.0037 8.84761 24.0037 8.61287C24.0037 8.37813 23.8379 8.2041 23.6031 8.2041C23.3684 8.2041 23.1942 8.37813 23.1942 8.61287C23.1942 8.84761 23.3684 9.02164 23.6031 9.02164ZM26.8286 8.2041C26.5939 8.2041 26.4199 8.37813 26.4199 8.61287C26.4199 8.84761 26.5939 9.02164 26.8286 9.02164C27.0634 9.02164 27.2294 8.84761 27.2294 8.61287C27.2294 8.37813 27.0634 8.2041 26.8286 8.2041ZM25.7441 9.02164C25.9788 9.02164 26.1447 8.84761 26.1447 8.61287C26.1447 8.37813 25.9788 8.2041 25.7441 8.2041C25.5094 8.2041 25.3352 8.37813 25.3352 8.61287C25.3352 8.84761 25.5094 9.02164 25.7441 9.02164Z" fill="white"/>
<path d="M35.8174 13.247C35.8174 14.4491 34.9472 15.1006 32.782 15.1006C30.9284 15.1006 29.9043 14.4571 29.9043 12.9516C29.9043 12.4983 30.0622 11.8467 30.3738 11.2558L31.0173 11.4906C30.7663 12.0734 30.645 12.5428 30.645 13.0042C30.645 14.0484 31.3937 14.5259 32.8547 14.5259C34.3157 14.5259 35.0807 14.0808 35.0807 13.4292C34.8985 13.498 34.6557 13.587 34.2025 13.587C32.9235 13.587 32.2719 12.8302 32.2719 11.8143C32.2719 10.6568 33.0369 9.82312 34.1337 9.82312C35.2305 9.82312 35.8213 10.4747 35.8213 11.527V13.247H35.8174ZM35.0888 11.7779C35.0888 10.9847 34.8622 10.4221 34.073 10.4221C33.7614 10.4221 33.0126 10.5799 33.0126 11.7779C33.0126 12.7614 33.741 13.0042 34.2712 13.0042C34.68 13.0042 34.9471 12.8909 35.0888 12.8221V11.7779ZM40.4877 11.527V13.2309C40.4877 14.2993 40.0709 15.1087 38.703 15.1087C38.3549 15.1087 37.93 15.048 37.59 14.9711L37.6951 14.4126C37.9663 14.4733 38.3306 14.5502 38.6706 14.5502C39.3586 14.5502 39.7553 14.2548 39.7553 13.4292C39.5732 13.498 39.3302 13.587 38.8769 13.587C37.6061 13.587 36.9383 12.8302 36.9383 11.8143C36.9383 10.6568 37.7194 9.82312 38.8081 9.82312C39.8968 9.82312 40.4877 10.4747 40.4877 11.527ZM39.7673 11.7779C39.7673 10.9847 39.5408 10.4221 38.7516 10.4221C38.44 10.4221 37.6912 10.5799 37.6912 11.7779C37.6912 12.7614 38.4196 13.0042 38.9498 13.0042C39.3586 13.0042 39.6297 12.8909 39.7673 12.8221V11.7779ZM63.0063 11.786V12.0895C63.0063 13.0973 62.5733 13.587 61.4684 13.587H56.9477C56.9154 13.587 56.887 13.587 56.8628 13.583C56.365 13.5587 55.9237 13.3927 55.697 13.0042C55.438 13.3968 54.9483 13.587 54.236 13.587H45.8219C45.7774 13.587 45.737 13.587 45.7006 13.5789C45.3525 13.5465 44.9073 13.3887 44.6807 13.0366C44.4459 13.3927 44.0372 13.583 43.3491 13.583H41.4955V13.0002H43.1831C43.9481 13.0002 44.1748 12.6885 44.1748 11.956V11.7577C44.1748 10.9563 43.8792 10.4545 42.661 10.4545H42.0338V9.87168H42.9039C44.2961 9.87168 44.887 10.5516 44.887 11.5917V12.1664C44.887 12.6076 45.2108 13.0002 45.7045 13.0002H54.1187C54.8593 13.0002 55.1992 12.6966 55.1992 11.956V9.86763H55.9116V12.1624C55.9116 12.729 56.2677 12.9961 56.8667 12.9961H57.8137V9.86763H58.5261V10.4585C59.3962 10.0133 60.1449 9.81502 60.8815 9.81502C62.5489 9.81502 63.0023 10.8309 63.0023 11.782M62.2899 11.9641C62.2899 11.0858 61.8893 10.4181 60.8046 10.4181C60.0033 10.4181 59.2222 10.6892 58.5261 11.0939V13.0002H61.2985C62.0634 13.0002 62.2899 12.6966 62.2899 11.9641ZM34.243 8.60896C34.243 8.37422 34.4169 8.2002 34.6516 8.2002C34.8864 8.2002 35.0524 8.37422 35.0524 8.60896C35.0524 8.8437 34.8864 9.01773 34.6516 9.01773C34.4169 9.01773 34.243 8.8437 34.243 8.60896ZM33.563 9.01773C33.7977 9.01773 33.9637 8.8437 33.9637 8.60896C33.9637 8.37422 33.7977 8.2002 33.563 8.2002C33.3282 8.2002 33.1543 8.37422 33.1543 8.60896C33.1543 8.8437 33.3282 9.01773 33.563 9.01773ZM55.5474 9.01773C55.7822 9.01773 55.948 8.8437 55.948 8.60896C55.948 8.37422 55.7822 8.2002 55.5474 8.2002C55.3127 8.2002 55.1386 8.37422 55.1386 8.60896C55.1386 8.8437 55.3127 9.01773 55.5474 9.01773Z" fill="white"/>
<path d="M71.7688 38.2623C73.7438 36.263 82.3805 27.3268 84.6267 21.6325C84.6267 21.6325 75.7027 31.884 70.5102 34.8587C68.9722 30.0668 68.2558 24.8823 68.4299 19.7262C70.4373 21.0011 71.6596 24.0243 72.728 25.3154C73.0356 23.223 73.0558 21.2237 72.813 20.1431C74.4319 21.2156 75.8849 22.4297 77.1193 23.7856C76.9857 21.3127 76.1115 19.0018 74.6261 17.0268C77.5199 17.0996 80.3408 17.5084 82.9877 18.253C80.7091 15.7964 77.5281 14.0642 73.9301 13.1981C74.1689 13.0969 74.4197 12.9836 74.6949 12.8541C77.5482 11.5266 79.7013 10.1263 80.9681 9.21973C82.8298 11.9759 84.5539 14.8372 85.586 17.132C86.0838 18.1478 86.363 19.2932 86.363 20.5033C86.363 21.6041 86.1323 22.6523 85.7114 23.5994C83.4329 28.5855 77.528 35.7167 72.5014 39.9055C72.2423 39.3672 71.9996 38.8209 71.7648 38.2664L71.7688 38.2623Z" fill="white"/>
<path d="M78.6981 12.8292C77.5002 12.8292 76.371 13.1045 75.3592 13.5901C78.3662 14.5372 81.0131 16.1196 82.9882 18.2444C80.3413 17.4957 77.5204 17.0869 74.6266 17.014C76.1119 18.9931 76.9862 21.3 77.1198 23.7769C75.8894 22.4211 74.4324 21.2069 72.8135 20.1385C73.0563 21.215 73.0361 23.2143 72.7285 25.3067C74.0924 26.9984 76.1647 28.0952 78.4918 28.1559C81.851 24.817 84.6272 21.6278 84.6272 21.6278C83.8987 23.4774 82.4943 25.6669 80.8674 27.8484C84.0444 26.9135 86.3676 23.9752 86.3676 20.4946C86.3676 16.2613 82.9355 12.8252 78.6981 12.8252" fill="white"/>
<path d="M70.8262 7.03039C71.672 4.71135 72.7444 2.4773 74.0598 0.380859C74.5212 0.842239 75.0514 1.42908 75.6342 2.11306C74.2298 3.86954 72.6191 5.52484 70.8262 7.03444" fill="white"/>
<path d="M80.2072 8.10675C77.5967 8.50742 74.367 9.35733 73.1934 9.67706C74.6989 7.56038 75.6905 5.23729 76.3017 2.91016C77.5118 4.39143 78.8756 6.20052 80.2072 8.10675Z" fill="white"/>
</svg>
