<svg id="SASO-logo" xmlns="http://www.w3.org/2000/svg" width="57.083" height="54.875" viewBox="0 0 57.083 54.875">
  <g id="XMLID_26_" transform="translate(0 0.006)">
    <path id="Path_1303" data-name="Path 1303" d="M268.748,9.774a67.637,67.637,0,0,0-6.255,8.333c-.635.986-1.231,1.989-1.8,3s-1.159,2.016-1.7,3.052a68.286,68.286,0,0,0-4.094,9.592A71.278,71.278,0,0,0,251.67,47.7l18.443-10.628a56.928,56.928,0,0,1,3.8-8.311h.011v-.011a56.987,56.987,0,0,1,5.292-7.431V.01a71.329,71.329,0,0,0-10.472,9.764" transform="translate(-251.67 -0.01)" fill="#fff"/>
  </g>
  <path id="XMLID_25_" d="M304.67,21.317a56.317,56.317,0,0,1,5.3,7.431l.006.011h.006a57.518,57.518,0,0,1,3.8,8.311L332.231,47.7a70.884,70.884,0,0,0-3.225-13.948,67,67,0,0,0-4.094-9.592q-.819-1.562-1.7-3.052c-.574-1.008-1.17-2.011-1.8-3a68.2,68.2,0,0,0-6.255-8.333A70.887,70.887,0,0,0,304.67,0Z" transform="translate(-275.148)" fill="#fff"/>
  <path id="XMLID_24_" d="M271.987,69.5a57.489,57.489,0,0,0,9.1.858h.017a56.339,56.339,0,0,0,9.09-.88L308.644,80.1a71.566,71.566,0,0,1-13.691,4.217,67.888,67.888,0,0,1-10.344,1.27c-1.17.056-2.334.072-3.5.061-1.153.011-2.328,0-3.5-.05a69.16,69.16,0,0,1-10.344-1.22,71.664,71.664,0,0,1-13.719-4.172Z" transform="translate(-252.503 -30.779)" fill="#fff"/>
  <g id="XMLID_13_" transform="translate(14.454 42.804)">
    <path id="XMLID_22_" d="M280,84.663a3.713,3.713,0,0,1-2.378-1.276l.874-.964a3.287,3.287,0,0,0,1.632.9c.73.117,1.259-.162,1.348-.707a.763.763,0,0,0-.123-.563c-.384-.546-1.693-.947-2.345-1.86a1.951,1.951,0,0,1-.357-1.51,2.334,2.334,0,0,1,2.958-1.782,3.468,3.468,0,0,1,2.217,1.209l-.891.9a2.907,2.907,0,0,0-1.437-.819c-.657-.111-1.181.128-1.259.6a.559.559,0,0,0,.117.479c.3.412,1.777,1.008,2.423,1.911a1.92,1.92,0,0,1,.334,1.565A2.465,2.465,0,0,1,280,84.663Z" transform="translate(-277.62 -76.846)" fill="#fff"/>
    <path id="XMLID_19_" d="M294.468,86.156l-.462-1.61-2.718-.173-.652,1.537-1.615-.095,3.2-7.386,1.6.1,2.289,7.726Zm-1.554-5.966-1.147,2.974,1.9.117Z" transform="translate(-282.67 -77.548)" fill="#fff"/>
    <path id="XMLID_17_" d="M306.135,86.229a3.716,3.716,0,0,1-2.585-.78l.663-1.114a3.319,3.319,0,0,0,1.788.551c.735-.028,1.2-.418,1.175-.969a.794.794,0,0,0-.234-.524c-.49-.457-1.849-.59-2.674-1.348a1.953,1.953,0,0,1-.652-1.409,2.335,2.335,0,0,1,2.534-2.339,3.5,3.5,0,0,1,2.412.73l-.685,1.064a2.955,2.955,0,0,0-1.582-.512c-.668.022-1.136.362-1.108.836a.567.567,0,0,0,.2.451c.379.345,1.944.629,2.752,1.381a1.9,1.9,0,0,1,.652,1.465A2.459,2.459,0,0,1,306.135,86.229Z" transform="translate(-289.107 -77.487)" fill="#fff"/>
    <path id="XMLID_14_" d="M319.2,84.994c-2.172.329-3.91-1.064-4.261-3.431a3.7,3.7,0,1,1,7.3-1.1C322.594,82.883,321.324,84.671,319.2,84.994Zm-1.058-6.539c-1.2.184-1.816,1.409-1.582,2.963.234,1.571,1.281,2.423,2.462,2.239,1.548-.234,1.788-1.766,1.61-2.969C320.4,79.212,319.4,78.27,318.137,78.454Z" transform="translate(-294.125 -76.959)" fill="#fff"/>
  </g>
</svg>
