<?xml version="1.0" encoding="UTF-8"?>
<svg id="Layer_1" data-name="Layer 1" xmlns="http://www.w3.org/2000/svg" viewBox="0 0 537.04 272.35">
  <defs>
    <style>
      .cls-1 {
        fill: #fff;
      }
    </style>
  </defs>
  <path class="cls-1" d="M201.19,111.15c-1.13,0-2.05.92-2.05,2.05v32.89c0,1.13.92,2.05,2.05,2.05s2.05-.92,2.05-2.05v-32.89c0-1.13-.92-2.05-2.05-2.05"/>
  <path class="cls-1" d="M236.87,156.01c-1.13,0-2.05.92-2.05,2.05v48.87c0,1.13.92,2.05,2.05,2.05s2.05-.92,2.05-2.05v-48.87c0-1.13-.92-2.05-2.05-2.05"/>
  <path class="cls-1" d="M224.98,166.91c-1.13,0-2.05.92-2.05,2.05v42.87c0,1.13.92,2.05,2.05,2.05s2.05-.92,2.05-2.05v-42.87c0-1.13-.92-2.05-2.05-2.05"/>
  <path class="cls-1" d="M213.08,170.97c-1.13,0-2.05.92-2.05,2.05v53.78c0,1.13.92,2.05,2.05,2.05s2.05-.92,2.05-2.05v-53.78c0-1.13-.92-2.05-2.05-2.05"/>
  <path class="cls-1" d="M201.19,167.36c-1.13,0-2.05.92-2.05,2.05v55.07c0,1.13.92,2.05,2.05,2.05s2.05-.92,2.05-2.05v-55.07c0-1.13-.92-2.05-2.05-2.05"/>
  <path class="cls-1" d="M153.61,137.12c-1.13,0-2.05.92-2.05,2.05v39.11c0,1.13.92,2.05,2.05,2.05s2.05-.92,2.05-2.05v-39.11c0-1.13-.92-2.05-2.05-2.05"/>
  <path class="cls-1" d="M165.51,140.46c-1.13,0-2.05.92-2.05,2.05v35.77c0,1.13.92,2.05,2.05,2.05s2.05-.92,2.05-2.05v-35.77c0-1.13-.92-2.05-2.05-2.05"/>
  <path class="cls-1" d="M165.51,200.11c-1.13,0-2.05.92-2.05,2.05v18.71c0,1.13.92,2.05,2.05,2.05s2.05-.92,2.05-2.05v-18.71c0-1.13-.92-2.05-2.05-2.05"/>
  <path class="cls-1" d="M177.4,194.44c1.13,0,2.05-.92,2.05-2.05v-49.88c0-1.13-.92-2.05-2.05-2.05s-2.05.92-2.05,2.05v49.88c0,1.13.92,2.05,2.05,2.05"/>
  <path class="cls-1" d="M177.37,202.17c-1.13,0-2.05.92-2.05,2.05l.06,25.52c0,1.13.91,2.05,2.02,2.05s2.08-.92,2.08-2.05l-.05-25.52c0-1.13-.92-2.05-2.05-2.05"/>
  <path class="cls-1" d="M94.14,78.47c-1.13,0-2.05.92-2.05,2.05v23.9c0,1.13.92,2.05,2.05,2.05s2.05-.92,2.05-2.05v-23.9c0-1.13-.92-2.05-2.05-2.05"/>
  <path class="cls-1" d="M82.25,78.47c-1.13,0-2.05.92-2.05,2.05v11.54c0,1.13.92,2.05,2.05,2.05s2.05-.92,2.05-2.05v-11.54c0-1.13-.92-2.05-2.05-2.05"/>
  <path class="cls-1" d="M106.04,78.47c-1.13,0-2.05.92-2.05,2.05v42.64c0,1.13.92,2.05,2.05,2.05s2.05-.92,2.05-2.05v-42.64c0-1.13-.92-2.05-2.05-2.05"/>
  <path class="cls-1" d="M117.93,49.17c-1.13,0-2.05.92-2.05,2.05v91.12c0,1.13.92,2.05,2.05,2.05s2.05-.92,2.05-2.05V51.22c0-1.13-.92-2.05-2.05-2.05"/>
  <path class="cls-1" d="M129.83,41.92c-1.13,0-2.05.92-2.05,2.05v118.09c0,1.13.92,2.05,2.05,2.05s2.05-.92,2.05-2.05V43.97c0-1.13-.92-2.05-2.05-2.05"/>
  <path class="cls-1" d="M141.72,38.6c-1.13,0-2.05.92-2.05,2.05v141.76c0,1.13.92,2.05,2.05,2.05s2.05-.92,2.05-2.05V40.65c0-1.13-.92-2.05-2.05-2.05"/>
  <path class="cls-1" d="M153.61,50.93c-1.13,0-2.05.92-2.05,2.05v68.66c0,1.13.92,2.05,2.05,2.05s2.05-.92,2.05-2.05V52.98c0-1.13-.92-2.05-2.05-2.05"/>
  <path class="cls-1" d="M165.51,63.84c-1.13,0-2.05.92-2.05,2.05v53.83c0,1.13.92,2.05,2.05,2.05s2.05-.92,2.05-2.05v-53.83c0-1.13-.92-2.05-2.05-2.05"/>
  <path class="cls-1" d="M177.4,128.76c1.13,0,2.05-.92,2.05-2.05v-53.26c0-1.13-.92-2.05-2.05-2.05s-2.05.92-2.05,2.05v53.26c0,1.13.92,2.05,2.05,2.05"/>
  <path class="cls-1" d="M201.19,86.06c-1.13,0-2.05.92-2.05,2.05v5.74c0,1.13.92,2.05,2.05,2.05s2.05-.92,2.05-2.05v-5.74c0-1.13-.92-2.05-2.05-2.05"/>
  <path class="cls-1" d="M213.08,86.06c-1.13,0-2.05.92-2.05,2.05v51.54c0,1.13.92,2.05,2.05,2.05s2.05-.92,2.05-2.05v-51.54c0-1.13-.92-2.05-2.05-2.05"/>
  <path class="cls-1" d="M224.98,98.32c-1.13,0-2.05.92-2.05,2.05v40.18c0,1.13.92,2.05,2.05,2.05s2.05-.92,2.05-2.05v-40.18c0-1.13-.92-2.05-2.05-2.05"/>
  <path class="cls-1" d="M236.87,117.54c-1.13,0-2.05.92-2.05,2.05v23.9c0,1.13.92,2.05,2.05,2.05s2.05-.92,2.05-2.05v-23.9c0-1.13-.92-2.05-2.05-2.05"/>
  <path class="cls-1" d="M248.76,136.77c-1.13,0-2.05.92-2.05,2.05v65.16c0,1.13.92,2.05,2.05,2.05s2.05-.92,2.05-2.05v-65.16c0-1.13-.92-2.05-2.05-2.05"/>
  <path class="cls-1" d="M260.66,146.18c-1.13,0-2.05.92-2.05,2.05v51.45c0,1.13.92,2.05,2.05,2.05s2.05-.92,2.05-2.05v-51.45c0-1.13-.92-2.05-2.05-2.05"/>
  <path class="cls-1" d="M272.55,153.23c-1.13,0-2.05.92-2.05,2.05v38.05c0,1.13.92,2.05,2.05,2.05s2.05-.92,2.05-2.05v-38.05c0-1.13-.92-2.05-2.05-2.05"/>
  <path class="cls-1" d="M284.44,154.86c-1.13,0-2.05.92-2.05,2.05v33.03c0,1.13.92,2.05,2.05,2.05s2.05-.92,2.05-2.05v-33.03c0-1.13-.92-2.05-2.05-2.05"/>
  <path class="cls-1" d="M296.34,155.83c-1.13,0-2.05.92-2.05,2.05v17.04c0,1.13.92,2.05,2.05,2.05s2.05-.92,2.05-2.05v-17.04c0-1.13-.92-2.05-2.05-2.05"/>
  <path class="cls-1" d="M106.04,52.55c-1.13,0-2.05.92-2.05,2.05v11.29c0,1.13.92,2.05,2.05,2.05s2.05-.92,2.05-2.05v-11.29c0-1.13-.92-2.05-2.05-2.05"/>
  <path class="cls-1" d="M242.49,153.23c-.42-.72-1.17-1.09-1.99-1.07-6.01.39-10.62-1.03-15.1-2.39-4.96-1.51-9.65-2.93-15.22-1.32-6.04,1.76-10.55,6.39-11.77,12.08-.08.39.05.77.34,1.05.31.29.76.39,1.17.28,9.13-2.69,13.89-1.05,15.92.16.82.49,1.34,1,1.62,1.35-1.46-.22-2.98-.31-4.52-.27-.04-.01-.11,0-.11-.02-.1,0-.2.01-.29.02-.06,0-.12.01-.19.02-.49.02-.97.06-1.45.11-.27.03-.54.06-.81.1-.52.07-1.04.17-1.55.28l-.57.12s-.04.01-.07.02c-6.94,1.42-12.86,5.63-16.56,11.4v-53.46c1.73-1.78,5.84-6.02,5.91-6.12.59.16,1.18.26,1.79.26,1.09,0,2.19-.25,3.21-.76,2.55-1.26,3.71-3.84,4.83-6.34.71-1.58,1.44-3.21,2.51-4.51.27-.33.34-.75.19-1.14-.14-.38-.47-.64-.87-.71-5.36-.85-9.46-.59-12.21.76-2.42,1.19-3.18,2.93-3.04,5.42.02.39.25.73.61.9.4.18.86.14,1.2-.14,1.25-1.02,3.29-.94,4.28-.65-1.96.92-3.69,2.39-4.41,3.04-.33.27-.67.61-1.01,1.01-.15.16-.28.32-.37.45,0,0,0,0-.02.02l-2.6,2.54v-27.61c0-1.13-.92-2.05-2.05-2.05s-2.05.92-2.05,2.05v60.93c-3.18-4.94-7.98-8.74-13.65-10.62-3.4-1.61-7.42-1.85-11.02-.79,1.21-2.33,2.87-3.21,9.44-2.54.84.14,1.61-.74,1.3-1.55-2.25-7.74-11.22-7.32-16.82-4.17-2.79,1.23-5.67,2.5-9.56,2.73-1.15.02-1.86,1.51-1.07,2.38,8.12,9.64,20.21,18.16,27.75,8.33,7.98,3.22,13.63,11.03,13.63,20.15v47.32c-3.37-5.24-8.57-9.18-14.7-10.92-2.74-1.31-11.33-1.54-14.57-1.03,2.5-1.81,6.76-4.06,11.81-3.31.68.1,1.36-.19,1.75-.77.38-.55.4-1.25.08-1.82-2.85-4.96-8.79-7.77-14.86-6.96-6.23.82-13.53,5.05-21.68,12.57-.62.57-.88,1.39-.69,2.2.19.82.79,1.46,1.62,1.71,3.32,1,6.42,2.95,9.42,4.84,9.88,7.42,21.36,7.63,26.67-3.3,8.78,2.8,15.16,11.02,15.16,20.71v.28c0,1.13.92,2.05,2.05,2.05s2.05-.92,2.05-2.05v-35.42c0-7.22,3.55-13.61,8.98-17.56,2.64,4.44,7.26,6.9,12.48,6.9,1.64,0,3.35-.24,5.07-.75,8.15-2.37,16.87-10.2,24.55-22.04.47-.72.49-1.64.06-2.38"/>
  <path class="cls-1" d="M396.9,123.01c-3.12,0-4.71-2.45-4.71-7.29s1.63-7.2,4.89-7.2c3.08,0,4.62,2.4,4.62,7.2s-1.59,7.29-4.8,7.29M397.27,105.44c-3.12,0-5.57,1-7.29,2.94-1.72,1.95-2.58,4.53-2.58,7.65s.86,5.48,2.54,7.33c1.72,1.81,3.98,2.72,6.84,2.72s5.34-.95,7.11-2.85c1.77-1.95,2.67-4.44,2.67-7.52,0-6.47-3.49-10.28-9.28-10.28"/>
  <path class="cls-1" d="M393.55,102.41c1.58,0,2.81-1.22,2.81-2.72,0-1.58-1.31-2.76-2.81-2.76s-2.76,1.22-2.76,2.72c0,1.63,1.31,2.76,2.76,2.76"/>
  <path class="cls-1" d="M400.8,102.41c1.58,0,2.76-1.22,2.76-2.72,0-1.58-1.31-2.76-2.76-2.76s-2.81,1.22-2.81,2.72c0,1.63,1.31,2.76,2.81,2.76"/>
  <path class="cls-1" d="M414.11,114.22l.05,11.37c0,4.53-2.08,7.43-6.25,8.74l.95,1.77c6.47-1.81,9.74-5.8,9.74-11.91v-17.25l-5.39,1.22.91,6.07Z"/>
  <path class="cls-1" d="M440.23,117.08c-.05-2.94-.91-5.34-2.58-7.24-1.68-1.95-3.89-2.9-6.66-2.9-.77.14-1.27.18-1.4.18.13,1.22.23,2.08.23,2.54.5-.23,1-.32,1.4-.32,1.31,0,2.35.59,3.17,1.72.86,1.31,1.31,3.03,1.31,5.25v4.75l-.13.95h-11.46l-1.18,4.07h17.97l-.68-4.12v-4.89Z"/>
  <path class="cls-1" d="M465.31,130.61c-1.58,0-2.76,1.22-2.76,2.72,0,1.63,1.18,2.76,2.76,2.76,1.49,0,2.72-1.31,2.72-2.72,0-1.59-1.22-2.76-2.72-2.76"/>
  <path class="cls-1" d="M485.86,122.01c-2.58,0-3.89-1.9-3.89-5.71,0-4.75,1.9-7.11,5.7-7.11.86,0,1.68.09,2.36.32l.36,2.63c.23,1.49.32,2.76.32,3.8,0,4.03-1.63,6.07-4.84,6.07M488.67,106.07c-3.49,0-6.2,1-8.2,3.03-1.99,2.04-2.99,4.71-2.99,8.06,0,1.68.45,3.3,1.36,4.84h-7.88c-2.22,0-3.31-1.18-3.31-3.58v-11.5l-5.39,1.22.91,5.89v4.39c0,2.4-1.09,3.58-3.31,3.58h-5.39c-2.17,0-3.26-1.22-3.26-3.71v-26.64l-5.3,1.22.77,5.24v21.21c0,4.21,2.58,6.75,6.7,6.75h7.65c1.72,0,3.17-.45,4.35-1.36,1.13.91,2.63,1.36,4.44,1.36h14.76c6.75,0,10.14-2.67,10.14-7.97v-6.29l.41-4.71c-2.13-.68-4.3-1.04-6.47-1.04"/>
  <path class="cls-1" d="M364.42,219.67h-6.29c0-4.39,1.81-6.61,5.48-6.7,1.77-.04,3.35.5,4.75,1.63.41-1.27.68-2.31.86-3.17-2.4-1.63-4.66-2.44-6.79-2.44-5.89,0-8.83,3.58-8.83,10.69h-4.26v4.08h22.73l-3.53-4.57-4.12.5Z"/>
  <polygon class="cls-1" points="378.41 195.52 378.41 223.74 382.89 223.74 382.89 195.48 383.39 189.46 377.73 189.91 378.41 195.52"/>
  <path class="cls-1" d="M427.08,200.06c1.58,0,2.81-1.22,2.81-2.72,0-1.58-1.22-2.76-2.81-2.76-1.45,0-2.72,1.18-2.72,2.76s1.27,2.72,2.72,2.72"/>
  <path class="cls-1" d="M453.16,200.06c1.58,0,2.81-1.22,2.81-2.72,0-1.58-1.22-2.76-2.81-2.76-1.45,0-2.72,1.18-2.72,2.76s1.27,2.72,2.72,2.72"/>
  <path class="cls-1" d="M434.51,219.67h-20.47c.68-1.9,2.22-4.03,4.53-6.43,2.94-3.08,5.8-4.62,8.51-4.62,4.93,0,7.43,1.72,7.43,5.16v5.89ZM479.55,196.52v19.43c0,2.49-1.09,3.71-3.3,3.71h-9.55c-1.31-3.62-3.22-7.02-5.61-10.14-3.12-3.98-6.25-5.98-9.33-5.98-3.98,0-7.06,3.58-7.56,9.51l4.71-.54c-.41-1.22-.63-2.22-.63-3.03,0-1.68.68-2.54,2.04-2.54,1.86,0,4.08,1.68,6.57,5.07,1.95,2.58,3.44,5.16,4.53,7.65h-22.36v-6.61c0-2.58-1.04-4.57-3.08-6.02-2.04-1.49-4.66-2.22-7.88-2.22-5.84,0-11.18,3.8-16.12,11.46v-9.92l-4.44,1-.09,8.74c0,2.4-1.09,3.58-3.26,3.58h-5.43c-2.22,0-3.31-1.27-3.31-3.76v-11.32l-5.39,1.22.91,6.07.05,11.37c0,4.53-2.08,7.43-6.29,8.74l1,1.77c5.93-1.63,9.15-5.07,9.69-10.32.68.23,1.45.32,2.26.32h79.68c4.17,0,6.75-2.54,6.75-6.75v-27.72l-5.3,1.27.77,5.98Z"/>
  <polygon class="cls-1" points="489.78 195.52 489.78 223.74 494.27 223.74 494.27 195.48 494.76 189.46 489.1 189.91 489.78 195.52"/>
  <path class="cls-1" d="M324.33,151.58c1.58,0,2.72-1.31,2.72-2.72,0-1.68-1.22-2.85-2.72-2.85-1.58,0-2.76,1.31-2.76,2.76,0,1.59,1.18,2.81,2.76,2.81"/>
  <path class="cls-1" d="M331.58,151.58c1.58,0,2.72-1.31,2.72-2.72,0-1.68-1.27-2.85-2.72-2.85-1.58,0-2.81,1.31-2.81,2.76,0,1.59,1.22,2.81,2.81,2.81"/>
  <path class="cls-1" d="M330.45,171.05c-1.27.36-2.58.54-3.94.54-2.76,0-4.17-1.99-4.21-5.93,0-1.68.54-3.08,1.68-4.21,1.13-1.13,2.49-1.68,4.03-1.72.77,0,1.58-.05,2.44-.09v11.41ZM348.92,164.21v4.48c0,2.4-1.09,3.58-3.3,3.58h-7.42c-2.22,0-3.31-1.22-3.31-3.67v-15.17c-1.68.32-3.49.72-5.43,1.22l.27,2.04h-1.45c-3.17,0-5.75.91-7.7,2.72-1.95,1.77-2.9,4.12-2.9,7.06,0,5.43,2.94,8.87,7.79,8.87,2.31-.05,4.26-.45,5.84-1.31,1.45,1.54,3.35,2.31,5.75,2.31h9.64c4.12,0,6.7-2.54,6.7-6.57v-12.54l-5.25,1.18.77,5.8Z"/>
  <path class="cls-1" d="M349.37,180.87c-1.49,0-2.81,1.22-2.81,2.72,0,1.63,1.31,2.76,2.81,2.76,1.58,0,2.76-1.31,2.76-2.72,0-1.59-1.31-2.76-2.76-2.76"/>
  <path class="cls-1" d="M342.12,180.87c-1.45,0-2.76,1.22-2.76,2.72,0,1.63,1.31,2.76,2.76,2.76,1.58,0,2.81-1.31,2.81-2.72,0-1.59-1.31-2.76-2.81-2.76"/>
  <path class="cls-1" d="M375.54,167.33c-.05-2.94-.91-5.34-2.58-7.24-1.68-1.95-3.89-2.9-6.66-2.9-.77.14-1.27.18-1.4.18.14,1.22.23,2.08.23,2.54.5-.23,1-.32,1.4-.32,1.31,0,2.35.59,3.17,1.72.86,1.31,1.31,3.03,1.31,5.25v4.75l-.13.95h-11.46l-1.18,4.07h17.98l-.68-4.12v-4.89Z"/>
  <path class="cls-1" d="M411.39,164.21c.14-.86.77-1.63,1.86-2.4,1.31-.82,2.94-1.22,4.89-1.22s3.62.41,4.93,1.22c1.04.68,1.63,1.49,1.77,2.4l-6.7,6.38c-3.03-2.81-5.25-4.93-6.75-6.38M393.19,172.27h-3.8c-2.81,0-4.21-1.81-4.21-5.39,0-4.71,2.13-7.61,5.71-7.61h2.31v13ZM480.21,149.12v19.43c0,2.49-1.09,3.71-3.3,3.71h-7.51c-2.17,0-3.26-1.18-3.26-3.53v-11.55l-5.39,1.22.86,5.89v4.44c0,2.4-1.09,3.58-3.22,3.58-1.49,0-2.76-.54-3.89-1.68v-11.68l-4.48,1v8.78c0,2.4-1.09,3.58-3.21,3.58-1.49,0-2.81-.5-3.94-1.54v-11.82l-4.44,1-.09,8.74c0,2.4-1.09,3.58-3.26,3.58h-11.14c-.59,0-1.22-.05-1.81-.18,4.62-4.3,7.15-6.66,7.61-7.06,0-2.13-1.09-4.07-3.3-5.75-2.36-1.77-5.12-2.63-8.29-2.63s-5.98.86-8.29,2.58c-2.26,1.72-3.4,3.67-3.4,5.79,3.98,3.8,6.47,6.16,7.52,7.06-.59.14-1.13.18-1.72.18h-14.49v-15.62h-6.61c-3.17,0-5.75,1.04-7.7,3.08-1.95,2.04-2.9,4.66-2.9,7.97,0,2.72.86,4.85,2.54,6.43,1.49,1.49,3.49,2.22,5.93,2.22h4.3c-.23,3.98-2.26,6.75-6.16,8.24l.95,1.77c5.57-1.45,8.78-4.8,9.55-10.01h38.48c2.04,0,3.62-.59,4.85-1.72.32-.32.63-.63.86-.95,1.77,1.77,3.8,2.67,6.11,2.67,2.44,0,4.26-.86,5.48-2.58,1.68,1.72,3.67,2.58,6.07,2.58,1.72,0,3.17-.45,4.3-1.36,1.22.91,2.72,1.36,4.53,1.36h9.64c4.17,0,6.75-2.54,6.75-6.75v-27.72l-5.3,1.27.77,5.98Z"/>
  <polygon class="cls-1" points="489.76 142.51 490.44 148.13 490.44 176.34 494.92 176.34 494.92 148.08 495.42 142.06 489.76 142.51"/>
</svg>