<?xml version="1.0" encoding="utf-8"?>
<!-- Generator: Adobe Illustrator 27.1.1, SVG Export Plug-In . SVG Version: 6.00 Build 0)  -->
<svg version="1.1" id="Layer_1" xmlns="http://www.w3.org/2000/svg" xmlns:xlink="http://www.w3.org/1999/xlink" x="0px" y="0px"
	 viewBox="0 0 1374.97 350.44" style="enable-background:new 0 0 1374.97 350.44;" xml:space="preserve">
<style type="text/css">
	.st0{fill:#827E4A;}
	.st1{fill:#FFFFFF;}
</style>
<g>
	<g>
		<g>
			<g>
				<path class="st0" d="M1226.47,276.97h-182.04c-5.9,0-10.73-4.83-10.73-10.73V84.2c0-5.9,4.83-10.73,10.73-10.73h182.04
					c5.9,0,10.73,4.83,10.73,10.73v182.04C1237.2,272.14,1232.38,276.97,1226.47,276.97z"/>
				<path class="st1" d="M1202.42,151.47c-10.84,0-20.76,4.49-27.95,11.68c-2.6,2.63-4.86,5.57-6.65,8.81
					c-0.78-4.02-1.82-7.97-3.04-11.82c-2.06,2.63-3.82,5.13-5.06,7.06c1.99,7.63,3.07,15.67,3.07,23.9
					c0,10.43-1.69,20.43-4.83,29.78c-2.26,6.72-5.23,13.1-8.85,19.04v-48.82c0-9.01,2.26-17.52,6.28-24.98
					c2.64-4.95,6.31-9.65,9.39-12.63c9.69-9.69,23.02-15.7,37.64-15.7c6.03,0,12.03,0.38,17.97,1.08v-6.89
					c-5.96-0.68-11.96-1.05-17.97-1.05c-16.41,0-31.36,6.72-42.27,17.52c-1.99-4.29-4.29-8.41-6.85-12.36
					c13.07-11.72,30.32-18.84,49.12-18.84c4.23,0,8.45,0.17,12.65,0.48v-6.86c-4.21-0.3-8.43-0.47-12.65-0.47
					c-20.26,0-38.86,7.6-53.07,20.05c-1.86-2.46-3.85-4.86-5.91-7.16c-1.65,1.55-3.31,3.17-4.93,4.79c2.06,2.26,4.02,4.66,5.84,7.12
					c-3.31,3.41-6.28,7.12-8.95,11.07c-2.67-3.95-5.64-7.66-8.95-11.07c2.26-3.04,4.69-5.98,7.29-8.74l0.5-0.5
					c16.34-17.69,39.52-27.91,63.52-29.16v-6.83c-23.83,1.07-45.58,10.48-62.37,25.38c-16.79-14.9-38.53-24.31-62.36-25.38v6.83
					c21.86,1.08,41.84,9.7,57.36,23.27c-3.21,3.24-6.18,6.72-8.95,10.37c-14.21-12.46-32.78-20.05-53.07-20.05
					c-4.1,0-8.19,0.16-12.26,0.44v6.85c4.07-0.29,8.16-0.44,12.26-0.44c18.8,0,36.06,7.12,49.12,18.84
					c-2.53,3.95-4.83,8.07-6.85,12.36c-10.9-10.8-25.86-17.52-42.27-17.52c-6.05,0-12.08,0.38-18.07,1.07v6.89
					c5.98-0.72,12.01-1.11,18.07-1.11c14.62,0,27.95,6.01,37.64,15.7c0.57,0.57,1.15,1.18,1.72,1.79
					c-2.03,5.37-3.65,10.94-4.76,16.68c-1.79-3.24-4.05-6.18-6.65-8.81c-7.19-7.19-17.12-11.68-27.95-11.68
					c-7.53,0-15.01,0.64-22.4,1.85v6.94c7.36-1.26,14.86-1.94,22.4-1.94c8.95,0,17.15,3.71,23.13,9.69
					c5.94,5.94,9.66,14.15,9.66,23.09c0,11.14,1.82,21.88,5.2,31.94c3.51,10.43,8.64,20.12,15.16,28.73
					c4.01,4.32,8.69,7.42,13.9,7.42c5.19,0,9.84-3.01,13.88-7.42c6.48-8.61,11.61-18.3,15.13-28.73c3.38-10.06,5.2-20.8,5.2-31.94
					c0-8.95,3.71-17.15,9.69-23.09c5.94-5.98,14.15-9.69,23.09-9.69c7.45,0,14.83,0.63,22.08,1.86v-6.91
					C1217.22,152.09,1209.84,151.47,1202.42,151.47z M1118.39,157.82c-1.11,2.77-2.16,5.81-2.94,8.41
					c3.98,7.43,6.25,15.94,6.25,24.88v48.82c-3.61-5.94-6.58-12.32-8.84-19.04c-3.14-9.35-4.83-19.35-4.83-29.78
					c0-8.71,1.18-17.15,3.44-25.15c2.57-9.82,5.71-16.51,11.04-24.95c3.38,3.65,6.35,7.6,8.95,11.82c-2.9,5.3-5.2,11.01-6.85,16.95
					C1122.98,165.55,1120.89,161.53,1118.39,157.82z M1146.21,169.77c-1.15-4.19-2.67-8.27-4.46-12.15c-1.32,2.8-2.5,5.71-3.92,8.41
					c2.84,7.83,4.42,16.31,4.42,25.09v54.11c-4.57,5.13-9.14,5.14-13.71,0v-54.11c0-13.57,4.86-31.7,13.64-42.57
					c1.86-2.63,3.92-5.13,6.11-7.53c2.6,4.15,4.9,8.51,6.85,13.03C1151.44,158.76,1148.41,164.06,1146.21,169.77z"/>
				<path class="st1" d="M1202.42,151.47c-10.84,0-20.76,4.49-27.95,11.68c-2.6,2.63-4.86,5.57-6.65,8.81
					c-0.78-4.02-1.82-7.97-3.04-11.82c-2.06,2.63-3.82,5.13-5.06,7.06c1.99,7.63,3.07,15.67,3.07,23.9
					c0,10.43-1.69,20.43-4.83,29.78c-2.26,6.72-5.23,13.1-8.85,19.04v-48.82c0-9.01,2.26-17.52,6.28-24.98
					c2.64-4.95,6.31-9.65,9.39-12.63c9.69-9.69,23.02-15.7,37.64-15.7c6.03,0,12.03,0.38,17.97,1.08v-6.89
					c-5.96-0.68-11.96-1.05-17.97-1.05c-16.41,0-31.36,6.72-42.27,17.52c-1.99-4.29-4.29-8.41-6.85-12.36
					c13.07-11.72,30.32-18.84,49.12-18.84c4.23,0,8.45,0.17,12.65,0.48v-6.86c-4.21-0.3-8.43-0.47-12.65-0.47
					c-20.26,0-38.86,7.6-53.07,20.05c-1.86-2.46-3.85-4.86-5.91-7.16c-1.65,1.55-3.31,3.17-4.93,4.79c2.06,2.26,4.02,4.66,5.84,7.12
					c-3.31,3.41-6.28,7.12-8.95,11.07c-2.67-3.95-5.64-7.66-8.95-11.07c2.26-3.04,4.69-5.98,7.29-8.74l0.5-0.5
					c16.34-17.69,39.52-27.91,63.52-29.16v-6.83c-23.83,1.07-45.58,10.48-62.37,25.38c-16.79-14.9-38.53-24.31-62.36-25.38v6.83
					c21.86,1.08,41.84,9.7,57.36,23.27c-3.21,3.24-6.18,6.72-8.95,10.37c-14.21-12.46-32.78-20.05-53.07-20.05
					c-4.1,0-8.19,0.16-12.26,0.44v6.85c4.07-0.29,8.16-0.44,12.26-0.44c18.8,0,36.06,7.12,49.12,18.84
					c-2.53,3.95-4.83,8.07-6.85,12.36c-10.9-10.8-25.86-17.52-42.27-17.52c-6.05,0-12.08,0.38-18.07,1.07v6.89
					c5.98-0.72,12.01-1.11,18.07-1.11c14.62,0,27.95,6.01,37.64,15.7c0.57,0.57,1.15,1.18,1.72,1.79
					c-2.03,5.37-3.65,10.94-4.76,16.68c-1.79-3.24-4.05-6.18-6.65-8.81c-7.19-7.19-17.12-11.68-27.95-11.68
					c-7.53,0-15.01,0.64-22.4,1.85v6.94c7.36-1.26,14.86-1.94,22.4-1.94c8.95,0,17.15,3.71,23.13,9.69
					c5.94,5.94,9.66,14.15,9.66,23.09c0,11.14,1.82,21.88,5.2,31.94c3.51,10.43,8.64,20.12,15.16,28.73
					c4.01,4.32,8.69,7.42,13.9,7.42c5.19,0,9.84-3.01,13.88-7.42c6.48-8.61,11.61-18.3,15.13-28.73c3.38-10.06,5.2-20.8,5.2-31.94
					c0-8.95,3.71-17.15,9.69-23.09c5.94-5.98,14.15-9.69,23.09-9.69c7.45,0,14.83,0.63,22.08,1.86v-6.91
					C1217.22,152.09,1209.84,151.47,1202.42,151.47z M1118.39,157.82c-1.11,2.77-2.16,5.81-2.94,8.41
					c3.98,7.43,6.25,15.94,6.25,24.88v48.82c-3.61-5.94-6.58-12.32-8.84-19.04c-3.14-9.35-4.83-19.35-4.83-29.78
					c0-8.71,1.18-17.15,3.44-25.15c2.57-9.82,5.71-16.51,11.04-24.95c3.38,3.65,6.35,7.6,8.95,11.82c-2.9,5.3-5.2,11.01-6.85,16.95
					C1122.98,165.55,1120.89,161.53,1118.39,157.82z M1146.21,169.77c-1.15-4.19-2.67-8.27-4.46-12.15c-1.32,2.8-2.5,5.71-3.92,8.41
					c2.84,7.83,4.42,16.31,4.42,25.09v54.11c-4.57,5.13-9.14,5.14-13.71,0v-54.11c0-13.57,4.86-31.7,13.64-42.57
					c1.86-2.63,3.92-5.13,6.11-7.53c2.6,4.15,4.9,8.51,6.85,13.03C1151.44,158.76,1148.41,164.06,1146.21,169.77z"/>
			</g>
		</g>
	</g>
	<g>
		<g>
			<g>
				<path class="st0" d="M164.13,140.94c-3.79,0-7.24-0.93-10.34-2.79c-3.1-1.86-5.54-4.56-7.3-8.08
					c-1.76-3.53-2.65-7.77-2.65-12.74c0-7.38,2.04-13.13,6.12-17.25c4.08-4.12,9.59-6.17,16.51-6.17c5.1,0,9.23,1.03,12.4,3.09
					c3.17,2.06,4.75,4.66,4.75,7.79v36.16h-11.07v-36.16c-0.26-0.59-0.92-1.06-1.96-1.42c-1.05-0.36-2.42-0.54-4.12-0.54
					c-3.79,0-6.65,1.18-8.57,3.53c-1.93,2.35-2.89,6.01-2.89,10.98c0,4.7,0.95,8.33,2.84,10.88c1.89,2.55,4.64,3.82,8.23,3.82h23.13
					v8.92H164.13z M156.48,87.23c-1.63,0-3.05-0.59-4.26-1.76c-1.21-1.18-1.81-2.58-1.81-4.21c0-1.7,0.6-3.15,1.81-4.36
					c1.21-1.21,2.6-1.81,4.17-1.81c1.7,0,3.14,0.6,4.31,1.81c1.18,1.21,1.76,2.66,1.76,4.36c0,1.63-0.57,3.04-1.71,4.21
					C159.6,86.64,158.18,87.23,156.48,87.23z M171.67,87.23c-1.63,0-3.06-0.59-4.26-1.76c-1.21-1.18-1.81-2.58-1.81-4.21
					c0-1.7,0.6-3.15,1.81-4.36c1.21-1.21,2.63-1.81,4.26-1.81c1.7,0,3.12,0.6,4.26,1.81c1.14,1.21,1.72,2.66,1.72,4.36
					c0,1.63-0.57,3.04-1.72,4.21C174.79,86.64,173.37,87.23,171.67,87.23z M189.22,140.94v-8.92c0.78,0,1.31,0.39,1.57,1.18
					c0.26,0.78,0.39,1.86,0.39,3.23c0,1.37-0.13,2.47-0.39,3.28C190.52,140.53,190,140.94,189.22,140.94z"/>
				<path class="st0" d="M189.22,140.94c-0.72,0-1.23-0.41-1.52-1.23c-0.29-0.82-0.44-1.91-0.44-3.28c0-1.37,0.15-2.45,0.44-3.23
					c0.29-0.78,0.8-1.18,1.52-1.18V140.94z M189.22,140.94v-8.92h3.92c1.76,0,3.19-0.49,4.26-1.47s1.88-2.24,2.4-3.77
					c0.52-1.53,0.78-3.05,0.78-4.56V99.48c0-1.57,0.44-2.89,1.32-3.97c0.88-1.08,2.3-1.62,4.26-1.62c1.89,0,3.28,0.54,4.17,1.62
					c0.88,1.08,1.32,2.4,1.32,3.97v22.74c0,3.59-0.8,6.8-2.4,9.6c-1.6,2.81-3.77,5.03-6.52,6.66c-2.74,1.63-5.95,2.45-9.6,2.45
					H189.22z M198.62,161.22c-1.63,0-3.06-0.6-4.26-1.81c-1.21-1.21-1.81-2.63-1.81-4.26c0-1.7,0.6-3.14,1.81-4.31
					c1.21-1.18,2.6-1.76,4.17-1.76c1.7,0,3.14,0.59,4.31,1.76c1.18,1.18,1.76,2.61,1.76,4.31c0,1.63-0.57,3.05-1.72,4.26
					C201.74,160.62,200.32,161.22,198.62,161.22z M219.11,140.94c-3.59,0-6.78-0.82-9.56-2.45c-2.78-1.63-4.97-3.85-6.57-6.66
					c-1.6-2.81-2.4-6.01-2.4-9.6h11.07c0,1.5,0.26,3.02,0.78,4.56c0.52,1.54,1.35,2.79,2.5,3.77c1.14,0.98,2.53,1.47,4.17,1.47h4.41
					v8.92H219.11z M213.81,161.22c-1.63,0-3.06-0.6-4.26-1.81c-1.21-1.21-1.81-2.63-1.81-4.26c0-1.7,0.6-3.14,1.81-4.31
					c1.21-1.18,2.63-1.76,4.26-1.76c1.7,0,3.12,0.59,4.26,1.76c1.14,1.18,1.72,2.61,1.72,4.31c0,1.63-0.57,3.05-1.72,4.26
					C216.93,160.62,215.51,161.22,213.81,161.22z M223.52,140.94v-8.92c0.72,0,1.23,0.39,1.52,1.18c0.29,0.78,0.44,1.86,0.44,3.23
					c0,1.37-0.15,2.47-0.44,3.28C224.74,140.53,224.23,140.94,223.52,140.94z"/>
				<path class="st0" d="M223.52,140.94c-0.72,0-1.23-0.41-1.52-1.23c-0.29-0.82-0.44-1.91-0.44-3.28c0-1.37,0.15-2.45,0.44-3.23
					c0.29-0.78,0.8-1.18,1.52-1.18V140.94z M223.52,140.94v-8.92h8.04c1.24,0,2.33-0.33,3.28-0.98c0.95-0.65,1.75-1.5,2.4-2.55
					c0.65-1.04,1.19-2.25,1.62-3.63c0.42-1.37,0.72-2.83,0.88-4.36c0.16-1.53,0.24-3.05,0.24-4.56c0-2.61-0.24-4.96-0.73-7.06
					c-0.49-2.09-1.26-4.02-2.3-5.78c-1.05-1.76-2.48-3.4-4.31-4.9c0.13-0.52,0.46-1.13,0.98-1.81c0.52-0.69,1.26-1.27,2.2-1.76
					c0.95-0.49,2.07-0.73,3.38-0.73c2.09,0,3.9,0.65,5.44,1.96c1.53,1.31,2.76,3.04,3.67,5.19c0.91,2.16,1.6,4.54,2.06,7.15
					c0.46,2.61,0.69,5.26,0.69,7.94c0,7.71-1.71,13.77-5.15,18.18c-3.43,4.41-8.22,6.62-14.36,6.62H223.52z M239.39,87.53
					c-1.9,0-3.48-0.64-4.75-1.91c-1.27-1.27-1.91-2.76-1.91-4.46c0-1.83,0.64-3.38,1.91-4.66s2.86-1.91,4.75-1.91
					c1.7,0,3.19,0.64,4.46,1.91s1.91,2.83,1.91,4.66c0,1.7-0.64,3.18-1.91,4.46C242.58,86.89,241.09,87.53,239.39,87.53z"/>
				<path class="st0" d="M283.79,140.94c-3.79,0-7.24-0.93-10.34-2.79c-3.1-1.86-5.54-4.56-7.3-8.08
					c-1.76-3.53-2.65-7.77-2.65-12.74c0-7.38,2.04-13.13,6.12-17.25c4.08-4.12,9.59-6.17,16.51-6.17c5.1,0,9.23,1.03,12.4,3.09
					c3.17,2.06,4.75,4.66,4.75,7.79v36.16h-11.07v-36.16c-0.26-0.59-0.92-1.06-1.96-1.42c-1.05-0.36-2.42-0.54-4.12-0.54
					c-3.79,0-6.65,1.18-8.57,3.53c-1.93,2.35-2.89,6.01-2.89,10.98c0,4.7,0.95,8.33,2.84,10.88c1.89,2.55,4.64,3.82,8.23,3.82h17.54
					v8.92H283.79z M291.33,163.38c-1.31,0-2.42-0.25-3.33-0.73c-0.92-0.49-1.63-1.09-2.16-1.81c-0.52-0.72-0.85-1.31-0.98-1.76
					c1.89-1.57,3.36-3.23,4.41-5c1.04-1.76,1.8-3.74,2.25-5.93c0.46-2.19,0.69-4.59,0.69-7.2v-8.92h11.07v8.92
					c0,2.61-0.21,5.24-0.64,7.89c-0.43,2.65-1.11,5.08-2.06,7.3c-0.95,2.22-2.17,3.98-3.67,5.29
					C295.41,162.72,293.55,163.38,291.33,163.38z"/>
				<path class="st0" d="M318.48,163.38c-1.37,0-2.52-0.25-3.43-0.73c-0.92-0.49-1.63-1.09-2.16-1.81
					c-0.52-0.72-0.85-1.31-0.98-1.76c1.89-1.57,3.36-3.23,4.41-5c1.04-1.76,1.8-3.74,2.25-5.93c0.46-2.19,0.69-4.59,0.69-7.2V99.29
					c0-1.83,0.52-3.19,1.57-4.07c1.04-0.88,2.38-1.32,4.02-1.32c1.63,0,2.97,0.44,4.02,1.32c1.04,0.88,1.57,2.24,1.57,4.07v41.65
					c0,2.61-0.23,5.24-0.69,7.89c-0.46,2.65-1.16,5.08-2.11,7.3c-0.95,2.22-2.17,3.98-3.67,5.29
					C322.46,162.72,320.63,163.38,318.48,163.38z M330.43,140.94v-8.92h10.88v8.92H330.43z M341.31,140.94v-8.92
					c0.78,0,1.31,0.39,1.57,1.18c0.26,0.78,0.39,1.86,0.39,3.23c0,1.37-0.13,2.47-0.39,3.28
					C342.62,140.53,342.1,140.94,341.31,140.94z"/>
				<path class="st0" d="M341.31,140.94c-0.72,0-1.23-0.41-1.52-1.23c-0.29-0.82-0.44-1.91-0.44-3.28c0-1.37,0.15-2.45,0.44-3.23
					c0.29-0.78,0.8-1.18,1.52-1.18V140.94z M341.31,140.94v-8.92h3.92c1.76,0,3.19-0.49,4.26-1.47s1.88-2.24,2.4-3.77
					c0.52-1.53,0.78-3.05,0.78-4.56V99.48c0-1.57,0.44-2.89,1.32-3.97c0.88-1.08,2.3-1.62,4.26-1.62c1.89,0,3.28,0.54,4.17,1.62
					c0.88,1.08,1.32,2.4,1.32,3.97v22.74c0,3.59-0.8,6.8-2.4,9.6c-1.6,2.81-3.77,5.03-6.52,6.66c-2.74,1.63-5.95,2.45-9.6,2.45
					H341.31z M350.72,87.23c-1.63,0-3.06-0.59-4.26-1.76c-1.21-1.18-1.81-2.58-1.81-4.21c0-1.7,0.6-3.15,1.81-4.36
					c1.21-1.21,2.6-1.81,4.17-1.81c1.7,0,3.14,0.6,4.31,1.81c1.18,1.21,1.76,2.66,1.76,4.36c0,1.63-0.57,3.04-1.72,4.21
					C353.84,86.64,352.42,87.23,350.72,87.23z M371.2,140.94c-3.59,0-6.78-0.82-9.56-2.45c-2.78-1.63-4.97-3.85-6.57-6.66
					c-1.6-2.81-2.4-6.01-2.4-9.6h11.07c0,1.5,0.26,3.02,0.78,4.56c0.52,1.54,1.35,2.79,2.5,3.77c1.14,0.98,2.53,1.47,4.17,1.47h4.41
					v8.92H371.2z M365.91,87.23c-1.63,0-3.06-0.59-4.26-1.76c-1.21-1.18-1.81-2.58-1.81-4.21c0-1.7,0.6-3.15,1.81-4.36
					c1.21-1.21,2.63-1.81,4.26-1.81c1.7,0,3.12,0.6,4.26,1.81c1.14,1.21,1.72,2.66,1.72,4.36c0,1.63-0.57,3.04-1.72,4.21
					C369.03,86.64,367.61,87.23,365.91,87.23z M375.61,140.94v-8.92c0.72,0,1.23,0.39,1.52,1.18c0.29,0.78,0.44,1.86,0.44,3.23
					c0,1.37-0.15,2.47-0.44,3.28C376.84,140.53,376.33,140.94,375.61,140.94z"/>
				<path class="st0" d="M375.61,140.94c-0.72,0-1.23-0.41-1.52-1.23c-0.29-0.82-0.44-1.91-0.44-3.28c0-1.37,0.15-2.45,0.44-3.23
					c0.29-0.78,0.8-1.18,1.52-1.18V140.94z M375.61,140.94v-8.92h37.63c1.57,0,2.87-0.57,3.92-1.71c1.04-1.14,1.57-2.89,1.57-5.24
					s-0.52-4.12-1.57-5.29c-1.05-1.18-2.35-1.76-3.92-1.76h-15.58c-3.79,0-7.24-0.72-10.34-2.16c-3.1-1.44-5.57-3.4-7.4-5.88
					c-1.83-2.48-2.74-5.29-2.74-8.43c0-3.2,0.91-6.04,2.74-8.53c1.83-2.48,4.29-4.44,7.4-5.88c3.1-1.44,6.55-2.16,10.34-2.16h21.27
					c2.42,0,4.31-0.38,5.68-1.13c1.37-0.75,2.42-1.39,3.14-1.91c0.2,1.05,0.16,2.25-0.1,3.63c-0.26,1.37-0.75,2.7-1.47,3.97
					c-0.72,1.27-1.67,2.34-2.84,3.19c-1.18,0.85-2.65,1.27-4.41,1.27h-21.27c-2.74,0-4.98,0.72-6.71,2.16
					c-1.73,1.44-2.6,3.23-2.6,5.39s0.86,3.95,2.6,5.39c1.73,1.44,3.97,2.16,6.71,2.16h16.76c3.07,0,5.77,0.69,8.08,2.06
					c2.32,1.37,4.13,3.25,5.44,5.63c1.31,2.39,1.96,5.15,1.96,8.28c0,3.01-0.65,5.72-1.96,8.13c-1.31,2.42-3.12,4.31-5.44,5.68
					c-2.32,1.37-5.02,2.06-8.08,2.06H375.61z M437.16,140.94c-3.33,0-6.32-0.7-8.97-2.11c-2.65-1.4-4.8-3.36-6.47-5.88
					c-1.67-2.51-2.66-5.37-2.99-8.58l11.07-1.08c0.13,2.16,0.78,4.15,1.96,5.98c1.18,1.83,2.94,2.74,5.29,2.74h4.41v8.92H437.16z
					 M441.47,140.94v-8.92c0.78,0,1.31,0.39,1.57,1.18c0.26,0.78,0.39,1.86,0.39,3.23c0,1.37-0.13,2.47-0.39,3.28
					C442.77,140.53,442.25,140.94,441.47,140.94z"/>
				<path class="st0" d="M441.47,140.94c-0.72,0-1.23-0.41-1.52-1.23c-0.29-0.82-0.44-1.91-0.44-3.28c0-1.37,0.15-2.45,0.44-3.23
					c0.29-0.78,0.8-1.18,1.52-1.18V140.94z M441.47,140.94v-8.92h3.92c1.76,0,3.19-0.49,4.26-1.47s1.88-2.24,2.4-3.77
					c0.52-1.53,0.78-3.05,0.78-4.56V90.66c0-2.22-0.29-3.97-0.88-5.24c-0.59-1.27-1.26-2.24-2.01-2.89
					c-0.75-0.65-1.42-1.14-2.01-1.47c0.13-0.46,0.46-1.06,0.98-1.81c0.52-0.75,1.31-1.44,2.35-2.06c1.04-0.62,2.32-0.93,3.82-0.93
					c1.7,0,3.2,0.43,4.51,1.27c1.31,0.85,2.35,2.12,3.14,3.82c0.78,1.7,1.18,3.79,1.18,6.27v34.59c0,3.59-0.8,6.8-2.4,9.6
					c-1.6,2.81-3.77,5.03-6.52,6.66c-2.74,1.63-5.95,2.45-9.6,2.45H441.47z"/>
				<path class="st0" d="M478.71,140.94c-1.11,0-2.04-0.41-2.79-1.23c-0.75-0.82-1.13-1.91-1.13-3.28c0-1.31,0.38-2.37,1.13-3.19
					c0.75-0.82,1.72-1.23,2.89-1.23h31.46c1.7,0,3.1-0.49,4.21-1.47c1.11-0.98,1.93-2.24,2.45-3.77c0.52-1.53,0.78-3.05,0.78-4.56
					V90.66c0-2.22-0.29-3.97-0.88-5.24s-1.27-2.24-2.06-2.89c-0.78-0.65-1.44-1.14-1.96-1.47c0.13-0.46,0.46-1.06,0.98-1.81
					c0.52-0.75,1.31-1.44,2.35-2.06c1.04-0.62,2.32-0.93,3.82-0.93c1.7,0,3.2,0.43,4.51,1.27c1.31,0.85,2.35,2.12,3.14,3.82
					c0.78,1.7,1.18,3.79,1.18,6.27v34.59c0,3.59-0.8,6.8-2.4,9.6c-1.6,2.81-3.77,5.03-6.52,6.66c-2.74,1.63-5.95,2.45-9.6,2.45
					H478.71z M485.96,169.45c-0.72-0.39-1.21-0.95-1.47-1.67c-0.26-0.72-0.28-1.42-0.05-2.11c0.23-0.69,0.7-1.23,1.42-1.62
					c0.72-0.39,1.73-0.56,3.04-0.49c-0.72-0.52-1.5-1.42-2.35-2.7c-0.85-1.27-1.27-2.76-1.27-4.46c0-1.5,0.38-2.99,1.13-4.46
					c0.75-1.47,1.91-2.66,3.48-3.58c1.57-0.92,3.56-1.37,5.98-1.37c1.5,0,2.73,0.2,3.67,0.59c0.95,0.39,1.63,0.93,2.06,1.62
					c0.42,0.69,0.64,1.45,0.64,2.3c0,1.18-0.31,2.01-0.93,2.5c-0.62,0.49-1.31,0.73-2.06,0.73c-0.75,0-1.45-0.16-2.11-0.49
					c0.06-0.98-0.18-1.86-0.74-2.65c-0.56-0.78-1.36-1.21-2.4-1.27c-0.52,0.33-1.05,0.93-1.57,1.81c-0.52,0.88-0.78,2.01-0.78,3.38
					c0,1.44,0.34,2.65,1.03,3.63s1.58,1.73,2.69,2.25c1.11,0.52,2.25,0.78,3.43,0.78c0.78,0,1.49-0.08,2.11-0.25
					c0.62-0.16,1.13-0.25,1.52-0.25c0.98,0,1.62,0.38,1.91,1.13c0.29,0.75,0.31,1.52,0.05,2.3c-0.26,0.78-0.69,1.18-1.27,1.18
					c-0.78,0.06-1.86,0.16-3.23,0.29c-1.37,0.13-2.83,0.28-4.36,0.44c-1.54,0.16-3.02,0.36-4.46,0.59
					c-1.44,0.23-2.63,0.49-3.58,0.78C486.53,168.72,486.02,169.06,485.96,169.45z M490.66,132.02v-27.54c0-2.22-0.29-3.97-0.88-5.24
					c-0.59-1.27-1.26-2.24-2.01-2.89c-0.75-0.65-1.42-1.14-2.01-1.47c0.13-0.46,0.47-1.06,1.03-1.81c0.55-0.75,1.34-1.44,2.35-2.06
					c1.01-0.62,2.3-0.93,3.87-0.93c1.63,0,3.12,0.43,4.46,1.27c1.34,0.85,2.4,2.12,3.19,3.82c0.78,1.7,1.18,3.79,1.18,6.27v30.58
					H490.66z"/>
				<path class="st0" d="M550.54,140.94c-2.29,0-3.77-0.67-4.46-2.01c-0.69-1.34-1.03-2.83-1.03-4.46V90.66
					c0-2.22-0.29-3.97-0.88-5.24s-1.27-2.24-2.06-2.89c-0.78-0.65-1.44-1.14-1.96-1.47c0.13-0.46,0.46-1.06,0.98-1.81
					c0.52-0.75,1.31-1.44,2.35-2.06c1.04-0.62,2.35-0.93,3.92-0.93c1.63,0,3.1,0.43,4.41,1.27c1.31,0.85,2.35,2.12,3.14,3.82
					c0.78,1.7,1.18,3.79,1.18,6.27v46.94c0,1.57-0.36,3.02-1.08,4.36C554.33,140.27,552.83,140.94,550.54,140.94z"/>
				<path class="st0" d="M603.27,167.1c-2.03,0-3.77-0.62-5.24-1.86c-1.47-1.24-2.65-2.89-3.53-4.95c-0.88-2.06-1.54-4.35-1.96-6.86
					c-0.43-2.52-0.64-5.02-0.64-7.5c0-4.9,1.09-8.44,3.28-10.63c2.19-2.19,5.34-3.28,9.46-3.28l-2.35,2.94
					c-2.03-1.89-3.64-4.29-4.85-7.2c-1.21-2.91-1.81-6.29-1.81-10.14c0-4.18,0.65-7.74,1.96-10.68c1.31-2.94,3.04-5.39,5.19-7.35
					c2.16-1.96,4.46-3.4,6.91-4.31c2.45-0.91,4.85-1.37,7.2-1.37c1.5,0,3.15,0.2,4.95,0.59c1.8,0.39,3.54,1.01,5.24,1.86
					c1.7,0.85,3.09,1.98,4.17,3.38c1.08,1.41,1.62,3.12,1.62,5.15c0,2.09-0.57,3.66-1.71,4.7c-1.14,1.05-2.4,1.63-3.77,1.76
					c-0.85,0.13-1.81,0.13-2.89,0c-1.08-0.13-1.94-0.29-2.6-0.49c0-2.29-0.43-4.07-1.27-5.34c-0.85-1.27-1.9-2.19-3.14-2.74
					c-1.24-0.55-2.48-0.83-3.72-0.83l3.33,0.2c-1.83,0.07-3.53,0.65-5.1,1.76c-1.57,1.11-2.83,2.76-3.77,4.95
					c-0.95,2.19-1.42,4.98-1.42,8.38c0,4.64,0.95,8.27,2.84,10.88c1.89,2.61,4.64,3.92,8.23,3.92h10.98c1.24,0,2.32,0.36,3.23,1.08
					c0.91,0.72,1.37,1.83,1.37,3.33c0,1.57-0.46,2.71-1.37,3.43c-0.92,0.72-1.99,1.08-3.23,1.08h-29.99l4.9-3.33
					c-0.26,1.24-0.44,2.5-0.54,3.77s-0.15,2.53-0.15,3.77c0,2.55,0.23,4.88,0.69,7.01c0.46,2.12,1.23,4.05,2.3,5.78
					c1.08,1.73,2.53,3.38,4.36,4.95c-0.13,0.46-0.52,1.03-1.18,1.71c-0.65,0.69-1.49,1.27-2.5,1.76
					C605.73,166.86,604.57,167.1,603.27,167.1z"/>
				<path class="st0" d="M648.35,163.38c-1.37,0-2.52-0.25-3.43-0.73c-0.92-0.49-1.63-1.09-2.16-1.81
					c-0.52-0.72-0.85-1.31-0.98-1.76c1.89-1.57,3.36-3.23,4.41-5c1.04-1.76,1.8-3.74,2.25-5.93c0.46-2.19,0.69-4.59,0.69-7.2V99.29
					c0-1.83,0.52-3.19,1.57-4.07c1.04-0.88,2.38-1.32,4.02-1.32c1.63,0,2.97,0.44,4.02,1.32c1.04,0.88,1.57,2.24,1.57,4.07v41.65
					c0,2.61-0.23,5.24-0.69,7.89c-0.46,2.65-1.16,5.08-2.11,7.3c-0.95,2.22-2.17,3.98-3.67,5.29
					C652.33,162.72,650.5,163.38,648.35,163.38z"/>
				<path class="st0" d="M681.08,140.94c-2.29,0-3.77-0.67-4.46-2.01c-0.69-1.34-1.03-2.83-1.03-4.46V90.66
					c0-2.22-0.29-3.97-0.88-5.24s-1.27-2.24-2.06-2.89c-0.78-0.65-1.44-1.14-1.96-1.47c0.13-0.46,0.46-1.06,0.98-1.81
					c0.52-0.75,1.31-1.44,2.35-2.06c1.04-0.62,2.35-0.93,3.92-0.93c1.63,0,3.1,0.43,4.41,1.27c1.31,0.85,2.35,2.12,3.14,3.82
					c0.78,1.7,1.18,3.79,1.18,6.27v46.94c0,1.57-0.36,3.02-1.08,4.36C684.87,140.27,683.36,140.94,681.08,140.94z"/>
				<path class="st0" d="M700.09,163.38c-1.37,0-2.52-0.25-3.43-0.73c-0.92-0.49-1.63-1.09-2.16-1.81
					c-0.52-0.72-0.85-1.31-0.98-1.76c1.89-1.57,3.36-3.23,4.41-5c1.04-1.76,1.8-3.74,2.25-5.93c0.46-2.19,0.69-4.59,0.69-7.2V99.29
					c0-1.83,0.52-3.19,1.57-4.07c1.04-0.88,2.38-1.32,4.02-1.32c1.63,0,2.97,0.44,4.02,1.32c1.04,0.88,1.57,2.24,1.57,4.07v41.65
					c0,2.61-0.23,5.24-0.69,7.89c-0.46,2.65-1.16,5.08-2.11,7.3c-0.95,2.22-2.17,3.98-3.67,5.29
					C704.07,162.72,702.25,163.38,700.09,163.38z M706.56,87.53c-1.9,0-3.48-0.64-4.75-1.91c-1.27-1.27-1.91-2.76-1.91-4.46
					c0-1.83,0.64-3.38,1.91-4.66c1.27-1.27,2.86-1.91,4.75-1.91c1.7,0,3.19,0.64,4.46,1.91s1.91,2.83,1.91,4.66
					c0,1.7-0.64,3.18-1.91,4.46C709.74,86.89,708.26,87.53,706.56,87.53z M712.05,140.94v-8.92h10.88v8.92H712.05z M722.92,140.94
					v-8.92c0.78,0,1.31,0.39,1.57,1.18c0.26,0.78,0.39,1.86,0.39,3.23c0,1.37-0.13,2.47-0.39,3.28
					C724.23,140.53,723.71,140.94,722.92,140.94z"/>
				<path class="st0" d="M738.51,84.68c-0.65,0-1.27-0.23-1.86-0.69c-0.59-0.46-0.88-1.14-0.88-2.06c0-0.59,0.2-1.13,0.59-1.62
					c0.39-0.49,1.08-0.8,2.06-0.93l5.68-0.69c-0.72-0.52-1.37-1.31-1.96-2.35c-0.59-1.04-0.88-2.19-0.88-3.43
					c0-1.96,0.7-3.66,2.11-5.1c1.41-1.44,3.09-2.16,5.05-2.16c1.89,0,3.58,0.69,5.05,2.06c1.47,1.37,2.21,3.27,2.21,5.68
					c0,2.09-0.6,3.86-1.81,5.29c-1.21,1.44-2.74,2.6-4.61,3.48s-3.76,1.52-5.68,1.91C741.63,84.49,739.94,84.68,738.51,84.68z
					 M748.4,74.79c0.52,0,0.96-0.2,1.32-0.59c0.36-0.39,0.54-0.82,0.54-1.27c0-0.52-0.18-0.96-0.54-1.32
					c-0.36-0.36-0.8-0.54-1.32-0.54c-0.52,0-0.96,0.18-1.32,0.54c-0.36,0.36-0.54,0.8-0.54,1.32c0,0.46,0.18,0.88,0.54,1.27
					C747.44,74.59,747.88,74.79,748.4,74.79z"/>
				<path class="st0" d="M722.92,140.94c-0.72,0-1.23-0.41-1.52-1.23c-0.29-0.82-0.44-1.91-0.44-3.28c0-1.37,0.15-2.45,0.44-3.23
					c0.29-0.78,0.8-1.18,1.52-1.18V140.94z M722.92,140.94v-8.92h23.13c3.59,0,6.35-1.27,8.28-3.82c1.93-2.55,2.89-6.17,2.89-10.88
					c0-4.96-0.98-8.62-2.94-10.98c-1.96-2.35-4.84-3.53-8.62-3.53c-1.7,0-3.05,0.18-4.07,0.54c-1.01,0.36-1.68,0.83-2.01,1.42v36.16
					h-11.07v-36.16c0-3.14,1.6-5.73,4.8-7.79c3.2-2.06,7.32-3.09,12.35-3.09c6.92,0,12.43,2.06,16.51,6.17
					c4.08,4.12,6.12,9.87,6.12,17.25c0,4.97-0.88,9.21-2.65,12.74s-4.18,6.22-7.25,8.08c-3.07,1.86-6.53,2.79-10.39,2.79H722.92z"/>
				<path class="st0" d="M825.24,140.94c-3.79,0-7.24-0.93-10.34-2.79c-3.1-1.86-5.54-4.56-7.3-8.08
					c-1.76-3.53-2.65-7.77-2.65-12.74c0-7.38,2.04-13.13,6.12-17.25c4.08-4.12,9.59-6.17,16.51-6.17c5.1,0,9.23,1.03,12.4,3.09
					c3.17,2.06,4.75,4.66,4.75,7.79v36.16h-11.07v-36.16c-0.26-0.59-0.92-1.06-1.96-1.42c-1.05-0.36-2.42-0.54-4.12-0.54
					c-3.79,0-6.65,1.18-8.57,3.53c-1.93,2.35-2.89,6.01-2.89,10.98c0,4.7,0.95,8.33,2.84,10.88c1.89,2.55,4.64,3.82,8.23,3.82h23.13
					v8.92H825.24z M817.59,87.23c-1.63,0-3.05-0.59-4.26-1.76c-1.21-1.18-1.81-2.58-1.81-4.21c0-1.7,0.6-3.15,1.81-4.36
					c1.21-1.21,2.6-1.81,4.17-1.81c1.7,0,3.14,0.6,4.31,1.81c1.18,1.21,1.76,2.66,1.76,4.36c0,1.63-0.57,3.04-1.71,4.21
					C820.71,86.64,819.29,87.23,817.59,87.23z M832.78,87.23c-1.63,0-3.06-0.59-4.26-1.76c-1.21-1.18-1.81-2.58-1.81-4.21
					c0-1.7,0.6-3.15,1.81-4.36c1.21-1.21,2.63-1.81,4.26-1.81c1.7,0,3.12,0.6,4.26,1.81c1.14,1.21,1.72,2.66,1.72,4.36
					c0,1.63-0.57,3.04-1.72,4.21C835.9,86.64,834.48,87.23,832.78,87.23z M850.32,140.94v-8.92c0.78,0,1.31,0.39,1.57,1.18
					c0.26,0.78,0.39,1.86,0.39,3.23c0,1.37-0.13,2.47-0.39,3.28C851.63,140.53,851.11,140.94,850.32,140.94z"/>
				<path class="st0" d="M850.32,140.94c-0.72,0-1.23-0.41-1.52-1.23c-0.29-0.82-0.44-1.91-0.44-3.28c0-1.37,0.15-2.45,0.44-3.23
					c0.29-0.78,0.8-1.18,1.52-1.18V140.94z M850.32,140.94v-8.92h8.04c1.24,0,2.33-0.33,3.28-0.98c0.95-0.65,1.75-1.5,2.4-2.55
					c0.65-1.04,1.19-2.25,1.62-3.63c0.42-1.37,0.72-2.83,0.88-4.36c0.16-1.53,0.24-3.05,0.24-4.56c0-2.61-0.24-4.96-0.73-7.06
					c-0.49-2.09-1.26-4.02-2.3-5.78c-1.05-1.76-2.48-3.4-4.31-4.9c0.13-0.52,0.46-1.13,0.98-1.81c0.52-0.69,1.26-1.27,2.2-1.76
					c0.95-0.49,2.07-0.73,3.38-0.73c2.09,0,3.9,0.65,5.44,1.96c1.53,1.31,2.76,3.04,3.67,5.19c0.91,2.16,1.6,4.54,2.06,7.15
					c0.46,2.61,0.69,5.26,0.69,7.94c0,7.71-1.71,13.77-5.15,18.18c-3.43,4.41-8.22,6.62-14.36,6.62H850.32z M866.2,161.71
					c-1.9,0-3.48-0.64-4.75-1.91c-1.27-1.27-1.91-2.76-1.91-4.46c0-1.83,0.64-3.38,1.91-4.65s2.86-1.91,4.75-1.91
					c1.7,0,3.19,0.64,4.46,1.91s1.91,2.83,1.91,4.65c0,1.7-0.64,3.19-1.91,4.46C869.39,161.08,867.9,161.71,866.2,161.71z"/>
				<path class="st0" d="M899.52,140.94c-2.29,0-3.77-0.67-4.46-2.01c-0.69-1.34-1.03-2.83-1.03-4.46V90.66
					c0-2.22-0.29-3.97-0.88-5.24s-1.27-2.24-2.06-2.89c-0.78-0.65-1.44-1.14-1.96-1.47c0.13-0.46,0.46-1.06,0.98-1.81
					c0.52-0.75,1.31-1.44,2.35-2.06c1.04-0.62,2.35-0.93,3.92-0.93c1.63,0,3.1,0.43,4.41,1.27c1.31,0.85,2.35,2.12,3.14,3.82
					c0.78,1.7,1.18,3.79,1.18,6.27v46.94c0,1.57-0.36,3.02-1.08,4.36C903.31,140.27,901.81,140.94,899.52,140.94z"/>
				<path class="st0" d="M936.37,140.94c-3.79,0-7.24-0.93-10.34-2.79c-3.1-1.86-5.54-4.56-7.3-8.08
					c-1.76-3.53-2.65-7.77-2.65-12.74c0-7.38,2.04-13.13,6.12-17.25c4.08-4.12,9.59-6.17,16.51-6.17c5.1,0,9.23,1.03,12.4,3.09
					c3.17,2.06,4.75,4.66,4.75,7.79v36.16H944.8v-36.16c-0.26-0.59-0.92-1.06-1.96-1.42c-1.05-0.36-2.42-0.54-4.12-0.54
					c-3.79,0-6.65,1.18-8.58,3.53c-1.93,2.35-2.89,6.01-2.89,10.98c0,4.7,0.95,8.33,2.84,10.88c1.89,2.55,4.64,3.82,8.23,3.82h17.54
					v8.92H936.37z M943.91,163.38c-1.31,0-2.42-0.25-3.33-0.73c-0.92-0.49-1.63-1.09-2.16-1.81c-0.52-0.72-0.85-1.31-0.98-1.76
					c1.89-1.57,3.36-3.23,4.41-5c1.04-1.76,1.8-3.74,2.25-5.93c0.46-2.19,0.69-4.59,0.69-7.2v-8.92h11.07v8.92
					c0,2.61-0.21,5.24-0.64,7.89s-1.11,5.08-2.06,7.3c-0.95,2.22-2.17,3.98-3.67,5.29C948,162.72,946.13,163.38,943.91,163.38z
					 M955.87,140.94v-8.92h8.53v8.92H955.87z M964.4,140.94v-8.92c0.72,0,1.23,0.39,1.52,1.18c0.29,0.78,0.44,1.86,0.44,3.23
					c0,1.37-0.15,2.47-0.44,3.28C965.62,140.53,965.11,140.94,964.4,140.94z"/>
				<path class="st0" d="M964.4,140.94c-0.72,0-1.22-0.41-1.52-1.23c-0.29-0.82-0.44-1.91-0.44-3.28c0-1.37,0.15-2.45,0.44-3.23
					c0.29-0.78,0.8-1.18,1.52-1.18V140.94z M964.4,140.94v-8.92h8.04c1.24,0,2.33-0.33,3.28-0.98c0.95-0.65,1.75-1.5,2.4-2.55
					c0.65-1.04,1.19-2.25,1.62-3.63c0.42-1.37,0.72-2.83,0.88-4.36c0.16-1.53,0.25-3.05,0.25-4.56c0-2.61-0.25-4.96-0.74-7.06
					c-0.49-2.09-1.26-4.02-2.3-5.78c-1.05-1.76-2.48-3.4-4.31-4.9c0.13-0.52,0.46-1.13,0.98-1.81c0.52-0.69,1.26-1.27,2.21-1.76
					c0.95-0.49,2.07-0.73,3.38-0.73c2.09,0,3.9,0.65,5.44,1.96c1.53,1.31,2.76,3.04,3.67,5.19c0.91,2.16,1.6,4.54,2.06,7.15
					c0.46,2.61,0.69,5.26,0.69,7.94c0,7.71-1.71,13.77-5.15,18.18c-3.43,4.41-8.22,6.62-14.36,6.62H964.4z M980.27,161.71
					c-1.9,0-3.48-0.64-4.75-1.91c-1.27-1.27-1.91-2.76-1.91-4.46c0-1.83,0.64-3.38,1.91-4.65s2.86-1.91,4.75-1.91
					c1.7,0,3.18,0.64,4.46,1.91s1.91,2.83,1.91,4.65c0,1.7-0.64,3.19-1.91,4.46C983.46,161.08,981.97,161.71,980.27,161.71z"/>
			</g>
		</g>
		<g>
			<g>
				<path class="st0" d="M145.48,249.33V198.6c0-2.85-0.4-5.15-1.19-6.89c-0.79-1.74-2.61-2.61-5.46-2.61h-1.43v-2.47h39.05
					c2.22,0,3.9,0.37,5.03,1.09c1.14,0.73,1.93,1.68,2.38,2.85c0.44,1.17,0.67,2.39,0.67,3.66v7.7h-2.47c0-3.99-1.03-6.85-3.09-8.6
					c-2.06-1.74-4.99-2.61-8.79-2.61h-13.97v24.61h21.19v4.08h-21.19v29.92H145.48z"/>
				<path class="st0" d="M218.34,250.28c-2.15,0-4.13-0.27-5.94-0.81c-1.81-0.54-3.41-1.34-4.8-2.42c-1.39-1.08-2.49-2.44-3.28-4.09
					c-0.79-1.65-1.19-3.55-1.19-5.7c0-3.23,0.89-5.86,2.66-7.89c1.77-2.03,4.51-3.53,8.22-4.51c3.7-0.98,8.44-1.47,14.2-1.47h2
					c0-4.05-0.38-7.2-1.14-9.45c-0.76-2.25-1.85-3.83-3.28-4.75c-1.42-0.92-3.09-1.38-4.99-1.38c-2.34,0-4.4,0.56-6.18,1.66
					c-1.77,1.11-3.01,3.34-3.71,6.7h-4.84c0-1.65,0.11-3.26,0.33-4.85c0.22-1.58,0.9-3.01,2.04-4.27c1.14-1.27,3.05-2.14,5.75-2.61
					c2.69-0.47,5.52-0.71,8.5-0.71c2.72,0,5.21,0.35,7.46,1.04c2.25,0.7,4.18,1.81,5.79,3.33c1.61,1.52,2.86,3.56,3.75,6.13
					c0.89,2.56,1.33,5.72,1.33,9.45v25.65h-6.75l-3.32-4.27h-0.48c-0.89,1.27-2.34,2.46-4.37,3.56
					C224.1,249.72,221.51,250.28,218.34,250.28z M221.76,245.72c2.22,0,4-0.65,5.37-1.95c1.36-1.3,2.39-2.64,3.09-4.04v-12.25h-2
					c-4.62,0-8.07,0.84-10.35,2.52c-2.28,1.68-3.42,4.1-3.42,7.27c0,2.85,0.7,4.97,2.09,6.36
					C217.93,245.02,219.67,245.72,221.76,245.72z"/>
				<path class="st0" d="M267.46,249.33v-32.68c0-2.85-0.38-5.14-1.14-6.89c-0.76-1.74-2.56-2.61-5.42-2.61h-0.95v-2.47h8.65
					c2.22,0,3.94,0.3,5.18,0.9c1.23,0.6,2.17,1.57,2.8,2.9c1.14-1.01,2.72-2.06,4.75-3.13c2.03-1.08,4.43-1.62,7.22-1.62
					c1.2,0,2.36,0.14,3.47,0.43c1.11,0.28,2.04,0.71,2.8,1.28c0.95,0.63,1.68,1.41,2.19,2.33c0.51,0.92,0.89,1.57,1.14,1.95
					l-4.47,3.33c-0.63-0.89-1.55-1.66-2.75-2.33c-1.2-0.67-2.6-1-4.18-1c-1.96,0-3.69,0.35-5.18,1.05c-1.49,0.7-2.68,1.58-3.56,2.66
					c0.06,0.76,0.13,1.47,0.19,2.14c0.06,0.67,0.1,1.22,0.1,1.66v32.11H267.46z"/>
				<path class="st0" d="M319.9,249.33v-32.68c0-2.85-0.4-5.14-1.19-6.89c-0.79-1.74-2.61-2.61-5.46-2.61h-1.33v-2.47h9.12
					c2.09,0,3.8,0.3,5.13,0.9c1.33,0.6,2.31,1.54,2.95,2.8h0.38c1.14-1.08,2.74-2.12,4.8-3.14c2.06-1.01,4.51-1.52,7.36-1.52
					c2.09,0,3.94,0.27,5.56,0.81c1.62,0.54,3.01,1.27,4.18,2.19c1.17,0.92,2.04,1.89,2.61,2.9c1.46-1.71,3.31-3.12,5.56-4.23
					c2.25-1.11,5.02-1.66,8.31-1.66c3.04,0,5.7,0.56,7.98,1.66c2.28,1.11,4.05,2.91,5.32,5.42c1.27,2.5,1.9,5.91,1.9,10.21v28.31
					h-10.73v-28.31c0-4.69-0.71-7.98-2.14-9.88s-3.25-2.85-5.46-2.85c-1.84,0-3.58,0.48-5.23,1.42c-1.65,0.95-2.88,2.03-3.71,3.23
					c0.38,0.82,0.65,2.01,0.81,3.56c0.16,1.55,0.24,3.06,0.24,4.51v28.31h-10.73v-28.31c0-4.69-0.71-7.98-2.14-9.88
					c-1.42-1.9-3.25-2.85-5.46-2.85c-1.52,0-2.98,0.4-4.37,1.19c-1.39,0.79-2.56,1.7-3.51,2.71v37.15H319.9z"/>
				<path class="st0" d="M427.06,250.28c-4.43,0-8.22-1.03-11.35-3.09c-3.14-2.06-5.54-4.84-7.22-8.36
					c-1.68-3.52-2.52-7.46-2.52-11.83c0-4.75,0.85-8.87,2.57-12.35c1.71-3.48,4.08-6.18,7.12-8.08c3.04-1.9,6.52-2.85,10.45-2.85
					c4.12,0,7.68,0.79,10.69,2.38c3.01,1.58,5.33,3.86,6.98,6.84c1.65,2.98,2.47,6.49,2.47,10.54l-0.29,5.13h-28.69
					c0,5.83,1.03,10.21,3.09,13.16c2.06,2.95,4.83,4.42,8.31,4.42c3.23,0,5.87-0.71,7.93-2.14c2.06-1.42,3.91-3.31,5.56-5.65
					l2.47,1.9c-1.08,1.84-2.41,3.5-3.99,4.99c-1.58,1.49-3.48,2.69-5.7,3.61C432.72,249.82,430.1,250.28,427.06,250.28z
					 M417.27,224.53h17.67c0-5.95-0.78-10.23-2.33-12.83c-1.55-2.6-3.72-3.9-6.51-3.9c-1.58,0-3.04,0.6-4.37,1.81
					c-1.33,1.2-2.41,3.04-3.23,5.51C417.68,217.6,417.27,220.73,417.27,224.53z"/>
				<path class="st0" d="M470.57,249.33v-32.68c0-2.85-0.38-5.14-1.14-6.89c-0.76-1.74-2.56-2.61-5.42-2.61h-0.95v-2.47h8.65
					c2.22,0,3.94,0.3,5.18,0.9c1.23,0.6,2.17,1.57,2.8,2.9c1.14-1.01,2.72-2.06,4.75-3.13c2.03-1.08,4.43-1.62,7.22-1.62
					c1.2,0,2.36,0.14,3.47,0.43c1.11,0.28,2.04,0.71,2.8,1.28c0.95,0.63,1.68,1.41,2.19,2.33c0.51,0.92,0.89,1.57,1.14,1.95
					l-4.47,3.33c-0.63-0.89-1.55-1.66-2.75-2.33c-1.2-0.67-2.6-1-4.18-1c-1.96,0-3.69,0.35-5.18,1.05c-1.49,0.7-2.68,1.58-3.56,2.66
					c0.06,0.76,0.13,1.47,0.19,2.14c0.06,0.67,0.1,1.22,0.1,1.66v32.11H470.57z"/>
				<path class="st0" d="M561.67,249.33V198.6c0-2.85-0.4-5.15-1.19-6.89c-0.79-1.74-2.61-2.61-5.46-2.61h-1.43v-2.47h41.33
					c2.22,0,3.9,0.37,5.04,1.09c1.14,0.73,1.93,1.68,2.38,2.85c0.44,1.17,0.67,2.39,0.67,3.66v7.7h-2.47c0-3.93-1.03-6.78-3.09-8.55
					c-2.06-1.77-4.99-2.66-8.79-2.66H572.4v24.13h25.08v4.08H572.4v26.31h16.44c3.8,0,6.94-0.77,9.41-2.33
					c2.47-1.55,4.5-4.32,6.08-8.31l2.28,0.76l-3.04,8.07c-0.57,1.84-1.42,3.28-2.56,4.32s-2.88,1.57-5.23,1.57H561.67z"/>
				<path class="st0" d="M627.89,228.24v-8.08h25.56v8.08H627.89z"/>
				<path class="st0" d="M682.13,249.33V198.6c0-2.85-0.4-5.15-1.19-6.89c-0.79-1.74-2.61-2.61-5.46-2.61h-1.43v-2.47h25.56
					c1.71,0,3.64,0.11,5.79,0.33c2.15,0.22,4.34,0.68,6.56,1.38c2.22,0.7,4.27,1.74,6.17,3.14c1.9,1.39,3.44,3.25,4.61,5.56
					c1.17,2.31,1.76,5.21,1.76,8.69c0,3.23-0.57,5.94-1.71,8.12c-1.14,2.19-2.63,3.94-4.47,5.27c-1.84,1.33-3.75,2.34-5.75,3.04
					c-1.99,0.7-3.89,1.16-5.7,1.38c-1.81,0.22-3.28,0.33-4.42,0.33h-9.6v25.46H682.13z M692.87,220.26h6.27
					c1.52,0,3.07-0.24,4.66-0.71c1.58-0.47,3.05-1.3,4.42-2.47c1.36-1.17,2.45-2.72,3.28-4.66c0.82-1.93,1.23-4.32,1.23-7.17
					c0-2.91-0.41-5.33-1.23-7.27c-0.82-1.93-1.92-3.47-3.28-4.61c-1.36-1.14-2.8-1.95-4.32-2.42s-3.01-0.71-4.46-0.71
					c-0.89,0-1.89,0.06-2.99,0.19c-1.11,0.13-2.3,0.32-3.56,0.57V220.26z"/>
				<path class="st0" d="M765.54,250.28c-4.56,0-8.49-1.03-11.78-3.09c-3.29-2.06-5.81-4.86-7.55-8.41
					c-1.74-3.55-2.61-7.47-2.61-11.78c0-4.37,0.87-8.31,2.61-11.83c1.74-3.52,4.26-6.3,7.55-8.36c3.29-2.06,7.22-3.09,11.78-3.09
					c4.62,0,8.58,1.03,11.88,3.09c3.29,2.06,5.81,4.85,7.55,8.36c1.74,3.51,2.61,7.46,2.61,11.83c0,4.31-0.87,8.23-2.61,11.78
					c-1.74,3.55-4.26,6.35-7.55,8.41C774.12,249.25,770.16,250.28,765.54,250.28z M765.54,246.19c2.34,0,4.31-0.84,5.89-2.52
					c1.58-1.68,2.8-3.97,3.66-6.89c0.85-2.91,1.28-6.17,1.28-9.79c0-3.67-0.43-6.95-1.28-9.83c-0.85-2.88-2.08-5.16-3.66-6.84
					c-1.58-1.68-3.55-2.52-5.89-2.52c-2.22,0-4.13,0.84-5.75,2.52c-1.62,1.68-2.85,3.96-3.71,6.84c-0.85,2.88-1.28,6.16-1.28,9.83
					c0,3.61,0.43,6.87,1.28,9.79c0.85,2.91,2.09,5.21,3.71,6.89C761.41,245.35,763.32,246.19,765.54,246.19z"/>
				<path class="st0" d="M812.28,249.33v-32.68c0-2.85-0.38-5.14-1.14-6.89c-0.76-1.74-2.56-2.61-5.42-2.61h-0.95v-2.47h8.65
					c2.22,0,3.94,0.3,5.18,0.9c1.23,0.6,2.17,1.57,2.8,2.9c1.14-1.01,2.72-2.06,4.75-3.13c2.03-1.08,4.43-1.62,7.22-1.62
					c1.2,0,2.36,0.14,3.47,0.43c1.11,0.28,2.04,0.71,2.8,1.28c0.95,0.63,1.68,1.41,2.19,2.33c0.51,0.92,0.89,1.57,1.14,1.95
					l-4.47,3.33c-0.63-0.89-1.55-1.66-2.75-2.33c-1.2-0.67-2.6-1-4.18-1c-1.96,0-3.69,0.35-5.18,1.05c-1.49,0.7-2.68,1.58-3.56,2.66
					c0.06,0.76,0.13,1.47,0.19,2.14c0.06,0.67,0.1,1.22,0.1,1.66v32.11H812.28z"/>
				<path class="st0" d="M877.73,250.28c-3.93,0-7.05-1.09-9.36-3.28c-2.31-2.19-3.47-5.49-3.47-9.93v-28.31h-6.08v-4.08h6.08v-8.55
					l4.75-5.7h6.08v14.25h10.83v4.08h-10.83v28.59c0,3.29,0.48,5.59,1.43,6.89c0.95,1.3,2.34,1.95,4.18,1.95
					c1.65,0,3.07-0.24,4.28-0.71c1.2-0.47,2.22-1,3.04-1.57l1.23,2.38c-1.2,0.95-2.75,1.85-4.66,2.71
					C883.34,249.85,880.84,250.28,877.73,250.28z"/>
				<path class="st0" d="M921.44,250.28c-2.15,0-4.13-0.27-5.94-0.81c-1.81-0.54-3.41-1.34-4.8-2.42c-1.39-1.08-2.49-2.44-3.28-4.09
					c-0.79-1.65-1.19-3.55-1.19-5.7c0-3.23,0.89-5.86,2.66-7.89c1.77-2.03,4.51-3.53,8.22-4.51c3.7-0.98,8.44-1.47,14.2-1.47h2
					c0-4.05-0.38-7.2-1.14-9.45c-0.76-2.25-1.85-3.83-3.28-4.75c-1.42-0.92-3.09-1.38-4.99-1.38c-2.34,0-4.4,0.56-6.18,1.66
					c-1.77,1.11-3.01,3.34-3.71,6.7h-4.84c0-1.65,0.11-3.26,0.33-4.85c0.22-1.58,0.9-3.01,2.04-4.27c1.14-1.27,3.05-2.14,5.75-2.61
					c2.69-0.47,5.52-0.71,8.5-0.71c2.72,0,5.21,0.35,7.46,1.04c2.25,0.7,4.18,1.81,5.79,3.33c1.61,1.52,2.86,3.56,3.75,6.13
					c0.89,2.56,1.33,5.72,1.33,9.45v25.65h-6.75l-3.32-4.27h-0.48c-0.89,1.27-2.34,2.46-4.37,3.56
					C927.2,249.72,924.6,250.28,921.44,250.28z M924.86,245.72c2.22,0,4-0.65,5.37-1.95c1.36-1.3,2.39-2.64,3.09-4.04v-12.25h-2
					c-4.62,0-8.07,0.84-10.35,2.52c-2.28,1.68-3.42,4.1-3.42,7.27c0,2.85,0.7,4.97,2.09,6.36
					C921.02,245.02,922.77,245.72,924.86,245.72z"/>
				<path class="st0" d="M969.51,249.33V198.6c0-2.85-0.4-5.15-1.19-6.89c-0.79-1.74-2.61-2.61-5.46-2.61h-1.33v-2.47h10.26
					c2.22,0,3.94,0.35,5.18,1.05c1.23,0.7,2.1,1.9,2.61,3.61c0.51,1.71,0.76,4.15,0.76,7.31v50.73H969.51z"/>
			</g>
		</g>
	</g>
</g>
</svg>
